<svg xmlns="http://www.w3.org/2000/svg" viewBox="0 0 217.68 290.38"><defs><style>.cls-1{isolation:isolate;}.cls-2{fill:#e56352;}.cls-3{fill:#fefffe;}.cls-4{fill:#db5344;}.cls-5{fill:#fff2ce;}.cls-6{fill:#cb3c32;}.cls-7{fill:#17a190;}.cls-8{fill:#ff2e6a;}.cls-10,.cls-9{fill:#08817a;}.cls-9{opacity:0.3;mix-blend-mode:multiply;}.cls-11{fill:#f24a5e;}.cls-12{fill:#4b1e1c;}</style></defs><g class="cls-1"><g id="Capa_2" data-name="Capa 2"><g id="OBJECTS"><path class="cls-2" d="M15.59,115.52h0a14.41,14.41,0,0,0-7.19,1.9,15.49,15.49,0,0,0-5.06,4.79,19.55,19.55,0,0,0-2.77,6.53,21.06,21.06,0,0,0-.39,6.91,26.22,26.22,0,0,0,1.7,6.78,35.51,35.51,0,0,0,3.36,6.47,48.61,48.61,0,0,0,10,11A47.91,47.91,0,0,0,21,164c1,.6,2,1.15,3,1.63s1.91.9,3.13,1.38a55.56,55.56,0,0,0,15.69,3.62c1.58.13,3.19.2,4.77.2a55.32,55.32,0,0,0,9.13-.76,45.25,45.25,0,0,0,13.09-4.29c.13,0,.23.06.34.07h0a.78.78,0,0,0,.84-.65A118.77,118.77,0,0,1,74.31,143l0,.1a59.08,59.08,0,0,1,2.12-6.28.75.75,0,0,0,.33-1,.76.76,0,0,0-.7-.47.72.72,0,0,0-.29.06q-1.47.57-2.88,1a29.24,29.24,0,0,1-7.33,1,35.9,35.9,0,0,1-9.14-1.29l.08,0a59.08,59.08,0,0,1-13.72-6.07c-2.3-1.36-4.59-2.86-7-4.55-1-.68-1.9-1.37-2.84-2.06s-2.18-1.61-3.3-2.39c-4-2.76-8.74-5.58-14-5.6m53.92,48.83h-.05c.15-1.55.29-3,.43-4.33-.14,1.36-.26,2.79-.38,4.33"/><path class="cls-3" d="M28.26,121a3.11,3.11,0,0,1-.2.74,3.4,3.4,0,0,1-.36.68,3.47,3.47,0,0,1-.55.6,4.19,4.19,0,0,1-.59.42,4.07,4.07,0,0,1-1.55.52,6.22,6.22,0,0,1-1.43,0c-1-.13-2-.41-3-.59h.06a7.07,7.07,0,0,0-1.52-.1h0a4,4,0,0,0-.75.16,3.72,3.72,0,0,0-.57.27l0,0h0a2.55,2.55,0,0,0-.31.24l-.31.32a5.81,5.81,0,0,0-.64,1v0a4.22,4.22,0,0,0-.18.45c0,.15-.07.3-.11.45v0a4,4,0,0,0,0,1,.15.15,0,0,1,0-.07,6,6,0,0,0,.31,1.39h0a14.16,14.16,0,0,0,1.16,2.3c.44.72.9,1.42,1.29,2.17a7.37,7.37,0,0,1,.52,1.1,6.11,6.11,0,0,1,.28,1,3.49,3.49,0,0,1,0,1,2.77,2.77,0,0,1-.1.5,3.12,3.12,0,0,1-.15.39,3.2,3.2,0,0,1-.29.51,2.42,2.42,0,0,1-.36.42,2.77,2.77,0,0,1-.84.59,4.23,4.23,0,0,1-1,.25,6.54,6.54,0,0,1-1,0c-.78-.06-1.56-.21-2.34-.32a9.74,9.74,0,0,0-2.41-.15h.06a4.68,4.68,0,0,0-1.11.24l.06,0a4.25,4.25,0,0,0-.49.21l-.44.26,0,0,0,0h0s0,0,0,0h0a4.23,4.23,0,0,0-.41.33,5.08,5.08,0,0,0-.39.41h0l0,0,0,0h0a7.51,7.51,0,0,0-.93,1.54h0a8.55,8.55,0,0,0-.43,1.16,11.5,11.5,0,0,0-.26,1.13l0-.06A9.76,9.76,0,0,0,6.75,145a11.65,11.65,0,0,0,0,1.32v0a14.21,14.21,0,0,0,.33,2,17.82,17.82,0,0,0,.6,2h0a25.46,25.46,0,0,0,2.42,4.91,54.7,54.7,0,0,0,4.54,4.29c-.14-.44-.26-.89-.38-1.34a28.66,28.66,0,0,1-.68-3.44,22.37,22.37,0,0,1-.19-3,13.25,13.25,0,0,1,1.06-5.52,7.61,7.61,0,0,1,1.43-2.12,7,7,0,0,1,2.19-1.53,8,8,0,0,1,1.43-.48c.25,0,.51-.11.77-.14l.77-.11a13.83,13.83,0,0,0,2.77-.6l0,0a6.21,6.21,0,0,0,1.24-.61,3.86,3.86,0,0,0,.6-.54,3.51,3.51,0,0,0,.39-.61l0,.06a3,3,0,0,0,.21-.72,4.41,4.41,0,0,0,0-1h0a8.59,8.59,0,0,0-.45-1.88v0a17.53,17.53,0,0,0-.88-2c-.29-.6-.61-1.19-.89-1.8a12.25,12.25,0,0,1-.67-1.68,5.87,5.87,0,0,1-.19-.83,3.73,3.73,0,0,1,0-.67,2.26,2.26,0,0,1,.16-.67,1.84,1.84,0,0,1,.38-.57,3,3,0,0,1,1.44-.75,8,8,0,0,1,1.19-.18,7.5,7.5,0,0,1,1.34,0c.43,0,.86.12,1.3.18l.6.06a3.39,3.39,0,0,0,.45,0,2.31,2.31,0,0,0,.52-.12l.3-.13.23-.14,0,0a3.71,3.71,0,0,0,.48-.39l.28-.3h0c.08-.1.15-.21.22-.31l.2-.35a3.61,3.61,0,0,0,.17-.46c.05-.17.09-.33.13-.51a4.62,4.62,0,0,0,.06-.65,5,5,0,0,0,0-.55c-1-.72-2-1.44-3-2.14l-1.32-.9a4.78,4.78,0,0,1,0,.76"/><path class="cls-3" d="M25.82,136h0"/><path class="cls-3" d="M25.83,136.06h0v0"/><path class="cls-3" d="M26.28,137.91v0a0,0,0,0,0,0,0"/><path class="cls-3" d="M19.09,123.25h0"/><path class="cls-3" d="M16.45,128.58h0v0s0,0,0,.05"/><path class="cls-4" d="M15.93,144.15a7.38,7.38,0,0,0-1.43,2.12,13.35,13.35,0,0,0-1.07,5.52,22.71,22.71,0,0,0,.2,3,30.11,30.11,0,0,0,.68,3.44c.11.43.23.85.35,1.32l.54.45A48.42,48.42,0,0,0,21,164.06c1,.61,2,1.15,3,1.63s1.93.91,3.13,1.38a55.82,55.82,0,0,0,15.69,3.62c1.59.13,3.2.2,4.78.2a55.69,55.69,0,0,0,9.13-.76,44.76,44.76,0,0,0,13.09-4.3l.16,0v0l.18,0a.81.81,0,0,0,.88-.68c.23-3.17.53-6.61,1-10.16q-3.06.46-6.15.72A83.41,83.41,0,0,1,55,156a74.28,74.28,0,0,1-10.71-1.24,65.43,65.43,0,0,1-10.52-2.93c-1.71-.64-3.4-1.36-5.05-2.16s-3-1.51-4.43-2.37a51.94,51.94,0,0,1-6.45-4.58,6.71,6.71,0,0,0-1.91,1.4m53.54,20.18.1-1c0,.32-.06.63-.08,1Z"/><path class="cls-4" d="M3.3,122.19a19.66,19.66,0,0,0-2.77,6.55,21.06,21.06,0,0,0-.39,6.91,26.49,26.49,0,0,0,1.7,6.79,35.52,35.52,0,0,0,3.36,6.47,45.38,45.38,0,0,0,4.88,6.23h0l-.44-.7-.06-.12c-.37-.65-.69-1.28-1-1.93l-.13-.29-.2-.44-.31-.75-.11-.29,0-.1-.07-.19c-.24-.7-.44-1.38-.6-2l0-.25L7,147.81l0-.19,0-.21c-.06-.37-.11-.74-.15-1.13s0-.85,0-1.29a11.62,11.62,0,0,1,.13-1.44,10.62,10.62,0,0,1,.25-1.06,8.13,8.13,0,0,1,.43-1.16,7.86,7.86,0,0,1,.94-1.55l.33-.35.09-.09c.13-.12.27-.22.41-.33s.3-.19.45-.27.32-.14.49-.21a4.89,4.89,0,0,1,1.05-.2,3.7,3.7,0,0,1,.5,0,11.16,11.16,0,0,1,1.48.11,38.24,38.24,0,0,1-3-3.77,27.79,27.79,0,0,1-4-8.27,21.33,21.33,0,0,1-.78-4.49c0-.74,0-1.49,0-2.24a16.64,16.64,0,0,0-2.11,2.54"/><path class="cls-5" d="M11.32,138.33a4.89,4.89,0,0,0-1.05.2c-.17.07-.33.13-.49.21s-.3.17-.45.27a4.23,4.23,0,0,0-.41.33l-.09.09-.33.35a7.41,7.41,0,0,0-.94,1.55,8.13,8.13,0,0,0-.43,1.16,8.56,8.56,0,0,0-.24,1A9,9,0,0,0,6.75,145c0,.44,0,.88,0,1.29s.08.76.15,1.13l0,.2,0,.2.05.25.06.25a19.18,19.18,0,0,0,.59,2l.07.19,0,.1.11.29c.11.26.2.5.31.75l.2.44.13.29c.31.64.63,1.28,1,1.93l.07.12c.16.27.33.54.5.81a54.81,54.81,0,0,0,4.53,4.3c-.12-.48-.24-.92-.36-1.36a30.11,30.11,0,0,1-.68-3.44,22.71,22.71,0,0,1-.2-3,13.35,13.35,0,0,1,1.07-5.52,7.38,7.38,0,0,1,1.43-2.12,6.71,6.71,0,0,1,1.91-1.4l-1-.89a45,45,0,0,1-3.49-3.42v0a11.16,11.16,0,0,0-1.48-.11,3.7,3.7,0,0,0-.5,0"/><path class="cls-6" d="M2.69,123.15s0,0,0,0a20.31,20.31,0,0,0-2.16,5.56,21.38,21.38,0,0,0-.39,6.92,26.6,26.6,0,0,0,1.71,6.8,34.32,34.32,0,0,0,3.36,6.47,48.86,48.86,0,0,0,10,11.05,48.16,48.16,0,0,0,5.79,4.1c1.06.64,2.06,1.19,3,1.64s1.92.9,3.13,1.37a56,56,0,0,0,15.71,3.63c1.63.13,3.24.2,4.77.2a54.79,54.79,0,0,0,9.13-.76,45.23,45.23,0,0,0,13.1-4.3l.15,0,.18.06a.84.84,0,0,0,.9-.7c.17-2.4.34-4.35.53-6.14l-.58.14a57.94,57.94,0,0,1-15.15,2.3l-1.51,0a65.7,65.7,0,0,1-13.79-1.46,64.93,64.93,0,0,1-7.32-2,63.31,63.31,0,0,1-7.11-2.93A56.49,56.49,0,0,1,18.93,151a43.8,43.8,0,0,1-6.29-5.16A32,32,0,0,1,8,140.16c-.58-.95-1.13-1.92-1.61-2.89s-1-2.22-1.48-3.31S4,131.63,3.72,130.5a27.5,27.5,0,0,1-.79-3.57,18.39,18.39,0,0,1-.22-3.76l0,0"/><path class="cls-2" d="M73.82,129a.8.8,0,0,0-.68.4.81.81,0,0,0-.07.53,1.07,1.07,0,0,0-.07.15,270.88,270.88,0,0,0-10,27.84,230.53,230.53,0,0,0-6.46,28.35,216.21,216.21,0,0,0-2.69,29,227.52,227.52,0,0,0,.93,26.29,114,114,0,0,0,4,22.37,56.88,56.88,0,0,0,4.18,10.35,35.22,35.22,0,0,0,6.25,8.51,26.33,26.33,0,0,0,18.38,7.41c.48,0,1,0,1.43,0A21.19,21.19,0,0,0,99.21,287a18.22,18.22,0,0,0,4.13-3.62,18.42,18.42,0,0,0,2.78-4.61,26.45,26.45,0,0,0,1.8-6.6,50.9,50.9,0,0,0,.49-7.09c0-2.38-.09-4.71-.21-7.09-.11-2.14-.23-4.61-.29-7.09l.51,0a20.28,20.28,0,0,0,5.85-.71l.44,1.2c.22.59.43,1.19.66,1.78q.61,1.61,1.26,3.18c.92,2.25,1.88,4.42,2.87,6.44a71.65,71.65,0,0,0,7.24,12.06,50.93,50.93,0,0,0,4.58,5.28,40.73,40.73,0,0,0,5.3,4.44,33.65,33.65,0,0,0,6,3.37,30.31,30.31,0,0,0,6.88,2.11,22.78,22.78,0,0,0,3.82.34,20.71,20.71,0,0,0,2.86-.2,19.06,19.06,0,0,0,5.73-1.78,20,20,0,0,0,8.33-8,25.4,25.4,0,0,0,3.33-11.72,26.84,26.84,0,0,0-.5-6.44c-.23-1.16-.55-2.28-.91-3.51s-.8-2.63-1.27-4c-1.26-3.75-2.81-7.79-4.89-12.73,0,0,0-.09-.07-.14-1.12-2.65-2.27-5.29-3.43-7.93s-2.26-5.16-3.36-7.75h0c-2.36-5.6-4.08-10.18-5.43-14.42a90.38,90.38,0,0,1-3.54-15.39v.2q-.07-.83-.18-1.65h.41a28.56,28.56,0,0,1,5.43.63l.1,0A91.61,91.61,0,0,1,164.9,198c2.07.64,4.13,1.32,6.18,2l4,1.3c3.11,1,6.79,2.15,10.51,3.09a65.18,65.18,0,0,0,10.19,1.85c1.16.11,2.28.16,3.33.16a24.4,24.4,0,0,0,5.72-.62,15.5,15.5,0,0,0,7.27-3.83,17.92,17.92,0,0,0,4.61-8.19,25.17,25.17,0,0,0,.93-5.47,20.15,20.15,0,0,0-.38-5.08,22.38,22.38,0,0,0-4.11-8.91,35.23,35.23,0,0,0-7.49-7.21,59.28,59.28,0,0,0-9.68-5.65,87.71,87.71,0,0,0-10.56-4.14,102.45,102.45,0,0,0-10.26-2.7,83.22,83.22,0,0,0-9.69-1.44c-2.54-.22-5.12-.33-7.67-.33a90.82,90.82,0,0,0-10.79.65h-1.15a75.23,75.23,0,0,1-7.93-.44l.19,0a104.06,104.06,0,0,1-15.27-3,154.48,154.48,0,0,1-15.31-5l-.13,0h0a255.64,255.64,0,0,1-29.59-14l-3.64-2a.62.62,0,0,0-.35-.1"/><path class="cls-3" d="M196.88,162.91a3.15,3.15,0,0,1-.43,1.26,3.51,3.51,0,0,1-.4.53,3.31,3.31,0,0,1-.44.39,9.27,9.27,0,0,1-2.53,1.28,28.52,28.52,0,0,0-3,1.2l.06,0a8.13,8.13,0,0,0-.81.47,8.35,8.35,0,0,0-.88.69l0,0,0,0h0a6.22,6.22,0,0,0-.82.95h0a4.94,4.94,0,0,0-.47,1,5.4,5.4,0,0,0-.18,1v0h0a6.38,6.38,0,0,0,.13,1.51s0-.05,0-.07a1,1,0,0,0,0,.17,30.3,30.3,0,0,0,1.59,4.15,11.27,11.27,0,0,1,.64,2,5.73,5.73,0,0,1,.14,1,4.4,4.4,0,0,1-.07.89,3.64,3.64,0,0,1-.84,1.73,6.5,6.5,0,0,1-2,1.49,9.53,9.53,0,0,1-1.25.49c-.35.1-.7.18-1.06.25-.69.12-1.38.19-2.06.33h0a4.7,4.7,0,0,0-1.11.38l0,0a3.15,3.15,0,0,0-.65.45h0l0,0,0,0a4.38,4.38,0,0,0-.52.62,7.31,7.31,0,0,0-.63,1.36l0-.06a13.23,13.23,0,0,0-.64,3.36,15,15,0,0,0,0,2.12,18.51,18.51,0,0,0,.32,2.11h0a21.37,21.37,0,0,0,.86,2.93,25.84,25.84,0,0,0,1.17,2.64l0-.06a25.59,25.59,0,0,0,1.3,2.21c1,.29,2.07.57,3.12.83,1.92.49,3.68.88,5.34,1.18l-.28-.3a20,20,0,0,1-1.82-2.48A19.72,19.72,0,0,1,187.4,200a15.1,15.1,0,0,1-.89-2.94,11,11,0,0,1-.19-2.92,8.07,8.07,0,0,1,.23-1.46,6.64,6.64,0,0,1,.43-1.23,7.15,7.15,0,0,1,.71-1.23,8,8,0,0,1,.95-1.06,7.91,7.91,0,0,1,.63-.52,5.46,5.46,0,0,1,.7-.43,8.1,8.1,0,0,1,1.36-.56c.5-.15,1-.27,1.53-.42a9.1,9.1,0,0,0,1.35-.5l-.06,0c.18-.1.36-.2.53-.31a5.63,5.63,0,0,0,.46-.36h0l0,0,0,0a4.27,4.27,0,0,0,.36-.38c.11-.14.22-.29.32-.44a6.89,6.89,0,0,0,.71-1.44,4.8,4.8,0,0,0,.15-.63,3.93,3.93,0,0,0,.06-.48v0h0v0a2.72,2.72,0,0,0,0-.57,5.77,5.77,0,0,0-.09-.6.64.64,0,0,1,0,.07,9.22,9.22,0,0,0-.4-1.26c-.17-.42-.35-.83-.53-1.25a8.53,8.53,0,0,1-.7-2.72,7.26,7.26,0,0,1,.18-2.13,6.74,6.74,0,0,1,.3-.86,5.18,5.18,0,0,1,.42-.76,8.46,8.46,0,0,1,2.42-2.27,24.22,24.22,0,0,0,2.81-2,6.65,6.65,0,0,0,1.1-1.27l0,0a5.9,5.9,0,0,0,.62-1.29c.05-.19.1-.38.14-.57a62.61,62.61,0,0,0-6.09-3.38,4.09,4.09,0,0,1,0,1"/><path class="cls-3" d="M187,171.57v0Z"/><path class="cls-3" d="M195.86,185.23v0"/><polyline class="cls-3" points="195.15 186.08 195.15 186.08 195.15 186.07 195.15 186.08"/><polygon class="cls-3" points="188.45 168.72 188.46 168.72 188.46 168.71 188.45 168.72"/><path class="cls-3" d="M167.18,247.08h0a5.72,5.72,0,0,0-.87,1l0,0a10.42,10.42,0,0,0-1.08,2.38h0s0,0,0,0h0c-.22.69-.42,1.39-.63,2.09a16.87,16.87,0,0,1-.72,1.95,7.56,7.56,0,0,1-1.07,1.71,5.42,5.42,0,0,1-1.64,1.29,5.05,5.05,0,0,1-1.14.43,4.69,4.69,0,0,1-1,.12A4.75,4.75,0,0,1,158,258a8.12,8.12,0,0,1-1-.25,20.22,20.22,0,0,1-2-.81,22,22,0,0,0-2.07-.86h0a7.48,7.48,0,0,0-1.75-.37h0a5.3,5.3,0,0,0-.69,0l-.63.09h0c-.21.06-.42.11-.62.18a7.22,7.22,0,0,0-.69.31,7.82,7.82,0,0,0-1.47,1h0l0,0a8.32,8.32,0,0,0-1.12,1.32h0a10.25,10.25,0,0,0-1,2.23v0c-.2.63-.37,1.26-.53,1.9s-.31,1.19-.5,1.78a7.52,7.52,0,0,1-.72,1.55,3.89,3.89,0,0,1-1,1.1,4.2,4.2,0,0,1-1.67.67,8,8,0,0,1-2.35.07,10.21,10.21,0,0,1-1.55-.25c-.45-.11-.9-.24-1.34-.39s-.79-.26-1.19-.36a6.12,6.12,0,0,0-1-.18h0a2.46,2.46,0,0,0-.47,0,3,3,0,0,0-.52.07h0a3.68,3.68,0,0,0-.54.16,6.17,6.17,0,0,0-.65.29l.06,0a10.39,10.39,0,0,0-2,1.39h0l0,0a10.11,10.11,0,0,0-.79.81q-.34.43-.66.9s0,0,0,0,0,0,0,0h0c-.22.35-.42.7-.6,1.06s-.32.75-.45,1.14v0c-.13.41-.25.82-.34,1.23l.78,1.06a53.29,53.29,0,0,0,3.75,4.43c.07-.22.14-.43.22-.65a7.79,7.79,0,0,1,.59-1.28,5.62,5.62,0,0,1,.62-.91,5.1,5.1,0,0,1,.77-.77,4.91,4.91,0,0,1,.81-.53,6.38,6.38,0,0,1,1.89-.63,13.61,13.61,0,0,1,2.21-.16c.82,0,1.63,0,2.45.08s1.75.08,2.62.07c.48,0,1,0,1.43,0,.23,0,.47,0,.7-.06s.45-.07.68-.12a6.09,6.09,0,0,0,1.36-.47,6.66,6.66,0,0,0,.93-.64h0a6.33,6.33,0,0,0,.95-1.12h0v0a22.64,22.64,0,0,0,1.63-3.62,16.73,16.73,0,0,1,.88-1.87,8,8,0,0,1,1.14-1.58,6.38,6.38,0,0,1,.82-.73,6.84,6.84,0,0,1,.92-.59,5.89,5.89,0,0,1,2.72-.71,8,8,0,0,1,1.46.12c.45.07.91.17,1.36.28a17.94,17.94,0,0,0,2.71.5,5.23,5.23,0,0,0,.79,0c.22,0,.43-.05.65-.09a5.56,5.56,0,0,0,.7-.19,6.58,6.58,0,0,0,.66-.29l0,0c.25-.14.49-.28.73-.44a6.87,6.87,0,0,0,.62-.48l0,0,0,0h0a5.76,5.76,0,0,0,.6-.61c.18-.22.35-.45.51-.68h0l0,0h0a11.76,11.76,0,0,0,1.28-2.79h0v0c.49-1.51.83-3,1.28-4.56.06-.21.13-.41.19-.61-.71-2-1.52-4.19-2.45-6.51a5.45,5.45,0,0,0-.74.55m-17.29,8.7h0m-5,5.09v0m-17.54,9.5h0Zm-1.06,2.21s0,0,0,0,0,0,0,0"/><path class="cls-3" d="M149.86,255.78Z"/><path class="cls-3" d="M145.93,258.62s0,0,0,0,0,0,0,0"/><path class="cls-3" d="M167.6,261h0l0,0h0"/><polygon class="cls-3" points="166.48 262.32 166.48 262.33 166.49 262.32 166.48 262.32"/><polyline class="cls-3" points="131.97 266.82 131.97 266.82 131.97 266.82 131.97 266.82"/><path class="cls-3" d="M132,266.82h0"/><polyline class="cls-3" points="131.95 266.82 131.94 266.82 131.95 266.82 131.95 266.82"/><polyline class="cls-3" points="131.94 266.82 131.94 266.82 131.94 266.82"/><polyline class="cls-3" points="131.93 266.82 131.94 266.82 131.93 266.82"/><path class="cls-3" d="M147.77,273.15h0a0,0,0,0,0,0,0h0"/><path class="cls-3" d="M145.45,274.28h0"/><path class="cls-3" d="M145.92,258.64h0v0"/><polyline class="cls-3" points="128.82 268.64 128.83 268.63 128.83 268.63 128.82 268.64"/><path class="cls-3" d="M87.56,258.09a5.69,5.69,0,0,0-1,.09h0a6,6,0,0,0-.65.2c-.24.09-.47.2-.7.31l0,0a8.71,8.71,0,0,0-1,.62,12.56,12.56,0,0,0-1.06.87,16.67,16.67,0,0,0-1.58,1.67c-.4.51-.78,1-1.14,1.58l0,0c-.33.51-.64,1-1,1.54s-.5.81-.79,1.19a4.7,4.7,0,0,1-.86.92,2.42,2.42,0,0,1-1,.47,2.74,2.74,0,0,1-1.24,0,6.51,6.51,0,0,1-1.5-.62,16.23,16.23,0,0,1-1.91-1.27l-.59-.45c-.18-.14-.36-.3-.55-.44s-.63-.47-1-.69l.05,0a12.09,12.09,0,0,0-1.29-.76,10.77,10.77,0,0,0-1.22-.5h0a8.85,8.85,0,0,0-1-.27,9.25,9.25,0,0,0-.92-.12h0a7.06,7.06,0,0,0-1.59.12h0a7,7,0,0,0-1.41.51h0a7.92,7.92,0,0,0-1.31.92,8.62,8.62,0,0,0-1.4,1.67l0,0q-.29.45-.54.93a56.75,56.75,0,0,0,2.91,6.93,8.22,8.22,0,0,1,.57-.61,8.1,8.1,0,0,1,.85-.7,5.6,5.6,0,0,1,3.08-1,5.1,5.1,0,0,1,1.17.11,4.24,4.24,0,0,1,1,.32,5.7,5.7,0,0,1,.81.5,13.51,13.51,0,0,1,1.45,1.38c.24.25.49.5.74.73a8.77,8.77,0,0,0,.75.58,7.59,7.59,0,0,0,1.71.79l-.07,0a6.74,6.74,0,0,0,1.59.34,4.58,4.58,0,0,0,1.11-.09h0a4.7,4.7,0,0,0,.91-.33h0a5.73,5.73,0,0,0,1.1-.8,13.73,13.73,0,0,0,1.47-1.66c.48-.6,1-1.22,1.45-1.81a11.56,11.56,0,0,1,1.65-1.63,7.24,7.24,0,0,1,2.1-1.17,8.66,8.66,0,0,1,1.74-.42,5,5,0,0,1,1.34,0,4.62,4.62,0,0,1,1.16.31,5.83,5.83,0,0,1,1,.55,14.72,14.72,0,0,1,1.91,1.6c.33.3.66.6,1,.88a12.07,12.07,0,0,0,1.1.82,8.34,8.34,0,0,0,.92.52c.32.14.65.28,1,.39h0a8.52,8.52,0,0,0,1.23.31,10.57,10.57,0,0,0,1.13.14,9.59,9.59,0,0,0,1.42,0,11.15,11.15,0,0,0,1.41-.21h0a11.65,11.65,0,0,0,1.5-.44,15.07,15.07,0,0,0,1.48-.65l-.06,0a12,12,0,0,0,1.38-.83,14,14,0,0,0,1.22-1h0l0,0a0,0,0,0,1,0,0h0l.41-.39c.14-1.5.21-3.1.22-4.86,0-1,0-2,0-3l-.76.52c-.86.61-1.71,1.25-2.59,1.84-.4.26-.82.53-1.24.76a12.06,12.06,0,0,1-1.21.57,6.73,6.73,0,0,1-1.24.35,5,5,0,0,1-.66.08H100a6.65,6.65,0,0,1-2.93-.94,11.89,11.89,0,0,1-1.56-1.06c-.48-.39-1-.81-1.4-1.24-.73-.72-1.43-1.47-2.17-2.18a15.17,15.17,0,0,0-2.12-1.8,6.49,6.49,0,0,0-1.27-.62,4.59,4.59,0,0,0-1-.19h0m20.24,12.19h0l0,0M95.13,272h0"/><polyline class="cls-3" points="107.8 270.28 107.81 270.28 107.8 270.28"/><path class="cls-5" d="M167.91,246.51h0a5.15,5.15,0,0,0-1.58,1.57,10.47,10.47,0,0,0-1.05,2.33c-.15.44-.27.83-.38,1.23s-.18.6-.28.9a14.26,14.26,0,0,1-.71,1.95,6.7,6.7,0,0,1-1.07,1.71,5.51,5.51,0,0,1-1.64,1.29,4.32,4.32,0,0,1-1.14.42,3.83,3.83,0,0,1-1,.13A5.48,5.48,0,0,1,158,258a7,7,0,0,1-1-.25,16.09,16.09,0,0,1-1.69-.68l-.24-.11c-.42-.19-.91-.41-1.41-.61.93,2.18,1.81,4.39,2.61,6.62l.52,0a8.46,8.46,0,0,1,1.46.12c.45.08.91.17,1.37.28l.34.08a15.33,15.33,0,0,0,2.36.42h.79l.64-.09a5.9,5.9,0,0,0,.72-.2c.22-.09.44-.18.66-.29s.44-.25.67-.41a5.7,5.7,0,0,0,.62-.48,6,6,0,0,0,.61-.63,6.7,6.7,0,0,0,.51-.68,12.06,12.06,0,0,0,1.32-2.84c.3-.9.55-1.86.75-2.63s.34-1.28.53-1.91c.05-.19.11-.38.16-.56l0,0h0s0,0,0,0c-.68-2-1.48-4.1-2.45-6.53h0Z"/><path class="cls-5" d="M93,265.85c-.12,1.35-.25,2.7-.44,4l.41.38.09.08c.33.3.66.6,1,.89a13.57,13.57,0,0,0,1.1.82,8,8,0,0,0,.92.51,10.58,10.58,0,0,0,1,.4,7.89,7.89,0,0,0,1.21.3,8.72,8.72,0,0,0,1.13.14l.6,0c.28,0,.56,0,.83,0,.47-.05.93-.12,1.41-.21a11.68,11.68,0,0,0,1.5-.45,14.09,14.09,0,0,0,1.48-.64,15.27,15.27,0,0,0,1.32-.81,11.06,11.06,0,0,0,1.22-1l.16-.16.15-.11.14-.14c.14-1.49.22-3.08.23-4.87,0-1,0-2,0-3l0,0v0a6.07,6.07,0,0,0-.73.47l-.89.63c-.56.41-1.13.81-1.7,1.2-.41.26-.82.53-1.25.76a9.56,9.56,0,0,1-1.2.57,6.18,6.18,0,0,1-1.24.35,4.91,4.91,0,0,1-.67.08l-.33,0-.34,0a6.7,6.7,0,0,1-2.93-.93,13.89,13.89,0,0,1-1.56-1.07c-.45-.37-.91-.77-1.4-1.24l-.87-.87c-.06,1.28-.14,2.56-.25,3.84"/><path class="cls-5" d="M179.42,188.31a13.23,13.23,0,0,0-.61,3.3c0,.27,0,.53,0,.8q0,.66.06,1.32a20.21,20.21,0,0,0,.31,2.11l.08.39c.22.89.49,1.74.77,2.54s.65,1.57,1,2.32l.16.32c.27.51.55,1,.85,1.5l.08.11.06.1a1.77,1.77,0,0,1,.19.33l.08.12q1.55.44,3.12.84c2,.51,3.77.9,5.34,1.19l0,0h0l-.06-.09-.18-.2a19,19,0,0,1-1.82-2.48A19.24,19.24,0,0,1,187.4,200a14.7,14.7,0,0,1-.89-2.94,11,11,0,0,1-.19-2.91,7.81,7.81,0,0,1,.23-1.47,6.72,6.72,0,0,1,.43-1.23,7.14,7.14,0,0,1,.69-1.2l-1.24-.32c-1.55-.41-3.09-.85-4.63-1.31l-2.24-.68c-.05.11-.09.23-.14.37"/><path class="cls-4" d="M136.6,181.7h0a15.72,15.72,0,0,0-1.66.47c0,.27-.06.53-.08.8s0,.68-.07,1c0,.68-.07,1.37-.1,2,0,1.29-.06,2.58-.05,3.87q0,3.87.39,7.73s0,0,0-.07a114.34,114.34,0,0,0,3.06,17.62,165.49,165.49,0,0,0,5.39,17.15.64.64,0,0,1,0-.07c.95,2.55,1.95,5.09,3,7.6.91,2.19,1.84,4.36,2.81,6.52,1.16,2.59,2.37,5.17,3.51,7.77.31.72.63,1.43.93,2.16.5.2,1,.42,1.4.61l.24.11a16.27,16.27,0,0,0,1.7.68,6.58,6.58,0,0,0,1,.25,5.48,5.48,0,0,0,1,.09,3.83,3.83,0,0,0,1-.13,4.32,4.32,0,0,0,1.14-.42,5.68,5.68,0,0,0,1.64-1.29,6.88,6.88,0,0,0,1.07-1.71,15.78,15.78,0,0,0,.72-1.95l.27-.9c.11-.4.23-.8.38-1.24a10.61,10.61,0,0,1,1-2.32,5.8,5.8,0,0,1,.86-1,6.76,6.76,0,0,1,.72-.54c-.57-1.46-1.19-3-1.86-4.58a.88.88,0,0,0-.07-.14c-1.07-2.56-2.19-5.1-3.3-7.64l-.13-.29c-1.13-2.58-2.26-5.16-3.36-7.75-2.35-5.59-4.08-10.17-5.43-14.42a91.77,91.77,0,0,1-3.54-15.38l0,.2a13.12,13.12,0,0,0-.14-1.65l.39,0a27.53,27.53,0,0,1,5.43.64c3.25.67,6.37,1.62,9,2.45,1.57.49,3.12,1,4.68,1.51l.77.26.73.23,4,1.31c2.14.68,4.69,1.49,7.34,2.24a2.19,2.19,0,0,0-.24-.43l-.06-.1-.08-.11c-.29-.49-.58-1-.85-1.5l-.16-.33a24.23,24.23,0,0,1-1-2.32,25,25,0,0,1-.77-2.53l-.09-.39a20,20,0,0,1-.31-2.12c0-.43-.06-.88-.06-1.32,0-.26,0-.52,0-.79a13.87,13.87,0,0,1,.61-3.31c.05-.13.1-.25.14-.37l-.44-.13h0l-.07,0-1.46-.46h-.06a137,137,0,0,0-17.76-4.25c-1.5-.25-3-.48-4.52-.68-1.35-.17-2.7-.32-4.06-.48-2.53-.29-5.06-.58-7.61-.68h.06c-.51,0-1,0-1.55,0a25.74,25.74,0,0,0-5.47.52m0,0h0"/><path class="cls-4" d="M93.37,248.4c0,2.9.06,5.81,0,8.71,0,1.63-.06,3.26-.14,4.89l.88.88c.49.47,1,.87,1.4,1.24a12.6,12.6,0,0,0,1.56,1.06,6.59,6.59,0,0,0,2.93.94h.67a4.91,4.91,0,0,0,.67-.08,6.92,6.92,0,0,0,1.24-.35,9.56,9.56,0,0,0,1.2-.57c.43-.23.84-.5,1.25-.76.58-.39,1.14-.79,1.7-1.2l.89-.64a7.54,7.54,0,0,1,.73-.46c0-1.37-.07-2.68-.15-4.13-.1-2-.21-4.23-.27-6.49-.38,0-.76-.07-1.13-.12a41.44,41.44,0,0,1-4.54-.91l-1.34-.35c-1.25-.19-2.48-.41-3.72-.69l-.92-.22c-.9-.17-1.8-.35-2.7-.56a.27.27,0,0,1-.2-.28l-.06,0a.2.2,0,0,1,0,.11"/><path class="cls-4" d="M92,272.76a26.53,26.53,0,0,1-1.93,5.4,22.29,22.29,0,0,1-1.52,2.64,19.5,19.5,0,0,1-1.8,2.25,14.29,14.29,0,0,1-4.53,3.25,13.23,13.23,0,0,1-2.67.87,13.83,13.83,0,0,1-2.94.29c-.31,0-.62,0-.93,0a26.78,26.78,0,0,0,11.89,2.79c.47,0,1,0,1.42,0A21.15,21.15,0,0,0,99.22,287a18.22,18.22,0,0,0,4.13-3.62,18.51,18.51,0,0,0,2.79-4.62,26.26,26.26,0,0,0,1.8-6.6c.11-.71.19-1.43.26-2.19l-.26.21-.17.17a14,14,0,0,1-1.22,1,12.27,12.27,0,0,1-2.79,1.45,11.85,11.85,0,0,1-1.51.45c-.47.09-.94.16-1.4.21a7.87,7.87,0,0,1-.84,0l-.59,0a10.56,10.56,0,0,1-1.13-.13,8.19,8.19,0,0,1-1.22-.32,9.08,9.08,0,0,1-1-.39,8,8,0,0,1-.92-.51,13.57,13.57,0,0,1-1.1-.82c-.34-.29-.67-.59-1-.89l-.1-.09-.41-.38c-.15,1-.33,1.93-.56,2.88"/><path class="cls-4" d="M170.36,253.09c-.07.18-.12.37-.18.56-.18.63-.35,1.27-.52,1.91s-.46,1.73-.76,2.63a11.85,11.85,0,0,1-1.31,2.84c-.16.24-.33.46-.51.68a6,6,0,0,1-.61.63,5.7,5.7,0,0,1-.62.48,5.33,5.33,0,0,1-.68.41,6.54,6.54,0,0,1-.66.28,5.64,5.64,0,0,1-.7.21c-.22,0-.43.07-.65.09h-.79a15.9,15.9,0,0,1-2.37-.42l-.33-.08c-.46-.11-.92-.2-1.37-.28a8.54,8.54,0,0,0-1.46-.12l-.52,0c.12.33.24.65.35,1,.6,1.7,1.14,3.41,1.61,5.15a48.14,48.14,0,0,1,1.1,5,29.4,29.4,0,0,1,.4,4.69,17.45,17.45,0,0,1-.49,4.19,10.42,10.42,0,0,1-1.57,3.48,8.7,8.7,0,0,1-1.23,1.41,9.3,9.3,0,0,1-1.58,1.16,11.5,11.5,0,0,1-3.2,1.27c.55.05,1.1.07,1.64.07a21.19,21.19,0,0,0,2.87-.2A18.88,18.88,0,0,0,162,288.4a20,20,0,0,0,8.33-8,25.37,25.37,0,0,0,3.35-11.73,28.47,28.47,0,0,0-.5-6.44c-.25-1.23-.59-2.41-.92-3.52-.4-1.35-.81-2.66-1.27-4l-.55-1.59,0,0v0"/><path class="cls-4" d="M217.3,187.22a13.2,13.2,0,0,1-2.56,2.28,15.72,15.72,0,0,1-3.87,1.87,22.35,22.35,0,0,1-4.44.94,33,33,0,0,1-4.87.16,47.38,47.38,0,0,1-5-.44,80.12,80.12,0,0,1-8.85-1.78,7.14,7.14,0,0,0-.69,1.2,6.72,6.72,0,0,0-.43,1.23,7.83,7.83,0,0,0-.23,1.46,11,11,0,0,0,.19,2.92,16.14,16.14,0,0,0,.89,2.94,19.24,19.24,0,0,0,1.41,2.79,18.87,18.87,0,0,0,1.82,2.47l.18.21.06.09c1.72.32,3.32.55,4.9.69,1.16.11,2.28.16,3.32.16a24.49,24.49,0,0,0,5.73-.62,15.57,15.57,0,0,0,7.29-3.83,17.93,17.93,0,0,0,4.61-8.2,25.6,25.6,0,0,0,.94-5.48c0-.51,0-1,0-1.52l-.38.46"/><path class="cls-6" d="M146.3,186.91h.06a19.13,19.13,0,0,0-2.51.18,15.62,15.62,0,0,0-2.24.46l.06,0c-.48.14-.95.31-1.41.49h0c.67,4.46,1.34,8.92,2.13,13.37.86,4.9,1.88,9.78,3.2,14.58.45,1.66.94,3.32,1.47,5s1.08,3.28,1.66,4.9c1.15,3.24,2.38,6.44,3.67,9.63s2.65,6.33,4,9.47q1.05,2.35,2.11,4.7c.59,1.3,1.17,2.6,1.78,3.89h0l0,0h0c1.06,2.23,2.15,4.43,3.17,6.68a66.75,66.75,0,0,1,2.91,7.32,39.93,39.93,0,0,1,1,3.9,26.47,26.47,0,0,1,.5,3.77,16.55,16.55,0,0,1-1.12,7.17,12.41,12.41,0,0,1-2,3.28,14.3,14.3,0,0,1-2.89,2.6l-.56.37.54-.26a20,20,0,0,0,8.33-8,25.5,25.5,0,0,0,3.35-11.74,28.53,28.53,0,0,0-.51-6.44c-.24-1.23-.58-2.41-.91-3.52-.4-1.34-.81-2.66-1.27-4-1.27-3.77-2.83-7.82-4.9-12.73a.89.89,0,0,0-.06-.15c-1.08-2.55-2.19-5.09-3.31-7.64l-.12-.28c-1.13-2.58-2.26-5.16-3.36-7.75-2.36-5.59-4.08-10.18-5.43-14.43a89.63,89.63,0,0,1-3.54-15.38l0,.2a15.3,15.3,0,0,0-.14-1.65l.39,0a27.62,27.62,0,0,1,5.43.64c3.25.67,6.36,1.62,9,2.45,1.56.49,3.11,1,4.67,1.51l.78.25.73.24,4,1.31c3.29,1.05,6.84,2.16,10.51,3.08a63.43,63.43,0,0,0,10.19,1.86c1.17.11,2.29.16,3.34.16a24.4,24.4,0,0,0,5.72-.62A15.49,15.49,0,0,0,212.1,202a17.94,17.94,0,0,0,4.62-8.2c.12-.45.24-.9.34-1.34a15.81,15.81,0,0,1-3.72,3.44,21.59,21.59,0,0,1-4.77,2.35,26.28,26.28,0,0,1-5.4,1.24,28.65,28.65,0,0,1-5.63.14c-.94-.08-1.87-.19-2.8-.36-.63-.12-1.27-.25-1.9-.4s-1.35-.32-2-.49c-3-.77-5.84-1.7-8.71-2.7-5.75-2-11.44-4.18-17.34-5.68h0c-.87-.22-1.75-.43-2.63-.61l-2.11-.44c-1.48-.32-3-.65-4.46-.95a46.24,46.24,0,0,0-8.92-1.06h-.38"/><polyline class="cls-6" points="160.31 253.53 160.31 253.52 160.31 253.53"/><polyline class="cls-6" points="160.31 253.53 160.31 253.53 160.31 253.53"/><polyline class="cls-6" points="160.33 253.57 160.33 253.56 160.33 253.57"/><path class="cls-6" d="M99.43,254c.24,1.53.41,3.08.5,4.63.07,1.17.1,2.33.11,3.5,0,2-.07,3.93-.24,5.89a49.1,49.1,0,0,1-.85,5.78,32.51,32.51,0,0,1-1.66,5.44,22.26,22.26,0,0,1-2.57,4.72,17.7,17.7,0,0,1-1.67,2,17,17,0,0,1-2,1.72,16.64,16.64,0,0,1-4.9,2.48l-.17.05c.52,0,1,0,1.57,0s1,0,1.42,0A21.15,21.15,0,0,0,99.22,287a18.27,18.27,0,0,0,4.14-3.62,18.6,18.6,0,0,0,2.78-4.62,26.26,26.26,0,0,0,1.8-6.6,51.39,51.39,0,0,0,.49-7.1c0-2.31-.07-4.49-.2-7.09s-.25-4.84-.3-7.08h.25l0,0c-3.23-.21-6.43-.83-9.63-1.31a44.25,44.25,0,0,1,.92,4.44"/><path class="cls-7" d="M89.08,130.11a72.6,72.6,0,0,0-9.42.59,44,44,0,0,0-7.16,1.52A26.06,26.06,0,0,0,66.3,135a1.57,1.57,0,0,0-.21.17,23.74,23.74,0,0,0-5.15,3.68c-3.74,3.52-5.82,8-5.7,12.15a14.56,14.56,0,0,0,1.51,6,14.35,14.35,0,0,0,1.56,2.45,16,16,0,0,0,2,2.08,19.38,19.38,0,0,0,4.91,3.05,26,26,0,0,0,5.72,1.71,29.1,29.1,0,0,0,5.24.46h.63c1,0,2-.1,2.9-.21a29,29,0,0,0,3.27-.61,35.73,35.73,0,0,0,7.51-2.71,38.5,38.5,0,0,0,6.7-4.22c.77-.6,1.55-1.25,2.33-2a50.7,50.7,0,0,0,8.2,11,42.78,42.78,0,0,0,11.68,8.37,45.09,45.09,0,0,0,7,2.71,25.23,25.23,0,0,0,5.84,1l1.23,0a27.66,27.66,0,0,0,4.75-.42A26,26,0,0,0,144,178a18.23,18.23,0,0,0,8.76-7.54,15.2,15.2,0,0,0,1.89-6,17.08,17.08,0,0,0-1.1-7.52c-.22-.59-.47-1.2-.75-1.8a.66.66,0,0,0-.09-.19,30.09,30.09,0,0,0-3.72-5.81,34.3,34.3,0,0,0-6.32-6.07.71.71,0,0,0-.4-.13.81.81,0,0,0-.66.35.79.79,0,0,0,.22,1.06c.65.46,1.27,1,1.88,1.49.76.67,1.51,1.38,2.22,2.13a69.63,69.63,0,0,0-5.82-4.31c-1-.69-2.22-1.49-3.43-2.23s-2.21-1.3-3.53-2a64.46,64.46,0,0,0-7.61-3.25,98.24,98.24,0,0,0-16.24-4.13c-2.5-.44-5.15-.83-8.1-1.19-2.53-.3-4.78-.51-6.87-.63-1.84-.11-3.61-.16-5.28-.16"/><path class="cls-8" d="M58.85,151a1.75,1.75,0,1,0,1.75-1.75A1.77,1.77,0,0,0,58.85,151"/><path class="cls-8" d="M64.08,158.91a1.75,1.75,0,1,0,1.75-1.75,1.77,1.77,0,0,0-1.75,1.75"/><path class="cls-8" d="M71.27,151.94A1.75,1.75,0,1,0,73,150.19a1.76,1.76,0,0,0-1.75,1.75"/><path class="cls-8" d="M78.63,161.26a1.75,1.75,0,1,0,1.75-1.75,1.76,1.76,0,0,0-1.75,1.75"/><path class="cls-8" d="M82.25,150.83A1.75,1.75,0,1,0,84,149.08a1.77,1.77,0,0,0-1.75,1.75"/><path class="cls-8" d="M91.79,154.49a1.75,1.75,0,1,0,1.75-1.75,1.77,1.77,0,0,0-1.75,1.75"/><path class="cls-8" d="M65.75,142.37a1.75,1.75,0,1,0,1.75-1.75,1.77,1.77,0,0,0-1.75,1.75"/><path class="cls-8" d="M77.31,142.63a1.75,1.75,0,1,0,1.75-1.75,1.77,1.77,0,0,0-1.75,1.75"/><path class="cls-8" d="M104.5,152.2a1.75,1.75,0,1,0,1.75-1.75,1.76,1.76,0,0,0-1.75,1.75"/><path class="cls-8" d="M108.65,162.74A1.75,1.75,0,1,0,110.4,161a1.77,1.77,0,0,0-1.75,1.75"/><path class="cls-8" d="M117.21,157.2a1.75,1.75,0,1,0,1.75-1.75,1.76,1.76,0,0,0-1.75,1.75"/><path class="cls-8" d="M118.91,171.13a1.75,1.75,0,1,0,1.75-1.75,1.76,1.76,0,0,0-1.75,1.75"/><path class="cls-8" d="M126.58,162.26a1.75,1.75,0,1,0,1.75-1.75,1.76,1.76,0,0,0-1.75,1.75"/><path class="cls-8" d="M130.47,174.89a1.75,1.75,0,1,0,1.75-1.75,1.76,1.76,0,0,0-1.75,1.75"/><path class="cls-8" d="M138.67,161.24a1.75,1.75,0,1,0,1.75-1.75,1.76,1.76,0,0,0-1.75,1.75"/><path class="cls-8" d="M143.27,170.51a1.75,1.75,0,1,0,1.75-1.75,1.77,1.77,0,0,0-1.75,1.75"/><path class="cls-8" d="M147.33,156.33a1.75,1.75,0,1,0,1.75-1.75,1.77,1.77,0,0,0-1.75,1.75"/><path class="cls-9" d="M56.74,157a13.77,13.77,0,0,0,1.56,2.46,15.92,15.92,0,0,0,2,2.08,19.1,19.1,0,0,0,4.91,3,25.89,25.89,0,0,0,5.73,1.71,28.93,28.93,0,0,0,5.24.47h.62c1,0,2-.09,2.91-.2s2.1-.34,3.28-.62a36.59,36.59,0,0,0,7.5-2.71,38.64,38.64,0,0,0,6.39-4c-1.79.82-3.61,1.57-5.46,2.22a46.08,46.08,0,0,1-8.25,2.13A38.74,38.74,0,0,1,79,164a29.85,29.85,0,0,1-3.54,0,31.25,31.25,0,0,1-5.27-.83,32,32,0,0,1-5.68-1.94,24.1,24.1,0,0,1-5.09-3.05,16.79,16.79,0,0,1-2.07-2A12.84,12.84,0,0,1,55.76,154l-.22-.41a14.71,14.71,0,0,0,1.2,3.41"/><path class="cls-10" d="M141.63,143.3a.78.78,0,0,0,.22,1.07c.68.5,1.31,1,1.87,1.5l.34.3c-.14-.32-.29-.63-.44-.94h0a23.88,23.88,0,0,0-1.33-2.31.82.82,0,0,0-.66.37"/><path class="cls-9" d="M144.23,145.35c.26.54.5,1.09.72,1.64.34.33.67.66,1,1-.29-.25-.59-.51-.9-.76a21.87,21.87,0,0,1,1,3.56,19.93,19.93,0,0,1,.28,5.45,19.64,19.64,0,0,1-1.18,5.2,19.07,19.07,0,0,1-2.59,4.7,19.73,19.73,0,0,1-3.91,3.94,22.32,22.32,0,0,1-5.18,2.94,23.64,23.64,0,0,1-3.08,1,22.73,22.73,0,0,1-3.68.68,21.74,21.74,0,0,1-3.87.05,22.88,22.88,0,0,1-3.85-.62,29.5,29.5,0,0,1-7.18-2.86c-.58-.32-1.16-.66-1.72-1a42.81,42.81,0,0,0,9.31,6.15,44.82,44.82,0,0,0,7,2.7,24.9,24.9,0,0,0,5.85,1q.62,0,1.23,0a28.85,28.85,0,0,0,4.75-.41A26.51,26.51,0,0,0,144,178a18.25,18.25,0,0,0,8.77-7.54,15.47,15.47,0,0,0,1.9-6,17.1,17.1,0,0,0-1.11-7.53,19,19,0,0,0-.75-1.8,1.11,1.11,0,0,0-.09-.19,30.53,30.53,0,0,0-3.73-5.82,34,34,0,0,0-5.85-5.71,20,20,0,0,1,1,1.93"/><path class="cls-2" d="M122.83,0a92.55,92.55,0,0,0-20.58,2.31,84.35,84.35,0,0,0-25.82,10.6,90,90,0,0,0-22,19.52A91.51,91.51,0,0,0,39.57,58.32,83.66,83.66,0,0,0,34.2,87.76a53.8,53.8,0,0,0,1.32,11.88A48,48,0,0,0,39.22,110,54.66,54.66,0,0,0,52.41,127,83.31,83.31,0,0,0,71,139.21a125.76,125.76,0,0,0,17.09,6.87.72.72,0,0,0,.4.3C93.72,148,99.45,149.56,106,151c5.19,1.16,9.88,2.1,14.34,2.86a137.75,137.75,0,0,0,23.77,2.3c1.48,0,3,0,4.39-.1a80.62,80.62,0,0,0,13.63-1.77,68.22,68.22,0,0,0,13.24-4.43,67.33,67.33,0,0,0,12.79-7.62A61.52,61.52,0,0,0,198.89,132,59.13,59.13,0,0,0,206.54,120a65.88,65.88,0,0,0,4.68-13.36,77.58,77.58,0,0,0,1.94-14.41,95.93,95.93,0,0,0-.57-14.67,109.11,109.11,0,0,0-2.14-12.65A92.16,92.16,0,0,0,207,53.31a77.33,77.33,0,0,0-11-20,75.67,75.67,0,0,0-16.51-15.71,95.37,95.37,0,0,0-22-11.31,103.81,103.81,0,0,0-14.24-4.1A102.41,102.41,0,0,0,130,.3C127.57.12,125.17,0,122.83,0"/><path class="cls-3" d="M189.35,43v0Z"/><path class="cls-3" d="M189.34,43.05Z"/><polyline class="cls-3" points="189.34 43.05 189.34 43.05 189.34 43.05 189.34 43.05"/><polyline class="cls-3" points="186.93 49.31 186.93 49.32 186.93 49.31"/><polyline class="cls-3" points="162.5 52.63 162.5 52.63 162.5 52.62 162.5 52.63"/><polyline class="cls-3" points="102.72 27.98 102.72 27.98 102.72 27.98"/><polyline class="cls-3" points="92.19 11.19 92.19 11.18 92.19 11.18 92.19 11.19"/><polyline class="cls-3" points="92.19 11.19 92.19 11.19 92.19 11.19 92.19 11.19"/><path class="cls-3" d="M91.13,18.82Z"/><path class="cls-3" d="M91.13,18.84h0v0"/><path class="cls-3" d="M91.14,18.85h0"/><path class="cls-3" d="M97.78,26.17h0"/><path class="cls-3" d="M189.34,43.05Z"/><path class="cls-4" d="M188.9,25.52c0,.21.11.41.17.61l.14.51a31.28,31.28,0,0,1,.78,3.58,29.41,29.41,0,0,1,.35,4.16,33.33,33.33,0,0,1-.21,4.31c-.08.77-.2,1.52-.34,2.28-.09.5-.2,1-.32,1.53a87.15,87.15,0,0,1,3.15,10.87,134.14,134.14,0,0,1,2.9,26.88c0,2,0,4,0,6-.07,1.82-.21,3.63-.41,5.44a76.62,76.62,0,0,1-2,10.62,75,75,0,0,1-3.45,10.23,68.62,68.62,0,0,1-5,9.67,61.88,61.88,0,0,1-6.39,8.54,57.1,57.1,0,0,1-7.82,7.25,52.83,52.83,0,0,1-9.37,5.73c-1.78.84-3.6,1.61-5.44,2.3s-3.93,1.38-5.94,1.95-4.06,1.07-6.12,1.5-4.16.78-6.26,1.06a100.19,100.19,0,0,1-12.6.91,115.6,115.6,0,0,1-12.89-.57A125.67,125.67,0,0,1,99.34,149c-3.76-.77-7.5-1.7-11.18-2.82a.69.69,0,0,0,.36.26c5.2,1.66,10.93,3.18,17.52,4.65,5.1,1.14,9.8,2.07,14.34,2.86a138,138,0,0,0,23.78,2.3c1.46,0,2.93,0,4.38-.1a79.88,79.88,0,0,0,13.63-1.78,67.48,67.48,0,0,0,26.05-12.05A61.92,61.92,0,0,0,198.91,132a59,59,0,0,0,7.64-12,65.6,65.6,0,0,0,4.69-13.37,77.8,77.8,0,0,0,1.94-14.42,94.67,94.67,0,0,0-.57-14.67,109.11,109.11,0,0,0-2.14-12.65A91.5,91.5,0,0,0,207,53.31a77.07,77.07,0,0,0-11-20,72.62,72.62,0,0,0-7.1-7.95,1.21,1.21,0,0,0,.05.18"/><path class="cls-5" d="M172.1,14.84A87.28,87.28,0,0,1,178.84,23a91.63,91.63,0,0,1,5.34,8.12c.69,1.19,1.35,2.4,2,3.63q1.4,2.79,2.53,5.68c.28.71.54,1.41.8,2.12.12-.52.23-1,.32-1.53.14-.77.26-1.52.34-2.29a33.18,33.18,0,0,0,.21-4.3,29.41,29.41,0,0,0-.35-4.16,33.53,33.53,0,0,0-.77-3.58l-.15-.51c-.06-.2-.12-.4-.17-.61l-.06-.22a79.86,79.86,0,0,0-9.39-7.74,87.85,87.85,0,0,0-11.58-6.84q2.2,2,4.23,4.12"/><path class="cls-3" d="M94.25,23.61l0,0,0,0Z"/><polygon class="cls-3" points="90.77 16.72 90.77 16.71 90.77 16.71 90.77 16.72"/><path class="cls-3" d="M157.49,44.13h0v0Z"/><path class="cls-3" d="M156.53,38a.43.43,0,0,0,0-.05h0Z"/><path class="cls-3" d="M91,14.27h0v0A.13.13,0,0,1,91,14.27Z"/><path class="cls-3" d="M189.08,26.14s0,0,0,.06l-.27-.89a79,79,0,0,0-9.39-7.74,95.38,95.38,0,0,0-22-11.31A102.21,102.21,0,0,0,130,.27C127.57.09,125.17,0,122.83,0a92.64,92.64,0,0,0-20.59,2.31c-.56.12-1.11.26-1.66.39a30.84,30.84,0,0,0-5.34,4.38,19.76,19.76,0,0,0-3,4.07l0,0h0A13,13,0,0,0,91,14.26a9.66,9.66,0,0,0-.24,2.45,9.4,9.4,0,0,0,.35,2.11s0,0,0,0,0,0,0,0h0A9.45,9.45,0,0,0,91.59,20a10.14,10.14,0,0,0,.58,1.08,12.68,12.68,0,0,0,.9,1.24,14.94,14.94,0,0,0,1.15,1.24A16.74,16.74,0,0,0,96,25.05a16.38,16.38,0,0,0,1.74,1.09h0l0,0h0a20.28,20.28,0,0,0,2.38,1.06,22.58,22.58,0,0,0,2.55.75h0a23.72,23.72,0,0,0,3.56.54,32.18,32.18,0,0,0,3.54.07h-.07a32.59,32.59,0,0,0,8.15-1.39h0a28.44,28.44,0,0,0,5.82-2.54,34,34,0,0,0-5.17,9.46,24.23,24.23,0,0,0-1,3.93,20.56,20.56,0,0,0-.23,4.07A16.27,16.27,0,0,0,119.05,49a12.63,12.63,0,0,0,3.7,4.35,14.7,14.7,0,0,0,5,2.38,20.37,20.37,0,0,0,11.72-.59,20.92,20.92,0,0,0,5.59-3,29.87,29.87,0,0,0,5.31-5.23,39,39,0,0,0,4.22-6.54,35.35,35.35,0,0,0,2-4.61,20.77,20.77,0,0,0-.07,2.23,21.65,21.65,0,0,0,.27,3.12,23.45,23.45,0,0,0,.66,3h0v0s0,0,0,0a20,20,0,0,0,.91,2.49A21.21,21.21,0,0,0,159.62,49l0,0A19.91,19.91,0,0,0,161,50.9a19.41,19.41,0,0,0,1.55,1.72h0A16.49,16.49,0,0,0,164.12,54a19.2,19.2,0,0,0,1.8,1.18h0a17.27,17.27,0,0,0,1.94.93,17.89,17.89,0,0,0,2.15.68h0a17.62,17.62,0,0,0,4.52.51s0,0,0,0a15,15,0,0,0,2-.19,15.21,15.21,0,0,0,1.75-.39h-.06a13.24,13.24,0,0,0,1.63-.6,14.45,14.45,0,0,0,1.51-.79l0,0a12.58,12.58,0,0,0,1.47-1,14.49,14.49,0,0,0,1.36-1.24s0,0,0,0a16,16,0,0,0,1.5-1.78,21.11,21.11,0,0,0,1.29-2h0v0a24.48,24.48,0,0,0,1.39-3,30.41,30.41,0,0,0,1-3.28h0V43h0a33.13,33.13,0,0,0,.78-4.32,34.53,34.53,0,0,0,.21-4.32,32,32,0,0,0-.35-4.14A33.39,33.39,0,0,0,189.08,26.14Z"/><path class="cls-3" d="M190.34,34.31v0Z"/><path class="cls-3" d="M92.19,11.18s0,0,0,0v0S92.2,11.16,92.19,11.18Z"/><path class="cls-3" d="M95.21,7.11l0,0v0Z"/><path class="cls-3" d="M117.9,27.2h0Z"/><path class="cls-11" d="M166.6,117c-.62,0-1.23.11-1.84.19h-.09a32.05,32.05,0,0,0-3.64.71l-.5.14-.45.12-.1,0,0,0c-.82.24-1.63.52-2.43.82l-.11,0-.09,0-.69.28h0l-.05,0-.69.3-.06,0-.15.07a29.84,29.84,0,0,0-2.8,1.47l-.23.13h0l-.18.12-.14.08-.06,0-.19.11,0,0-.2.13h0l-.19.12,0,0-.16.11-.07,0-.13.09-.11.07-.08.06-.14.09-.06,0-.16.12,0,0-.18.13,0,0-.18.13,0,0-.16.11-.08.06-.1.08-.32.24h0l0,0h0s0,0,0,0l0,0L149,124s0,0,0,0l-.1.08c-.45.37-.9.76-1.34,1.16h0l-.15.14-.94.91a34.39,34.39,0,0,0-2.7,3.08,31.25,31.25,0,0,0-2.24,3.33,33.32,33.32,0,0,0-1.83,3.63h0c-.14.34-.28.68-.41,1-.35.9-.65,1.82-.92,2.76l-.06.23a32,32,0,0,0-.84,4.12v0a.13.13,0,0,0,0,.06h0c-.09.72-.16,1.44-.22,2.17v0c0,.08,0,.16,0,.24V147l0,.2v.11c0,.05,0,.1,0,.15a.76.76,0,0,1,0,.15v.3s0,.05,0,.07v.27c0,.09,0,.17,0,.26h0v.57s0,.11,0,.17v.26s0,.08,0,.12v.26a1.93,1.93,0,0,1,0,.24v0c0,1,.13,1.93.25,2.89a0,0,0,0,0,0,0,.22.22,0,0,0,0,.08h0c0,.23.07.46.11.69v0s0,.08,0,.12c.12.69.25,1.38.41,2.07,2.14.12,4.22.18,6.27.18,1.25,0,2.68,0,4.38-.1a80.66,80.66,0,0,0,13.64-1.78,67.26,67.26,0,0,0,26.06-12.06,61.38,61.38,0,0,0,9-8.31c-.24-.47-.5-.93-.77-1.39a34.41,34.41,0,0,0-2.27-3.34,33.14,33.14,0,0,0-2.72-3.07,34.23,34.23,0,0,0-3-2.65q-.8-.6-1.62-1.17h0c-.67-.46-1.35-.89-2-1.29-.89-.5-1.8-1-2.73-1.39l-.67-.29h0l0,0-.07,0h0l-.94-.38-.2-.07h0a29.6,29.6,0,0,0-2.85-.93q-.88-.24-1.77-.42h-.09c-.75-.15-1.5-.28-2.25-.38l-1-.13h-.06l-.18,0c-.53,0-1.06-.09-1.59-.11H170c-.32,0-.64,0-1,0-.82,0-1.63,0-2.44.09"/><path class="cls-11" d="M173.27,117.18s0,0,0,0h0"/><path class="cls-11" d="M149.45,123.57l0,0,0,0h0"/><path class="cls-11" d="M143.7,129.33h0l0,0s0,0,0,0"/><polyline class="cls-11" points="139.58 136.37 139.58 136.37 139.58 136.36 139.58 136.37"/><path class="cls-11" d="M137.35,153.1h0v0a.11.11,0,0,0,0,0"/><path class="cls-11" d="M34.15,87.76a53.92,53.92,0,0,0,1.32,11.9,48.64,48.64,0,0,0,3.7,10.39,54,54,0,0,0,11.59,15.47c.41-.48.82-1,1.21-1.48h0v0h0l0,0h0l0,0h0a33.69,33.69,0,0,0,2.24-3.35A32.88,32.88,0,0,0,56.06,117h0A31.22,31.22,0,0,0,57.47,113a33.26,33.26,0,0,0,.84-4.18h0a33.77,33.77,0,0,0,.28-4.27,33.12,33.12,0,0,0-.29-4.22.64.64,0,0,0,0,.07,32.64,32.64,0,0,0-.87-4.27,33.39,33.39,0,0,0-1.4-4,.14.14,0,0,1,0,.06,30,30,0,0,0-1.84-3.67,33.56,33.56,0,0,0-2.29-3.39A32.42,32.42,0,0,0,49.26,82a36,36,0,0,0-3.07-2.71h0A32.41,32.41,0,0,0,42.66,77,33.39,33.39,0,0,0,39,75.14h0a32.1,32.1,0,0,0-3.72-1.3,83,83,0,0,0-1.17,13.91"/><polygon class="cls-11" points="46.16 79.31 46.16 79.31 46.16 79.31 46.16 79.31"/><polyline class="cls-11" points="46.17 79.32 46.17 79.32 46.17 79.32 46.17 79.32"/><path class="cls-11" d="M46.19,79.33h0l0,0Z"/><path class="cls-6" d="M193.52,30.47a74.47,74.47,0,0,1,7.92,18.65,89.17,89.17,0,0,1,2.19,10,106.56,106.56,0,0,1,1.2,10.69A109.89,109.89,0,0,1,204,92.83a85.43,85.43,0,0,1-6.23,22.23,68.44,68.44,0,0,1-5.51,10.13,59.4,59.4,0,0,1-7,8.66,58.22,58.22,0,0,1-8.27,7,62.72,62.72,0,0,1-9.47,5.46,70,70,0,0,1-10.21,3.82c-1.8.51-3.61,1-5.44,1.35-2.08.44-4.18.81-6.28,1.1a116.64,116.64,0,0,1-12.93,1.11q-6.67.21-13.35-.25c-.85-.05-1.71-.12-2.56-.19l3.65.66a138.85,138.85,0,0,0,23.78,2.29c1.46,0,2.93,0,4.38-.09a80,80,0,0,0,13.63-1.78,67.48,67.48,0,0,0,26.05-12.05A61.94,61.94,0,0,0,198.91,132,59.56,59.56,0,0,0,206.56,120a65.88,65.88,0,0,0,4.68-13.36,77,77,0,0,0,1.94-14.42,94.58,94.58,0,0,0-.57-14.67,109.28,109.28,0,0,0-2.14-12.66A91.86,91.86,0,0,0,207,53.31a77.07,77.07,0,0,0-11-20c-.9-1.18-1.84-2.32-2.82-3.45l.39.63"/><path class="cls-12" d="M147.82,110.71c-2.79-1-3.73-5.63-2.08-10.43s5.24-7.93,8-7,3.72,5.63,2.08,10.43-5.24,7.92-8,7"/><path class="cls-12" d="M68,83.4c-2.7-.92-3.6-5.44-2-10.07s5.06-7.65,7.75-6.73,3.6,5.44,2,10.07S70.69,84.32,68,83.4"/><path class="cls-12" d="M96.64,79.44a.8.8,0,0,0-.38.43,39.41,39.41,0,0,0-2.66,6.89A21.81,21.81,0,0,0,92.77,94a14.3,14.3,0,0,0,2.16,6.74,14.91,14.91,0,0,0,5.62,5.19,13.46,13.46,0,0,0,6.84,1.52,14.64,14.64,0,0,0,6.73-2,16.64,16.64,0,0,0,3-2.24,21.7,21.7,0,0,0,2.67-3.15,35.87,35.87,0,0,0,4-7.56c.32-.77.6-1.56.89-2.35a.77.77,0,0,0-.46-1,.76.76,0,0,0-1,.46,49.2,49.2,0,0,1-2.55,6l.08-.13a27.71,27.71,0,0,1-3.85,5.72,16.7,16.7,0,0,1-3,2.54,14.61,14.61,0,0,1-3.13,1.52,14,14,0,0,1-3.28.65,13.05,13.05,0,0,1-3.24-.25,13.58,13.58,0,0,1-3-1.07,14.61,14.61,0,0,1-2.79-2A14.88,14.88,0,0,1,96.21,100a13.51,13.51,0,0,1-1.3-2.71,14.85,14.85,0,0,1-.67-3.49,20.94,20.94,0,0,1,.44-5.12.08.08,0,0,1,0,0,37.68,37.68,0,0,1,3-8.31.69.69,0,0,0,0-.58.7.7,0,0,0-.43-.38.67.67,0,0,0-.24,0,.75.75,0,0,0-.33.07m-2,9.28a.52.52,0,0,1,0,.11s0-.08,0-.11m.19,8.37s0,.09.05.13,0-.09-.05-.13m22.14,4a.94.94,0,0,0-.1.1.47.47,0,0,1,.1-.1m-6.2,4.17-.15,0,.15,0m9.84-9.6s0,0,0,0,0,0,0,0"/><path class="cls-3" d="M76.52,34.18a19.45,19.45,0,0,0-2.51.16,16.28,16.28,0,0,0-6.67,2.28c-1.72,1.14-2.57,2.47-2.41,3.74.28,2.16,3.49,3.66,7.81,3.66a19.34,19.34,0,0,0,2.51-.16,16.23,16.23,0,0,0,6.67-2.28c1.71-1.14,2.57-2.47,2.41-3.74-.29-2.15-3.49-3.66-7.81-3.66"/><path class="cls-3" d="M163.36,58.55a3.32,3.32,0,0,0-2.49.91c-1,1-1.07,2.73-.3,4.84A17.62,17.62,0,0,0,165,70.61c2.91,2.77,6.29,4.5,8.82,4.5a3.26,3.26,0,0,0,2.49-.92c1-1,1.08-2.72.3-4.83a17.62,17.62,0,0,0-4.38-6.31c-2.9-2.78-6.28-4.5-8.82-4.5"/></g></g></g></svg>