<svg xmlns="http://www.w3.org/2000/svg" viewBox="0 0 178.93 291.48"><defs><style>.cls-1{fill:#cb3c32;}.cls-2{fill:#e56352;}.cls-3{fill:#db5344;}.cls-4{fill:#b5352d;}.cls-5{fill:#fefffe;}.cls-6{fill:#f24a5e;}.cls-7{fill:#17a190;}.cls-8{fill:#1cc3af;}.cls-9{fill:#0e5e54;}.cls-10{fill:#08817a;}.cls-11{fill:#8d3835;}.cls-12{fill:#79302d;}.cls-13{fill:#4b1e1c;}.cls-14{fill:#fff2ce;}</style></defs><g id="Capa_2" data-name="Capa 2"><g id="OBJECTS"><path class="cls-1" d="M132.29,183.49l-.58,3.67q-.51,3.19-1,6.4a1.91,1.91,0,0,0-.91-.45,2,2,0,0,0-.44,0,3.82,3.82,0,0,0-.87.12,5.28,5.28,0,0,0-1.36.56,10.65,10.65,0,0,0-2.28,1.71,13.61,13.61,0,0,0-2,2.5,22.67,22.67,0,0,0-2.67,6.22,46.82,46.82,0,0,0-1.33,6.85c-.29,2.23-.47,4.49-.63,6.62-.22,2.88-.39,6-.52,9.82q-.14,3.89-.22,7.78c-.1,3.88-.21,7.9-.4,11.85-.11,2.29-.25,4.41-.42,6.46-.28,3.36-.64,6.43-1.09,9.39a80.44,80.44,0,0,1-2,9c-1.15,4.16-2.59,8.3-4,12.31-.59,1.69-1.18,3.39-1.75,5.09a.73.73,0,0,0,.1.58.85.85,0,0,0,.26.24.68.68,0,0,0,.4.6,7.82,7.82,0,0,0,1.63.5l.1,0c.71-.05,1.43-.12,2.14-.21,1.11-.15,2.21-.35,3.3-.58h0l1-.24A.25.25,0,0,1,117,290a29.93,29.93,0,0,0,3.31-1.24,32.68,32.68,0,0,0,3.19-1.59h0a31.23,31.23,0,0,0,6.62-5l-.05,0a29.73,29.73,0,0,0,2.34-2.68,26,26,0,0,0,1.86-2.79h0a19.41,19.41,0,0,0,1.32-2.85q.21-.57.39-1.14c.19-.64.35-1.29.48-2a27.68,27.68,0,0,0,.47-7.41,32.47,32.47,0,0,0-.51-3.92c-.24-1.32-.58-2.62-.9-3.89l-.15-.55-.59-2.31c-.66-2.54-1.33-5.16-1.95-7.75-.67-2.78-1.19-5.24-1.62-7.51v.1c-.41-2.34-.73-4.48-1-6.54s-.42-4.44-.5-6.79a112.75,112.75,0,0,1,.38-13.73l0,.1c.65-7.52,1.87-15.2,3.05-22.63l.66-4.12a.77.77,0,0,0-.58-.9.47.47,0,0,0-.16,0,.75.75,0,0,0-.75.6M123.44,287.2l0,0,0,0m-7.64,3.29h0m0,0h0"/><polyline class="cls-1" points="134.24 276.71 134.24 276.72 134.25 276.71 134.24 276.71"/><path class="cls-1" d="M130.27,282.67l-.07.07.07-.06.29-.3Z"/><polyline class="cls-1" points="115.75 290.5 115.76 290.5 115.75 290.5"/><path class="cls-1" d="M73.64,235.1A16.81,16.81,0,0,0,71,236a15,15,0,0,0-6.88,6,18.58,18.58,0,0,0-2.08,5.38,35.83,35.83,0,0,0-.82,6c-.13,1.86-.16,3.75-.18,5.58,0,2.08-.07,4.22-.24,6.33-.06.69-.13,1.37-.22,2.05a30.26,30.26,0,0,1-1.78,7,18,18,0,0,1-2.17,3.91,12.2,12.2,0,0,1-2,2l.05,0-.05,0h0l-.07.06a11.73,11.73,0,0,1-2,1.13,11.27,11.27,0,0,1-2.43.64,13.05,13.05,0,0,1-1.41.07A.76.76,0,0,0,48,283a.78.78,0,0,0,.61.75,52.47,52.47,0,0,0,6.75,3.2c.59.15,1.19.28,1.8.38a27.09,27.09,0,0,0,3.23.38h0a24.38,24.38,0,0,0,6.59-.51h0a25.79,25.79,0,0,0,6.37-2.31h0a28.18,28.18,0,0,0,3.24-2c.52-.38,1-.77,1.53-1.18l0,0a24.36,24.36,0,0,0,4.52-5.41,15.51,15.51,0,0,0,1.54-3.41,18.43,18.43,0,0,0,.68-4.22.78.78,0,0,0-.35-.69,63.71,63.71,0,0,0,1.09-6.69,71.89,71.89,0,0,0,.5-9.44,46.77,46.77,0,0,0-.31-4.73,30.92,30.92,0,0,0-.85-4.43,16.23,16.23,0,0,0-1.53-3.71,8.65,8.65,0,0,0-2.29-2.7,7.19,7.19,0,0,0-1.52-.91,7.34,7.34,0,0,0-1.76-.52,8.76,8.76,0,0,0-1.35-.1,11.07,11.07,0,0,0-2.87.4m-19,45.26h0Z"/><path class="cls-1" d="M68.42,287.32l.18,0,.48-.16-.66.19"/><path class="cls-2" d="M88,135.74c-1.64,0-3.3,0-4.94.12-2.73.13-5.57.36-8.42.71-1.08.13-2.09.29-3.07.49-1.28.26-2.55.6-3.62.9s-2,.58-3,.88c-1.28.38-2.57.76-3.86,1.1a42.1,42.1,0,0,1-4.15.88.82.82,0,0,0-.46-.16.76.76,0,0,0-.66.38C47.64,155.69,39.36,171.57,34,188.33a133.76,133.76,0,0,0-5.48,25.41c-.44,3.86-.7,8-.81,12.9-.1,4.39,0,8.45.21,12.4a84.47,84.47,0,0,0,4.72,24.27,57.37,57.37,0,0,0,5.41,11A32.66,32.66,0,0,0,40.77,278a28.12,28.12,0,0,0,2.76,2.82,29.47,29.47,0,0,0,6.36,4.29,26.38,26.38,0,0,0,6.87,2.35,21.92,21.92,0,0,0,4.14.41,15.69,15.69,0,0,0,8.46-2.25,12.93,12.93,0,0,0,4.31-4.56,17.38,17.38,0,0,0,2-7.12,25.81,25.81,0,0,0-.06-4.54,53,53,0,0,0-1-6.32c-.48-2.28-1.06-4.57-1.63-6.79s-1.13-4.42-1.6-6.65c-.32-1.49-.58-3-.79-4.45-.14-1.09-.24-2.17-.31-3.22a56.9,56.9,0,0,0,7.37.54c.54,0,1.07,0,1.61,0a77.65,77.65,0,0,0,1.84,16.33,71.25,71.25,0,0,0,2.63,9.09,54.56,54.56,0,0,0,3.91,8.48,31.65,31.65,0,0,0,12.08,12.4,23.16,23.16,0,0,0,8.41,2.59,16.14,16.14,0,0,0,2,.11,23.7,23.7,0,0,0,3.13-.22,22,22,0,0,0,5.13-1.38,20.91,20.91,0,0,0,4.64-2.55,19,19,0,0,0,1.91-1.6,16.82,16.82,0,0,0,1.77-2c2.06-2.7,3.14-6.29,3.21-10.65a33.93,33.93,0,0,0-.53-6.13c-.36-2.23-.89-4.41-1.36-6.26-.32-1.24-.65-2.47-1-3.7-.73-2.66-1.48-5.41-2-8.17-.26-1.37-.49-2.85-.74-4.65l0-.2a122.77,122.77,0,0,1-.94-18.35,163.14,163.14,0,0,1,1.5-18.46v0h0v0h0c.58-4.24,1.31-8.44,2-12.05.69-3.91,1.41-8.07,2-12.19a102.71,102.71,0,0,0,1-12.55,48.88,48.88,0,0,0-1.07-11.66,26,26,0,0,0-3.78-9,24.09,24.09,0,0,0-2.79-3.37,26.87,26.87,0,0,0-3.32-2.82,33.73,33.73,0,0,0-7.89-4.14,50.2,50.2,0,0,0-9-2.42A78.46,78.46,0,0,0,88,135.74"/><path class="cls-3" d="M127,179.79h0s0,0,0,0l0,0a27.51,27.51,0,0,0-2.68,2.37,27.26,27.26,0,0,0-4.56,6,32.81,32.81,0,0,0-1.78,3.62.25.25,0,0,1,0-.07,46.75,46.75,0,0,0-3.09,11.91v0c0,.2-.06.4-.07.6a80.37,80.37,0,0,0-.47,13.07c.17,4.53.61,9,1.21,13.53h0c1,7.73,2.56,15.38,4.13,23,.39,1.9.79,3.8,1.17,5.71.18.88.36,1.77.53,2.66s.35,1.77.5,2.65a42.53,42.53,0,0,1,.6,6.47,40.38,40.38,0,0,1-.43,6.77,29.93,29.93,0,0,1-1.73,6.51,23.77,23.77,0,0,1-1.4,2.87,18.33,18.33,0,0,1-1.79,2.56c-.14.16-.27.32-.41.47.55-.18,1.11-.37,1.66-.6a20.66,20.66,0,0,0,4.64-2.54,22.12,22.12,0,0,0,1.92-1.61,16.55,16.55,0,0,0,1.76-2c2.07-2.71,3.15-6.3,3.22-10.67a34,34,0,0,0-.53-6.14c-.35-2.22-.89-4.41-1.36-6.26-.26-1-.55-2.06-.83-3.1l-.16-.6c-.73-2.67-1.49-5.44-2-8.16-.26-1.4-.5-2.88-.74-4.66l0-.19a120.14,120.14,0,0,1-1-18.35,162.42,162.42,0,0,1,1.5-18.46c.57-4.19,1.28-8.27,2-12.09s1.41-8.1,2-12.19c.22-1.63.41-3.17.55-4.65-.79.5-1.56,1-2.3,1.59"/><polyline class="cls-3" points="126.98 179.81 126.98 179.81 126.98 179.81 126.98 179.81"/><polyline class="cls-3" points="126.97 179.81 126.98 179.81 126.98 179.81 126.97 179.81"/><path class="cls-3" d="M67.84,241.8c0,.63,0,1.26,0,1.9.06,1.6.2,3.2.38,4.8l.3,2.5.27,2.18c.36,2.85.79,5.7,1.07,8.56a49.37,49.37,0,0,1,.24,8.68,28.84,28.84,0,0,1-.58,4.14c-.16.72-.34,1.45-.57,2.15s-.45,1.3-.71,1.94a15.12,15.12,0,0,1-1.68,3,12.66,12.66,0,0,1-2.13,2.26,12.38,12.38,0,0,1-2.51,1.59,13.67,13.67,0,0,1-2.8,1,17.37,17.37,0,0,1-4.77.4c.79.23,1.59.43,2.39.59a22.58,22.58,0,0,0,4.14.4,15.62,15.62,0,0,0,8.47-2.26,12.84,12.84,0,0,0,4.31-4.56,17.27,17.27,0,0,0,2-7.13,26.79,26.79,0,0,0-.06-4.54,53.46,53.46,0,0,0-1-6.33c-.48-2.25-1-4.51-1.61-6.71l-.06-.21c-.54-2.13-1.1-4.33-1.56-6.52-.33-1.51-.59-3-.78-4.44-.15-1.09-.26-2.18-.32-3.22h0l-.39-.05h0a13.17,13.17,0,0,0-1.77-.13h-.36"/><path class="cls-4" d="M66.58,241.18a.32.32,0,0,0,.24.38A48.26,48.26,0,0,0,74.05,243a22.29,22.29,0,0,0,7.6-.18.85.85,0,0,0,.6-.84.94.94,0,0,0-.26-.59.89.89,0,0,0-.62-.23c-.83.1-1.65.22-2.48.31s-1.8.19-2.71.25a32.36,32.36,0,0,1-5.21-.07,25.63,25.63,0,0,1-4-.74h-.08a.32.32,0,0,0-.31.25"/><path class="cls-5" d="M109.59,260a4.65,4.65,0,0,0-1.23.59,3.88,3.88,0,0,0-1,1,3.36,3.36,0,0,0-.49,1.05,4.56,4.56,0,0,0-.16,1.27,6.57,6.57,0,0,0,.54,2.47,10.72,10.72,0,0,0,1.32,2.36,8.59,8.59,0,0,0,3.86,3.08l0,0a12.11,12.11,0,0,1-1.87,1.85,11.9,11.9,0,0,1-5.63,2.32,12.94,12.94,0,0,1-3.11,0l.27,0a14.56,14.56,0,0,1-3.51-.94,11.62,11.62,0,0,1-1.77-1l.33-.28a11.76,11.76,0,0,0,1.41-1.5,14.52,14.52,0,0,0,2.74-4.64,5.52,5.52,0,0,0,.26-1.22,3.9,3.9,0,0,0,0-1.23,2.76,2.76,0,0,0-.38-1,3.21,3.21,0,0,0-1-1,3.92,3.92,0,0,0-1.2-.53,5.5,5.5,0,0,0-1.62-.21,4.09,4.09,0,0,0-1.38.28,5.06,5.06,0,0,0-2.35,1.86,7.25,7.25,0,0,0-.73,1.23,9.71,9.71,0,0,0-.81,3,6.48,6.48,0,0,0,.24,2.66,7.17,7.17,0,0,0,1.28,2.35q-.67.38-1.38.69A25.37,25.37,0,0,1,87.4,276c.35.61.71,1.21,1.07,1.82.47-.1,1-.21,1.42-.33a21.63,21.63,0,0,0,3.9-1.41c.42-.2.83-.43,1.23-.66a12.47,12.47,0,0,0,1.5,1,14.45,14.45,0,0,0,3.11,1.25,14.69,14.69,0,0,0,3.22.5,12.94,12.94,0,0,0,3.4-.3,13.61,13.61,0,0,0,6.4-3.3,11.85,11.85,0,0,0,1.73-2c.36.09.72.17,1.09.23a19.25,19.25,0,0,0,6.47-.06,18.62,18.62,0,0,0,5.84-2,13,13,0,0,0,2-1.31c0-.36-.07-.72-.1-1.08s-.14-.89-.22-1.34a13.2,13.2,0,0,1-1.1,1,14.33,14.33,0,0,1-2.82,1.62,19.17,19.17,0,0,1-4.65,1.26,18.9,18.9,0,0,1-4.51,0c-.31-.05-.63-.1-.94-.17a9.89,9.89,0,0,0,.63-1.88,11.09,11.09,0,0,0-.07-5.28,8.67,8.67,0,0,0-.47-1.23,5,5,0,0,0-.74-1.13,4.12,4.12,0,0,0-2.13-1.35,4.55,4.55,0,0,0-1.16-.14,6.54,6.54,0,0,0-1.88.3m3.7,10.07a8.47,8.47,0,0,1-1.69-.94,8.81,8.81,0,0,1-1.32-1.34,11.14,11.14,0,0,1-1.15-1.94,7.79,7.79,0,0,1-.43-1.5,5.06,5.06,0,0,1,0-.87c0-.17.08-.32.13-.48s.13-.24.21-.36l.32-.32a4.29,4.29,0,0,1,.55-.31,5.71,5.71,0,0,1,1.08-.28,4.82,4.82,0,0,1,.85,0,4,4,0,0,1,.59.16,4.39,4.39,0,0,1,.47.27,3.73,3.73,0,0,1,.44.45,4.6,4.6,0,0,1,.5.89,7.44,7.44,0,0,1,.41,1.59,11.09,11.09,0,0,1,0,2.51,9.08,9.08,0,0,1-.57,2.1c-.06.15-.14.3-.21.45l-.17-.07M95,272.62a8.05,8.05,0,0,1-.71-1.2,5.74,5.74,0,0,1-.29-1.08,7.22,7.22,0,0,1,0-1.47,8.85,8.85,0,0,1,.5-1.83,6.88,6.88,0,0,1,.69-1.21,5.54,5.54,0,0,1,.68-.69,5.08,5.08,0,0,1,.59-.35,3.58,3.58,0,0,1,.62-.17,4,4,0,0,1,.69,0,5.15,5.15,0,0,1,.88.22,2.86,2.86,0,0,1,.42.24l.2.2a1.07,1.07,0,0,1,.13.21c0,.11.06.22.09.33s0,.41,0,.62a6.92,6.92,0,0,1-.41,1.34,14.68,14.68,0,0,1-1.7,2.82,13.32,13.32,0,0,1-2.18,2.26l-.2-.24m3.77-7.74.07,0-.07,0m-4.28,2.2,0,.1a1,1,0,0,1,0-.1M113.07,270l.17.08-.17-.08"/><path class="cls-5" d="M59.75,259.62a5.07,5.07,0,0,0-2.59,2.08c-1,1.76-.27,3.89.84,5.39a11.69,11.69,0,0,0,2.12,2.21,11,11,0,0,0,1.74,1.2,10.93,10.93,0,0,1-1.61,1.58l.14-.11-.15.12h0l-.05,0s0,0,0,0a12.43,12.43,0,0,1-2.52,1.46,14.68,14.68,0,0,1-3.39.93,11.7,11.7,0,0,1-2.44.07,8.35,8.35,0,0,1-1.71-.48,13.71,13.71,0,0,1-1.27-.64A15.34,15.34,0,0,0,50,272a9.45,9.45,0,0,0,1.49-5.7,6.28,6.28,0,0,0-.24-1.28,3.92,3.92,0,0,0-.67-1.26,2.89,2.89,0,0,0-2.24-1,4.3,4.3,0,0,0-1.42.26,8.11,8.11,0,0,0-1.69.85,5.84,5.84,0,0,0-2,2.16,4.44,4.44,0,0,0-.45,2.53,6.55,6.55,0,0,0,.88,2.57,10.81,10.81,0,0,0,1.77,2.21l.49.45-.37.31a14.39,14.39,0,0,1-2.82,1.68,13,13,0,0,1-3,.83h0c.45.6.91,1.19,1.37,1.78A14.68,14.68,0,0,0,44.6,277a14.19,14.19,0,0,0,2.9-2,1.37,1.37,0,0,0,.2.13,12.12,12.12,0,0,0,2.56,1.18,8.38,8.38,0,0,0,2.68.36,13.72,13.72,0,0,0,10.84-5.32,15,15,0,0,0,2.19.39,12.89,12.89,0,0,0,3.82-.2A13.65,13.65,0,0,0,74,269.82a11.82,11.82,0,0,0,1.54-1.08c-.1-.79-.2-1.59-.33-2.38a14.53,14.53,0,0,1-1.1,1,11.5,11.5,0,0,1-5.48,2.28,11.81,11.81,0,0,1-2.91,0c-.3,0-.61-.1-.91-.16a10.33,10.33,0,0,0,.69-2.32,7.18,7.18,0,0,0,.12-1.39,9,9,0,0,0-.17-1.45,8.67,8.67,0,0,0-1-2.61,5,5,0,0,0-1.91-1.92,3.47,3.47,0,0,0-2.82-.15m0,6.46a7.78,7.78,0,0,1-.83-1.38,4.88,4.88,0,0,1-.22-.81,2.44,2.44,0,0,1,0-.54c0-.15.07-.3.11-.44a3.07,3.07,0,0,1,.26-.43,4.17,4.17,0,0,1,.47-.47,7.54,7.54,0,0,1,.77-.47,4.77,4.77,0,0,1,.54-.15h.35l.35.1a2.75,2.75,0,0,1,.41.24,4.81,4.81,0,0,1,.5.51,6.79,6.79,0,0,1,.66,1.13,8.83,8.83,0,0,1,.49,1.83,6.18,6.18,0,0,1,0,1.29,10.25,10.25,0,0,1-.55,2l-.13.27a8.58,8.58,0,0,1-1.27-.82l.06,0-.07,0-.13-.11.09.08a12.25,12.25,0,0,1-1.87-1.87m3.39-2.63a.31.31,0,0,1,.05.1.31.31,0,0,0-.05-.1m-17.29,7.33a7.52,7.52,0,0,1-.85-1.42,4.89,4.89,0,0,1-.29-1,4.45,4.45,0,0,1,0-.73,3,3,0,0,1,.17-.6,3.94,3.94,0,0,1,.36-.63,5.08,5.08,0,0,1,.7-.69,7,7,0,0,1,1.35-.79,5.29,5.29,0,0,1,.8-.24h.41l.2.06a.91.91,0,0,1,.17.09L49,265c.07.12.14.24.2.37a3.89,3.89,0,0,1,.21.83,6.78,6.78,0,0,1,0,1.56,7.94,7.94,0,0,1-.49,1.81,11.91,11.91,0,0,1-1.35,2.32c-.11.13-.21.26-.32.38a11.27,11.27,0,0,1-1.44-1.49m1.58-5.94s0,0-.06,0,0,0,.06,0m26.82,2.42-.07.05a.18.18,0,0,1,.07-.05M63,268.58l0,.08Zm8.45.28-.06,0,.06,0m-9.61,1.65h0"/><path class="cls-5" d="M61.62,268s0,0,0,0l0,0"/><path class="cls-5" d="M61.64,268h0"/><polyline class="cls-5" points="61.65 267.99 61.65 267.98 61.65 267.99"/><path class="cls-2" d="M118,142.16h-.41a17.85,17.85,0,0,0-3.16.37,15.72,15.72,0,0,0-3.08,1,11.11,11.11,0,0,0-2.67,1.66,8,8,0,0,0-2.6,4.09.77.77,0,0,0,.23.78c0,.33-.07.67-.11,1a26.86,26.86,0,0,1-1.83,6.58l.1-.17a38.05,38.05,0,0,1-4.79,7.93c-2.16,2.78-4.61,5.38-7,7.9a85.1,85.1,0,0,0-9,10.76,32.14,32.14,0,0,0-2.88,5.28,29.17,29.17,0,0,0-1.9,6.37,22.94,22.94,0,0,0,.85,12.18,17.83,17.83,0,0,0,6.68,8.47,22.25,22.25,0,0,0,11,3.59c.61,0,1.24.06,1.88.06a32.38,32.38,0,0,0,4.75-.37,31.77,31.77,0,0,0,6.94-1.85,35.33,35.33,0,0,0,11.89-7.87,44.36,44.36,0,0,0,8.4-11.72,49.63,49.63,0,0,0,2.75-6.73,48,48,0,0,0,1.6-6.41c.61-3.3,1.06-6.58,1.33-9.74A68.08,68.08,0,0,0,137,164.6a37.11,37.11,0,0,0-2-10.22,19.42,19.42,0,0,0-5.17-8,15.87,15.87,0,0,0-4.06-2.62,19.38,19.38,0,0,0-2.49-.89,21.9,21.9,0,0,0-2.78-.53,20.54,20.54,0,0,0-2.53-.17"/><path class="cls-2" d="M49.38,141.88l-.71,0a17.36,17.36,0,0,0-5.89,1.56.51.51,0,0,0-.24.22,31.48,31.48,0,0,0-4.21,3.84,34.76,34.76,0,0,0-3.64,4.8A39.39,39.39,0,0,0,30,163.48a47.35,47.35,0,0,0-1.45,12.36,49.84,49.84,0,0,0,1.7,12.42A44.73,44.73,0,0,0,35,199.57a37.21,37.21,0,0,0,3.49,4.91,30.52,30.52,0,0,0,4.08,4.11,25.46,25.46,0,0,0,10.14,4.91,26,26,0,0,0,6.11.74,23.54,23.54,0,0,0,5.14-.56,17,17,0,0,0,9.2-5.41,19.08,19.08,0,0,0,4.11-12.07c.07-5.29-1.85-10.37-3.3-13.73-1.34-3.11-2.94-6.16-4.5-9.1-.74-1.41-1.48-2.82-2.2-4.25-.92-1.82-1.69-3.45-2.35-5h0a40.25,40.25,0,0,1-2.23-6.65c-.08-.32-.14-.64-.2-.95l-.13-.64c-.12-.55-.25-1.1-.4-1.65a27.37,27.37,0,0,0-1-3,19.15,19.15,0,0,0-3-5.24,11.42,11.42,0,0,0-4.43-3.32,10.74,10.74,0,0,0-4.08-.77"/><path class="cls-3" d="M53.71,143.07a39.3,39.3,0,0,0-1,5.05h0a38.83,38.83,0,0,0-.35,5.39,45.78,45.78,0,0,0,.36,5.22h0a45.74,45.74,0,0,0,1.23,6c.28,1,.59,2.07.94,3.08s.64,1.75,1,2.61h0l0,0v0h0c.62,1.45,1.3,2.88,2,4.28,1.32,2.64,2.73,5.23,3.92,7.93a32.65,32.65,0,0,1,2.33,7,26.5,26.5,0,0,1,.5,5.89,24.78,24.78,0,0,1-.83,5.74,20.49,20.49,0,0,1-2.15,5.16,16.71,16.71,0,0,1-3.48,4.15,14.93,14.93,0,0,1-4.76,2.7l-.82.26h.06a26.26,26.26,0,0,0,6.12.74,23.69,23.69,0,0,0,5.15-.56,17.09,17.09,0,0,0,9.21-5.41,19.18,19.18,0,0,0,4.11-12.09c.08-5.29-1.85-10.38-3.3-13.74-1.35-3.13-2.94-6.15-4.48-9.07-.76-1.44-1.51-2.85-2.22-4.28-.93-1.83-1.7-3.46-2.36-5a40.55,40.55,0,0,1-2.22-6.66c0-.16-.08-.32-.11-.49l0-.22,0-.24-.13-.63c-.12-.56-.25-1.11-.4-1.66a28.16,28.16,0,0,0-1-3,19,19,0,0,0-3-5.24,11.45,11.45,0,0,0-4.12-3.18l-.08.29"/><path class="cls-3" d="M57.33,210.59Z"/><path class="cls-3" d="M128.75,148a31.51,31.51,0,0,1,1.13,5.51,42.2,42.2,0,0,1,.28,6,55.71,55.71,0,0,1-.53,6.45,64.58,64.58,0,0,1-1.21,6.44c-.5,2.05-1.08,4.08-1.76,6.08-.63,1.83-1.33,3.63-2.12,5.4a46.42,46.42,0,0,1-2.45,4.69,50.28,50.28,0,0,1-4.31,6A49.26,49.26,0,0,1,112.5,200a45.64,45.64,0,0,1-6,4.46,36.65,36.65,0,0,1-13.74,5.21,31,31,0,0,1-7.39.24,31.4,31.4,0,0,1-3.73-.57c-.5-.11-1-.23-1.49-.37a14.44,14.44,0,0,0,.75,1.47,16.59,16.59,0,0,0,1.54,2.27,17.59,17.59,0,0,0,4,3.66,22.12,22.12,0,0,0,11,3.6c.61,0,1.24.07,1.88.07a32.45,32.45,0,0,0,4.75-.38,31.22,31.22,0,0,0,6.94-1.85,35.26,35.26,0,0,0,11.91-7.87,44.32,44.32,0,0,0,8.39-11.73,48,48,0,0,0,4.36-13.14c.61-3.27,1-6.55,1.33-9.75a68,68,0,0,0,.14-10.72,36.89,36.89,0,0,0-2-10.23,19.66,19.66,0,0,0-5.17-8,16.48,16.48,0,0,0-2.51-1.81,24.35,24.35,0,0,1,1.38,3.49"/><path class="cls-5" d="M82.86,185.17c-.34.58-.66,1.16-1,1.75.16.45.34.89.53,1.32a14.12,14.12,0,0,0,1.43,2.39,14.27,14.27,0,0,0,1.94,2.17,11.62,11.62,0,0,0,2.11,1.53,11.66,11.66,0,0,0,.57,2.33,10.43,10.43,0,0,0,1.41,2.71,8.52,8.52,0,0,0,1,1.12,9.55,9.55,0,0,0,1.36,1.09,10.7,10.7,0,0,0,2.93,1.35,11.72,11.72,0,0,0,.32,1.16,17.4,17.4,0,0,0,2.07,4.38,13.11,13.11,0,0,0,1.34,1.71,7.51,7.51,0,0,0,1.62,1.31,19.4,19.4,0,0,0,8.28,2.44,1,1,0,0,0,.71-.29,1,1,0,0,0,.29-.71,1.05,1.05,0,0,0-.29-.71,1.08,1.08,0,0,0-.71-.29l-.79-.09a20,20,0,0,1-4.83-1.22,11.5,11.5,0,0,1-2.15-1.18,9,9,0,0,1-1.26-1.29h0l-.07-.1a.21.21,0,0,0,.06.08,15.89,15.89,0,0,1-1.87-3.28c-.2-.49-.38-1-.53-1.48a8.14,8.14,0,0,0,1.71,0,6.9,6.9,0,0,0,1.68-.42,6.4,6.4,0,0,0,.84-.39,7.5,7.5,0,0,0,.86-.62,5.78,5.78,0,0,0,1.78-2.55,4.23,4.23,0,0,0,.2-1.32,3.36,3.36,0,0,0-.38-1.45,3,3,0,0,0-.95-1.06,4.05,4.05,0,0,0-1.46-.63,7.3,7.3,0,0,0-3,0,4.73,4.73,0,0,0-2.08,1,4.23,4.23,0,0,0-1.18,1.53,7.39,7.39,0,0,0-.55,3.37h0s-.05,0-.08,0a.11.11,0,0,0-.07,0l.07,0a9.49,9.49,0,0,1-1.9-1.1,7.61,7.61,0,0,1-1.17-1.17,9.58,9.58,0,0,1-1.09-1.88,11.54,11.54,0,0,1-.45-1.37l.33.06A6,6,0,0,0,93,195a6.29,6.29,0,0,0,2.38-1.43,9.32,9.32,0,0,0,1-1.18,8.67,8.67,0,0,0,.92-1.55,4.28,4.28,0,0,0,.29-3.32,3.35,3.35,0,0,0-.81-1.21,3.73,3.73,0,0,0-1.39-.77,4.44,4.44,0,0,0-1.45-.17,5.64,5.64,0,0,0-1.73.38,6.78,6.78,0,0,0-2.73,2,7.28,7.28,0,0,0-1.41,2.77,8.3,8.3,0,0,0-.26,1.39l-.07,0h0a13.26,13.26,0,0,1-2.07-2.1A14.21,14.21,0,0,1,84,186.9a10.87,10.87,0,0,1-.67-2.39s0,0,0-.07l-.47.73m8,8.09a6.11,6.11,0,0,1-1-.27,10.49,10.49,0,0,1,0-1.12,8,8,0,0,1,.43-1.6,6,6,0,0,1,.66-1.12,5.17,5.17,0,0,1,.77-.78,5.71,5.71,0,0,1,1.09-.65,4.89,4.89,0,0,1,1-.29,4.57,4.57,0,0,1,.74,0,3,3,0,0,1,.51.14,2.79,2.79,0,0,1,.33.19,1.45,1.45,0,0,1,.22.21l.15.25.09.35a2.79,2.79,0,0,1,0,.5,4.42,4.42,0,0,1-.22.79,8.38,8.38,0,0,1-1,1.68,6.91,6.91,0,0,1-1,1,5.49,5.49,0,0,1-.87.51,5.08,5.08,0,0,1-.87.24c-.18,0-.35,0-.53,0l-.52,0m-5.28-3.66.07.09-.07-.09m9.13,1.82,0,.06,0-.06m-7,.35.07,0a.18.18,0,0,1-.07,0m5.95.76-.09.08.09-.08m-.88.51-.11.05ZM97,201.31l-.2,0a8.9,8.9,0,0,1,0-1.93,5.42,5.42,0,0,1,.28-1,3.85,3.85,0,0,1,.36-.62,3.41,3.41,0,0,1,.38-.38,4.56,4.56,0,0,1,.56-.33,4.86,4.86,0,0,1,.91-.23,6.11,6.11,0,0,1,1.48,0,3.94,3.94,0,0,1,.77.19l.39.22.2.2c0,.08.1.16.14.24s0,.2.08.29a2.16,2.16,0,0,1,0,.44,3.91,3.91,0,0,1-.17.61,5.47,5.47,0,0,1-.44.75,6.47,6.47,0,0,1-.78.79,6.19,6.19,0,0,1-.9.52,6.49,6.49,0,0,1-1.24.34c-.27,0-.55,0-.83,0a7.73,7.73,0,0,1-1-.06m2.72,6.87,0,.06,0-.06m3.2,2.37.15.06-.15-.06m4.76,1.26.21,0-.21,0"/><polyline class="cls-5" points="87.74 191.84 87.74 191.83 87.74 191.84"/><path class="cls-5" d="M87.74,191.83h0"/><polyline class="cls-5" points="87.76 191.85 87.76 191.85 87.76 191.85 87.76 191.85"/><polyline class="cls-5" points="87.77 191.86 87.77 191.86 87.76 191.85 87.77 191.86"/><polyline class="cls-5" points="87.77 191.86 87.77 191.86 87.77 191.86"/><polyline class="cls-5" points="87.77 191.86 87.77 191.86 87.77 191.86"/><path class="cls-5" d="M94.72,200.68Z"/><path class="cls-5" d="M94.79,200.7l-.07,0,.07,0"/><path class="cls-5" d="M99.71,208.13h0l0,0v0"/><path class="cls-5" d="M99.72,208.14h0"/><path class="cls-5" d="M52.27,182.89a3.76,3.76,0,0,0-1.33.86,4.44,4.44,0,0,0-.91,1.5,4.76,4.76,0,0,0-.26,1.63,5.3,5.3,0,0,0,.37,1.93,6.65,6.65,0,0,0,2,2.82,8.53,8.53,0,0,0,3,1.51,14,14,0,0,1-1.38,2.25,7.79,7.79,0,0,1-1.23,1.27,6.49,6.49,0,0,1-1.31.74A10.62,10.62,0,0,1,49,198a13.1,13.1,0,0,1-3.19,0l-.77-.13a9.75,9.75,0,0,0,1-2.38,8,8,0,0,0,.18-3.55,5.52,5.52,0,0,0-1.31-2.7,3.72,3.72,0,0,0-2.4-1.27,3.25,3.25,0,0,0-2.5,1,4.85,4.85,0,0,0-.92,1.28,8.08,8.08,0,0,0-.62,1.66,6.68,6.68,0,0,0-.21,1.34,5.38,5.38,0,0,0,.07,1.33,5,5,0,0,0,.81,2.06,6.62,6.62,0,0,0,1.69,1.69,7.18,7.18,0,0,0,.8.5c-.2.19-.42.37-.64.55a13.94,13.94,0,0,1-2.7,1.56,13.33,13.33,0,0,1-2.12.66c.4.59.82,1.18,1.24,1.75A13.65,13.65,0,0,0,42,201.05a12.13,12.13,0,0,0,1.65-1.46,12.47,12.47,0,0,0,1.59.33,14,14,0,0,0,5.12-.16,8.39,8.39,0,0,0,4.12-2.16,11.75,11.75,0,0,0,1.81-2.39,13.87,13.87,0,0,0,.89-1.71q.64,0,1.29,0a12,12,0,0,0,3.26-.52,13.54,13.54,0,0,0,6.32-4.27A14.35,14.35,0,0,0,70.75,184a1,1,0,0,0-1.93-.53c-.07.22-.16.45-.25.67A13.44,13.44,0,0,1,67,186.94l.07-.09a.39.39,0,0,1-.08.1v0h0a14.89,14.89,0,0,1-2.23,2.26A13.46,13.46,0,0,1,62,190.8a11.62,11.62,0,0,1-2.33.63,11.81,11.81,0,0,1-1.78.1,13.16,13.16,0,0,0,.44-2.57,6.81,6.81,0,0,0-.45-3,5.53,5.53,0,0,0-.8-1.37,6.44,6.44,0,0,0-1.45-1.26,4.25,4.25,0,0,0-2.24-.67,3.41,3.41,0,0,0-1.14.19m2.55,8a7.24,7.24,0,0,1-1.26-.73,5.57,5.57,0,0,1-.88-.87,7,7,0,0,1-.61-1,7.21,7.21,0,0,1-.28-1,5.89,5.89,0,0,1,0-.84,3.9,3.9,0,0,1,.18-.67,3.72,3.72,0,0,1,.27-.48,3.14,3.14,0,0,1,.31-.32l.31-.18.37-.1h.4a3.86,3.86,0,0,1,.58.17,5.27,5.27,0,0,1,.72.43,5.38,5.38,0,0,1,.69.66,6,6,0,0,1,.42.73,5.72,5.72,0,0,1,.28,1.06,9.72,9.72,0,0,1,0,1.79,12.29,12.29,0,0,1-.4,1.72,8,8,0,0,1-1.08-.35M66.91,187a.08.08,0,0,1,0,0,.08.08,0,0,0,0,0m-25.14,9.48a5,5,0,0,1-.8-.79,4.32,4.32,0,0,1-.46-.78,4.2,4.2,0,0,1-.23-.86,5.57,5.57,0,0,1,0-1.08,7.89,7.89,0,0,1,.43-1.51,6,6,0,0,1,.5-.89,4.54,4.54,0,0,1,.38-.38l.28-.17.27-.07a1.13,1.13,0,0,1,.26,0,1.89,1.89,0,0,1,.34.09c.13.07.26.14.38.22a3.17,3.17,0,0,1,.48.49,4.2,4.2,0,0,1,.43.74,4.83,4.83,0,0,1,.29,1.07,7.32,7.32,0,0,1,0,1.48,8.22,8.22,0,0,1-.47,1.73,8.3,8.3,0,0,1-.82,1.45,7.21,7.21,0,0,1-1.25-.74m-.47-6a.21.21,0,0,0,0,.06.21.21,0,0,1,0-.06m2.51,5.4,0,.08,0-.08m7.65,1.45-.16.07.16-.07"/><polyline class="cls-5" points="66.96 186.95 66.96 186.94 66.96 186.95"/><path class="cls-5" d="M67,187h0s0,0,0,0"/><path class="cls-1" d="M55.47,147.83v-.07a56.73,56.73,0,0,0,.63,7.91,59.27,59.27,0,0,0,1.64,7.54s0,0,0-.06a61.63,61.63,0,0,0,2.49,7c.5,1.17,1,2.32,1.61,3.45s1.13,2.12,1.72,3.16c.74,1.31,1.49,2.61,2.21,3.92s1.42,2.64,2,4a28.91,28.91,0,0,1,1.35,3.56,23.88,23.88,0,0,1,.91,9.19,20.32,20.32,0,0,1-1.43,5.69,17.67,17.67,0,0,1-3,4.87,16.67,16.67,0,0,1-2,2,17.7,17.7,0,0,1-2.4,1.66,18.58,18.58,0,0,1-5.91,2.11l-.89.14a25.09,25.09,0,0,0,4.38.38,23.09,23.09,0,0,0,5.15-.57,17,17,0,0,0,9.21-5.4,19.18,19.18,0,0,0,4.11-12.09c.08-5.29-1.85-10.37-3.3-13.74-1.35-3.13-2.94-6.15-4.48-9.07-.76-1.44-1.51-2.85-2.22-4.27-.93-1.84-1.7-3.47-2.36-5a40.55,40.55,0,0,1-2.22-6.66c0-.16-.08-.32-.11-.49l0-.22,0-.24-.13-.63c-.12-.56-.25-1.11-.4-1.66a28.16,28.16,0,0,0-1-3,18.88,18.88,0,0,0-3-5.24,12.4,12.4,0,0,0-2.35-2.18q-.12,2-.09,4.05"/><path class="cls-1" d="M133.09,151a45,45,0,0,1,1.7,13.75,53.42,53.42,0,0,1-2.29,14,55.71,55.71,0,0,1-5.74,13,52.68,52.68,0,0,1-4,5.77,47.11,47.11,0,0,1-4.66,5c-.77.72-1.56,1.42-2.39,2.07-.65.52-1.32,1-2,1.49a47,47,0,0,1-4.82,2.9,50.08,50.08,0,0,1-5.54,2.49,41.3,41.3,0,0,1-5.85,1.73,30.57,30.57,0,0,1-5.87.71,20.43,20.43,0,0,1-5.56-.64,14.93,14.93,0,0,1-4.73-2.16,19.22,19.22,0,0,0,1.13,1.61,18.06,18.06,0,0,0,4,3.65,22.22,22.22,0,0,0,11,3.6c.6.05,1.24.07,1.88.07a32.45,32.45,0,0,0,4.75-.38,31.22,31.22,0,0,0,6.94-1.85,35.41,35.41,0,0,0,11.91-7.87,44.32,44.32,0,0,0,8.39-11.73,49.07,49.07,0,0,0,2.76-6.73,48.53,48.53,0,0,0,1.6-6.42c.61-3.26,1-6.54,1.33-9.74a68,68,0,0,0,.14-10.72,37.48,37.48,0,0,0-2-10.22,21.66,21.66,0,0,0-2.44-4.86c.17.5.33,1,.48,1.51"/><path class="cls-4" d="M104.77,156.61c-.47,1.09-1,2.15-1.54,3.19a32.81,32.81,0,0,1-1.82,3,60.68,60.68,0,0,1-5.12,6.41c-1.81,2-3.67,4-5.53,5.93-3.66,3.85-7.4,7.77-10,12.48a23,23,0,0,0-1.56,3.56,27.08,27.08,0,0,0-1,3.87,29.05,29.05,0,0,0-.4,8.27,22.41,22.41,0,0,0,.82,4.07,17.4,17.4,0,0,0,1.65,3.78,18.19,18.19,0,0,0,4,4.78,19.91,19.91,0,0,0,5.15,3.12,24,24,0,0,0,5.94,1.59,33.36,33.36,0,0,0,12.62-.8,31.51,31.51,0,0,0,11.33-5.27,36.72,36.72,0,0,0,5.56-5.23c.85-1,1.63-2,2.38-3.05s1.47-2.18,2.14-3.31a41.92,41.92,0,0,0,2-3.88c.63-1.36,1.22-2.75,1.71-4.16a56.75,56.75,0,0,0,2.25-8.39.29.29,0,0,0-.23-.34.29.29,0,0,0-.34.22,36.19,36.19,0,0,1-1.29,4.91v0a49.38,49.38,0,0,1-5.67,11.38h0v0l-.09.15a.25.25,0,0,1,0-.07,43.23,43.23,0,0,1-7.33,8.35,32.1,32.1,0,0,1-7,4.55h0a35.42,35.42,0,0,1-8.23,2.63l.27,0a33.35,33.35,0,0,1-8.1.55h0a25.64,25.64,0,0,1-6.37-1.22,19.58,19.58,0,0,1-4.38-2.15,16.07,16.07,0,0,1-5.62-6.58,2,2,0,0,1,.1.21,20.48,20.48,0,0,1-1.52-4.78,27.4,27.4,0,0,1-.33-6.2,27.78,27.78,0,0,1,1.24-6.71,27.33,27.33,0,0,1,3.11-6,1,1,0,0,0-.1.15,55.49,55.49,0,0,1,5.06-6.27c1.77-1.94,3.61-3.81,5.41-5.71,3.81-4,7.78-8,10.33-13a22.33,22.33,0,0,0,1.46-3.59.61.61,0,0,0-.33-.67.58.58,0,0,0-.26-.06.63.63,0,0,0-.56.34m28.84,34.66,0,0s0,0,0,0M79.76,204.44l0,.08Zm3.74,8.11.08.1-.08-.1m7.78,5.13.07,0-.07,0m6,1.16h0m30.58-16a.22.22,0,0,0,0-.08h0l-.06.09"/><path class="cls-4" d="M62,154.3a.25.25,0,0,0-.19.3,87.37,87.37,0,0,0,5.1,15.26c.54,1.23,1.13,2.44,1.74,3.64s1.26,2.34,1.87,3.52a65.58,65.58,0,0,1,3.38,7.39v0a36.6,36.6,0,0,1,1.34,4.36,30.83,30.83,0,0,1,.72,4.35v0h0v.06a.13.13,0,0,1,0,.06s0,0,0,0a28.35,28.35,0,0,1-.23,7.07,19.41,19.41,0,0,1-1.43,4.65l0-.05,0,.05,0,.09a14.93,14.93,0,0,1-1.92,3,12.91,12.91,0,0,1-2.22,2h0a17.74,17.74,0,0,1-3.89,2A24.45,24.45,0,0,1,60,213.46l.2,0a24.17,24.17,0,0,1-6.47-.23h0a26.45,26.45,0,0,1-5.94-1.93,27.57,27.57,0,0,1-5.74-3.7l.15.13a29,29,0,0,1-2.87-2.78,32.27,32.27,0,0,1-2.5-3.1h0l0-.06h0l0,0a40,40,0,0,1-2.63-4.36A44.07,44.07,0,0,1,32,192.46l.05.14a49.43,49.43,0,0,1-2.33-8.7c-.12-.54-.23-1.08-.33-1.63s-.22-1.31-.31-2c0-.32-.1-.64-.14-1l0-.2c0-.12,0-.25-.05-.38-.12-.82-.21-1.63-.26-2.45,0,1.27,0,2.54,0,3.81,0,.55,0,1.1,0,1.64s.1,1,.16,1.53a48.17,48.17,0,0,0,1.69,8.34,39.68,39.68,0,0,0,6.33,12.59,33.19,33.19,0,0,0,2.25,2.63,32.06,32.06,0,0,0,2.57,2.37,26.31,26.31,0,0,0,2.79,2,26,26,0,0,0,3.13,1.66,24.27,24.27,0,0,0,6.69,1.95,26.12,26.12,0,0,0,13.26-1.78,16.4,16.4,0,0,0,5.4-3.64,16.16,16.16,0,0,0,3.62-6.62,22.81,22.81,0,0,0,.74-3.94,25.43,25.43,0,0,0,.08-4,34.68,34.68,0,0,0-1.47-8.32,54.35,54.35,0,0,0-3.36-8.35c-.66-1.35-1.36-2.68-2.08-4s-1.46-2.69-2.16-4a82.57,82.57,0,0,1-3.76-8.37c0-.08-.06-.17-.1-.26h0a.19.19,0,0,0,0-.07v0c-.41-1.13-.81-2.27-1.16-3.42s-.68-2.36-1-3.56a.26.26,0,0,0-.24-.19H62"/><path class="cls-4" d="M75.93,193.12h0"/><polyline class="cls-4" points="36.79 201.78 36.79 201.78 36.79 201.78"/><polyline class="cls-4" points="53.73 213.21 53.73 213.21 53.73 213.21"/><path class="cls-4" d="M75.93,193.09v0"/><path class="cls-4" d="M36.83,201.83l0-.05,0,.05"/><path class="cls-4" d="M74.27,205h0Z"/><path class="cls-2" d="M90.75,0A99.44,99.44,0,0,0,77.46.88,92.73,92.73,0,0,0,50.75,8.57,84.69,84.69,0,0,0,27.68,24.28,89.62,89.62,0,0,0,10.21,47.9,91.24,91.24,0,0,0,1,76.29a83.46,83.46,0,0,0,.82,29.91,53.94,53.94,0,0,0,3.73,11.35A48.46,48.46,0,0,0,11.29,127a55,55,0,0,0,16.4,13.85A83.61,83.61,0,0,0,48.44,149a125.51,125.51,0,0,0,18.14,3.19.72.72,0,0,0,.45.22c5.44.55,11.36.86,18.1.93,1.4,0,2.8,0,4.21,0,3.71,0,7.11-.06,10.41-.18a129.42,129.42,0,0,0,28-3.66,79.62,79.62,0,0,0,13-4.55,67.12,67.12,0,0,0,23-17.15,62,62,0,0,0,8.35-12.23,59.35,59.35,0,0,0,5-13.37,66,66,0,0,0,1.83-14,77.64,77.64,0,0,0-1.08-14.5,95.07,95.07,0,0,0-3.58-14.24,109.7,109.7,0,0,0-4.7-11.94,91.74,91.74,0,0,0-5.79-10.59,77.13,77.13,0,0,0-14.93-17.31,75.48,75.48,0,0,0-19.39-12,95.07,95.07,0,0,0-23.89-6.53A103.08,103.08,0,0,0,90.75,0M17.49,131.51l0,0,0-.06.43.4-.3-.27h0l0,0h0l0,0h0"/><path class="cls-3" d="M128.66,8.59a54.77,54.77,0,0,1,7.06,6.21,66.44,66.44,0,0,1,6.13,7.36,84.84,84.84,0,0,1,9.47,17.28,101.87,101.87,0,0,1,5.69,19c.6,3.09,1.08,6.21,1.39,9.35a90.08,90.08,0,0,1,.46,9.14,86.47,86.47,0,0,1-2.67,21.25,79.13,79.13,0,0,1-7.68,19.22,73.2,73.2,0,0,1-12.33,16.21,70.83,70.83,0,0,1-16.66,12.25,73.75,73.75,0,0,1-9.76,4.3,80.58,80.58,0,0,1-10.76,3l.75,0a129.52,129.52,0,0,0,28-3.66,80.58,80.58,0,0,0,13-4.55,68,68,0,0,0,12.06-7.06,69.26,69.26,0,0,0,11-10.09,62.74,62.74,0,0,0,8.34-12.24,59.51,59.51,0,0,0,5-13.38,66.11,66.11,0,0,0,1.83-14,78.63,78.63,0,0,0-1.07-14.51,95.28,95.28,0,0,0-3.6-14.24,107.66,107.66,0,0,0-4.69-11.94,92,92,0,0,0-5.79-10.59,77.2,77.2,0,0,0-14.93-17.31,75.57,75.57,0,0,0-19.4-12c-1.83-.79-3.73-1.52-5.68-2.19a46.42,46.42,0,0,1,4.91,3.2"/><path class="cls-6" d="M1.77,106.2A53.64,53.64,0,0,0,5.5,117.56,48.65,48.65,0,0,0,11.27,127a54.93,54.93,0,0,0,16.41,13.86c1.49.84,3,1.64,4.59,2.39.21-.54.41-1.09.59-1.64a40.86,40.86,0,0,0,1.2-4.63v0a35.77,35.77,0,0,0,.58-4.83,36.77,36.77,0,0,0-.07-4.81.17.17,0,0,0,0,.07,36.67,36.67,0,0,0-.74-4.9,41.28,41.28,0,0,0-1.3-4.46v0h0a36,36,0,0,0-1.93-4.4,38.93,38.93,0,0,0-2.36-3.93,36.81,36.81,0,0,0-2.93-3.67,39.19,39.19,0,0,0-3.2-3.11h0l0,0,0,0,0,0h0a36.33,36.33,0,0,0-3.66-2.74,38.82,38.82,0,0,0-4-2.28l0,0,0,0-.05,0h0s0,0,0,0A38.69,38.69,0,0,0,9.73,96a39.38,39.38,0,0,0-4.55-1.16h0a34,34,0,0,0-4.71-.55l-.27,0A82.55,82.55,0,0,0,1.77,106.2"/><path class="cls-6" d="M134.51,112.4h.06a35.29,35.29,0,0,0-4.79.73,36.49,36.49,0,0,0-4.48,1.31l.06,0a35.59,35.59,0,0,0-4.3,1.87,38.54,38.54,0,0,0-4.09,2.46h0a34.08,34.08,0,0,0-3.53,2.82,36.91,36.91,0,0,0-3.21,3.29s0,0,0,0a36.76,36.76,0,0,0-2.86,3.81,37.65,37.65,0,0,0-2.26,4l0-.06a35.89,35.89,0,0,0-3,9.12.15.15,0,0,1,0-.07,34.39,34.39,0,0,0-.57,4.64,38.36,38.36,0,0,0,.06,5v-.07c0,.61.11,1.22.2,1.82a125.67,125.67,0,0,0,25.9-3.57,80.58,80.58,0,0,0,13-4.55,68,68,0,0,0,12.06-7.06,69.26,69.26,0,0,0,11-10.09c.63-.72,1.24-1.46,1.84-2.21-.4-.49-.81-1-1.24-1.44a38,38,0,0,0-3.21-3.14l.05,0a35.69,35.69,0,0,0-3.84-2.89,38.91,38.91,0,0,0-4.08-2.31h0a35.85,35.85,0,0,0-9.05-3h.05a36.92,36.92,0,0,0-4.81-.57c-.6,0-1.21,0-1.81,0-1,0-2.06,0-3.08.13"/><path class="cls-5" d="M84.72,22.79A11.17,11.17,0,0,0,80,24.62a12.25,12.25,0,0,0-3.39,3.49,14.1,14.1,0,0,0-1.78,4.41A19.77,19.77,0,0,0,77.33,46.7,22.24,22.24,0,0,0,80.79,51c.34.33.69.65,1,1a32.43,32.43,0,0,1-3.37,1.6,38,38,0,0,1-9.08,2.34,36.24,36.24,0,0,1-8.52,0,28.79,28.79,0,0,1-7-1.8,23.43,23.43,0,0,1-4-2.21C51,51.49,52,51,53,50.5a23.42,23.42,0,0,0,7.65-6A18,18,0,0,0,62,42.61a15.67,15.67,0,0,0,1.09-2.26A13.82,13.82,0,0,0,64,35.51a12.67,12.67,0,0,0-.88-4.91,11.79,11.79,0,0,0-2.52-3.9,11,11,0,0,0-8.13-3.27,13,13,0,0,0-8.94,4.22,12.85,12.85,0,0,0-2.63,4.1,14.35,14.35,0,0,0-1,4.53A17,17,0,0,0,40.34,41,20.68,20.68,0,0,0,42,45.57a22.59,22.59,0,0,0,2.65,4.12,16.74,16.74,0,0,0,1.31,1.47,34.11,34.11,0,0,1-5.29,1.13,27.87,27.87,0,0,1-6.89,0l.26,0a24.71,24.71,0,0,1-5.93-1.57l.1,0a22.51,22.51,0,0,1-4.91-2.86,19.77,19.77,0,0,1-3.4-3.38A17.1,17.1,0,0,1,18,41.14a17.36,17.36,0,0,1-1-3.69l-.06-.65c-.25.35-.5.71-.76,1.06l-.28.4-.32.44-.29.42c.09.41.2.82.32,1.23a17.65,17.65,0,0,0,2.32,4.88,19.2,19.2,0,0,0,4,4.13A23.58,23.58,0,0,0,32.58,54.1a29.44,29.44,0,0,0,11.3-.35c1.27-.28,2.54-.62,3.79-1l.45.36A24.48,24.48,0,0,0,58,57.45a34.81,34.81,0,0,0,11.2.46,38.93,38.93,0,0,0,10.76-2.82,28.66,28.66,0,0,0,3.58-1.82c.57.43,1.15.83,1.74,1.21a31.85,31.85,0,0,0,5,2.65,34.77,34.77,0,0,0,5.33,1.79,32,32,0,0,0,5.51.82A34.05,34.05,0,0,0,113,58.31a35.24,35.24,0,0,0,5.61-2.23c.45.4.93.78,1.41,1.16a30.34,30.34,0,0,0,2.62,1.87,29.2,29.2,0,0,0,16.71,4.51,34.08,34.08,0,0,0,11.57-2.5A41.69,41.69,0,0,0,161.46,55c.69-.54,1.36-1.12,2-1.72-.21-.73-.42-1.46-.62-2.19a37.3,37.3,0,0,1-3.75,3.23l.21-.16a41.84,41.84,0,0,1-9.14,5.17l.24-.09a35.24,35.24,0,0,1-8.08,2.18,31.17,31.17,0,0,1-7.6.05h0a27.31,27.31,0,0,1-13.37-5.62c-.31-.24-.61-.49-.91-.74a34.48,34.48,0,0,0,3.22-2.13,31.9,31.9,0,0,0,4.41-4A36.21,36.21,0,0,0,131,45.35a25.54,25.54,0,0,0,2.47-4.23,15.4,15.4,0,0,0,1.36-4.58,8.65,8.65,0,0,0-.56-4.36,8.28,8.28,0,0,0-1.12-1.87,9.06,9.06,0,0,0-1.94-1.77,11.55,11.55,0,0,0-2.38-1.26,10.58,10.58,0,0,0-2.67-.62,10.89,10.89,0,0,0-5,.68,15.09,15.09,0,0,0-7.81,6.83,14.19,14.19,0,0,0-1,2.33,14,14,0,0,0-.62,2.86,17,17,0,0,0,.37,5.81,21,21,0,0,0,2.17,5.51,20,20,0,0,0,2.82,3.9q-.92.45-1.86.84h0a35.28,35.28,0,0,1-8.38,2.17l.25,0a32.69,32.69,0,0,1-8,0,31.84,31.84,0,0,1-13.76-5.42A36.86,36.86,0,0,0,89,49.21a32.45,32.45,0,0,0,4.07-4.38,23.86,23.86,0,0,0,3-5A15.83,15.83,0,0,0,97.4,34.5,11.28,11.28,0,0,0,97.26,32a10.44,10.44,0,0,0-.75-2.5,10.9,10.9,0,0,0-2.79-3.87,11.71,11.71,0,0,0-4.18-2.39,10.54,10.54,0,0,0-3.3-.52,11,11,0,0,0-1.52.1M80,47.08a18.84,18.84,0,0,1-2.26-4,20,20,0,0,1-1.15-4.52,18.39,18.39,0,0,1,0-4.26,14.67,14.67,0,0,1,.89-3.46,12.44,12.44,0,0,1,1.42-2.48,11.5,11.5,0,0,1,1.86-1.83A11.61,11.61,0,0,1,83,25.31a10.12,10.12,0,0,1,2.18-.56,10.48,10.48,0,0,1,2.24,0,11,11,0,0,1,2.33.63,11.15,11.15,0,0,1,2.21,1.3,10.73,10.73,0,0,1,1.73,1.77,9.13,9.13,0,0,1,1.71,4.19,12.35,12.35,0,0,1,0,2.65,15.71,15.71,0,0,1-1,3.56,23.94,23.94,0,0,1-3,5h0a35.06,35.06,0,0,1-6.19,6c-.5.36-1,.72-1.52,1.06A24.49,24.49,0,0,1,80,47.08M42.78,32.34a12.22,12.22,0,0,1,1.5-2.54,13.56,13.56,0,0,1,2.21-2.14,13.4,13.4,0,0,1,2.62-1.51,11.61,11.61,0,0,1,2.46-.66,9.28,9.28,0,0,1,4.61.6,10.87,10.87,0,0,1,2.11,1.23,9.52,9.52,0,0,1,2.93,3.93,12.71,12.71,0,0,1,.66,2.51,13.19,13.19,0,0,1,0,3.14.07.07,0,0,1,0,.05c0,.07,0,.13,0,.19s0-.12,0-.17a14.09,14.09,0,0,1-.81,3,14.75,14.75,0,0,1-1.88,3.15,20.17,20.17,0,0,1-3.53,3.38A31,31,0,0,1,49.22,50c-.37.15-.75.29-1.14.43a21.13,21.13,0,0,1-2.49-2.77l.15.21a21.73,21.73,0,0,1-2.6-4.63A18.61,18.61,0,0,1,42,39a15.29,15.29,0,0,1,0-3.64v-.06a13.56,13.56,0,0,1,.8-3m9-6.88-.16,0ZM79,28.21l-.1.12.1-.12m35.84,19.16a20.07,20.07,0,0,1-1.12-4.17,16,16,0,0,1,0-3.91,13.16,13.16,0,0,1,.82-3,14.45,14.45,0,0,1,1.66-2.84,15.07,15.07,0,0,1,2.57-2.54,14.1,14.1,0,0,1,2.72-1.56,12.2,12.2,0,0,1,2.59-.68,10.88,10.88,0,0,1,2.21,0,10.19,10.19,0,0,1,2.16.6,10.45,10.45,0,0,1,2.06,1.22,7.84,7.84,0,0,1,1.25,1.26,7.09,7.09,0,0,1,.72,1.26,7.5,7.5,0,0,1,.39,1.48,8.92,8.92,0,0,1,0,2,14,14,0,0,1-1,3.3,26.79,26.79,0,0,1-3.43,5.66,30.47,30.47,0,0,1-9.56,8.18,20.94,20.94,0,0,1-1.67-2l.15.21a21.65,21.65,0,0,1-2.53-4.5M124,28.67h0m-2.32.58-.21.09.21-.09m11.14,5c0,.05,0,.1,0,.16s0-.11,0-.16M42,35.19a.77.77,0,0,1,0,.15c0-.05,0-.1,0-.15m34.59,3.4s0,.11,0,.16a1,1,0,0,1,0-.16M42,38.81A1.23,1.23,0,0,0,42,39a1.11,1.11,0,0,1,0-.19M61.05,40l-.06.17.06-.17m-1.69,2.92-.16.2.16-.2m18.39.2c0,.06,0,.13.08.2Zm37.13,4.26.08.21c0-.08-.06-.14-.08-.21M85.32,49.67l-.06,0,.06,0m37.24,1.63,0,0,0,0M78.43,53.56l-.09,0,.09,0m36.86,1.83h0m-45.87.49Z"/><polyline class="cls-5" points="91.35 43.81 91.35 43.8 91.35 43.81"/><path class="cls-5" d="M42,35.36v0h0"/><path class="cls-5" d="M61.88,37h0v0"/><polyline class="cls-5" points="91.35 43.8 91.36 43.79 91.35 43.8"/><path class="cls-5" d="M115.2,55.42h0"/><path class="cls-1" d="M129.8,8.33a71,71,0,0,1,9,6.52,70.19,70.19,0,0,1,8,8,71.52,71.52,0,0,1,6.6,9.08A82.83,82.83,0,0,1,159,43.05a98.8,98.8,0,0,1,4.42,13,108.24,108.24,0,0,1,2.63,13.23,111.61,111.61,0,0,1,1,13.67q0,3.42-.13,6.84c-.06,1.16-.13,2.32-.23,3.48-.09,1-.19,2-.32,2.92q-.39,3-1.07,5.87c-.47,2-1,4-1.69,6a65.67,65.67,0,0,1-5,11.22,62.17,62.17,0,0,1-6.93,10,57.08,57.08,0,0,1-4.21,4.45c-1.39,1.31-2.85,2.55-4.33,3.77a114.51,114.51,0,0,1-9.66,7.18c-1.78,1.18-3.59,2.3-5.45,3.33a59.54,59.54,0,0,1-5.55,2.74c1.8-.36,3.55-.76,5.27-1.2a79.62,79.62,0,0,0,13-4.55,68,68,0,0,0,12.06-7.06,69.26,69.26,0,0,0,11-10.09,62.74,62.74,0,0,0,8.34-12.24,59.51,59.51,0,0,0,5-13.38,66.19,66.19,0,0,0,1.83-14,78.57,78.57,0,0,0-1.07-14.51,95.28,95.28,0,0,0-3.6-14.24,106.9,106.9,0,0,0-4.69-11.94,91.2,91.2,0,0,0-5.79-10.59,77.2,77.2,0,0,0-14.93-17.31,75.84,75.84,0,0,0-19.4-12c-1-.44-2.1-.87-3.17-1.28,1.2.64,2.38,1.31,3.54,2"/><path class="cls-7" d="M100.75,122.46a14.77,14.77,0,0,0-4.73.8,19.38,19.38,0,0,0-5.37,2.9A37.41,37.41,0,0,0,81.92,136a62,62,0,0,0-5.4,10.46.8.8,0,0,0-.36-.11c-.46,0-.93,0-1.39,0h-.58a30.14,30.14,0,0,0-2.11-6.23,31.53,31.53,0,0,0-3.75-6.16,28.31,28.31,0,0,0-5-5.06,24.13,24.13,0,0,0-3-2,21.89,21.89,0,0,0-3.2-1.47,18.21,18.21,0,0,0-6.25-1.13h-.47a12.28,12.28,0,0,0-5.11,1.23,10.78,10.78,0,0,0-3.57,3,15.74,15.74,0,0,0-2.38,4.34,24.94,24.94,0,0,0-1.23,5,39.22,39.22,0,0,0-.39,5.44,48.39,48.39,0,0,0,1,10,39,39,0,0,0,1.59,5.63A31.68,31.68,0,0,0,43,164.55a19.7,19.7,0,0,0,3.85,4.66A13.16,13.16,0,0,0,52,172a11.5,11.5,0,0,0,3.14.42,14.82,14.82,0,0,0,3.19-.37A17.6,17.6,0,0,0,65,168.9a27.16,27.16,0,0,0,5.3-5.35,44.22,44.22,0,0,0,4-6.23c0-.09.1-.19.15-.28.21,0,.39,0,.57,0a10.29,10.29,0,0,0,1.35-.08,38.19,38.19,0,0,0,2.17,3.25c.78,1.05,1.65,2.11,2.59,3.15a39.23,39.23,0,0,0,6.18,5.49,32.19,32.19,0,0,0,7.15,3.88,17.82,17.82,0,0,0,6.45,1.34h.52a12,12,0,0,0,5.59-1.65,14.45,14.45,0,0,0,4.17-3.92,22.2,22.2,0,0,0,2.78-5.36,30.2,30.2,0,0,0,1.55-6c.28-1.8.41-3.6.49-5,.1-1.62.14-3.28.12-4.94a50.51,50.51,0,0,0-1.16-10.86,22.18,22.18,0,0,0-4.24-9.35,12.66,12.66,0,0,0-3.69-3,13,13,0,0,0-5-1.45c-.39,0-.78-.05-1.17-.05"/><path class="cls-8" d="M48,127.56a10.47,10.47,0,0,0-1.51.63,9.93,9.93,0,0,0-1.3.84,9.4,9.4,0,0,0-2,2.08,12.1,12.1,0,0,0-1.29,2.47,17.52,17.52,0,0,0-.82,2.76,31.91,31.91,0,0,0-.16,11.24.33.33,0,0,0,.38.25.32.32,0,0,0,.25-.38c-.09-.64-.16-1.29-.2-1.94,0,0,0,.07,0,.1a27.23,27.23,0,0,1,0-3.38,25.7,25.7,0,0,1,.44-3.51,16.79,16.79,0,0,1,1.39-4,11.53,11.53,0,0,1,1.47-2.13,9.36,9.36,0,0,1,1.58-1.37,8.26,8.26,0,0,1,1.63-.81l.66-.19a1.43,1.43,0,0,0,.87-.57,1.37,1.37,0,0,0,.22-1,1.4,1.4,0,0,0-.57-.87,1.51,1.51,0,0,0-.79-.25,1.09,1.09,0,0,0-.26,0m-1.58,3.57-.07.05.07-.05m-3.23,3.63a1.62,1.62,0,0,1-.1.18,1.62,1.62,0,0,1,.1-.18m-1.4,4s0,.05,0,.07Z"/><path class="cls-8" d="M101,124a13.12,13.12,0,0,0-2.65.3,14.87,14.87,0,0,0-4.7,1.93,20.32,20.32,0,0,0-1.95,1.39,18.12,18.12,0,0,0-1.83,1.67,20.63,20.63,0,0,0-2.94,3.83.31.31,0,0,0,.07.41.3.3,0,0,0,.41-.08,11.86,11.86,0,0,1,1.42-2h0a14.41,14.41,0,0,1,1.2-1.14,15.43,15.43,0,0,1,1.54-1.11l-.12.08a15.28,15.28,0,0,1,3.47-1.63,19.68,19.68,0,0,1,4.42-.88,16.83,16.83,0,0,1,1.74,0c.61,0,1.22.09,1.83.14a1.38,1.38,0,0,0,1.41-.91,1.33,1.33,0,0,0-.06-1.07,1.3,1.3,0,0,0-.77-.7,10.34,10.34,0,0,0-2.34-.29H101"/><path class="cls-9" d="M79.64,154.67h-.38a.79.79,0,0,0-.73.79.78.78,0,0,0,.78.73.79.79,0,0,0,.26.53c.62.51,1.26,1,1.9,1.47,1.15.87,2.34,1.71,3.54,2.51,1.51,1,2.89,1.85,4.23,2.58a26.53,26.53,0,0,0,4.36,2,9,9,0,0,0,2.82.52,5,5,0,0,0,1-.08,3.26,3.26,0,0,0,1.41-.59,3.3,3.3,0,0,0,1-1.37,4.26,4.26,0,0,0,.34-1.85,3.82,3.82,0,0,0-.52-1.67,4.83,4.83,0,0,0-1.16-1.32,9.61,9.61,0,0,0-1.7-1.1,20.56,20.56,0,0,0-4.39-1.57,43,43,0,0,0-4.93-.94c-1.47-.21-3-.36-4.67-.48-.93-.06-2-.12-3.17-.12"/><path class="cls-9" d="M73.05,153.81h0a.84.84,0,0,0-.52.23l-.41.37c-.75.06-1.52.18-2.26.3l-.12,0c-1.45.23-2.91.51-4.36.83-1.71.37-3.27.78-4.77,1.25a27.77,27.77,0,0,0-4.35,1.72,11.07,11.07,0,0,0-1.61,1,5.46,5.46,0,0,0-1.22,1.15,3.3,3.3,0,0,0-.66,1.42,2.74,2.74,0,0,0,.2,1.53,4.33,4.33,0,0,0,1.14,1.54,4.12,4.12,0,0,0,1.81.9,4.74,4.74,0,0,0,1,.11,6.83,6.83,0,0,0,1-.08,9.74,9.74,0,0,0,2.2-.65,21.26,21.26,0,0,0,4-2.27c1.18-.82,2.43-1.79,3.93-3.06,1.24-1,2.41-2.12,3.3-2.94.28-.25.55-.51.82-.77l.66-.61a1,1,0,0,0,.22-.2l.35-.32.19-.17a.65.65,0,0,0,.21-.48.83.83,0,0,0-.24-.59.73.73,0,0,0-.52-.21"/><path class="cls-9" d="M55.61,133.41h-.26a2.12,2.12,0,0,0-.62.14A2.35,2.35,0,0,0,54,134a2.72,2.72,0,0,0-.73,1.24,4.61,4.61,0,0,0-.18,1.93,6.19,6.19,0,0,0,.7,2.2,10,10,0,0,0,1.38,1.91,16.1,16.1,0,0,0,1.95,1.8,32,32,0,0,0,5,3.22,50.35,50.35,0,0,0,5.21,2.33,28.57,28.57,0,0,0,4.09,1.28l.18,0a.75.75,0,0,0,.75-.55.77.77,0,0,0-.09-.61.66.66,0,0,0-.44-.33l-.17,0c-.33-.49-.7-1-1.07-1.45l-.13-.16c-.82-1.06-1.68-2.12-2.57-3.17a64.56,64.56,0,0,0-6.56-6.88,21.09,21.09,0,0,0-3.26-2.46,8.07,8.07,0,0,0-1.48-.68,3.46,3.46,0,0,0-1-.18"/><path class="cls-9" d="M95.05,131a3.43,3.43,0,0,0-.94.13,6,6,0,0,0-1.46.61,13.23,13.23,0,0,0-1.53,1.06,25,25,0,0,0-3.07,2.9c-1,1-1.92,2.18-3,3.63-1.71,2.21-3.35,4.52-4.86,6.87l-.15.24c-.35.54-.71,1.1-1,1.68a.77.77,0,0,0,.27,1,.83.83,0,0,0,.38.1.78.78,0,0,0,.5-.18,32.69,32.69,0,0,0,3.36-1.35c1.59-.72,3.19-1.52,4.74-2.4A44.28,44.28,0,0,0,93,142.26a19.32,19.32,0,0,0,3.8-3.63,6.21,6.21,0,0,0,1.45-3.81,4.71,4.71,0,0,0-.51-1.91,3.42,3.42,0,0,0-.9-1.2,2.6,2.6,0,0,0-1.27-.62,3.43,3.43,0,0,0-.56-.05"/><path class="cls-10" d="M75.69,163.27c3.74-.06,6.7-4.58,6.61-10.08s-3.21-9.91-7-9.85-6.71,4.58-6.62,10.08,3.21,9.91,7,9.85"/><path class="cls-11" d="M74.18,79.11c-7.2,0-13,4.35-13.23,9.9a9.32,9.32,0,0,0,3.67,7.52A15.68,15.68,0,0,0,74.05,100h.7c7.2,0,13-4.34,13.24-9.89a9.35,9.35,0,0,0-3.68-7.53,15.7,15.7,0,0,0-9.43-3.43h-.7"/><path class="cls-12" d="M80.92,81.19a10.27,10.27,0,0,1,1.56,1.39,9.32,9.32,0,0,1,1.17,1.54,8.17,8.17,0,0,1,.86,2A7.55,7.55,0,0,1,83.79,92a9,9,0,0,1-1.22,1.67,11,11,0,0,1-1.44,1.28,12,12,0,0,1-2,1.21,13.08,13.08,0,0,1-1.92.73,15.05,15.05,0,0,1-4.57.62,15.35,15.35,0,0,1-4.25-.64A13.57,13.57,0,0,1,64.45,95a11,11,0,0,1-1.64-1.41,9.65,9.65,0,0,1-1.25-1.61s0,0,0,0a5.32,5.32,0,0,1-.37-.66l0-.09a10,10,0,0,0,3.48,5.39A15.71,15.71,0,0,0,74.05,100l.7,0c7.21,0,13-4.36,13.26-9.92a9.37,9.37,0,0,0-3.68-7.54,15.08,15.08,0,0,0-6.75-3.13,12.77,12.77,0,0,1,3.34,1.78"/><polygon class="cls-12" points="62.46 92.39 62.46 92.39 62.46 92.39 62.46 92.39"/><polyline class="cls-12" points="62.48 92.41 62.48 92.41 62.48 92.41 62.48 92.41"/><path class="cls-13" d="M118.38,100c-2.94-.26-4.95-4.58-4.5-9.64s3.21-8.94,6.15-8.68,5,4.59,4.5,9.64-3.21,8.94-6.15,8.68"/><path class="cls-13" d="M34.36,92.45C31.52,92.2,29.58,88,30,83.15s3.09-8.63,5.93-8.38,4.78,4.43,4.34,9.31-3.09,8.63-5.93,8.37"/><path class="cls-13" d="M83.3,103.54a.74.74,0,0,0-.45.34.78.78,0,0,0-.07.58c0,.22.07.43.1.65a13.82,13.82,0,0,1,0,3.34,10.56,10.56,0,0,1-.6,2.27,8.51,8.51,0,0,1-1,1.75,8.88,8.88,0,0,1-1.36,1.38,9.56,9.56,0,0,1-1.73,1,9.37,9.37,0,0,1-2,.55,9.58,9.58,0,0,1-2.27,0,9.37,9.37,0,0,1-2-.55,8.66,8.66,0,0,1-1.77-1,9,9,0,0,1-1.38-1.38,8.87,8.87,0,0,1-1-1.74,10.73,10.73,0,0,1-.68-2.48q-.07-.6-.09-1.2a.77.77,0,0,0-.75-.75.75.75,0,0,0-.75.75,13.48,13.48,0,0,0,.35,2.68,10.85,10.85,0,0,0,.86,2.26,9.31,9.31,0,0,0,2.86,3.28,9.15,9.15,0,0,0,3.71,1.55,10,10,0,0,0,4.12-.1,9.39,9.39,0,0,0,3-1.33,9.07,9.07,0,0,0,2.52-2.57,9.88,9.88,0,0,0,1.39-3.53,14.2,14.2,0,0,0-.07-5.2.73.73,0,0,0-.74-.55.57.57,0,0,0-.18,0m-5,11.24,0,0,0,0"/><path class="cls-14" d="M40.88,57.14a17,17,0,0,0-6,1.22,16.15,16.15,0,0,0-5.94,3.8c-1.4,1.51-1.91,3-1.44,4.2.53,1.38,2.29,2.17,4.83,2.17a17,17,0,0,0,6-1.22,16.1,16.1,0,0,0,5.93-3.8c1.4-1.52,1.92-3,1.45-4.2-.53-1.38-2.29-2.17-4.83-2.17"/><path class="cls-14" d="M117.13,63.77c-2.67,0-4.52.84-5.08,2.28-.49,1.26,0,2.82,1.52,4.41a16.92,16.92,0,0,0,6.23,4,17.91,17.91,0,0,0,6.32,1.29c2.66,0,4.51-.83,5.07-2.28.49-1.25-.05-2.82-1.52-4.41a16.88,16.88,0,0,0-6.24-4,17.81,17.81,0,0,0-6.3-1.29"/></g></g></svg>