<svg xmlns="http://www.w3.org/2000/svg" viewBox="0 0 89.8 116.63"><defs><style>.cls-1{fill:#8c4f22;}.cls-2{fill:#9f6430;}.cls-3{fill:#deb688;}.cls-4{fill:#fff;}</style></defs><g id="Capa_2" data-name="Capa 2"><g id="OBJECTS"><path class="cls-1" d="M75.9,57c10-.83,14.31-5,13.17-12-.74-4.58-3.61-7.56-7.8-8.31a15.58,15.58,0,0,0-7.49.75,44.41,44.41,0,0,1-15.13,2.21C62,38.34,72.08,27.49,67.76,16.2,63.89,6.08,54.14,3.87,52.18,3.52l-.35-.06-.34-.06c-2-.35-11.88-1.62-19,6.56-7.93,9.12-2.23,22.75.5,25.19a44.45,44.45,0,0,1-13.46-7.28,15.51,15.51,0,0,0-6.77-3.27c-4.19-.74-7.91,1.08-10.19,5.12C-.87,35.87,1.77,41.3,10.84,45.5s15.91,8.79,14,13.41-12.94,19.58-19,26.61-8,14.14-2.57,19.61A9.74,9.74,0,0,0,8.51,108c4.57.81,9.5-1.65,12.37-5.21,4.05-5,10.18-15.29,16-14.9,5.61,1.63,7.85,13.38,9.93,19.49,1.46,4.33,5.25,8.34,9.82,9.15a9.87,9.87,0,0,0,6-.83c7-3.27,7.63-10.6,4.32-19.3s-8.49-26.53-8.73-31.53S66,57.85,75.9,57Z"/><path class="cls-2" d="M76.46,53.91c10-.83,14.3-5,13.16-12-.74-4.59-3.61-7.57-7.8-8.31a15.34,15.34,0,0,0-7.49.75,44.24,44.24,0,0,1-15.13,2.2c3.39-1.35,13.43-12.2,9.12-23.48C64.44,3,54.69.75,52.73.4L52.39.35,52,.28c-2-.34-11.88-1.62-19,6.56C25.12,16,30.82,29.6,33.55,32a44.27,44.27,0,0,1-13.46-7.27,15.4,15.4,0,0,0-6.77-3.27c-4.19-.74-7.91,1.07-10.18,5.12-3.46,6.15-.82,11.58,8.25,15.78s15.91,8.79,14,13.4-12.94,19.58-19,26.62S-1.7,96.54,3.76,102a9.77,9.77,0,0,0,5.3,2.82c4.57.81,9.5-1.65,12.37-5.22,4.05-5,10.18-15.29,16-14.89,5.61,1.63,7.86,13.37,9.93,19.49,1.47,4.33,5.25,8.34,9.82,9.14a9.72,9.72,0,0,0,6-.83c7-3.26,7.63-10.59,4.32-19.29S59,66.71,58.73,61.7,66.5,54.74,76.46,53.91Z"/><path class="cls-3" d="M57.6,111.07c-3.41-.61-6.71-3.73-8-7.6-.38-1.12-.78-2.46-1.19-3.89-2-6.87-4.52-15.41-10.3-17.09a2,2,0,0,0-.49-.09c-6-.41-11.29,6.76-15.54,12.52-.89,1.21-1.71,2.33-2.45,3.24-2.56,3.19-6.73,5-10.14,4.39a7.53,7.53,0,0,1-4.06-2.18c-4.1-4.11-3.2-9.64,2.68-16.44S25.36,61.79,27.51,56.7c3.32-7.88-9.62-13.87-15.14-16.43-4.49-2.08-7.3-4.5-8.1-7a6.74,6.74,0,0,1,.9-5.52c1.78-3.18,4.46-4.55,7.74-4h0a13.42,13.42,0,0,1,5.74,2.81,46.42,46.42,0,0,0,14.24,7.68,2.33,2.33,0,0,0,2.21-4c-1.84-1.65-7.33-13.83-.29-21.93C41.1,1.14,49.93,2.28,51.64,2.58l.34.06.11,0,.24,0C54,3,62.71,5,66.14,13.92c3.83,10-5.51,19.58-7.81,20.49A2.33,2.33,0,0,0,59,38.9a46.25,46.25,0,0,0,16-2.32,13.41,13.41,0,0,1,6.35-.67c3.28.59,5.33,2.79,5.91,6.39a6.7,6.7,0,0,1-1,5.49h0c-1.61,2.07-5.07,3.39-10,3.8C70.2,52.09,56,53.28,56.4,61.82c.27,5.51,5.65,23.72,8.88,32.24s2.14,13.91-3.12,16.36A7.51,7.51,0,0,1,57.6,111.07ZM38,81.77l.31.08C44.4,83.63,47,92.37,49,99.4c.42,1.41.81,2.75,1.19,3.86,1.23,3.65,4.32,6.59,7.51,7.15a6.8,6.8,0,0,0,4.15-.59c4.9-2.28,5.84-7.51,2.79-15.52C61.41,85.74,56,67.42,55.74,61.85,55.29,52.67,70,51.44,76.21,50.92c4.74-.39,8-1.62,9.54-3.54a6.14,6.14,0,0,0,.92-5c-.54-3.29-2.4-5.31-5.37-5.84a12.7,12.7,0,0,0-6,.64A46.71,46.71,0,0,1,59,39.56a3,3,0,0,1-.91-5.77c2.19-.87,11.1-10,7.43-19.63C62.22,5.54,53.85,3.65,52.21,3.36l-.35-.06-.34-.07c-1.64-.29-10.15-1.39-16.21,5.58-6.75,7.77-1.52,19.42.24,21a3,3,0,0,1-2.84,5.11,47.09,47.09,0,0,1-14.47-7.8,12.71,12.71,0,0,0-5.45-2.67h0c-3-.53-5.41.73-7,3.64a6.14,6.14,0,0,0-.85,5c.75,2.31,3.43,4.6,7.75,6.6,5.7,2.64,19,8.82,15.47,17.29C26,62.1,14.59,77.45,8.6,84.37,3,90.85,2.07,96.08,5.88,99.9a6.86,6.86,0,0,0,3.7,2c3.19.56,7.1-1.14,9.51-4.14.73-.9,1.55-2,2.42-3.2,4.36-5.91,9.77-13.24,16.14-12.82Z"/><path class="cls-4" d="M45.51,16.15A2.7,2.7,0,1,1,43.32,13,2.7,2.7,0,0,1,45.51,16.15Z"/><path class="cls-4" d="M58.74,18.5a2.7,2.7,0,1,1-2.19-3.13A2.7,2.7,0,0,1,58.74,18.5Z"/><path class="cls-3" d="M43.75,49.12A2.67,2.67,0,1,1,46.84,47,2.66,2.66,0,0,1,43.75,49.12Zm.81-4.6a2,2,0,1,0,1.63,2.32A2,2,0,0,0,44.56,44.52Z"/><path class="cls-3" d="M41.74,60.47a2.67,2.67,0,1,1,3.1-2.17A2.67,2.67,0,0,1,41.74,60.47Zm.82-4.61a2,2,0,1,0,1.62,2.33A2,2,0,0,0,42.56,55.86Z"/><path class="cls-3" d="M39.73,71.81a2.67,2.67,0,0,1,.93-5.26,2.67,2.67,0,1,1-.93,5.26Zm.82-4.6a2,2,0,1,0,1.62,2.32A2,2,0,0,0,40.55,67.21Z"/><path class="cls-3" d="M47.06,30.41C42,29.51,40,23.8,39.9,23.55L39.72,23,56.5,26l-.36.44C56,26.63,52.12,31.3,47.06,30.41Zm-6.31-6.53c.63,1.42,2.64,5.2,6.43,5.87s7-2.19,8-3.31Z"/><path class="cls-3" d="M78.47,51.2c-5.91-5.27-3.65-14.3-3.63-14.39l.65.17c0,.09-2.18,8.72,3.43,13.73Z"/><path class="cls-3" d="M10.7,39.2l-.24-.62c7-2.78,7.92-11.62,7.93-11.71l.67.06C19.05,27,18.07,36.27,10.7,39.2Z"/></g></g></svg>