<svg xmlns="http://www.w3.org/2000/svg" viewBox="0 0 170.49 212.99"><defs><style>.cls-1{fill:#ea6a2a;}.cls-2{fill:#717f44;}.cls-3{fill:#ce4b1d;}.cls-4{fill:#c60634;}.cls-5{fill:#ffd29c;}.cls-6{fill:#490707;}.cls-7{fill:#f9ad5a;}.cls-8{fill:#4c5e2c;}.cls-9{fill:#a3003b;}.cls-10{fill:#b73718;}</style></defs><g id="Capa_2" data-name="Capa 2"><g id="OBJECTS"><path class="cls-1" d="M117.83,187.57a4.22,4.22,0,0,0,.92,1.48,1.81,1.81,0,0,0,.33.2h.09l0,0a2.76,2.76,0,0,0,.25-.44,4.15,4.15,0,0,0,.08-2.11,6.88,6.88,0,0,0-1.66-3.36A5.14,5.14,0,0,0,117.83,187.57Z"/><path class="cls-1" d="M50.77,188.2c.69,1,1.24.4,2-.41a5,5,0,0,0-.31-5.68C50.48,183.8,49.74,186.88,50.77,188.2Z"/><path class="cls-2" d="M106.19,85.86l0,0c-.38.38-.79.75-1.23,1.12h0a31.69,31.69,0,0,1-8.35,4.87c-8.48,3.45-18.42,2.37-26.16-1.25a28.14,28.14,0,0,1-4.71-2.72A15.73,15.73,0,0,1,64,86.43l-.12-.15a4.61,4.61,0,0,0,1.31-2.36,9.51,9.51,0,0,0,.19-1.42,23.22,23.22,0,0,0,4.72,3.08,34.62,34.62,0,0,0,15.2,3.27h0a33.49,33.49,0,0,0,11.51-2.14,20.42,20.42,0,0,0,8.22-5.38,10.31,10.31,0,0,0,.21,2.59A4.58,4.58,0,0,0,106.19,85.86Z"/><path class="cls-1" d="M39.2,107.77c-1.45.36-1.81,3.17.64,2.61a3.79,3.79,0,0,0,1.86-2A4.34,4.34,0,0,0,39.2,107.77Z"/><path class="cls-1" d="M60.28,138.57h-2.1c-1.25,0-2.51,0-3.76,0a3.85,3.85,0,0,1-.48,0L52.2,147a20.3,20.3,0,0,0,4-3.12A31,31,0,0,0,60.28,138.57Z"/><path class="cls-1" d="M13.08,104.85a12.67,12.67,0,0,0,7.69,21.92,101.91,101.91,0,0,0-4.84-15.37C15,109.18,14.24,107.17,13.08,104.85Z"/><path class="cls-3" d="M78.4,111.76a1.32,1.32,0,0,0-1.15.13c-.72.35-.28,1.93.63,2.24,1.36.1,1.48-1.52.8-2.25A.6.6,0,0,0,78.4,111.76Z"/><path class="cls-4" d="M87.88,63.66a5.85,5.85,0,0,0,.94-2.07l-5.54.1c-.58,0-1.18.08-1.76.06a5.9,5.9,0,0,0,1.49,3C84.39,66.06,87,65.11,87.88,63.66Z"/><path class="cls-1" d="M109.91,51.65c-6.61-2.59-15.4-4.09-24.67-4.09-12.63,0-24.4,2.8-30.93,7.33A30.9,30.9,0,0,0,62.5,74.31a11,11,0,0,1,2.85,6.06c.16.11.3.27.48.39l1.17,1a22.7,22.7,0,0,0,4.71,2.82,32.08,32.08,0,0,0,10.18,2.55c7.83.68,16-1.28,21.37-6a16.16,16.16,0,0,0,2.22-2.35A11.07,11.07,0,0,1,108,74.32a30.89,30.89,0,0,0,8.21-19.43A31.12,31.12,0,0,0,109.91,51.65Zm-15-2.14a2.95,2.95,0,1,1-3,3A2.95,2.95,0,0,1,94.87,49.51Zm-19,5.9a3,3,0,1,1,2.95-2.95A2.95,2.95,0,0,1,75.87,55.41Zm5.23,9.64a8.47,8.47,0,0,1-1.23-3.61.72.72,0,0,1,.49-.61s0,0,0-.08a.77.77,0,0,1,.53-.52,3.56,3.56,0,0,1,1-.13c1.34-.05,2.68-.06,4-.07,1,0,2,0,3.06,0,.32,0,.68,0,.92.23a.75.75,0,0,1,.14.85,6.51,6.51,0,0,1-2.39,5,5.1,5.1,0,0,1-4.48.65A4.16,4.16,0,0,1,81.1,65.05Z"/><path class="cls-3" d="M103.26,81.09c-5.39,4.72-13.54,6.68-21.37,6,5.43-1.51,25.15-8.8,28-35.44a31.12,31.12,0,0,1,6.27,3.24A30.89,30.89,0,0,1,108,74.32a11.07,11.07,0,0,0-2.49,4.42A16.16,16.16,0,0,1,103.26,81.09Z"/><path class="cls-3" d="M91.37,111.54a3.71,3.71,0,0,0-.41-.12h-.11a1.52,1.52,0,0,0-.78.12c-.9.41-.47,2.15.9,2.21a1.58,1.58,0,0,0,.57-.14l.16-.09a.23.23,0,0,0,.07-.07l0,0a1.71,1.71,0,0,0,.13-.23,1.6,1.6,0,0,0-.48-1.57Z"/><path class="cls-1" d="M118.52,148.17a19.81,19.81,0,0,1-2.74-1.54,23.26,23.26,0,0,1-4.29-3.56,22.25,22.25,0,0,1-2.43-2.94c-.21-.28-.37-.54-.52-.76l2.25,0c2.1,0,4.11.12,6,.25Z"/><path class="cls-1" d="M113.53,166.24a1.69,1.69,0,0,0,.41.47,4.31,4.31,0,0,0,.47.26l.17,0h.08l.14,0,.11-.06,0,0a.53.53,0,0,0,.06-.1.3.3,0,0,0,0-.1,2.92,2.92,0,0,0,0-.66,3.72,3.72,0,0,0-1.34-2.27A2.16,2.16,0,0,0,113.53,166.24Z"/><path class="cls-1" d="M60.52,182.88A5.81,5.81,0,0,0,58.59,188c.4,1.77,1.31,2.24,2.07,2.11,1.59-.33,2.08-2.51,1.29-5A6.08,6.08,0,0,0,60.52,182.88Z"/><path class="cls-1" d="M107.31,168.62c.62-.21.68-1,.62-1.56a4.75,4.75,0,0,0-2.67-2.88C104.52,166.38,105.93,168.92,107.31,168.62Z"/><path class="cls-1" d="M110.41,190.13c1-.07,1.25-2.31.3-3.95a8.09,8.09,0,0,0-2.08-2.09C107.52,186.72,108.78,190.22,110.41,190.13Z"/><path class="cls-1" d="M59.81,142.11A24.17,24.17,0,0,1,56,146.3a12.92,12.92,0,0,1-4.16,2.57l-8.2,39.76a13,13,0,0,0-.26,2.57,12.68,12.68,0,0,0,25.09,2.54l10.34-50.15A6.56,6.56,0,0,1,82.27,139c-6.71-.18-13.42-.39-20.13-.45A24.11,24.11,0,0,1,59.81,142.11Zm9.67,41.45a.69.69,0,0,1-1.25-.17h0l0,0a1.45,1.45,0,0,0-.18-.17,3,3,0,0,1-.34-.24,8.94,8.94,0,0,0-1.39-.72,6.7,6.7,0,0,0-4.33-.16A7.3,7.3,0,0,1,63.81,186c.67,2.65-.86,6.35-4.08,5.69a3.66,3.66,0,0,1-2.53-2.61,7.24,7.24,0,0,1,2-7.23,7.48,7.48,0,0,0-2.51-1,6,6,0,0,0-2.93.43,7.24,7.24,0,0,1,1.32,4.3c-.1,4.11-4.83,7.31-6.36,2A7.37,7.37,0,0,1,51.24,181l-.12-.07c-.8-.59-2.66-.28-3.65.19a.85.85,0,1,1-.67-1.48,6.39,6.39,0,0,1,4.44-.44,5.22,5.22,0,0,1,1.4.79,6.9,6.9,0,0,1,1.15-.5,7.53,7.53,0,0,1,2.83-.35,8.15,8.15,0,0,1,3.29,1.18q.41.25.78.54a7.41,7.41,0,0,1,5.27-.4,7,7,0,0,1,3.38,2.08A.94.94,0,0,1,69.48,183.56Zm1.29-8.24a29.41,29.41,0,0,0-4.06-.68c-2.7-.4-4.46-.63-7.32-.93-3.45-.36-6.89-.86-10.36-1a.82.82,0,0,1-.79-1c.2-.76,1-.6,1.64-.55,5.83.43,12.82,1.34,17.85,2,.94.13,1.88.23,2.8.43a2.55,2.55,0,0,1,1,.32A.82.82,0,0,1,70.77,175.32Zm1.55-11.56a3.1,3.1,0,0,1,1,1.39.56.56,0,0,1-1,.36,5.88,5.88,0,0,0-5.34-2,4.23,4.23,0,0,0-.9.16,5.65,5.65,0,0,1,.81,1.49,4.09,4.09,0,0,1,0,2.74,2.46,2.46,0,0,1-3.61,1.25c-2.49-1.36-1.73-4.2.05-5.78a7.27,7.27,0,0,0-4.4-.85,6.58,6.58,0,0,0-1.44.31,3.72,3.72,0,0,1,.46,5.08,3.2,3.2,0,0,1-4.41.24,3.27,3.27,0,0,1-.32-4.34,5.4,5.4,0,0,1,.88-1,8.68,8.68,0,0,0-1.35-.25,9.48,9.48,0,0,0-1.6.05h0c-.2,0-.42.06-.11,0-.45,0-.3.19-.84,0a.74.74,0,0,1,.17-1.33,7.76,7.76,0,0,1,3.86,0,9.61,9.61,0,0,1,1.55.49,10.33,10.33,0,0,1,4.19-.91,8.69,8.69,0,0,1,4.88,1.62A7.43,7.43,0,0,1,72.32,163.76Zm-7.69-23.25a.86.86,0,0,1,.55-.49.82.82,0,0,1,1,.78,3.93,3.93,0,0,1-.55,1.24,23.12,23.12,0,0,1-1.42,2.39,33.57,33.57,0,0,1-4.91,5.74,29.21,29.21,0,0,1-7,5,.68.68,0,0,1-.57-1.15c1.16-.86,3.37-2.25,4.71-3.4a32.72,32.72,0,0,0,7-7.9C63.85,142,64.24,141.25,64.63,140.51Z"/><path class="cls-1" d="M63.33,167.05a1.35,1.35,0,0,0,.15.26l.2.2c.54.38.38.31.87.45h.14l.08,0c.91-.48.9-1.62.47-2.63a4.85,4.85,0,0,0-.64-.85A2.74,2.74,0,0,0,63.33,167.05Z"/><path class="cls-1" d="M24.47,111.78c-.37-.12-1.15.34-1.37.9a2,2,0,0,0,.59,1.75,1.45,1.45,0,0,0,1.72.38,2,2,0,0,0,.65-1.52q0-.33,0-.66A4,4,0,0,0,24.47,111.78Z"/><path class="cls-1" d="M65.66,111.07a.47.47,0,0,1-.33,0c-.92-.19-1.25-.15-1.58.48A1.33,1.33,0,0,0,65.91,113a1,1,0,0,0,.31-.9A2.09,2.09,0,0,0,65.66,111.07Z"/><path class="cls-1" d="M126.86,188.62l-8-38.64a21.87,21.87,0,0,1-6.85-4.16,25.18,25.18,0,0,1-3.5-3.67,23.09,23.09,0,0,1-1.7-2.44,1.66,1.66,0,0,1-.12-.31l0-.05c-5.11,0-10.48,0-15.32-.1l-2.88-.06a6.6,6.6,0,0,1,3.19,4.39L102,193.74a12.72,12.72,0,0,0,12.4,10.11A12.62,12.62,0,0,0,121,202,12.7,12.7,0,0,0,126.86,188.62ZM102,141.44a.82.82,0,0,1,1.19-.49c.5.39.66,1.08,1,1.58a27.51,27.51,0,0,0,7.06,7.75c.58.42,1.21.85,1.87,1.28a25.52,25.52,0,0,0,4.63,2.49c.87.13.76,1.32-.12,1.17a19.85,19.85,0,0,1-4.15-1.82l-.55-.29a25.82,25.82,0,0,1-8.48-7.34,26.39,26.39,0,0,1-2-3C102.27,142.34,101.86,141.93,102,141.44Zm-4.33,21.12c.76-.62,3.69-1.05,5.32-.72a11.5,11.5,0,0,1,1.5.41,5.75,5.75,0,0,1,5-1.89,9.56,9.56,0,0,1,4.31,1.47,4.27,4.27,0,0,1,1.26-.38,9.62,9.62,0,0,1,5.26,1c.31.2.76.41.78.82a.48.48,0,0,1-.82.34,4,4,0,0,0-1.71-.76,6.28,6.28,0,0,0-3.28-.19l-.2.05-.16.06a5.91,5.91,0,0,1,.48.52c.13.17.26.34.38.52a4.27,4.27,0,0,1,.68,3.65,1.74,1.74,0,0,1-.18.33,2.13,2.13,0,0,1-1.67.87,3.1,3.1,0,0,1-1.9-.83,3.65,3.65,0,0,1-.32-4.9c-2-1.11-4.78-1.41-6.37,0a7,7,0,0,1,2.45,2.19c1.82,2.43.41,5.6-2.33,4.86-2-.65-2.86-3.05-2.71-5a5,5,0,0,1,.31-1.4,6.29,6.29,0,0,0-1.39-.27,11.13,11.13,0,0,0-4.24.58A.72.72,0,0,1,97.67,162.56Zm2.93,10c5.39-1,10.89-1.16,16.35-1.47l.78,0c1.3-.08,2.59-.19,3.88-.27.33,0,.18-.17.79.06a.74.74,0,0,1-.18,1.33,43.13,43.13,0,0,1-5,.52c-1.87.11-3.84.18-5.56.29a98.89,98.89,0,0,0-11.23,1.2A.82.82,0,0,1,100.6,172.59Zm24.18,9.2a.52.52,0,0,1-.94.12c-.63-.92-2.68-1.18-4-.64a3.08,3.08,0,0,0-.77.5l-.23.2.34.34a7.55,7.55,0,0,1,1.74,3.1c.42,1.25.59,3.39-.25,4.6h0a2,2,0,0,1-1.53.86c-2.16-.2-3.1-3.11-3.33-4.95a6.26,6.26,0,0,1,.83-3.68,8.45,8.45,0,0,0-3-1.13,4.78,4.78,0,0,0-3.89,1.46l-.15.14c1.49,1.12,2.95,2.5,3.25,4.41a4.26,4.26,0,0,1-.67,3.78c-1.43,1.61-3.71.64-4.6-1a7.29,7.29,0,0,1-.23-6.66l-.44-.24a13,13,0,0,0-5.62-1,.82.82,0,0,1-.57-1.39c.35-.34.88-.23,1.34-.24a13.91,13.91,0,0,1,6.18,1.5,6.24,6.24,0,0,1,2-1.59,7,7,0,0,1,7.45.71,4.68,4.68,0,0,1,1.14-.86l.06,0a5.51,5.51,0,0,1,3.33-.31,4,4,0,0,1,2.38,1.26C124.64,181.23,124.87,181.49,124.78,181.79Z"/><path class="cls-1" d="M55.79,163.63a3.56,3.56,0,0,0-1.45,1.46,1.66,1.66,0,0,0,.17,1.82c1,.75,2,.44,2.32-.22C57.52,165.48,56.94,164.38,55.79,163.63Z"/><path class="cls-3" d="M104,110.42c-.22,0-.21-.09-.41-.07a1.71,1.71,0,0,0-.78.08l-.09,0-.1.05a1.62,1.62,0,0,0-.2.18l-.06.12a1.59,1.59,0,0,0-.09.33,1.62,1.62,0,0,0,0,.3,1.46,1.46,0,0,0,.41.92,1.32,1.32,0,0,0,1.7.14A1.62,1.62,0,0,0,104,110.42Z"/><path class="cls-5" d="M88.25,7.21c-2.15-2-6.25-2-7.54,1.06a8.11,8.11,0,0,0-.23,5.7,9.1,9.1,0,0,0,1.28,2.69l.06.08.06.08.29.36,0,0a.87.87,0,0,1,.14.27c2,0,4.32,0,6.32,0a5.33,5.33,0,0,0,1.87-3.41A7.46,7.46,0,0,0,88.25,7.21Z"/><path class="cls-1" d="M144.54,115.3c.39,0,.55-.11,1-.7.53-1.1-.77-2-2-2a4,4,0,0,0-.62.14C143,114.18,143.52,115.15,144.54,115.3Z"/><path class="cls-4" d="M114.93,36.73a33.49,33.49,0,0,0-3.39-1.65,46.06,46.06,0,0,0-5-1.77,75.64,75.64,0,0,0-21.32-2.86c-9.92,0-19.26,1.64-26.3,4.63a35.7,35.7,0,0,0-3.39,1.65A22.93,22.93,0,0,1,76.08,19.35a5.43,5.43,0,0,0,.83-.11c1-.23,10.49-.28,14.72-.14a15.47,15.47,0,0,1,1.94.14,5.27,5.27,0,0,0,.83.11A22.91,22.91,0,0,1,114.93,36.73Z"/><path class="cls-1" d="M129.25,106.83a3.73,3.73,0,0,0-2.31.4c.6,1.73,2.1,2.64,3.21,2.26C131.85,108.68,130.74,107,129.25,106.83Z"/><path class="cls-3" d="M166.07,108a16.39,16.39,0,0,0-9.48-8.38L113.08,84.62a3.68,3.68,0,0,1-.75-.35,4.06,4.06,0,0,1-1.91-2.55,4.14,4.14,0,0,1,1-3.82,35.84,35.84,0,0,0,9.52-21.5,1.36,1.36,0,0,1,.8-1.13,1.22,1.22,0,0,1,.27-.09c2.25-1.82,4.74-4.59,4.74-8,0-4.06-3.47-7.24-6.39-9.2a1.37,1.37,0,0,1-.59-.95A26.46,26.46,0,0,0,95.2,14.28a1.37,1.37,0,0,1-1-.49,1.35,1.35,0,0,1-.29-1.06A10.43,10.43,0,0,0,94,11.5a8.77,8.77,0,0,0-17.54,0,9,9,0,0,0,.08,1.15s0,0,0,.08a1.37,1.37,0,0,1-.3,1,1.33,1.33,0,0,1-1,.5A26.46,26.46,0,0,0,50.73,37a1.37,1.37,0,0,1-.59.95c-2.91,2-6.38,5.14-6.38,9.2,0,3.4,2.47,6.18,4.72,8a1.4,1.4,0,0,1,.29.09,1.38,1.38,0,0,1,.8,1.14,35.92,35.92,0,0,0,9.51,21.51,4.11,4.11,0,0,1-1.68,6.71L13.9,99.57a16.56,16.56,0,0,0-10.28,21l0,.08a16.54,16.54,0,0,0,21,10.26l23.49-8.07a2.38,2.38,0,0,1,2.33.46,2.34,2.34,0,0,1,.76,2.24L38.56,189A17.74,17.74,0,1,0,73.35,196L83,147.86a2.33,2.33,0,0,1,4.56,0L97.13,196a17.78,17.78,0,0,0,18,14.26,17.54,17.54,0,0,0,2.85-.33A17.77,17.77,0,0,0,131.93,189l-12.69-63.49a2.34,2.34,0,0,1,.76-2.24,2.38,2.38,0,0,1,2.33-.46l23.49,8.07a16.55,16.55,0,0,0,20.72-9.49c.11-.25.2-.51.29-.77l0-.07A16.4,16.4,0,0,0,166.07,108Zm-17.29,20.42a14.25,14.25,0,0,1-4.48-.73l-25.12-8.35a3.28,3.28,0,0,0-4.25,3.77l13.45,65.25a14.25,14.25,0,0,1-8.16,15.88,13.84,13.84,0,0,1-2.9.93,14.68,14.68,0,0,1-2.89.29,14.26,14.26,0,0,1-13.92-11.36L90.17,143.9A5,5,0,0,0,82.06,141a5,5,0,0,0-1.74,2.88L70,194.05a14.23,14.23,0,0,1-28.17-2.86,13.87,13.87,0,0,1,.3-2.88l13.45-65.25a3.28,3.28,0,0,0-4.25-3.77l-25.11,8.35a14.24,14.24,0,0,1-13.72-24.35.85.85,0,0,1,.79-.62,14.17,14.17,0,0,1,4-2L61.69,85.85a3,3,0,0,0,2-2.25,9.54,9.54,0,0,0,.19-1.86,9.4,9.4,0,0,0-2.52-6.37,32.43,32.43,0,0,1-8.6-20.25c-3.31-2.48-5.06-5.35-5.06-8.29,0-3.28,2.11-6.38,6-9,1.7-10.69,11-19.09,22.2-20a3.66,3.66,0,0,0,.61-.07,31.07,31.07,0,0,1,3.82-.21l-.27-.4a10.38,10.38,0,0,1-1.44-3.78c-.85-4.55,1.1-9.54,6.67-9.08,4.86.42,7.84,6,6.49,10.44a7.83,7.83,0,0,1-1.43,2.83,29.82,29.82,0,0,1,3.53.2,3.42,3.42,0,0,0,.61.07c11.22.94,20.49,9.34,22.19,20,3.94,2.63,6.06,5.73,6.06,9,0,2.94-1.76,5.81-5.07,8.29a32.49,32.49,0,0,1-8.61,20.26,9.34,9.34,0,0,0-2.31,8.22,2.94,2.94,0,0,0,1.81,2.17.77.77,0,0,0,.19.08l44.47,14.77a14.25,14.25,0,0,1,9,18,14.22,14.22,0,0,1-13.51,9.76Z"/><path class="cls-1" d="M152.78,102.1,108.31,87.33a4.25,4.25,0,0,1-1-.48A28,28,0,0,1,97,93.47c-8.9,3.57-19.57,2.47-28-1.76a21,21,0,0,1-5.84-3.93c-.17-.17-.38-.37-.56-.58l-.33.13L17.71,102.1a12.91,12.91,0,0,0-3.37,1.72c1.27,2.35,2.18,4.89,3.24,7.34a93.48,93.48,0,0,1,3.8,11.4c.31,1.34.8,2.83,1.05,4.22a13,13,0,0,0,3.27-.62l25.11-8.35a4.84,4.84,0,0,1,6.26,5.57L54.28,137h.17c.8,0,1.59,0,2.39,0,11.61,0,23.21.49,34.82.7,6.28.12,12.55,0,18.83.15l3,.08c1,0,2,.06,2.94.13h0l-3-14.62a4.84,4.84,0,0,1,6.26-5.57l25.12,8.35a11.66,11.66,0,0,0,1.29.34c.44-1.59.95-3.16,1.48-4.72.67-2,1.39-4,2.06-6A125.09,125.09,0,0,1,154.78,103,13.73,13.73,0,0,0,152.78,102.1ZM30.39,121.59c-.07.57.13,1.42-.54,1.68a.78.78,0,0,1-1-.32c-.22-.45,0-1-.08-1.48a15.56,15.56,0,0,0-1.33-6.9c-1.21,3.39-5.5,2.14-6-1.14a2.89,2.89,0,0,1,4-3,15.2,15.2,0,0,0-3.05-5.05A14.49,14.49,0,0,0,20,103.2a.56.56,0,0,1,.73-.83,13.3,13.3,0,0,1,5.87,6.53,13.22,13.22,0,0,1,1,3,11.21,11.21,0,0,1,2.49,5.5A17.4,17.4,0,0,1,30.39,121.59Zm4-1.74a70.71,70.71,0,0,0-4.25-12.76c-1-2.28-2.05-4.57-3.26-6.75A.66.66,0,0,1,28,99.67a56.41,56.41,0,0,1,4.2,8.23A61.45,61.45,0,0,1,36,120,.83.83,0,0,1,34.39,119.85ZM46.69,117a.75.75,0,0,1-.24.58.82.82,0,0,1-1.27-.17c-.2-.32-.07-.7-.07-1.06a10.28,10.28,0,0,0-1-5.67A7.51,7.51,0,0,0,43,109.35a4.42,4.42,0,0,1-3.79,2.74,2.82,2.82,0,0,1-2.68-1.87,3.25,3.25,0,0,1,2.42-4,5.48,5.48,0,0,1,3,.48,17.92,17.92,0,0,0-.69-2.45,12.17,12.17,0,0,0-3.47-5.29,4.17,4.17,0,0,0-1-.62.93.93,0,0,1-.62-.39A.73.73,0,0,1,37,96.83c3,.92,4.94,4.48,5.9,7.27a8.53,8.53,0,0,1,.64,3.55,8.63,8.63,0,0,1,2.16,2.56,11.76,11.76,0,0,1,1.06,5.3C46.75,116,46.73,116.52,46.69,117ZM116.9,91.71c.21-.2.39-.49.71-.48a.61.61,0,0,1,.52.91c-2.26,2.64-3.45,6.25-4.25,10.19a51.59,51.59,0,0,0-1,7,38.63,38.63,0,0,0,0,5.37q.09,1.34.27,2.67a1.24,1.24,0,0,1,0,.91.82.82,0,0,1-1.51-.34,40.1,40.1,0,0,1-.39-8.19,47.15,47.15,0,0,1,.78-6.37,27.41,27.41,0,0,1,3.24-9.61A10.93,10.93,0,0,1,116.9,91.71ZM58,112.92c-.05,1.11-.19,2.22-.34,3.32a2,2,0,0,1-.26,1A.8.8,0,0,1,56,117a.77.77,0,0,1,0-.37.13.13,0,0,1,0-.06c0-.2.07-.56.09-.71a35.11,35.11,0,0,0-1.17-15.1c-.57-1.84-1.19-3.42-1.76-4.8a22.86,22.86,0,0,0-1.89-3.54c-.13-.24-.21,0-.31-.57a.58.58,0,0,1,1-.41,20.22,20.22,0,0,1,2.86,4.74,34,34,0,0,1,2.44,7.21A36.56,36.56,0,0,1,58,112.92Zm-.71-20.75c-.45-.45-.65-1.12,0-1.52a.9.9,0,0,1,1.22.43,7.49,7.49,0,0,0,1,1A5.73,5.73,0,0,0,63,93.34c.72-.07,1.08.54,1.28,1.14.1.18.37.7.47.82a4.91,4.91,0,0,0,3.75,2.33h.11c.84.1,1.69,0,2.52,0h.07l.13,0a1.46,1.46,0,0,1,.58.33c.12.12.52.46.67.59a4.33,4.33,0,0,0,2.77,1.08A5.44,5.44,0,0,0,77,99.38c.24-.09.45-.3.71-.31a.72.72,0,0,1,.78.37,2.18,2.18,0,0,1,.48.62l.06.08,0,0a7.36,7.36,0,0,0,1.37,1.2,3.4,3.4,0,0,0,2.13.5h.11a.32.32,0,0,0,.14,0l.24-.08c.11-.08.25-.15.37-.22a1.76,1.76,0,0,1,.77-.26,7.76,7.76,0,0,1,1.41.32,6.91,6.91,0,0,0,1.88.12h.1a2.37,2.37,0,0,0,.32-.08,3.91,3.91,0,0,0,1.37-.9,6,6,0,0,1,.63-.59,1.52,1.52,0,0,1,.22-.22c.27-.19.08-.16.56-.34.69-.14,1.33.27,2,.3a3.67,3.67,0,0,0,3.7-1.66,2.76,2.76,0,0,1,1.09-.83,2.2,2.2,0,0,1,1,0h0a13.43,13.43,0,0,0,1.9.09c2.67-.07,3.7-1.43,4-3.62a1.86,1.86,0,0,1,.1-.25,1.39,1.39,0,0,1,.76-.67,16,16,0,0,0,2.75-.23,4.42,4.42,0,0,0,2.07-.73,2.49,2.49,0,0,0,1.16-2.46.57.57,0,0,1,1.11-.07,4,4,0,0,1-2.82,4.44,13.49,13.49,0,0,1-3.94.64s0,0,0,0a7.75,7.75,0,0,1-1.27,2.83c-1.42,1.82-4.06,1.84-6.16,1.59l-.27,0h-.07l-.12,0-.07,0a13.88,13.88,0,0,0-1,1,4.89,4.89,0,0,1-4.38,1.45,4.35,4.35,0,0,1-1.46-.33l-.08,0,0,0-.25.18a10.05,10.05,0,0,1-2.39,1.73,5.27,5.27,0,0,1-2.29.17,4.37,4.37,0,0,1-1.81-.5c-.17,0-.34.08-.51.1a5.45,5.45,0,0,1-.58.14,5.65,5.65,0,0,1-3.49-.48,7.09,7.09,0,0,1-1.82-1.6,6.08,6.08,0,0,1-6.84-1.73l-.07,0h0a8.24,8.24,0,0,0-.86,0,6.41,6.41,0,0,1-5.67-2,8.41,8.41,0,0,1-1.45-2.32h-.07l-.4,0h-.09a7.49,7.49,0,0,1-3-1A8,8,0,0,1,57.31,92.17Zm48.33,20.51c-.42,1.41-2.32,1.65-3.38.84-1.92-1.28-2-4.34.69-4.55a2.94,2.94,0,0,1,1.51.36.55.55,0,0,1,.19.24A3,3,0,0,1,105.64,112.68Zm-12.83,1.56a2.68,2.68,0,0,1-3.22.19c-2.37-1.52-1.27-4.79,1.58-4.24a2.14,2.14,0,0,1,1.41.9l0,.07a.44.44,0,0,1,.09.31l.25.35A2.11,2.11,0,0,1,92.81,114.24ZM80.11,114a2.15,2.15,0,0,1-3.41.68c-1.64-1.41-1.3-4.36,1.23-4.22a2.29,2.29,0,0,1,1.39.57A2.67,2.67,0,0,1,80.11,114Zm-16.41.31c-1.91-1-1.69-4.3.64-4.53a.39.39,0,0,1,.23-.16c1.37-.23,2.64,1.13,2.88,2.39C67.8,114,65.3,115.24,63.7,114.34Zm-5,1.57c-.11-.87.46-.93.92-1.06a3.45,3.45,0,0,1,2.45.66c1.12.7,1.71,1.61,2.45,2a2.73,2.73,0,0,0,.81.38,1.31,1.31,0,0,0,.69-.16l.26-.14a4.64,4.64,0,0,0,1.23-1.11,6.79,6.79,0,0,1,3.14-2.52c3.72-1.13,5.41,2.89,7,3.51,1,.39,1.7-.25,3.1-1.66s2.84-2.63,4.9-2.11c1.74.33,3.94,2.92,4.6,3.46,1.41.94,2.09.64,3.47-.88,1-1.35,2.3-2.67,4.12-2.74a5.42,5.42,0,0,1,3.43,1.13c1.28.94,2.2,2,3.17,2.58a.9.9,0,0,0,1.13,0c.51-.4.9-.94,1.42-1.35a3.28,3.28,0,0,1,.84-.52A2.91,2.91,0,0,1,109,115c.73-.06,1.76.47,1.63,1.3a.66.66,0,0,1-1,.33l-.1-.05,0,0-.08,0H109a2.33,2.33,0,0,0-1.43.88l0,0c-3,3.68-5.35-.24-7.34-1.56-1.72-1.11-3-1.06-4.24.18s-2.1,2.78-3.82,3.13c-2,.4-3.44-1.21-4.7-2.49-1-1.12-2.45-1.7-3-1.55-1.62,0-2.66,2.41-4.79,3.6-3,1.67-4.88-2.16-6.44-3a2.61,2.61,0,0,0-3.08.27h0a6.09,6.09,0,0,0-.44.44c-.54.57-1,1.2-1.56,1.75A3.86,3.86,0,0,1,65,119.44c-1.92-.49-2.89-2.19-4.19-2.79l-.21-.1-.35-.11-.09,0c-.1,0-.25,0-.34,0l-.11,0h0A.77.77,0,0,1,58.75,115.91Zm41.33,4.77c-.42,1.4-2.32,1.64-3.38.83-1.92-1.28-2-4.34.69-4.54a2.84,2.84,0,0,1,1.51.35.61.61,0,0,1,.19.24A3,3,0,0,1,100.08,120.68Zm-12.83,1.55a2.68,2.68,0,0,1-3.22.19c-2.36-1.52-1.27-4.78,1.58-4.24a2.18,2.18,0,0,1,1.41.9l0,.07a.45.45,0,0,1,.09.31l.25.36A2.09,2.09,0,0,1,87.25,122.23ZM74.55,122a2.16,2.16,0,0,1-3.41.69c-1.64-1.42-1.3-4.36,1.23-4.22a2.18,2.18,0,0,1,1.39.57A2.65,2.65,0,0,1,74.55,122Zm38.89,6.53a.53.53,0,0,1-.37.9c-1.3.15-2.68.23-4.13.27-4.81.14-10.32-.2-15.76-.15-9.25,0-18.5.43-27.75.12-1.84-.11-5.43,0-6-.41a.67.67,0,0,1,.16-1.27l.4-.09a16,16,0,0,1,2,0c1.19,0,2.37.09,3.56.12,3.23.11,6.47.11,9.71.11,10.18-.11,20.36-.42,30.53,0,1.22,0,2.09.06,2.89.07l2.91.1h1.5A.52.52,0,0,1,113.44,128.55Zm10.22-13.29a1.55,1.55,0,0,1-.06.71.8.8,0,0,1-1.3.26c-.4-.54-.22-.79-.29-1.73a16.8,16.8,0,0,1,.13-2.13,9.72,9.72,0,0,1,.7-2.6,9,9,0,0,1,2.3-3.23,10,10,0,0,1,1.79-6.92,10.14,10.14,0,0,1,3.24-3.26,8.87,8.87,0,0,1,1-.48,1.12,1.12,0,0,1,.7,0,.59.59,0,0,1-.07,1.12c-2.29.91-5.35,5.22-5.13,8.59l.1,0a4.43,4.43,0,0,1,5,1,2.74,2.74,0,0,1-.93,4.35c-1.62.75-3.51-.14-4.56-1.44a4.5,4.5,0,0,1-.67-1.14,9.64,9.64,0,0,0-1.36,2.23,10.1,10.1,0,0,0-.53,2l0,.39A17.63,17.63,0,0,0,123.66,115.26Zm10.81,3.08c-.08.4-.17.8-.23,1.21v.06a.93.93,0,0,1-.52,1,.82.82,0,0,1-1.13-.75,19.86,19.86,0,0,1,.6-3.13l0-.12a48.54,48.54,0,0,1,2.33-7.15,44.64,44.64,0,0,1,5.23-9.51.51.51,0,0,1,.76.66,103.41,103.41,0,0,0-4.95,10.56,50.33,50.33,0,0,0-1.83,6C134.65,117.54,134.56,117.94,134.47,118.34Zm13.8-16a12.53,12.53,0,0,0-4.61,6.25,13.3,13.3,0,0,0-.65,2.51,4.82,4.82,0,0,1,1.46,0,3.16,3.16,0,0,1,2.64,3c-.18,2.83-3.16,3.83-5,1.54a4.23,4.23,0,0,1-.8-2,8.28,8.28,0,0,0-2.17,5.14v0a15.64,15.64,0,0,0,0,2.27c0,.48.08,1.11-.46,1.3-1,.31-1.13-.66-1.15-1.1a15.75,15.75,0,0,1,0-2.57c0-.17,0-.34,0-.51.28-2.46,1.57-5.32,3.7-6.55a15,15,0,0,1,1.19-4.42,13.76,13.76,0,0,1,3.07-4.44,9.49,9.49,0,0,1,1.61-1.15c.3-.14.6-.43,1-.34A.56.56,0,0,1,148.27,102.31Z"/><path class="cls-1" d="M160.81,118.12a12.73,12.73,0,0,1-12,8.69c-.36,0-.72,0-1.08,0,.44-1.53.93-3.05,1.43-4.55.74-2.19,1.52-4.35,2.27-6.53a116.6,116.6,0,0,1,4.77-11.85,12.68,12.68,0,0,1,4.64,14.29Z"/><path class="cls-3" d="M85.81,119.53a3.71,3.71,0,0,0-.41-.12h-.11a1.68,1.68,0,0,0-.78.12c-.9.41-.47,2.15.9,2.21a1.36,1.36,0,0,0,.57-.14l.16-.09.07-.06,0-.05a1.71,1.71,0,0,0,.13-.23,1.59,1.59,0,0,0-.47-1.56Z"/><path class="cls-3" d="M72.84,119.75a1.36,1.36,0,0,0-1.15.13c-.72.35-.28,1.93.63,2.24,1.36.1,1.48-1.52.8-2.25A.6.6,0,0,0,72.84,119.75Z"/><path class="cls-5" d="M115.67,39a.62.62,0,0,1-.17-.11,30.35,30.35,0,0,0-4.57-2.36c-1.07-.45-2.2-.87-3.37-1.26A72.24,72.24,0,0,0,85.24,32c-9.72,0-18.84,1.6-25.69,4.51A31.2,31.2,0,0,0,55,38.9l-.08.05c-3.65,2.36-5.62,5.07-5.62,7.88,0,2.34,1.43,4.69,4.13,6.8C60.16,48.92,72.28,46,85.24,46c9.25,0,18.07,1.49,24.82,4a32.82,32.82,0,0,1,7,3.58c2.7-2.11,4.13-4.46,4.13-6.8C121.23,44,119.28,41.34,115.67,39Zm-59.6,1.69a21.24,21.24,0,0,0-.59,7.55c0,.57.06,1.13.05,1.7s.09.38-.21.81a.64.64,0,0,1-1-.14.62.62,0,0,1-.07-.23,18.06,18.06,0,0,1-.32-6.16,12.86,12.86,0,0,1,.71-3.31c.15-.36.22-.87.65-1A.63.63,0,0,1,56.07,40.68Zm8.86-4a54.44,54.44,0,0,0-1.15,8.4,16.11,16.11,0,0,1-.33,2.14.57.57,0,0,1-1.08-.13v.06s0,0,0-.08,0,0,0,0a22.34,22.34,0,0,1,.47-7.51,19.73,19.73,0,0,1,.64-2.4c.13-.42.17-.94.54-1.2A.62.62,0,0,1,64.93,36.65Zm8.62-2c-.14,1-.57,1.9-.73,2.87a21.94,21.94,0,0,0-.23,4.18c0,1,.12,1.92.11,2.88,0,.3,0,.65-.23.87a.74.74,0,0,1-1.23-.36.54.54,0,0,1,0-.11s0-.06,0-.09,0-.07,0-.1v0a28.25,28.25,0,0,1-.07-6.69,13.28,13.28,0,0,1,.9-3.32c.11-.33.12-.74.46-.92A.73.73,0,0,1,73.55,34.64Zm7.08-.75a47.89,47.89,0,0,0-.58,7.9c-.08.87.08,1.15-.29,1.63a.76.76,0,0,1-1.19-.15.93.93,0,0,1-.08-.2c0-.11,0-.22,0-.33A41.76,41.76,0,0,1,78.6,38a17.13,17.13,0,0,1,.81-4.44A.63.63,0,0,1,80.63,33.89Zm9.42,9a.77.77,0,0,1-1.43.39c-.22-.33-.08-1.08-.05-2,.13-2.52,0-5,0-7.56a.65.65,0,0,1,1.29,0A45.42,45.42,0,0,1,90.05,42.89Zm8,.85a.32.32,0,0,1,0,.08.64.64,0,0,0,0,.07.53.53,0,0,1-.17.31.71.71,0,0,1-1.16-.31s0,0,0,0a.2.2,0,0,1,0-.11,0,0,0,0,1,0,0c-.16-1.21-.06-2.43-.17-3.64a31,31,0,0,0-1-6A.74.74,0,0,1,97,33.73a28.09,28.09,0,0,1,1.23,7.78A9.8,9.8,0,0,1,98.07,43.74Zm8.19,1.45h0a.8.8,0,0,1-1.48.35c-.24-.54,0-1.31,0-1.91a29.64,29.64,0,0,0-.47-5.89c-.14-1-.32-1.27-.48-2.41a.6.6,0,0,1,1.17-.08,22.24,22.24,0,0,1,1.4,8.48A14.15,14.15,0,0,1,106.26,45.19Zm9.21,1.66c0,.67-.12,1.34-.22,2a.81.81,0,0,1-.71.79c-1.43,0-.72-1.51-.73-2.24a21.74,21.74,0,0,0-.28-6.09,14.22,14.22,0,0,0-.57-2c0-.06-.08-.17-.11-.22a.6.6,0,0,1-.07-.47.62.62,0,0,1,1.12-.15A17.55,17.55,0,0,1,115.47,46.85Z"/><path class="cls-3" d="M98,118.34a1.89,1.89,0,0,0-.78.08l-.09,0-.1,0-.2.18-.06.12a2,2,0,0,0-.09.33c0,.1,0,.23,0,.3a1.5,1.5,0,0,0,.41.93,1.31,1.31,0,0,0,1.7.13,1.63,1.63,0,0,0-.35-2.08C98.22,118.4,98.23,118.33,98,118.34Z"/><path class="cls-6" d="M157.48,97,114,82.05a1.4,1.4,0,0,1-.57-2.28,38.67,38.67,0,0,0,10.17-22.35c3.85-3.06,5.89-6.59,5.89-10.23,0-4-2.45-7.86-7.09-11.13A29.21,29.21,0,0,0,96.74,11.68V11.5a11.5,11.5,0,0,0-23,0v.18A29.19,29.19,0,0,0,48.12,36.06C43.47,39.33,41,43.16,41,47.19c0,3.64,2,7.17,5.89,10.23A38.72,38.72,0,0,0,57.08,79.77a1.4,1.4,0,0,1-.57,2.28L13,97a19.28,19.28,0,0,0-12,24.48l0,.07a19.26,19.26,0,0,0,24.47,12l22.9-7.87L35.88,188.5a20.46,20.46,0,0,0,16.06,24.08A20.69,20.69,0,0,0,56,213a20.5,20.5,0,0,0,20-16.47l9.21-46.13,9.22,46.13a20.47,20.47,0,1,0,40.14-8L122,125.63l22.89,7.87a19.29,19.29,0,0,0,24.48-12l0-.07a19.26,19.26,0,0,0-12-24.48Zm9.37,23.59,0,.07a16.56,16.56,0,0,1-21,10.27l-23.49-8.07a2.36,2.36,0,0,0-3.09,2.7L131.93,189a17.74,17.74,0,0,1-34.8,7l-9.61-48.12a2.32,2.32,0,0,0-4.56,0L73.35,196a17.74,17.74,0,1,1-34.79-7l12.68-63.5a2.36,2.36,0,0,0-3.09-2.69l-23.49,8.07a16.53,16.53,0,0,1-21-10.27l0-.07a16.57,16.57,0,0,1,10.28-21L57.4,84.63a4.12,4.12,0,0,0,1.68-6.72A35.92,35.92,0,0,1,49.57,56.4a1.37,1.37,0,0,0-.8-1.13,1.4,1.4,0,0,0-.29-.09c-2.25-1.82-4.72-4.59-4.72-8,0-4.06,3.47-7.25,6.38-9.21a1.37,1.37,0,0,0,.59-.95A26.44,26.44,0,0,1,75.29,14.29a1.38,1.38,0,0,0,1.27-1.56,8.48,8.48,0,0,1-.09-1.23A8.77,8.77,0,0,1,94,11.5a10.29,10.29,0,0,1-.08,1.23,1.35,1.35,0,0,0,.29,1.06,1.42,1.42,0,0,0,1,.5A26.44,26.44,0,0,1,119.75,37a1.37,1.37,0,0,0,.59.95c2.92,2,6.39,5.15,6.39,9.21,0,3.4-2.49,6.18-4.74,8a1.22,1.22,0,0,0-.27.09,1.36,1.36,0,0,0-.8,1.14,35.9,35.9,0,0,1-9.52,21.5,4.14,4.14,0,0,0,1.68,6.72l43.51,14.94a16.54,16.54,0,0,1,10.26,21Z"/><path class="cls-6" d="M153.27,100.63,108.8,85.85a3,3,0,0,1-1.3-.85,2.92,2.92,0,0,1-.7-1.39,9.36,9.36,0,0,1,2.31-8.23,32.46,32.46,0,0,0,8.61-20.26c3.31-2.48,5.07-5.34,5.07-8.29,0-3.27-2.12-6.37-6.06-9-1.7-10.7-11-19.1-22.19-20a4.55,4.55,0,0,1-.61-.08,29.82,29.82,0,0,0-3.53-.2,7.86,7.86,0,0,0,1.43-2.82c1.35-4.46-1.63-10-6.49-10.44-7.22-.6-8.36,8-5.23,12.86.09.12.18.26.27.39a36.08,36.08,0,0,0-3.82.21,5,5,0,0,1-.61.08c-11.22.93-20.5,9.33-22.2,20-3.94,2.63-6,5.73-6,9,0,3,1.75,5.81,5.06,8.29a32.48,32.48,0,0,0,8.6,20.26,9.36,9.36,0,0,1,2.52,6.36,9.46,9.46,0,0,1-.19,1.86,3,3,0,0,1-2,2.25L17.22,100.63a14.15,14.15,0,0,0-4,2,.84.84,0,0,0-.79.63,14.19,14.19,0,0,0-5,10.83,14.26,14.26,0,0,0,18.73,13.51l25.11-8.35a3.29,3.29,0,0,1,4.25,3.78L42.1,188.31a14,14,0,0,0-.3,2.89A14.23,14.23,0,0,0,70,194.06L80.32,143.9A5,5,0,0,1,82.06,141a5,5,0,0,1,8.11,2.88l10.34,50.16a14.27,14.27,0,0,0,13.92,11.36,14,14,0,0,0,2.89-.3,14.24,14.24,0,0,0,11.06-16.81l-13.45-65.24a3.29,3.29,0,0,1,4.25-3.78l25.12,8.35a14.23,14.23,0,0,0,17.2-19.89A14.06,14.06,0,0,0,153.27,100.63ZM80.71,8.28c1.29-3,5.39-3,7.54-1.07a7.47,7.47,0,0,1,2.27,6.87,5.33,5.33,0,0,1-1.87,3.41c-2,0-4.28,0-6.32,0a.75.75,0,0,0-.16-.29,4.68,4.68,0,0,0-.29-.37.5.5,0,0,1-.06-.08l-.06-.08A8.84,8.84,0,0,1,80.71,8.28ZM76.08,19.35a5.43,5.43,0,0,0,.83-.11,159.62,159.62,0,0,1,16.66,0,5.27,5.27,0,0,0,.83.11,22.92,22.92,0,0,1,20.53,17.38,33.49,33.49,0,0,0-3.39-1.65c-7-3-16.38-4.63-26.3-4.63S66,32.1,58.94,35.08a35.7,35.7,0,0,0-3.39,1.65A22.94,22.94,0,0,1,76.08,19.35ZM49.25,46.83c0-2.81,2-5.52,5.62-7.87L55,38.9a31.2,31.2,0,0,1,4.6-2.38C66.4,33.61,75.52,32,85.24,32s18.84,1.6,25.69,4.51a31.3,31.3,0,0,1,4.57,2.36.66.66,0,0,0,.17.12c3.61,2.34,5.56,5,5.56,7.83,0,2.35-1.43,4.69-4.13,6.81C110.32,48.92,98.2,46,85.24,46s-25.08,2.91-31.86,7.63C50.68,51.52,49.25,49.18,49.25,46.83ZM62.5,74.32a31,31,0,0,1-8.19-19.43c6.53-4.53,18.3-7.32,30.93-7.32s24.4,2.79,30.94,7.32A30.89,30.89,0,0,1,108,74.32a11.07,11.07,0,0,0-2.49,4.42,15.66,15.66,0,0,1-2.22,2.35C95.42,88,81.73,89,71.71,84.55A23.14,23.14,0,0,1,67,81.73l-1.17-1h0c-.18-.12-.32-.28-.48-.38A10.93,10.93,0,0,0,62.5,74.32Zm43.69,11.54s0,0,0,0a30,30,0,0,1-9.59,6c-8.48,3.45-18.42,2.37-26.16-1.25a28.14,28.14,0,0,1-4.71-2.72A14.7,14.7,0,0,1,64,86.43l-.12-.15a4.57,4.57,0,0,0,1.31-2.36,9.38,9.38,0,0,0,.19-1.41,23.17,23.17,0,0,0,4.72,3.07,34.57,34.57,0,0,0,26.72,1.13,20.42,20.42,0,0,0,8.22-5.38,10.31,10.31,0,0,0,.21,2.59A4.58,4.58,0,0,0,106.19,85.86ZM9.67,118.12a12.62,12.62,0,0,1,3.41-13.27c1.16,2.32,1.91,4.33,2.85,6.55a101.91,101.91,0,0,1,4.84,15.37A12.71,12.71,0,0,1,9.67,118.12Zm44.27,20.47a3.85,3.85,0,0,0,.48,0c1.25,0,2.51,0,3.76,0h2.1a31,31,0,0,1-4.1,5.34,20.3,20.3,0,0,1-4,3.12Zm27.14,1.22a6.55,6.55,0,0,0-2.29,3.78L68.45,193.74a12.68,12.68,0,0,1-25.09-2.54,13,13,0,0,1,.26-2.57l8.2-39.76A12.92,12.92,0,0,0,56,146.3a24.17,24.17,0,0,0,3.83-4.19,24.11,24.11,0,0,0,2.33-3.52c6.71.06,13.42.27,20.13.45A6.54,6.54,0,0,0,81.08,139.81Zm45.78,48.82a12.68,12.68,0,0,1-9.85,15,12.42,12.42,0,0,1-2.58.27A12.73,12.73,0,0,1,102,193.74L91.69,143.58a6.63,6.63,0,0,0-3.19-4.39q1.44,0,2.88.06c4.84.11,10.21.06,15.32.1h0s0,0,0,.05a1.66,1.66,0,0,0,.12.31,23.09,23.09,0,0,0,1.7,2.44A24.29,24.29,0,0,0,118.89,150Zm-8.34-40.46a17.93,17.93,0,0,1-2.74-1.54,24.37,24.37,0,0,1-6.72-6.5c-.21-.28-.37-.53-.52-.76,2.91,0,5.7.12,8.22.29Zm26.27-22-25.12-8.35a4.84,4.84,0,0,0-6.26,5.57l3,14.62h0c-1-.08-2-.1-2.94-.14-7.26-.25-14.52-.09-21.78-.23-11.61-.21-23.21-.73-34.82-.7l-2.39,0h-.17l2.79-13.58a4.84,4.84,0,0,0-6.26-5.57L25.7,126.16a12.58,12.58,0,0,1-3.27.62c-.25-1.39-.74-2.88-1.05-4.22a92.76,92.76,0,0,0-3.8-11.39c-1.06-2.45-2-5-3.24-7.35a12.58,12.58,0,0,1,3.37-1.71L62.18,87.33c.11,0,.22-.09.33-.13.18.21.39.41.56.59a21.16,21.16,0,0,0,5.84,3.92C77.39,95.94,88.06,97,97,93.47a28.11,28.11,0,0,0,10.34-6.61,4.22,4.22,0,0,0,1,.47l44.47,14.78a12.69,12.69,0,0,1,2,.86,126.94,126.94,0,0,0-5.16,12.84c-1.2,3.56-2.53,7.08-3.54,10.7C145.65,126.41,145.21,126.3,144.79,126.16Zm16-8a12.66,12.66,0,0,1-12,8.69c-.36,0-.72,0-1.08,0,1.08-3.74,2.44-7.4,3.7-11.08a117.54,117.54,0,0,1,4.77-11.85,12.68,12.68,0,0,1,4.64,14.29Z"/><path class="cls-6" d="M82.1,17.09l.07.09Z"/><path class="cls-6" d="M94.87,55.41a3,3,0,1,0-3-2.95A2.95,2.95,0,0,0,94.87,55.41Z"/><path class="cls-6" d="M75.87,55.41a3,3,0,1,0-3-2.95A2.95,2.95,0,0,0,75.87,55.41Z"/><path class="cls-6" d="M113,39.29a14.35,14.35,0,0,1,.57,2,21.69,21.69,0,0,1,.28,6.08c0,.73-.7,2.24.73,2.24a.81.81,0,0,0,.71-.79c.1-.67.18-1.33.22-2a17.51,17.51,0,0,0-1.57-8.39.62.62,0,0,0-1.12.14.6.6,0,0,0,.07.47S112.93,39.23,113,39.29Z"/><path class="cls-6" d="M104.75,43.65c0,.6-.21,1.36,0,1.91a.81.81,0,0,0,1.25.16.83.83,0,0,0,.23-.51v0a13.94,13.94,0,0,0,.11-1.45,22.27,22.27,0,0,0-1.4-8.48.6.6,0,0,0-1.17.08c.16,1.15.34,1.46.48,2.42A29.57,29.57,0,0,1,104.75,43.65Z"/><path class="cls-6" d="M96.52,40.1c.11,1.26,0,2.54.19,3.79,0,0,0-.15,0-.18a.7.7,0,0,0,1.19.49.59.59,0,0,0,.18-.37v.06s0,0,0-.07h0c0-.07,0-.1,0,0a9.43,9.43,0,0,0,.14-2.25A28.16,28.16,0,0,0,97,33.73a.74.74,0,0,0-1.43.4A30.77,30.77,0,0,1,96.52,40.1Z"/><path class="cls-6" d="M88.62,43.28a.77.77,0,0,0,1.43-.38,45.51,45.51,0,0,0-.2-9.13.65.65,0,0,0-1.29,0c0,2.52.14,5,0,7.56C88.54,42.2,88.4,43,88.62,43.28Z"/><path class="cls-6" d="M79.41,33.56A17.21,17.21,0,0,0,78.6,38a41.63,41.63,0,0,0-.14,4.74c0,.11,0,.22,0,.33a.84.84,0,0,0,.08.19.76.76,0,0,0,1.19.15c.37-.47.21-.76.29-1.63a47.66,47.66,0,0,1,.58-7.89A.63.63,0,0,0,79.41,33.56Z"/><path class="cls-6" d="M78.49,43.07c0-.26,0-.14,0,0Z"/><path class="cls-6" d="M78.49,43.08h0Z"/><path class="cls-6" d="M71.2,44.84c0-.14,0-.1,0,0Z"/><path class="cls-6" d="M72.48,33.83c-.34.18-.35.58-.46.91a13.28,13.28,0,0,0-.9,3.32,28.81,28.81,0,0,0,.08,6.82l0,.1c0,.11,0,.13,0,.11a.74.74,0,0,0,1.23.35c.25-.22.22-.56.23-.87,0-1-.1-1.91-.11-2.87a22.05,22.05,0,0,1,.23-4.19c.16-1,.59-1.88.73-2.86A.73.73,0,0,0,72.48,33.83Z"/><path class="cls-6" d="M71.2,44.84v0Z"/><path class="cls-6" d="M64,36c-.42.3-.41.92-.61,1.37,0-.06.05-.11.07-.17a20.23,20.23,0,0,0-.64,2.4,22.4,22.4,0,0,0-.47,7.52.57.57,0,0,0,1.08.13,16,16,0,0,0,.33-2.15,54.44,54.44,0,0,1,1.15-8.4A.63.63,0,0,0,64,36Z"/><path class="cls-6" d="M62.36,47s0,.06,0,.08V47Z"/><path class="cls-6" d="M55.3,39.91c-.43.12-.5.63-.65,1a13,13,0,0,0-.71,3.31,18.06,18.06,0,0,0,.32,6.16.56.56,0,0,0,.07.23h0a.64.64,0,0,0,1,.14c.3-.43.13-.28.21-.81s0-1.13-.05-1.69a21.27,21.27,0,0,1,.59-7.56A.63.63,0,0,0,55.3,39.91Z"/><path class="cls-6" d="M83.16,66.74a5.07,5.07,0,0,0,4.48-.65,6.51,6.51,0,0,0,2.39-5,.74.74,0,0,0-.14-.84c-.24-.26-.6-.22-.92-.24-1-.06-2-.05-3.06,0-1.35,0-2.69,0-4,.08a3.21,3.21,0,0,0-1,.12.77.77,0,0,0-.53.52s0,0,0,.08a.72.72,0,0,0-.49.61,8.54,8.54,0,0,0,1.23,3.62A4.2,4.2,0,0,0,83.16,66.74Zm.12-5,5.54-.1a5.85,5.85,0,0,1-.94,2.07C87,65.11,84.39,66.06,83,64.8a5.9,5.9,0,0,1-1.49-3C82.1,61.77,82.7,61.66,83.28,61.69Z"/><path class="cls-6" d="M62.08,94.72h.09l.4,0h.07a8.41,8.41,0,0,0,1.45,2.32c1.74,1.81,3.43,2.1,5.67,2a6.18,6.18,0,0,1,.86,0h0l.07,0a6.08,6.08,0,0,0,6.84,1.73,6.9,6.9,0,0,0,1.82,1.6,5.72,5.72,0,0,0,3.49.49c.2,0,.39-.09.58-.15h0c.17,0,.34-.07.51-.1a4.39,4.39,0,0,0,1.81.51,5.43,5.43,0,0,0,2.29-.18,9.78,9.78,0,0,0,2.39-1.73l.25-.18s0,0,0,0l.08,0a4.4,4.4,0,0,0,1.46.34,5.62,5.62,0,0,0,2.29-.16,5.42,5.42,0,0,0,2.09-1.3c.34-.33.65-.7,1-1l.07,0,.12,0h.07l.27.05c2.1.24,4.74.22,6.16-1.6a7.6,7.6,0,0,0,1.27-2.83h0a14.2,14.2,0,0,0,3.94-.64,4,4,0,0,0,2.82-4.45.57.57,0,0,0-1.11.08,2.51,2.51,0,0,1-1.16,2.46,4.42,4.42,0,0,1-2.07.72,16.93,16.93,0,0,1-2.75.24,1.32,1.32,0,0,0-.76.67,1.73,1.73,0,0,0-.1.24c-.31,2.2-1.34,3.55-4,3.62a13.86,13.86,0,0,1-1.93-.09l.21,0a2.69,2.69,0,0,0-1.23,0,2.76,2.76,0,0,0-1.09.83,3.66,3.66,0,0,1-3.7,1.66c-.69,0-1.33-.43-2-.3-.48.19-.29.15-.56.34a1.52,1.52,0,0,0-.22.22,6.15,6.15,0,0,0-.63.6,4,4,0,0,1-1.37.89s-.2.07-.32.09h-.1a7.25,7.25,0,0,1-1.88-.13,8.7,8.7,0,0,0-1.41-.32,2.07,2.07,0,0,0-.77.26c-.12.08-.26.14-.37.23l-.24.08-.14,0h-.11a3.39,3.39,0,0,1-2.13-.51,7.36,7.36,0,0,1-1.37-1.2l0,0-.06-.07a2.38,2.38,0,0,0-.48-.63.73.73,0,0,0-.78-.37c-.26,0-.47.23-.71.31a5.16,5.16,0,0,1-1.67.34,4.37,4.37,0,0,1-2.77-1.07c-.15-.14-.55-.48-.67-.6a1.33,1.33,0,0,0-.58-.32c-.17,0-.48-.07-.12,0-.86-.12-1.73,0-2.6-.07h-.11a4.91,4.91,0,0,1-3.75-2.33,8.54,8.54,0,0,1-.47-.82c-.2-.6-.56-1.2-1.28-1.14a5.73,5.73,0,0,1-3.5-1.29,6.91,6.91,0,0,1-1-1,.89.89,0,0,0-1.22-.42c-.63.39-.43,1.06,0,1.51a7.78,7.78,0,0,0,1.75,1.54A7.66,7.66,0,0,0,62.08,94.72Z"/><path class="cls-6" d="M117.61,91.24c-.32,0-.5.28-.71.47a11.27,11.27,0,0,0-1.63,2,27.39,27.39,0,0,0-3.24,9.62,42.89,42.89,0,0,0-.39,14.56.82.82,0,0,0,1.51.33,1.24,1.24,0,0,0,0-.91q-.18-1.33-.27-2.67a42.69,42.69,0,0,1,1-12.32c.8-4,2-7.56,4.25-10.2A.6.6,0,0,0,117.61,91.24Z"/><path class="cls-6" d="M54.82,96.15A20,20,0,0,0,52,91.42a.58.58,0,0,0-1,.4c.1.54.18.33.31.58a22.41,22.41,0,0,1,1.89,3.54c.57,1.37,1.19,3,1.76,4.79a35.15,35.15,0,0,1,1.17,15.11c0,.27-.16,1.19-.09.7a.79.79,0,0,0,0,.43.8.8,0,0,0,1.4.27,2,2,0,0,0,.26-1c.15-1.1.29-2.2.34-3.32a36.45,36.45,0,0,0-.76-9.55A34.12,34.12,0,0,0,54.82,96.15Z"/><path class="cls-6" d="M126.78,105.52l-.1,0c-.22-3.37,2.84-7.68,5.13-8.59a.6.6,0,0,0,.07-1.13,1.06,1.06,0,0,0-.7,0,6.86,6.86,0,0,0-1,.47,10.25,10.25,0,0,0-3.24,3.26,10,10,0,0,0-1.79,6.92,9.2,9.2,0,0,0-2.3,3.23,11.78,11.78,0,0,0-.83,4.73c.07.94-.11,1.2.29,1.73a.8.8,0,0,0,1.3-.25,1.58,1.58,0,0,0,.06-.72,17.12,17.12,0,0,1,.09-2.68,9.37,9.37,0,0,1,.52-2,9.85,9.85,0,0,1,1.36-2.23,4.74,4.74,0,0,0,.67,1.15,4,4,0,0,0,4.56,1.43,2.74,2.74,0,0,0,.93-4.35A4.45,4.45,0,0,0,126.78,105.52Zm3.37,4c-1.11.38-2.61-.53-3.21-2.26a3.73,3.73,0,0,1,2.31-.4C130.74,107,131.85,108.68,130.15,109.49Z"/><path class="cls-6" d="M140.78,99.9a44.89,44.89,0,0,0-5.23,9.51,48.69,48.69,0,0,0-2.36,7.28,19.44,19.44,0,0,0-.6,3.13.82.82,0,0,0,1.13.74.92.92,0,0,0,.52-1v-.06c.06-.4.15-.81.23-1.21a53.32,53.32,0,0,1,2.12-7.22,103.41,103.41,0,0,1,4.95-10.56A.52.52,0,0,0,140.78,99.9Z"/><path class="cls-6" d="M148.14,101.3c-.36-.09-.66.2-1,.34a9.49,9.49,0,0,0-1.61,1.15,13.87,13.87,0,0,0-3.07,4.44,15,15,0,0,0-1.19,4.43c-2.28,1.31-3.59,4.48-3.74,7a15.75,15.75,0,0,0,0,2.57c0,.44.13,1.41,1.15,1.1.54-.19.51-.82.46-1.29a15.77,15.77,0,0,1,0-2.28,8.28,8.28,0,0,1,2.17-5.17,4.23,4.23,0,0,0,.8,2c1.79,2.29,4.77,1.29,5-1.54a3.17,3.17,0,0,0-2.64-3,4.8,4.8,0,0,0-1.46,0,12.93,12.93,0,0,1,.65-2.51,12.51,12.51,0,0,1,4.61-6.26A.56.56,0,0,0,148.14,101.3Zm-4.61,11.32c1.19,0,2.49.88,2,2-.4.59-.56.67-1,.7-1-.15-1.56-1.12-1.63-2.54A4,4,0,0,1,143.53,112.62Z"/><path class="cls-6" d="M43.55,107.65a8.53,8.53,0,0,0-.64-3.55c-1-2.79-2.9-6.35-5.9-7.26a.72.72,0,0,0-.81,1.06.93.93,0,0,0,.62.39,4.17,4.17,0,0,1,1,.62,12.17,12.17,0,0,1,3.47,5.29,17.92,17.92,0,0,1,.69,2.45,5.58,5.58,0,0,0-3-.48,3.25,3.25,0,0,0-2.42,4.06,2.85,2.85,0,0,0,2.68,1.87A4.45,4.45,0,0,0,43,109.36a7.18,7.18,0,0,1,1.11,1.36,10.26,10.26,0,0,1,1,5.67c0,.35-.13.73.07,1a.82.82,0,0,0,1.27.17.75.75,0,0,0,.24-.58c0-.5.06-1,.08-1.52a11.79,11.79,0,0,0-1.06-5.3A8.63,8.63,0,0,0,43.55,107.65Zm-3.71,2.73c-2.45.56-2.09-2.25-.64-2.61a4.34,4.34,0,0,1,2.5.58A3.79,3.79,0,0,1,39.84,110.38Z"/><path class="cls-6" d="M28,99.68a.66.66,0,0,0-1.14.66c1.21,2.19,2.23,4.48,3.26,6.75a70.71,70.71,0,0,1,4.25,12.76A.83.83,0,0,0,36,120a61.67,61.67,0,0,0-3.81-12.1A55.8,55.8,0,0,0,28,99.68Z"/><path class="cls-6" d="M27.57,111.89a13.55,13.55,0,0,0-1-3,13.3,13.3,0,0,0-5.87-6.53.57.57,0,0,0-.73.84,14,14,0,0,1,2.45,2.14,15.2,15.2,0,0,1,3.05,5.05,2.89,2.89,0,0,0-4,3c.49,3.28,4.78,4.53,6,1.14a15.56,15.56,0,0,1,1.33,6.9c0,.49-.14,1,.08,1.48a.78.78,0,0,0,1,.33c.67-.27.47-1.12.54-1.69a17.44,17.44,0,0,0-.33-4.2A11.21,11.21,0,0,0,27.57,111.89Zm-2.16,2.92a1.45,1.45,0,0,1-1.72-.38,2,2,0,0,1-.59-1.75c.22-.56,1-1,1.37-.9a4,4,0,0,1,1.56.85q0,.33,0,.66A2,2,0,0,1,25.41,114.81Z"/><path class="cls-6" d="M59.69,116.45h0l.11,0h0a2,2,0,0,1,.34,0l.09,0a2.3,2.3,0,0,1,.35.1l.21.1c1.3.61,2.27,2.3,4.19,2.8a3.84,3.84,0,0,0,3.13-1.24c.56-.54,1-1.18,1.56-1.75.07-.09.35-.34.44-.43h0a2.6,2.6,0,0,1,3.08-.28c1.56.88,3.44,4.71,6.44,3,2.13-1.19,3.17-3.55,4.79-3.6a4.19,4.19,0,0,1,3,1.56c1.26,1.27,2.72,2.89,4.7,2.49,1.72-.36,2.7-1.94,3.82-3.14s2.52-1.29,4.24-.17c2,1.32,4.31,5.26,7.36,1.53a2.38,2.38,0,0,1,1.43-.88h.41l0,0,.1.05a.65.65,0,0,0,1-.33c.13-.82-.9-1.35-1.63-1.3a3.37,3.37,0,0,0-2,.8c-.52.41-.91,1-1.42,1.35-.27.13-.54.43-1.13,0-1-.53-1.89-1.64-3.17-2.58a5.42,5.42,0,0,0-3.43-1.13c-1.82.08-3.08,1.39-4.12,2.74-1.38,1.52-2.06,1.82-3.47.88-.66-.53-2.86-3.12-4.6-3.46-2.06-.52-3.6.66-4.9,2.11s-2.12,2-3.1,1.66c-1.54-.62-3.23-4.63-7-3.5a6.67,6.67,0,0,0-3.14,2.52,4.75,4.75,0,0,1-1.23,1.1l-.26.14a1.22,1.22,0,0,1-.69.16,2.45,2.45,0,0,1-.81-.37c-.74-.37-1.33-1.28-2.45-2a3.46,3.46,0,0,0-2.45-.67c-.46.14-1,.2-.92,1.07A.76.76,0,0,0,59.69,116.45Z"/><path class="cls-6" d="M111.57,128.38l-5.8-.17c-10.17-.46-20.35-.15-30.53,0-3.24,0-6.48,0-9.71-.1L62,128a14.27,14.27,0,0,0-2,0l-.4.09a.67.67,0,0,0-.16,1.27c.55.39,4.14.3,6,.41,9.25.31,18.5-.12,27.75-.12,7.08,0,14.27.52,19.89-.12a.53.53,0,0,0,.37-.9.52.52,0,0,0-.37-.16Z"/><path class="cls-6" d="M104.65,109.57a.61.61,0,0,0-.19-.24A2.86,2.86,0,0,0,103,109c-2.66.2-2.61,3.26-.69,4.54,1.06.81,3,.57,3.38-.83A3,3,0,0,0,104.65,109.57Zm-.29,2.93a1.32,1.32,0,0,1-1.7-.14,1.46,1.46,0,0,1-.41-.92,1.62,1.62,0,0,1,0-.3,1.59,1.59,0,0,1,.09-.33l.06-.12a1.62,1.62,0,0,1,.2-.18l.1-.05.09,0a1.71,1.71,0,0,1,.78-.08c.2,0,.19.06.41.07A1.62,1.62,0,0,1,104.36,112.5Z"/><path class="cls-6" d="M92.71,111.47a.45.45,0,0,0-.09-.31l0-.07a2.17,2.17,0,0,0-1.41-.9c-2.85-.54-4,2.72-1.58,4.24a2.68,2.68,0,0,0,3.22-.19,2.09,2.09,0,0,0,.15-2.41Zm-.77,1.69a1.71,1.71,0,0,1-.13.23l0,0a.23.23,0,0,1-.07.07l-.16.09a1.58,1.58,0,0,1-.57.14c-1.37-.06-1.8-1.8-.9-2.21a1.52,1.52,0,0,1,.78-.12H91a3.71,3.71,0,0,1,.41.12l.09,0A1.6,1.6,0,0,1,91.94,113.16Z"/><path class="cls-6" d="M77.93,110.5c-2.53-.14-2.87,2.8-1.23,4.22a2.16,2.16,0,0,0,3.41-.68,2.67,2.67,0,0,0-.79-3A2.18,2.18,0,0,0,77.93,110.5Zm-.05,3.63c-.91-.31-1.35-1.89-.63-2.24a1.32,1.32,0,0,1,1.15-.13.6.6,0,0,1,.28.12C79.36,112.61,79.24,114.23,77.88,114.13Z"/><path class="cls-6" d="M98.9,117.33a2.73,2.73,0,0,0-1.51-.36c-2.66.21-2.61,3.27-.69,4.54,1.06.81,3,.58,3.38-.83a3,3,0,0,0-1-3.12A.53.53,0,0,0,98.9,117.33Zm-.1,3.16a1.31,1.31,0,0,1-1.7-.13,1.5,1.5,0,0,1-.41-.93c0-.07,0-.2,0-.3a2,2,0,0,1,.09-.33l.06-.12.2-.18.1,0,.09,0a1.89,1.89,0,0,1,.78-.08c.2,0,.19.06.42.07A1.63,1.63,0,0,1,98.8,120.49Z"/><path class="cls-6" d="M87.15,119.46a.43.43,0,0,0-.09-.3l0-.07a2.16,2.16,0,0,0-1.41-.91c-2.85-.54-3.94,2.73-1.58,4.25a2.69,2.69,0,0,0,3.22-.19,2.11,2.11,0,0,0,.15-2.42Zm-.77,1.69a1.71,1.71,0,0,1-.13.23l0,.05-.07.06-.16.09a1.36,1.36,0,0,1-.57.14c-1.37-.06-1.8-1.8-.9-2.21a1.68,1.68,0,0,1,.78-.12h.11a3.71,3.71,0,0,1,.41.12l.1.06A1.59,1.59,0,0,1,86.38,121.15Z"/><path class="cls-6" d="M73.76,119.06a2.23,2.23,0,0,0-1.39-.57c-2.53-.14-2.87,2.8-1.23,4.22a2.15,2.15,0,0,0,3.41-.68A2.67,2.67,0,0,0,73.76,119.06Zm-1.44,3.06c-.91-.31-1.35-1.89-.63-2.24a1.36,1.36,0,0,1,1.15-.13.6.6,0,0,1,.28.12C73.8,120.6,73.68,122.22,72.32,122.12Z"/><path class="cls-6" d="M64.57,109.65a.44.44,0,0,0-.23.16c-2.33.23-2.55,3.52-.64,4.54,1.6.89,4.1-.33,3.75-2.3C67.21,110.78,65.94,109.42,64.57,109.65ZM65.91,113a1.33,1.33,0,0,1-2.16-1.48c.33-.63.66-.67,1.58-.48a.47.47,0,0,0,.33,0,2.09,2.09,0,0,1,.56,1.07A1,1,0,0,1,65.91,113Z"/><path class="cls-6" d="M104.22,142.53c-.37-.5-.53-1.19-1-1.58a.83.83,0,0,0-1.19.49c-.14.49.27.9.47,1.32a27.18,27.18,0,0,0,2,3,25.85,25.85,0,0,0,8.48,7.35,23.7,23.7,0,0,0,4.7,2.11.59.59,0,1,0,.12-1.17,32.15,32.15,0,0,1-6.5-3.77A27.69,27.69,0,0,1,104.22,142.53Z"/><path class="cls-6" d="M56.42,150.61c-1.34,1.15-3.55,2.54-4.71,3.4a.68.68,0,0,0,.57,1.15,29.21,29.21,0,0,0,7-5,33.57,33.57,0,0,0,4.91-5.74A23.12,23.12,0,0,0,65.66,142a3.93,3.93,0,0,0,.55-1.24.82.82,0,0,0-1-.78.86.86,0,0,0-.55.49c-.39.74-.78,1.48-1.21,2.2A32.72,32.72,0,0,1,56.42,150.61Z"/><path class="cls-6" d="M113.81,161.84a9.46,9.46,0,0,0-4.31-1.48,5.77,5.77,0,0,0-5,1.89,11.5,11.5,0,0,0-1.5-.41c-1.63-.32-4.55.1-5.32.73a.71.71,0,0,0,.46,1.32,11.34,11.34,0,0,1,4.24-.58,6.93,6.93,0,0,1,1.39.27,5.12,5.12,0,0,0-.31,1.4c-.15,2,.68,4.36,2.71,5,2.74.74,4.15-2.43,2.33-4.86a7.17,7.17,0,0,0-2.45-2.19c1.59-1.44,4.34-1.14,6.37,0a3.65,3.65,0,0,0,.32,4.9,3.1,3.1,0,0,0,1.9.83,2,2,0,0,0,1.85-1.19,4.29,4.29,0,0,0-.68-3.66,6.6,6.6,0,0,0-.86-1l.16-.06a6.2,6.2,0,0,1,3.48.14,4,4,0,0,1,1.71.76.48.48,0,0,0,.82-.34c0-.41-.47-.62-.78-.81C118.56,161.61,115.85,160.85,113.81,161.84Zm-5.88,5.22c.06.57,0,1.35-.62,1.56-1.38.3-2.79-2.24-2-4.44A4.75,4.75,0,0,1,107.93,167.06Zm7.06-1a2.92,2.92,0,0,1,0,.66.3.3,0,0,1,0,.1.53.53,0,0,1-.06.1l0,0-.11.06-.14,0h-.08l-.17,0a4.31,4.31,0,0,1-.47-.26,1.69,1.69,0,0,1-.41-.47,2.16,2.16,0,0,1,.12-2.48A3.72,3.72,0,0,1,115,166Z"/><path class="cls-6" d="M100.6,172.59a.82.82,0,0,0-.13,1.62A101.23,101.23,0,0,1,111.7,173a104.7,104.7,0,0,0,10.52-.8.74.74,0,0,0,.18-1.34c-.61-.23-.46,0-.79-.06-1.29.09-2.58.19-3.88.27C112,171.42,106.25,171.51,100.6,172.59Z"/><path class="cls-6" d="M59.94,160.88a10.33,10.33,0,0,0-4.19.91,9.61,9.61,0,0,0-1.55-.49,7.76,7.76,0,0,0-3.86,0,.74.74,0,0,0-.17,1.33c.54.21.39.06.84,0-.31.05-.09,0,.11,0h0a9.48,9.48,0,0,1,1.6-.05,8.68,8.68,0,0,1,1.35.25,5.4,5.4,0,0,0-.88,1,3.27,3.27,0,0,0,.32,4.34,3.2,3.2,0,0,0,4.41-.24,3.72,3.72,0,0,0-.46-5.08,6.58,6.58,0,0,1,1.44-.31,7.27,7.27,0,0,1,4.4.85c-1.78,1.58-2.54,4.42-.05,5.78a2.46,2.46,0,0,0,3.61-1.25,4.09,4.09,0,0,0,0-2.74,5.65,5.65,0,0,0-.81-1.49,4.23,4.23,0,0,1,.9-.16,5.88,5.88,0,0,1,5.34,2,.56.56,0,0,0,1-.36,3.1,3.1,0,0,0-1-1.39,7.43,7.43,0,0,0-7.5-1.26A8.69,8.69,0,0,0,59.94,160.88Zm-3.11,5.81c-.33.66-1.32,1-2.32.22a1.66,1.66,0,0,1-.17-1.82,3.56,3.56,0,0,1,1.45-1.46C56.94,164.38,57.52,165.48,56.83,166.69Zm7.94,1.25-.08,0h-.14c-.49-.14-.33-.07-.87-.45l-.2-.2a1.35,1.35,0,0,1-.15-.26,2.74,2.74,0,0,1,1.27-2.59,4.85,4.85,0,0,1,.64.85C65.67,166.32,65.68,167.46,64.77,167.94Z"/><path class="cls-6" d="M70.53,173.57c-.92-.2-1.86-.3-2.8-.43-5-.69-12-1.6-17.85-2-.6-.05-1.44-.21-1.64.55a.82.82,0,0,0,.79,1c3.47.16,6.91.66,10.36,1,2.86.3,4.62.53,7.32.93a29.41,29.41,0,0,1,4.06.68.82.82,0,0,0,.71-1.43A2.55,2.55,0,0,0,70.53,173.57Z"/><path class="cls-6" d="M118.76,180.06a4.43,4.43,0,0,0-1.2.9,7.07,7.07,0,0,0-7.45-.72,6.24,6.24,0,0,0-2,1.59,14,14,0,0,0-6.18-1.5c-.46,0-1-.1-1.34.24a.82.82,0,0,0,.57,1.39,13.11,13.11,0,0,1,5.62,1l.44.25a7.27,7.27,0,0,0,.23,6.65c.89,1.68,3.17,2.65,4.6,1a4.24,4.24,0,0,0,.67-3.77c-.3-1.92-1.76-3.3-3.25-4.41l.15-.15a4.78,4.78,0,0,1,3.89-1.46,8.45,8.45,0,0,1,3,1.13,6.26,6.26,0,0,0-.83,3.68c.23,1.84,1.17,4.76,3.33,4.95,2.46-.19,2.37-3.72,1.78-5.47A7.7,7.7,0,0,0,118.8,182a4.12,4.12,0,0,1,1-.7c1.36-.54,3.41-.28,4,.64a.52.52,0,0,0,.94-.12c.09-.3-.14-.56-.31-.77a4,4,0,0,0-2.38-1.27A5.58,5.58,0,0,0,118.76,180.06Zm-8.05,6.12c1,1.64.7,3.88-.3,3.95-1.63.09-2.89-3.41-1.78-6A8.09,8.09,0,0,1,110.71,186.18Zm8.81.48a4.15,4.15,0,0,1-.08,2.11,2.76,2.76,0,0,1-.25.44l0,0h-.09a1.81,1.81,0,0,1-.33-.2,4.22,4.22,0,0,1-.92-1.48,5.14,5.14,0,0,1,0-4.27A6.88,6.88,0,0,1,119.52,186.66Z"/><path class="cls-6" d="M66,180.48a7.41,7.41,0,0,0-5.27.4q-.37-.28-.78-.54a8.15,8.15,0,0,0-3.29-1.18,7.53,7.53,0,0,0-2.83.35,6.9,6.9,0,0,0-1.15.5,5.22,5.22,0,0,0-1.4-.79,6.39,6.39,0,0,0-4.44.44.85.85,0,1,0,.67,1.48c1-.47,2.85-.78,3.65-.19l.12.07a7.37,7.37,0,0,0-2.47,6.54c1.53,5.29,6.26,2.09,6.36-2a7.24,7.24,0,0,0-1.32-4.3,6,6,0,0,1,2.93-.43,7.48,7.48,0,0,1,2.51,1,7.24,7.24,0,0,0-2,7.23,3.66,3.66,0,0,0,2.53,2.61c3.22.66,4.75-3,4.08-5.69A7.3,7.3,0,0,0,62,182.07a6.7,6.7,0,0,1,4.33.16,8.94,8.94,0,0,1,1.39.72,3,3,0,0,0,.34.24,1.45,1.45,0,0,1,.18.17l0,0h0a.69.69,0,0,0,1.25.17.94.94,0,0,0-.14-1A7,7,0,0,0,66,180.48Zm-13.22,7.31c-.73.81-1.28,1.36-2,.41-1-1.32-.29-4.4,1.66-6.09A5,5,0,0,1,52.74,187.79Zm7.92,2.33c-.76.13-1.67-.34-2.07-2.11a5.81,5.81,0,0,1,1.93-5.13A6.08,6.08,0,0,1,62,185.15C62.74,187.61,62.25,189.79,60.66,190.12Z"/><path class="cls-4" d="M113.43,61.76a7.79,7.79,0,1,0-7.79,7.78,7.79,7.79,0,0,0,7.79-7.78"/><path class="cls-4" d="M72.63,61.76a7.79,7.79,0,1,0-7.78,7.78,7.78,7.78,0,0,0,7.78-7.78"/><path class="cls-7" d="M88.65,17.49A71.13,71.13,0,0,0,80.48,14a8.11,8.11,0,0,1,.23-5.7c1.29-3,5.39-3,7.54-1.06a7.46,7.46,0,0,1,2.27,6.87A5.33,5.33,0,0,1,88.65,17.49Z"/><path class="cls-8" d="M105.27,83.92a4.58,4.58,0,0,0,.92,1.94l0,0c-.38.38-.79.75-1.23,1.12h0c-9,2.75-15.53,2.54-19.58,1.83a33.49,33.49,0,0,0,11.51-2.14,20.42,20.42,0,0,0,8.22-5.38A10.31,10.31,0,0,0,105.27,83.92Z"/><path class="cls-9" d="M114.93,36.73a33.49,33.49,0,0,0-3.39-1.65,46.06,46.06,0,0,0-5-1.77C103.09,27.12,97.5,22.5,91.63,19.1a15.47,15.47,0,0,1,1.94.14,5.27,5.27,0,0,0,.83.11A22.91,22.91,0,0,1,114.93,36.73Z"/><path class="cls-7" d="M115.67,39a.62.62,0,0,1-.17-.11,30.35,30.35,0,0,0-4.57-2.36c-1.07-.45-2.2-.87-3.37-1.26A28.89,28.89,0,0,1,110.07,50a.09.09,0,0,1,0,0,32.82,32.82,0,0,1,7,3.58c2.7-2.11,4.13-4.46,4.13-6.8C121.23,44,119.28,41.34,115.67,39Zm-.2,7.86c0,.67-.12,1.34-.22,2a.81.81,0,0,1-.71.79c-1.43,0-.72-1.51-.73-2.24a21.74,21.74,0,0,0-.28-6.09,14.22,14.22,0,0,0-.57-2c0-.06-.08-.17-.11-.22a.6.6,0,0,1-.07-.47.62.62,0,0,1,1.12-.15A17.55,17.55,0,0,1,115.47,46.85Z"/><path class="cls-10" d="M126.73,47.18c0,3.41-2.49,6.18-4.74,8a1.22,1.22,0,0,0-.27.09,1.36,1.36,0,0,0-.8,1.13,35.84,35.84,0,0,1-9.52,21.5,4.14,4.14,0,0,0-1,3.82,4.06,4.06,0,0,0,1.91,2.55c-1.28.56-2.52,1-3.72,1.5a2.94,2.94,0,0,1-1.81-2.17,9.34,9.34,0,0,1,2.31-8.22,32.49,32.49,0,0,0,8.61-20.26c3.31-2.48,5.07-5.35,5.07-8.29,0-3.28-2.12-6.38-6.06-9-1.7-10.69-11-19.09-22.19-20a3.42,3.42,0,0,1-.61-.07,29.82,29.82,0,0,0-3.53-.2,7.83,7.83,0,0,0,1.43-2.83c1.35-4.46-1.63-10-6.49-10.44-5.57-.46-7.52,4.53-6.67,9.08l-2.12-.68a9,9,0,0,1-.08-1.15A8.77,8.77,0,0,1,94,11.5a10.43,10.43,0,0,1-.08,1.23,1.35,1.35,0,0,0,.29,1.06,1.37,1.37,0,0,0,1,.49A26.46,26.46,0,0,1,119.75,37a1.37,1.37,0,0,0,.59.95C123.26,39.94,126.73,43.12,126.73,47.18Z"/><path class="cls-3" d="M121,202a18.88,18.88,0,0,0,.51-7.6l-.87-4.41h0c.84-1.21.67-3.35.25-4.6a7.55,7.55,0,0,0-1.74-3.1c0-.17-.08-.35-.11-.54a3.08,3.08,0,0,1,.77-.5c1.36-.54,3.41-.28,4,.64a.52.52,0,0,0,.94-.12c.09-.3-.14-.56-.31-.78a4,4,0,0,0-2.38-1.26,5.51,5.51,0,0,0-3.33.31l-.06,0c-.45-2.29-.93-4.76-1.44-7.37a43.13,43.13,0,0,0,5-.52.74.74,0,0,0,.18-1.33c-.61-.23-.46,0-.79-.06-1.29.08-2.58.19-3.88.27l-.78,0c-.21-1.1-.43-2.22-.65-3.35a1.74,1.74,0,0,0,.18-.33,4.27,4.27,0,0,0-.68-3.65c-.12-.18-.25-.35-.38-.52l-.12-.63a6.28,6.28,0,0,1,3.28.19,4,4,0,0,1,1.71.76.48.48,0,0,0,.82-.34c0-.41-.47-.62-.78-.82a9.62,9.62,0,0,0-5.26-1c-.52-2.66-1-5.37-1.56-8a19.85,19.85,0,0,0,4.15,1.82c.88.15,1-1,.12-1.17a25.52,25.52,0,0,1-4.63-2.49c-.38-1.94-.75-3.86-1.11-5.74a21.87,21.87,0,0,0,6.85,4.16l8,38.64A12.7,12.7,0,0,1,121,202Z"/><path class="cls-3" d="M147.56,121.78c-.53,1.56-1,3.13-1.48,4.72a11.66,11.66,0,0,1-1.29-.34l-25.12-8.35a4.84,4.84,0,0,0-6.26,5.57l3,14.62h0c-1-.07-2-.09-2.94-.13l-3-.08c-.56-2.89-1.08-5.61-1.55-8.06,1.45,0,2.83-.12,4.13-.27a.53.53,0,0,0,.37-.9.52.52,0,0,0-.37-.16h-1.5l-2.91-.1c0-.29-.11-.57-.16-.85a42.69,42.69,0,0,1-.91-10l0,0a2.33,2.33,0,0,1,1.43-.88h.33l.08,0,0,0,.1.05a.66.66,0,0,0,1-.33c.13-.83-.9-1.36-1.63-1.3a2.91,2.91,0,0,0-1.16.28c.58-3.43,2-5,3.42-5.59a40.1,40.1,0,0,0,.39,8.19.82.82,0,0,0,1.51.34,1.24,1.24,0,0,0,0-.91q-.18-1.33-.27-2.67a38.63,38.63,0,0,1,0-5.37,5.11,5.11,0,0,1,1.61.14s3.06,1.19,7.64,2.94a16.8,16.8,0,0,0-.13,2.13c.07.94-.11,1.19.29,1.73a.8.8,0,0,0,1.3-.26,1.55,1.55,0,0,0,.06-.71,17.63,17.63,0,0,1,0-2.3c2.82,1.08,6.09,2.32,9.51,3.6l0,.12a19.86,19.86,0,0,0-.6,3.13.82.82,0,0,0,1.13.75.93.93,0,0,0,.52-1v-.06c.06-.41.15-.81.23-1.21s.18-.8.29-1.2l2.85,1.06c0,.17,0,.34,0,.51a15.75,15.75,0,0,0,0,2.57c0,.44.13,1.41,1.15,1.1.54-.19.51-.82.46-1.3a15.64,15.64,0,0,1,0-2.27v0c2.48.91,4.95,1.81,7.31,2.65C146.85,121.56,147.21,121.67,147.56,121.78Z"/><path class="cls-3" d="M148.78,126.81c-.36,0-.72,0-1.08,0,.44-1.53.93-3.05,1.43-4.55a28.57,28.57,0,0,0,8.67.81A12.56,12.56,0,0,1,148.78,126.81Z"/><path class="cls-10" d="M166.54,121.42a16.55,16.55,0,0,1-20.72,9.49l-23.49-8.07a2.38,2.38,0,0,0-2.33.46,2.34,2.34,0,0,0-.76,2.24L131.93,189A17.77,17.77,0,0,1,118,209.91a17.54,17.54,0,0,1-2.85.33,14,14,0,0,0,5.07-6.05,14.25,14.25,0,0,0,8.16-15.88l-13.45-65.25a3.28,3.28,0,0,1,4.25-3.77l25.12,8.35a14.2,14.2,0,0,0,15.75-4.81A36.42,36.42,0,0,0,166.54,121.42Z"/><path class="cls-3" d="M118.52,148.17a19.81,19.81,0,0,1-2.74-1.54,23.26,23.26,0,0,1-4.29-3.56l-.7-3.67c2.1,0,4.11.12,6,.25Z"/></g></g></svg>