<svg xmlns="http://www.w3.org/2000/svg" viewBox="0 0 170.72 198.03"><defs><style>.cls-1{fill:#ea6a2a;}.cls-2{fill:#c60634;}.cls-3{fill:#ffd29c;}.cls-4{fill:#717f44;}.cls-5{fill:#ce4b1d;}.cls-6{fill:#490707;}.cls-7{fill:#a3003b;}.cls-8{fill:#b73718;}.cls-9{fill:#f9ad5a;}.cls-10{fill:#4c5e2c;}</style></defs><g id="Capa_2" data-name="Capa 2"><g id="OBJECTS"><path class="cls-1" d="M65.34,127.79,62,127.62c0,.1-.08.19-.11.28-.34.77-.72,1.53-1.13,2.28a39.37,39.37,0,0,1-3.44,5.33A32.3,32.3,0,0,1,53,139.93a16,16,0,0,1-3.44,2.4l.11,0-.16.06,0,0a.5.5,0,0,1-.13,0l-4.29,20.81a2,2,0,0,0,.45.16c2.07.72,4.17,1.34,6.28,1.93a104.54,104.54,0,0,0,14.24,3c.88.1,1.76.17,2.65.23a7.2,7.2,0,0,1,1.14.09l7.17-34.8a8.43,8.43,0,0,1,3.6-5.3h-1.3C74.7,128.45,70,128,65.34,127.79Zm.46,2.71a22.63,22.63,0,0,1-2,3.94,35.92,35.92,0,0,1-7,7.69c-1,.83-2,1.62-3,2.37-.56.32-1,.94-1.71,1a.82.82,0,0,1-.78-1,.8.8,0,0,1,.37-.49c.58-.4,1.15-.8,1.72-1.22,4.71-3.56,9.22-8.24,11.89-13.75a.52.52,0,0,1,1,.2A4.43,4.43,0,0,1,65.8,130.5Z"/><path class="cls-2" d="M106.23,89.51c-.41-3.21-.6-6.44-.82-9.66-.09-1.24-.18-2.48-.29-3.72a2.92,2.92,0,0,0-.05-.5c-.79.68-1.61,1.31-2.45,1.91a37.73,37.73,0,0,1-7.83,4,37,37,0,0,1-4.1,1.33,8.56,8.56,0,0,0-.11,1c-.12,1.42-.21,2.85-.29,4.27-.23,4.41-.36,8.84-.29,13.25a15,15,0,0,0,.34,3.39c0,.07.06.18.09.26.7,1.52,2.48,1.83,4.43,1.75h0c1.06,0,2.18-.2,3.2-.34,4.37-.75,7.62-2,8.5-5.76a23.08,23.08,0,0,0,.27-5.26C106.75,93.31,106.41,91.13,106.23,89.51ZM92,87.39a24.92,24.92,0,0,0,3.4-.73,34.74,34.74,0,0,0,7.15-3.09,1.42,1.42,0,0,1,.34-.15l.1,0a.76.76,0,0,1,1,.91.75.75,0,0,1-.21.35h0l-.05,0c-.22.19-.15.1,0,0A9.46,9.46,0,0,1,101.44,86a24.29,24.29,0,0,1-9.19,2.63A.64.64,0,0,1,92,87.39Zm11.76-2.74Zm1.32,8.73a.47.47,0,0,1,0,.09l0,.06a1.4,1.4,0,0,1-.12.18s0,0,0,0,0,0,0,0l-.05,0a2.37,2.37,0,0,1-.34.29c.06,0,.23-.18.09-.06A19.81,19.81,0,0,1,102,95.67a28.17,28.17,0,0,1-5.84,2.2,13.32,13.32,0,0,1-3.76.51.65.65,0,0,1-.45-1.1c.19-.22.49-.19.75-.19a12.48,12.48,0,0,0,1.56-.29,29.9,29.9,0,0,0,6.19-2.15,21,21,0,0,0,3.17-1.94l.23-.13a.75.75,0,0,1,.13-.06l0,0h0l.12,0,.21,0A.74.74,0,0,1,105.08,93.38Z"/><path class="cls-1" d="M48.5,181.68a42.07,42.07,0,0,1-5.41-2.51,12.67,12.67,0,0,0,19.29,7.65,13.49,13.49,0,0,0,1.41-1.08c-1.53-.22-3-.51-4.56-.83A72.82,72.82,0,0,1,48.5,181.68Z"/><path class="cls-3" d="M126.7,169.08a1.55,1.55,0,0,0-.72.17c-1.43.57-2.89,1.07-4.37,1.5a94,94,0,0,1-13,2.64,46.08,46.08,0,0,1-6.79.6l-.85-4.15a74.06,74.06,0,0,0,19.7-3.8c1.77-.58,3.46-1.2,5-1.84Z"/><path class="cls-3" d="M65.41,169.84A95,95,0,0,1,54,167.49a70.92,70.92,0,0,1-9.11-2.9l-.83,4a79.3,79.3,0,0,0,8.24,2.56,88.51,88.51,0,0,0,15.9,2.58,5.44,5.44,0,0,0,.67,0l.74-3.6a2.86,2.86,0,0,1-.51,0C67.85,170.1,66.63,170,65.41,169.84Z"/><path class="cls-4" d="M127.72,174.05l-.72-3.5a36.24,36.24,0,0,1-5.08,1.8,85.21,85.21,0,0,1-10.18,2.19,59.45,59.45,0,0,1-9.58,1l.74,3.61a12.82,12.82,0,0,0,1.71,4.24,35.18,35.18,0,0,0,8.36-.32,41.5,41.5,0,0,0,10.22-2.84,30.41,30.41,0,0,0,3.5-1.79,7.07,7.07,0,0,1,1.24-.73A12.4,12.4,0,0,0,127.72,174.05Zm-18.07,8.56c-.39-1-.6-2.11-.9-3.16a5,5,0,0,1-.3-1.71.69.69,0,0,1,1.22-.24,1.89,1.89,0,0,1,.24.64c.3,1.31.53,2.63.77,4A.59.59,0,0,1,109.65,182.61ZM115.5,181a15,15,0,0,1-1.07-4v-.07a.71.71,0,0,1,1.34-.35h0a1.73,1.73,0,0,1,.19.45c.31,1.1.58,2.21.83,3.33A.74.74,0,0,1,115.5,181Zm7.67-2.26a.61.61,0,0,1-.49-.27,4.73,4.73,0,0,1-.33-1.2c-.23-.86-.49-1.72-.74-2.58-.26-.6,0-1.23.52-1.29a1,1,0,0,1,.5.09c.46.37.35.54.65,1.29a11.48,11.48,0,0,1,.63,3.28A.69.69,0,0,1,123.17,178.76Z"/><path class="cls-1" d="M84.19,17a3.26,3.26,0,0,0,.43-1.88,3.87,3.87,0,0,0-2.15-3.23,1.68,1.68,0,0,0-.32-.09h-.08l-.12,0-.08.05-.06.06a2.46,2.46,0,0,0-.17.27l0,.07v0a1.31,1.31,0,0,0-.06.27C81.28,14.2,82.81,15.9,84.19,17Z"/><path class="cls-1" d="M127.56,179.83a12.62,12.62,0,0,1-9.69,9.19,12.55,12.55,0,0,1-9.52-1.82,12.83,12.83,0,0,1-2.67-2.35,39.11,39.11,0,0,0,16.17-2.32c.38-.14.78-.29,1.2-.47A29.6,29.6,0,0,0,127.56,179.83Z"/><path class="cls-1" d="M86.11,7.35h-.48A31,31,0,0,0,60.71,57.07a18.6,18.6,0,0,0,3,3c5.13,3.54,14,5.31,22.5,5.35h0a47.36,47.36,0,0,0,14.56-2,36,36,0,0,0,5.68-2.58,10.44,10.44,0,0,0,1.23-.76l.11-.08.07-.06a1.49,1.49,0,0,1,0-.21.19.19,0,0,0,0-.07l.07-.08a.91.91,0,0,1,.39-.43A31,31,0,0,0,86.11,7.35ZM69.19,13.08a.47.47,0,0,1,.69-.53.55.55,0,0,1,.25.36,4.7,4.7,0,0,0,.52.69,21.36,21.36,0,0,0,6.28,4.46,6.81,6.81,0,0,0,6.13,0C81.43,16.82,80,15.21,79.9,13c-.09-1.33.77-2.87,2.24-2.83A4.85,4.85,0,0,1,86,13.88a4.73,4.73,0,0,1-.52,4,8.36,8.36,0,0,0,5,1.67,5.42,5.42,0,0,0,1.36-.24,5.9,5.9,0,0,1-1.4-4.7c.28-1.55,1.8-1.88,3.06-1.35,0,0,0,0,0,0a2.11,2.11,0,0,1,.34.16,3.18,3.18,0,0,1,1.4,1.41,4,4,0,0,1,0,3.69,4.22,4.22,0,0,1-.67.94,8.45,8.45,0,0,0,1.29.6,10.85,10.85,0,0,0,4.8.78,12.7,12.7,0,0,0,1.58-.21c.6,0,1.33-.56,1.88-.25a.82.82,0,0,1-.29,1.51,12.94,12.94,0,0,1-2.05.46,12.2,12.2,0,0,1-5.69-.49,12.82,12.82,0,0,1-2.93-1.37,7.13,7.13,0,0,1-3.66.65A10.73,10.73,0,0,1,85,19.48l-.6-.4a6.15,6.15,0,0,1-3.62,1.33C76.32,20.75,70.84,16.7,69.19,13.08Zm28.62,24a3,3,0,1,1-3-2.94A2.95,2.95,0,0,1,97.81,37.12Zm-24.9,0a3,3,0,1,1,3,3A2.95,2.95,0,0,1,72.91,37.12ZM77.57,44a.73.73,0,0,1,.18-1.33c.33-.11.61.09.91.24h0c.84.38,1.38.7,1.81.85,3.74,1.46,7.5,1.58,10.56-.62.44-.36.37-.46.94-.55a.79.79,0,0,1,.73,1v0l-.06.13h0v0a.58.58,0,0,1-.1.12l0-.06a9,9,0,0,1-5.66,2.5A14.43,14.43,0,0,1,77.57,44Z"/><path class="cls-5" d="M116.35,38.25a31.06,31.06,0,0,1-8.06,20.89.91.91,0,0,0-.39.43l-.07.08a.19.19,0,0,1,0,.07,1.49,1.49,0,0,0,0,.21l-.07.06-.11.08a10.44,10.44,0,0,1-1.23.76,36,36,0,0,1-5.68,2.58,47.36,47.36,0,0,1-14.56,2c5.17-1.84,28.1-11.32,21-32.66a39.54,39.54,0,0,0-5.32-10.37,12.94,12.94,0,0,0,2.05-.46.82.82,0,0,0,.29-1.51c-.55-.31-1.28.21-1.88.25a12.7,12.7,0,0,1-1.58.21,51.53,51.53,0,0,0-5.47-6c-.57-.54-1.15-1.06-1.74-1.57,0,0,0,0,0,0a68.9,68.9,0,0,0-7.87-5.92h.48A31.19,31.19,0,0,1,116.35,38.25Z"/><path class="cls-2" d="M57.3,46.42a7.79,7.79,0,1,1,7.79,7.78,7.79,7.79,0,0,1-7.79-7.78"/><path class="cls-2" d="M98.1,46.42a7.79,7.79,0,1,1,7.78,7.78,7.78,7.78,0,0,1-7.78-7.78"/><path class="cls-2" d="M109.06,63.18a11.27,11.27,0,0,0-.47-1.77,28.64,28.64,0,0,1-3.41,1.89,31.57,31.57,0,0,1-7.43,2.62,57.61,57.61,0,0,1-9.27,1c-7.93.28-16.37-.93-23-4a16.42,16.42,0,0,1-3.13-2,8.36,8.36,0,0,0-.4.79,15.7,15.7,0,0,0-1,4.37c0,.31,0,.62,0,.94.27.33.25.84.44,1.23a7.88,7.88,0,0,0,.51,1.17s.05,0,.06.07a.76.76,0,0,1,0,.11,20.78,20.78,0,0,0,1.76,2.87c4.25,5.72,12.95,9.55,20.45,9.58,5.79.06,12.78-2.68,17.85-6.21a28.62,28.62,0,0,0,5.45-5.15.3.3,0,0,1,.06-.09,15.91,15.91,0,0,0,.92-1.39c.1-.18.21-.35.32-.52a2.16,2.16,0,0,1,.11-1,10.5,10.5,0,0,0,.3-2.39A10,10,0,0,0,109.06,63.18ZM69.63,66a.43.43,0,0,1,0,.12c-1,3.17-2,6-1.8,9a.5.5,0,0,1-.85.36c-.26-.35-.17-1-.24-1.42a17,17,0,0,1,.07-3.56c.28-1.72.91-4.44,1.63-5.3A.74.74,0,0,1,69.63,66Zm10,14.5a.57.57,0,0,1-1,.49,7.3,7.3,0,0,1-.6-2.22,24.6,24.6,0,0,1-.34-4,29.74,29.74,0,0,1,.4-4.71,4.86,4.86,0,0,1,.33-1.46l.05-.12h0c0-.08.09-.16.11-.18A.66.66,0,0,1,78.8,68a.69.69,0,0,1,.94.24.82.82,0,0,1,.09.38s0,.09,0,.18a17.1,17.1,0,0,1-.28,2C79.23,72.85,78.77,77.64,79.58,80.48Zm12.6-2.58a4,4,0,0,1-.46,1.6.79.79,0,0,1-1.23-.15c-.21-.55-.06-.45,0-.75.08-.55.18-1.1.26-1.66a24,24,0,0,0-.62-8.77.59.59,0,0,1,.33-.7.57.57,0,0,1,.55,0,.73.73,0,0,1,.16.14,3.19,3.19,0,0,1,.3.68.62.62,0,0,0,0,.11s0,0,0,0a14.14,14.14,0,0,1,.85,3.69A19.8,19.8,0,0,1,92.18,77.9Zm11-5.06c0,.09,0,.23,0,.28a.62.62,0,0,1-.08.24.7.7,0,0,1-1.1.14,1,1,0,0,1-.23-.74c-.07-.68-.06-.47-.19-1.6a16.75,16.75,0,0,0-.74-3.16,6.59,6.59,0,0,0-.53-1.28.76.76,0,0,1,1.32-.77,13.64,13.64,0,0,1,.78,1.79A12.23,12.23,0,0,1,103.23,72.84Z"/><path class="cls-2" d="M93.39,114.42l.07.07h0l.07,0h0a9.71,9.71,0,0,0,.52-4.23c0-.58,0-1.16,0-1.74a9.13,9.13,0,0,1-1.3-.1,3.37,3.37,0,0,0,0,.54,29.14,29.14,0,0,0,.16,3.67,11.3,11.3,0,0,0,.38,1.68l.07.13c0,.07,0,0,0,0Z"/><path class="cls-2" d="M100.54,107.64c-.48.12-1,.22-1.43.31,0,.26,0,.51.07.76.15,1.41.22,2.41.42,3.35a3.64,3.64,0,0,0,.65,1.56.6.6,0,0,0,.08.08h0a1.29,1.29,0,0,0,.16-.17,9.6,9.6,0,0,0,.22-4.32c-.05-.46-.07-.36-.21-1.48A.22.22,0,0,1,100.54,107.64Z"/><path class="cls-2" d="M106.47,104.48a8.13,8.13,0,0,1-1.29,1.2,5.06,5.06,0,0,1,.08.56,24.4,24.4,0,0,0,.57,3.07,4.15,4.15,0,0,0,.52,1.21l.07.1.17.17a2.65,2.65,0,0,0,.3-.55,12.32,12.32,0,0,0-.34-5.34C106.53,104.77,106.5,104.63,106.47,104.48Z"/><path class="cls-1" d="M56,134.57a42,42,0,0,0,4.28-7q-1.92-.12-3.84-.27a37.33,37.33,0,0,1-3.81-.44l-2.8,13.59,0,0A40.09,40.09,0,0,0,56,134.57Z"/><path class="cls-1" d="M28.2,46.49C23.06,42.35,15,42.9,10.71,47.68a12.66,12.66,0,0,0,1.43,18.41l6.77,5.44C24,64.81,29,58,34.15,51.26Z"/><path class="cls-1" d="M57.73,83.77c.81-4.42,2.18-8.73,2.92-13.16-.17-.35-.33-.71-.47-1.07h0a6.34,6.34,0,0,1-4.92-1.34l-6.81-5.47c-1.34,1.81-3.24,4.05-4.88,6.06-3.94,4.85-7.3,8.89-10.87,13.79L50.85,97.17A14.27,14.27,0,0,1,55,102.53C55.69,97.11,56.51,90.45,57.73,83.77Z"/><path class="cls-3" d="M44.11,59.26l-8.72-7c-1.15,1.61-3.14,4.14-4.64,6.18-3.6,4.65-7,9.46-10.57,14.11l8.17,6.55a.61.61,0,0,1,.12-.16c2.27-2.83,5-6.65,7.72-10C39.06,65.54,41.61,62.52,44.11,59.26ZM34,64c-1.66.6-2.54.94-3.25,2.31v0a3.75,3.75,0,0,0-.14,1.42c0,1.21.16,2.69-.88,3.55a24,24,0,0,1-3.13,1.4c-.78.43-.59.33-.82.6a1.91,1.91,0,0,0-.26.57,4.67,4.67,0,0,0-.14.5,1.06,1.06,0,0,1-.12.5.77.77,0,0,1-1.37-.09,3.15,3.15,0,0,1,.43-2.21c1-1.64,3.29-1.81,4.35-2.5l.12-.12.05-.09h0A3.69,3.69,0,0,0,29,68.51c-.13-2.36.32-3.81,2.4-5.11,1.17-.68,2.59-1,3.27-1.39a1.31,1.31,0,0,0,.71-1.1,18.61,18.61,0,0,1,.06-2.65,4,4,0,0,1,3.38-2.7.65.65,0,0,1,.39,1.15.56.56,0,0,1-.2.11h-.07l-.08,0-.07,0c-.16.08-.4.24-.14,0-.74.57-1.45.84-1.67,1.85a14,14,0,0,0-.23,1.93,4.68,4.68,0,0,1-.34,1.71A4,4,0,0,1,34,64Z"/><path class="cls-5" d="M38.63,72.25c2.9-3.47,5.71-7,8.65-10.44l-1.93-1.55c-1.46,1.92-3.87,5-5.75,7.16-3.53,4.14-6.13,7.71-9.48,12a3.22,3.22,0,0,1-.54.63l1.84,1.47c.62-.84,1.23-1.68,1.87-2.51C35,76.77,36.78,74.46,38.63,72.25Z"/><path class="cls-4" d="M58.5,174.17A68,68,0,0,1,43.75,170L43,173.67a12.34,12.34,0,0,0-.18,4c1.25.69,2.84,1.35,3.66,1.7a80.82,80.82,0,0,0,17.87,4.86c.28.05.57.05.85.09a12.51,12.51,0,0,0,2.62-5.49l.7-3.39-1.44-.11A82.52,82.52,0,0,1,58.5,174.17Zm-10.37-.64h0a34.94,34.94,0,0,1-.66,4.43.67.67,0,0,1-1.34,0c.08-1.37.18-1.71.34-3a5.55,5.55,0,0,1,.48-2A.7.7,0,0,1,48.13,173.53ZM54,180.47a.82.82,0,0,1-1.59-.11c0-.42.22-.82.29-1.23.26-1,.5-2,.82-3,.17-.4,0-.24.37-.6a.66.66,0,0,1,1,.49A18.81,18.81,0,0,1,54,180.47Zm7-2.79A36,36,0,0,1,59.61,182a.71.71,0,0,1-1.22-.72c.08-.23.66-2.31.94-3.19a3.41,3.41,0,0,1,.43-1.1A.72.72,0,0,1,60.94,177.68Z"/><path class="cls-1" d="M138,83,119.88,97.56a14.11,14.11,0,0,0-4.29,5.76c-.23-1.76-.74-4.22-1.08-6.36-.12-.74-.23-1.48-.35-2.22a141.63,141.63,0,0,0-3.59-17.18c-.61-2-1-4-1.69-5.92.21-.28.42-.57.62-.86s.4-.62.57-1a6.34,6.34,0,0,0,5.41-1.25L122,63.33c4.33,5.14,8.51,10.4,12.7,15.67l3.19,4Z"/><path class="cls-3" d="M150.64,72.68c-1-1.41-2.08-2.76-3.2-4.16s-2.06-2.56-3.12-4c-1.69-2.3-3.35-4.27-5.43-6.75-1.32-1.61-2.61-3.24-4-4.8l-8.32,6.68a2.66,2.66,0,0,0,.26.31c.94,1.16,1.9,2.3,2.84,3.46,3.21,4,6.28,8,9.47,12,1,1.23,2,2.44,3,3.65.09.14.2.24.28.36l8.31-6.68A.43.43,0,0,1,150.64,72.68Zm-4,2.34a.72.72,0,0,1-1.24,0l0-.06a.69.69,0,0,1-.05-.13c-.09-.25-.14-.52-.22-.77a3.41,3.41,0,0,0-.35-.89l-.16-.17-.23-.15a3.17,3.17,0,0,0-.41-.21,9.77,9.77,0,0,0-1.07-.25,8.59,8.59,0,0,1-1-.2,3.16,3.16,0,0,1-2.15-2.84c-.08-.76.06-1.53,0-2.29a1.92,1.92,0,0,0-.24-.94,3,3,0,0,0-1.94-1.18,10.29,10.29,0,0,1-2.9-.84c-1.54-.92-1.45-2.93-1.77-4.48a2.41,2.41,0,0,0-.89-1.5,2.48,2.48,0,0,0-.31-.18l-.13,0-.06,0-.09,0h0a.63.63,0,1,1-.11-1.24h.05l.16-.05h0a.67.67,0,0,1,.24,0h.17a2.35,2.35,0,0,1,1.18.43,3.39,3.39,0,0,1,1.24,1.68,16.44,16.44,0,0,1,.46,2.52,2.78,2.78,0,0,0,.68,1.64l.21.13.36.11.1,0h.09c.6.11,1.21.16,1.8.3a5,5,0,0,1,1.25.44l.13.07a3.59,3.59,0,0,1,.73.49,3.45,3.45,0,0,1,1.24,2.69c0,.75-.1,1.5,0,2.24a2.12,2.12,0,0,0,.42.94,1.14,1.14,0,0,0,.54.34c.67.18,1.37.22,2,.44l.09,0a3.58,3.58,0,0,1,1.74,1.27A3.67,3.67,0,0,1,146.67,75ZM131.89,56.53h0Z"/><path class="cls-5" d="M141.17,80.46l-2,1.59a3.84,3.84,0,0,0-.45-.61L136,78c-2.86-3.59-5.77-7.15-8.65-10.73-1.06-1.33-2.13-2.66-3.22-4-.29-.3-.53-.66-.81-1l2-1.59c4.38,5.11,8.39,10.52,12.6,15.76,1.06,1.34,2.15,2.66,3.25,4Z"/><path class="cls-1" d="M114.84,111.56a14.3,14.3,0,0,1,0-5.9.61.61,0,0,1-.15-.24l-.06-.17a69.33,69.33,0,0,1-1.89-8.92c-.42-2.62-.8-5.27-1.31-7.87-.92-5.22-2.45-10.3-3.71-15.44-.4.45-.82.9-1.26,1.33a.26.26,0,0,1,0,.09c.38,2.43.44,4.93.64,7.39q.22,4.38.66,8.75a64,64,0,0,1,.53,7.69,15.78,15.78,0,0,1-.22,2.91,9.1,9.1,0,0,1-.5,1.41l.09.25a19.93,19.93,0,0,1,.42,2,15.94,15.94,0,0,1,.15,5.92c-.52,1.92-2.38,2.25-3.39.5a11.55,11.55,0,0,1-1.13-4.75,13.17,13.17,0,0,1-1.83.73l.06.18a9.5,9.5,0,0,1,.17,1.42,16.83,16.83,0,0,1-.06,4.86,1.84,1.84,0,0,1-2.29,1.56,2.61,2.61,0,0,1-1.35-1.49c-.76-1.75-.7-3.7-.82-5.59-.63.09-1.29.17-2,.23a4.16,4.16,0,0,0,0,.5,18.39,18.39,0,0,1-.62,5.43c-.33,1.36-1.77,2.2-2.91,1.12a5.37,5.37,0,0,1-.85-2.66,26.5,26.5,0,0,1-.14-4.88,4.26,4.26,0,0,1-2.26-2.26,13.27,13.27,0,0,1-.55-4.12A182.24,182.24,0,0,1,89,83.3a23.49,23.49,0,0,1-7,.37A29.68,29.68,0,0,1,72,80.89a25.26,25.26,0,0,1-7.45-5.06,24.39,24.39,0,0,1-2.9-3.55c-.75,3.55-1.43,7.12-2.1,10.69-1.42,6.68-2.22,13.47-3.4,20.2a4.1,4.1,0,0,1-.39,1.4h0a14.26,14.26,0,0,1,.2,6.6l-2.06,10q2.89.15,5.79.26,13.29.48,26.6.63c8,.13,17.57-.27,25.49-.73l5.07-.32ZM83.62,90l.08,0,.13-.06h0a2.75,2.75,0,0,1,.34-.16l.27-.1a2.8,2.8,0,0,1,1.63,0,2.37,2.37,0,0,1,1.77,2.65A3.27,3.27,0,0,1,85.4,95,2.64,2.64,0,0,1,83.62,90Zm-1.36,14.11s0-.06,0-.09.14-.24.21-.3h0a3.72,3.72,0,0,1,3-.69,2.52,2.52,0,0,1,1.92,3.08,2.64,2.64,0,0,1-1.88,2,3.13,3.13,0,0,1-3.55-.93A2.48,2.48,0,0,1,82.26,104.11Zm33,13.79a.79.79,0,0,1-.62.08,2.94,2.94,0,0,0-1.28-.14,4.19,4.19,0,0,0-2,.73l-.16.1a7.7,7.7,0,0,1-3.77,1.39c-1.22.1-2.3-.62-3.37-1.13-2.57-1.38-4-2.11-6.63-1.09-.38.09-2.25,1.36-3.26,1.87a5.89,5.89,0,0,1-2.67.6,12.9,12.9,0,0,1-3.79-1.23,7.85,7.85,0,0,0-4.34-.65c-1.59.35-2.54,1.22-4.46,1.65a4.77,4.77,0,0,1-2.93-.56c-1.77-.83-2.72-1.59-4.32-2-5.4-1.42-7.61,3.63-12.29,1.35-.67-.29-1.29-.68-1.94-1a7.09,7.09,0,0,1-.7-.37h0l-.27-.14h-.06a.81.81,0,0,0-.22,0H56a.64.64,0,0,1-.6-.95c.25-.39.79-.37,1.2-.33.68-.1,1.84.56,3.39,1.34a3.69,3.69,0,0,0,3.32.13c1-.35,2.46-1.16,4-1.59A10.17,10.17,0,0,1,75,117.19,9.88,9.88,0,0,0,78,118.51c1.26,0,2.45-.88,4.26-1.49a7.36,7.36,0,0,1,4.21,0c2.22.56,4.38,1.93,5.49,1.67,1.41-.23,1.92-.74,3.33-1.58a7.53,7.53,0,0,1,5.73-1.2c2.19.48,4.26,2.1,5.84,2.53a3.83,3.83,0,0,0,1.77-.28,13.37,13.37,0,0,0,2.16-1.16,5.37,5.37,0,0,1,1.91-.71,5,5,0,0,1,1.92,0,1.14,1.14,0,0,1,.85.46A.83.83,0,0,1,115.22,117.9Z"/><path class="cls-1" d="M163.24,58a12.59,12.59,0,0,1-4.66,8.51L152,71.76a1.88,1.88,0,0,0-.18-.24c-.84-1.17-2.07-2.7-3.16-4.07-.83-1-1.6-2-2-2.59-2.36-3.19-4.9-6.25-7.44-9.3-1-1.19-1.91-2.38-2.93-3.52l-.07-.07,6.54-5.25A12.67,12.67,0,0,1,157.53,46a12.34,12.34,0,0,1,3,2.7A12.62,12.62,0,0,1,163.24,58Z"/><path class="cls-5" d="M164.54,46.13l0-.05a16.33,16.33,0,0,0-8.88-5.88,16.5,16.5,0,0,0-14.32,2.92l-23.52,18.2a1.94,1.94,0,0,1-2.47-.07l-.07-.06a1.93,1.93,0,0,1-.28-2.52A35.8,35.8,0,0,0,85.87,2.74a36.55,36.55,0,0,0-7.12.6,35.8,35.8,0,0,0-23,55.31,2,2,0,0,1-2.81,2.66L29.41,43.11a16.53,16.53,0,0,0-23.19,3l0,.05a16.56,16.56,0,0,0,3,23.2L47.25,98.82a11.35,11.35,0,0,1,4.22,11.27l-12.79,64A17.74,17.74,0,0,0,73.48,181l8.87-44.41a3.07,3.07,0,0,1,6,0L97.25,181a17.78,17.78,0,0,0,15.93,14.21,18,18,0,0,0,4.94-.29A17.74,17.74,0,0,0,132,174.09l-12.78-64a11.33,11.33,0,0,1,4.21-11.27l38.11-29.49A16.56,16.56,0,0,0,164.54,46.13Zm-5,21.56L120.85,98.77a12.69,12.69,0,0,0-4.49,12.48l12.89,62.49a14.25,14.25,0,0,1-9.34,16.34,13.59,13.59,0,0,1-1.72.47,14.38,14.38,0,0,1-2.91.3,14.1,14.1,0,0,1-7.79-2.35,14.4,14.4,0,0,1-4-4,.65.65,0,0,1-.3-.47,14.38,14.38,0,0,1-1.81-4.58L92,134.14a6.84,6.84,0,0,0-13.4,0l-9.27,45a14.23,14.23,0,0,1-27.88-5.75l.9-4.33a.74.74,0,0,1,.08-.44l11.91-57.72a12.65,12.65,0,0,0-4.49-12.48L11.17,67.31a14.27,14.27,0,0,1-5.28-10A14.12,14.12,0,0,1,9.55,46.64c4.87-5.37,13.86-6,19.63-1.37L56.21,67A4.8,4.8,0,0,0,59.42,68a11,11,0,0,1-.1-1.14,14.49,14.49,0,0,1,.56-4A9.51,9.51,0,0,1,61.11,60,32.53,32.53,0,0,1,83.25,5.85c1-.06,1.92-.08,2.89-.06A32.53,32.53,0,0,1,109.7,59.91a10.25,10.25,0,0,1,.58,1.39,13.45,13.45,0,0,1,.58,3.21,10.89,10.89,0,0,1-.14,2.55c-.1.4-.13.85-.22,1.27a4.82,4.82,0,0,0,4-1L124.9,59a.58.58,0,0,1,.12-.1L141.73,45.5a14.23,14.23,0,0,1,15.17-1.67,13.93,13.93,0,0,1,4.84,3.85,14.24,14.24,0,0,1-2.18,20Z"/><path class="cls-5" d="M83.07,106.08a1.74,1.74,0,0,0,.11.18l.2.2.19.11a2.1,2.1,0,0,0,1.16.18h0a1.42,1.42,0,0,0,.82-.27,1.32,1.32,0,0,0,0-1.87,2.15,2.15,0,0,0-1.65-.18,1.79,1.79,0,0,0-.58.54,1.48,1.48,0,0,0-.29.86v.1A.83.83,0,0,0,83.07,106.08Z"/><path class="cls-1" d="M120.88,140.86a26.75,26.75,0,0,1-6.15-4.74,24.84,24.84,0,0,1-4.45-6.59,12.67,12.67,0,0,1-.71-1.81c1.14-.06,2.29-.11,3.43-.18,1.69-.09,3.38-.18,5.07-.29Z"/><path class="cls-1" d="M93.26,18.53a2.35,2.35,0,0,0,.17-3.47,1.91,1.91,0,0,0-1-.42h-.14l-.13,0-.06,0-.08.08a3.66,3.66,0,0,0,.83,3.28A2.58,2.58,0,0,0,93.26,18.53Z"/><path class="cls-5" d="M117.74,125.65c-.51,0-1,.07-1.53.09l-3.54.2c-6.57.35-13.15.58-19.73.65-4.57,0-9.13.31-13.7.31-3.9-.07-7.78-.41-11.66-.61-4-.21-8.07-.39-12.1-.72-.78-.06-2.2-.15-2.3-.17H53l.57-2.79c5.64.58,12.66.6,18.88.83,9.22.19,18.46.42,27.68.08l12-.59.48,0a26.78,26.78,0,0,0,4.56-.44Z"/><path class="cls-1" d="M121.29,142.87a25.74,25.74,0,0,1-6-4,22.17,22.17,0,0,1-2.28-2.26,26.27,26.27,0,0,1-4.38-6.8,15.31,15.31,0,0,1-.76-2q-7.17.31-14.35.41c-1.32,0-2.64,0-4,.07a8.44,8.44,0,0,1,4,5.54l7.1,34.41a49.47,49.47,0,0,0,7.4-.75,84,84,0,0,0,12.32-3c1.34-.43,2.66-.91,4-1.41a4.84,4.84,0,0,1,1-.33Zm-17.4-13.23a.52.52,0,0,1,.76-.58c.33.21.32.67.49,1a23.11,23.11,0,0,0,3.83,6.14,38.56,38.56,0,0,0,7.06,6.39c.87.62,1.8,1.24,2.82,1.92.37.29.94.42,1.1.92a.76.76,0,0,1-1.11.85c-.79-.44-1.58-.92-2.36-1.43C110.94,141.21,105.78,135.92,103.89,129.64Z"/><path class="cls-5" d="M85.32,93.53a1.42,1.42,0,0,0,1-1.51V92l-.06-.22,0-.1h0A1.18,1.18,0,0,0,84.92,91c-.86.23-1.21.47-1.39,1.15C83.39,93.28,84.33,93.72,85.32,93.53Z"/><path class="cls-6" d="M166.66,44.4a19.26,19.26,0,0,0-27-3.45L119.38,56.62a38.24,38.24,0,0,0,4.51-18A38.67,38.67,0,0,0,85.9,0,38.55,38.55,0,0,0,46.83,38.53a38.28,38.28,0,0,0,4.51,18.09L31.09,41a19.28,19.28,0,0,0-27,3.45l0,.06a19.29,19.29,0,0,0,3.45,27L45.58,101a8.65,8.65,0,0,1,3.21,8.58L36,173.55a20.47,20.47,0,1,0,40.14,8L85,137.16a.35.35,0,0,1,.68,0l8.87,44.41a20.47,20.47,0,0,0,40.15-8l-12.79-64a8.65,8.65,0,0,1,3.21-8.58l38.11-29.48a19.29,19.29,0,0,0,3.45-27Zm-5.08,24.93L123.47,98.81a11.35,11.35,0,0,0-4.21,11.28l12.78,64A17.74,17.74,0,1,1,97.25,181l-8.88-44.41a3.07,3.07,0,0,0-6,0L73.48,181a17.74,17.74,0,1,1-34.8-6.95l12.79-64a11.38,11.38,0,0,0-4.22-11.28L9.14,69.33a16.56,16.56,0,0,1-3-23.2l0-.06a16.55,16.55,0,0,1,23.2-3l23.52,18.2a2,2,0,0,0,2.81-2.66,35.8,35.8,0,1,1,59.21,0,2,2,0,0,0,2.82,2.65l23.53-18.2a16.54,16.54,0,0,1,23.19,3l0,.06A16.56,16.56,0,0,1,161.58,69.33Z"/><path class="cls-6" d="M49.69,142.29l-.11,0,0,0Z"/><path class="cls-6" d="M141.73,45.5,125,58.92a.58.58,0,0,0-.12.1l-10.39,8.34a4.78,4.78,0,0,1-4,1c.09-.41.12-.86.22-1.26a12.63,12.63,0,0,0-.44-5.76,9.29,9.29,0,0,0-.58-1.39,32.54,32.54,0,1,0-48.59.1,9.65,9.65,0,0,0-1.23,2.85,14.47,14.47,0,0,0-.56,4,10.5,10.5,0,0,0,.1,1.14,4.74,4.74,0,0,1-3.21-1l-27-21.71c-5.77-4.63-14.76-4-19.63,1.36a14.24,14.24,0,0,0,1.62,20.68l38.7,31.08a12.64,12.64,0,0,1,4.49,12.47l-11.9,57.73a.65.65,0,0,0-.09.43l-.9,4.34a14.25,14.25,0,0,0,11.07,16.81A14.24,14.24,0,0,0,69.35,179.1l9.27-45a6.84,6.84,0,0,1,13.4,0l9.35,45.35a14.44,14.44,0,0,0,1.81,4.59.64.64,0,0,0,.3.46,14.3,14.3,0,0,0,4,4,14.1,14.1,0,0,0,7.79,2.35,14.26,14.26,0,0,0,14-17.11l-12.89-62.5a12.68,12.68,0,0,1,4.49-12.47l38.71-31.08A14.23,14.23,0,1,0,141.73,45.5Zm-81,11.57a31,31,0,1,1,47.58,2.06.93.93,0,0,0-.39.44l-.07.07,0,.08a1.23,1.23,0,0,0,0,.2l-.07.07-.11.08a12,12,0,0,1-1.23.76,36,36,0,0,1-5.68,2.58C90.27,66.88,72,65.79,63.67,60A19,19,0,0,1,60.71,57.07Zm1.23,4.74a8.36,8.36,0,0,1,.4-.79,16.69,16.69,0,0,0,3.14,2c9.34,4.3,22.25,4.94,32.27,2.93a31.55,31.55,0,0,0,7.43-2.61,30.15,30.15,0,0,0,3.41-1.89,11,11,0,0,1,.47,1.77,11.32,11.32,0,0,1-.13,4.61,2.16,2.16,0,0,0-.11,1c-.11.17-.22.34-.32.52-.29.47-.58.94-.92,1.39h0c-.08.09-.08.1-.06.08a28.7,28.7,0,0,1-5.45,5.16C97,79.47,90,82.2,84.22,82.14c-7.5,0-16.2-3.86-20.45-9.58A20.67,20.67,0,0,1,62,69.7a.36.36,0,0,0,0-.11s0,0-.06-.08a7,7,0,0,1-.51-1.17c-.19-.38-.17-.9-.44-1.23,0-.31,0-.62,0-.94A15.71,15.71,0,0,1,61.94,61.81Zm44.64,38.92c-.88,3.75-4.13,5-8.5,5.76-1,.14-2.14.3-3.2.34h0c-2,.08-3.73-.23-4.43-1.75,0-.08-.07-.19-.09-.26a15,15,0,0,1-.34-3.39c-.07-4.41.06-8.84.29-13.25.08-1.42.17-2.85.29-4.27a8.56,8.56,0,0,1,.11-1,37,37,0,0,0,4.1-1.33,37.73,37.73,0,0,0,7.83-4c.84-.6,1.66-1.23,2.45-1.91a2.92,2.92,0,0,1,.05.5c.11,1.24.2,2.48.29,3.72.22,3.22.41,6.45.82,9.66.18,1.62.52,3.8.62,6A23.08,23.08,0,0,1,106.58,100.73Zm.31,9.51a2.65,2.65,0,0,1-.3.55l-.17-.17-.07-.1a4.15,4.15,0,0,1-.52-1.21,24.4,24.4,0,0,1-.57-3.07,5.06,5.06,0,0,0-.08-.56,8.13,8.13,0,0,0,1.29-1.2c0,.15.06.29.08.42A12.32,12.32,0,0,1,106.89,110.24Zm-6.35,3.29a1.29,1.29,0,0,1-.16.17h0a.6.6,0,0,1-.08-.08,3.64,3.64,0,0,1-.65-1.56c-.2-.94-.27-1.94-.42-3.35,0-.25-.05-.5-.07-.76.47-.09,1-.19,1.43-.31a.22.22,0,0,0,0,.09c.14,1.12.16,1,.21,1.48A9.6,9.6,0,0,1,100.54,113.53Zm-7.17.86-.07-.13a11.3,11.3,0,0,1-.38-1.68,29.14,29.14,0,0,1-.16-3.67,3.37,3.37,0,0,1,0-.54,9.13,9.13,0,0,0,1.3.1c0,.58,0,1.16,0,1.74a9.71,9.71,0,0,1-.52,4.23h0l-.07,0h0l-.07-.07,0,0S93.42,114.46,93.37,114.39ZM12.14,66.09a12.66,12.66,0,0,1-1.43-18.41C15,42.9,23.06,42.35,28.2,46.49l5.95,4.77C29,58,24,64.81,18.91,71.53Zm16.21,13-8.17-6.55c3.6-4.65,7-9.46,10.57-14.11,1.5-2,3.49-4.57,4.64-6.18l8.72,7c-2.5,3.26-5,6.28-7.92,9.73-2.7,3.3-5.45,7.12-7.72,10A.61.61,0,0,0,28.35,79.1Zm1.23,1a3.22,3.22,0,0,0,.54-.63c3.35-4.34,5.95-7.91,9.48-12,1.88-2.17,4.29-5.24,5.75-7.16l1.93,1.55c-2.94,3.43-5.75,7-8.65,10.44-1.85,2.21-3.59,4.52-5.34,6.81-.64.83-1.25,1.67-1.87,2.51ZM50.85,97.17,32.68,82.58c3.57-4.9,6.93-8.94,10.87-13.79,1.64-2,3.54-4.25,4.88-6.06l6.81,5.47a6.34,6.34,0,0,0,4.92,1.34h0c.14.36.3.72.47,1.07-.74,4.43-2.11,8.74-2.92,13.16-1.22,6.68-2,13.34-2.76,18.76A14.27,14.27,0,0,0,50.85,97.17Zm1.81,29.64a37.33,37.33,0,0,0,3.81.44q1.92.15,3.84.27a42,42,0,0,1-4.28,7,40.09,40.09,0,0,1-6.12,5.8l0,0Zm9.72,60a12.67,12.67,0,0,1-19.29-7.65,42.07,42.07,0,0,0,5.41,2.51,72.82,72.82,0,0,0,10.73,3.23c1.51.32,3,.61,4.56.83A13.49,13.49,0,0,1,62.38,186.82Zm5.44-8a12.51,12.51,0,0,1-2.62,5.49c-.28,0-.57,0-.85-.09a80.82,80.82,0,0,1-17.87-4.86c-.82-.35-2.41-1-3.66-1.7a12.34,12.34,0,0,1,.18-4l.75-3.65a68,68,0,0,0,14.75,4.15,82.52,82.52,0,0,0,8.58,1.12l1.44.11Zm1-5a5.44,5.44,0,0,1-.67,0,88.51,88.51,0,0,1-15.9-2.58A79.3,79.3,0,0,1,44,168.61l.83-4a70.92,70.92,0,0,0,9.11,2.9,95,95,0,0,0,11.43,2.35c1.22.16,2.44.26,3.67.33a2.86,2.86,0,0,0,.51,0Zm8.24-40-7.17,34.8a7.2,7.2,0,0,0-1.14-.09c-.89-.06-1.77-.13-2.65-.23a104.54,104.54,0,0,1-14.24-3c-2.11-.59-4.21-1.21-6.28-1.93a2,2,0,0,1-.45-.16l4.29-20.81a.5.5,0,0,0,.13,0,16,16,0,0,0,3.44-2.4,32.3,32.3,0,0,0,4.33-4.42,39.37,39.37,0,0,0,3.44-5.33c.41-.75.79-1.51,1.13-2.28,0-.09.08-.18.11-.28l3.31.17c4.68.22,9.36.66,14,.74h1.3A8.43,8.43,0,0,0,77.09,133.82ZM117.87,189a12.64,12.64,0,0,1-12.19-4.18,39.11,39.11,0,0,0,16.17-2.31,33.92,33.92,0,0,0,5.71-2.7A12.67,12.67,0,0,1,117.87,189Zm9.85-15a12.4,12.4,0,0,1,.21,3.68c-.46.11-.82.52-1.24.73A37.83,37.83,0,0,1,113,183.09a35.21,35.21,0,0,1-8.36.31,12.76,12.76,0,0,1-1.71-4.23l-.74-3.61a59.45,59.45,0,0,0,9.58-1c5-.77,11.32-2.18,15.26-4Zm-1-5a1.44,1.44,0,0,0-.72.17,77.06,77.06,0,0,1-17.36,4.14,46.08,46.08,0,0,1-6.79.6l-.85-4.15a77.15,77.15,0,0,0,24.71-5.64Zm-1.32-6.39a4.34,4.34,0,0,0-1,.33,85.24,85.24,0,0,1-16.29,4.46,49.47,49.47,0,0,1-7.4.75l-7.1-34.41a8.44,8.44,0,0,0-4-5.54c1.32,0,2.64-.06,4-.07,4.78-.06,9.57-.21,14.35-.42a14.82,14.82,0,0,0,.76,2,25.94,25.94,0,0,0,4.38,6.8,26.56,26.56,0,0,0,8.27,6.23Zm-4.5-21.84a24.66,24.66,0,0,1-10.6-11.32,13.71,13.71,0,0,1-.71-1.81c2.83-.14,5.67-.29,8.5-.48Zm-3.14-15.21-1.53.1c-7.75.45-15.5.77-23.27.85-4.57,0-9.13.31-13.7.31-3.9-.07-7.78-.41-11.66-.61-4-.22-8.07-.39-12.1-.73-.78-.06-2.2-.14-2.3-.17a.71.71,0,0,1-.22,0l.57-2.78c5.64.58,12.66.6,18.88.82,9.22.2,18.46.42,27.68.09,4.15-.2,8.29-.43,12.43-.61a26.79,26.79,0,0,0,4.56-.45Zm-1-4.65c-8.6.57-20.74,1.21-30.56,1.05q-13.31-.14-26.6-.63-2.9-.12-5.79-.27l2.06-10a14.25,14.25,0,0,0-.2-6.6l0,0a4.11,4.11,0,0,0,.39-1.39c1.18-6.73,2-13.52,3.4-20.21.67-3.57,1.35-7.14,2.1-10.69a24.48,24.48,0,0,0,2.9,3.56A25.45,25.45,0,0,0,72,80.89a29.66,29.66,0,0,0,10.11,2.77,23.16,23.16,0,0,0,7-.36,182.14,182.14,0,0,0-.64,18.25,13.31,13.31,0,0,0,.55,4.12,4.33,4.33,0,0,0,2.26,2.26,26.55,26.55,0,0,0,.14,4.88,5.33,5.33,0,0,0,.85,2.65c1.14,1.09,2.58.25,2.91-1.12a18.32,18.32,0,0,0,.62-5.42c0-.15,0-.32,0-.5.67-.06,1.33-.15,2-.23a16.48,16.48,0,0,0,.82,5.59,2.62,2.62,0,0,0,1.36,1.49,1.84,1.84,0,0,0,2.28-1.57,16.76,16.76,0,0,0,.06-4.85,9.79,9.79,0,0,0-.17-1.43,1.15,1.15,0,0,0-.06-.17,13.21,13.21,0,0,0,1.83-.74,11.63,11.63,0,0,0,1.13,4.76c1,1.75,2.87,1.41,3.39-.5a15.94,15.94,0,0,0-.15-5.92,19.93,19.93,0,0,0-.42-2l-.09-.26a8.64,8.64,0,0,0,.5-1.4,15.78,15.78,0,0,0,.22-2.91,63.82,63.82,0,0,0-.53-7.69q-.43-4.36-.66-8.75c-.2-2.46-.25-5-.64-7.4a.35.35,0,0,0,0-.08c.44-.43.86-.88,1.26-1.34,1.26,5.15,2.79,10.23,3.71,15.45,1.1,5.58,1.57,11.32,3.2,16.79l.06.16a.49.49,0,0,0,.15.24,14.35,14.35,0,0,0,0,5.91Zm3.1-23.44a14.18,14.18,0,0,0-4.29,5.76c-.23-1.75-.74-4.22-1.08-6.35a156.67,156.67,0,0,0-3.94-19.41c-.61-2-1-4-1.69-5.91.21-.28.42-.57.62-.87s.4-.62.58-.94a6.32,6.32,0,0,0,5.4-1.25L122,63.33c5.43,6.44,10.63,13.09,15.89,19.67,0,0,0,0,0,0ZM139.19,82a3.76,3.76,0,0,0-.45-.6C135,76.66,131.16,72,127.35,67.23c-1.06-1.32-2.13-2.65-3.22-4-.29-.3-.53-.66-.81-1l2-1.58c5.49,6.41,10.41,13.28,15.85,19.73l0,0Zm3.23-2.59c-.08-.12-.19-.22-.28-.35-4.29-5.11-8.26-10.48-12.46-15.66-.94-1.16-1.9-2.31-2.84-3.46a3.88,3.88,0,0,1-.26-.31L134.9,53c1.38,1.57,2.67,3.2,4,4.81,2.08,2.47,3.74,4.44,5.44,6.75,2.22,3,4.4,5.46,6.31,8.13l.09.11ZM163.24,58a12.56,12.56,0,0,1-4.66,8.5L152,71.76a1.08,1.08,0,0,0-.18-.24c-1.49-2.06-4.16-5.27-5.21-6.66-2.36-3.2-4.9-6.25-7.44-9.3-1-1.19-1.91-2.38-2.93-3.52l-.07-.08,6.54-5.25A12.67,12.67,0,0,1,163.24,58Z"/><path class="cls-6" d="M67,75.46a.5.5,0,0,0,.85-.35c-.16-3.07.75-5.85,1.8-9a.51.51,0,0,0,0-.13.74.74,0,0,0-1.21-.78c-.72.85-1.35,3.58-1.63,5.3a17,17,0,0,0-.07,3.56C66.79,74.48,66.7,75.11,67,75.46Z"/><path class="cls-6" d="M78.59,81a.57.57,0,0,0,1-.49c-.81-2.85-.35-7.64,0-9.74a16.7,16.7,0,0,0,.28-2c0-.1,0-.19,0-.19a.78.78,0,0,0-.09-.37A.7.7,0,0,0,78.8,68a.72.72,0,0,0-.26.29,1.43,1.43,0,0,0-.1.19h0a1.12,1.12,0,0,0-.05.13A4.86,4.86,0,0,0,78.05,70a29.72,29.72,0,0,0-.4,4.7,24.72,24.72,0,0,0,.34,4A7.3,7.3,0,0,0,78.59,81Z"/><path class="cls-6" d="M90.7,76.94c-.08.55-.18,1.1-.26,1.66,0,.3-.16.19,0,.74a.79.79,0,0,0,1.23.16,4.18,4.18,0,0,0,.47-1.61,20.13,20.13,0,0,0,.14-5.75,14.07,14.07,0,0,0-.85-3.68v0a1.06,1.06,0,0,1,0-.12c-.13-.27-.17-.64-.46-.81a.61.61,0,0,0-.88.68A24,24,0,0,1,90.7,76.94Z"/><path class="cls-6" d="M101.59,71.16c.13,1.12.12.91.19,1.59a1,1,0,0,0,.23.75.71.71,0,0,0,1.1-.14.75.75,0,0,0,.08-.24c0-.06,0-.2,0-.28A13.23,13.23,0,0,0,101.64,66a.76.76,0,0,0-1.32.77A16.05,16.05,0,0,1,101.59,71.16Z"/><path class="cls-6" d="M92.25,88.61A24.29,24.29,0,0,0,101.44,86a9.46,9.46,0,0,0,2.26-1.33c-.14.14-.21.23,0,0l.05,0h0a.75.75,0,0,0,.21-.35.76.76,0,0,0-1-.91l-.1,0a1.42,1.42,0,0,0-.34.15,34.74,34.74,0,0,1-7.15,3.09,24.92,24.92,0,0,1-3.4.73A.64.64,0,0,0,92.25,88.61Z"/><path class="cls-6" d="M103.76,84.65Z"/><path class="cls-6" d="M104.39,92.43l-.21,0-.12,0h0l0,0a.75.75,0,0,0-.13.06l-.23.13a21,21,0,0,1-3.17,1.94A29.9,29.9,0,0,1,94.3,96.8a12.48,12.48,0,0,1-1.56.29c-.26,0-.56,0-.75.19a.65.65,0,0,0,.45,1.1,13.32,13.32,0,0,0,3.76-.51,28.17,28.17,0,0,0,5.84-2.2A19.81,19.81,0,0,0,104.57,94c.14-.12,0,0-.09.06a2.37,2.37,0,0,0,.34-.29l.05,0s0,0,0,0,0,0,0,0a1.4,1.4,0,0,0,.12-.18l0-.06a.47.47,0,0,0,0-.09A.74.74,0,0,0,104.39,92.43Z"/><path class="cls-6" d="M85.4,95a3.28,3.28,0,0,0,2.46-2.73,2.38,2.38,0,0,0-1.77-2.66,2.87,2.87,0,0,0-1.63.05l-.27.1,0,0-.38.17L83.7,90l-.08,0A2.64,2.64,0,0,0,85.4,95Zm-1.87-2.82c.18-.68.53-.92,1.39-1.15a1.18,1.18,0,0,1,1.35.65h0l0,.1.06.22V92a1.42,1.42,0,0,1-1,1.51C84.33,93.72,83.39,93.28,83.53,92.14Z"/><path class="cls-6" d="M85.52,108.07a2.64,2.64,0,0,0,1.88-2A2.52,2.52,0,0,0,85.48,103a3.69,3.69,0,0,0-3,.7s0,0-.06.05l0,0c-.07.06-.21.2-.21.3s0,0,0,.08a2.5,2.5,0,0,0-.29,3A3.16,3.16,0,0,0,85.52,108.07Zm-2.2-3.1a1.79,1.79,0,0,1,.58-.54,2.15,2.15,0,0,1,1.65.18,1.32,1.32,0,0,1,0,1.87,1.42,1.42,0,0,1-.82.27h0a2.1,2.1,0,0,1-1.16-.18l-.19-.11-.2-.2a1.74,1.74,0,0,1-.11-.18.83.83,0,0,1,0-.15v-.1A1.48,1.48,0,0,1,83.32,105Z"/><path class="cls-6" d="M36.75,60.75A14,14,0,0,1,37,58.82c.22-1,.93-1.28,1.67-1.85-.26.19,0,0,.14,0l.07,0,.08,0H39a.56.56,0,0,0,.2-.11.65.65,0,0,0-.39-1.15,4,4,0,0,0-3.38,2.7,18.61,18.61,0,0,0-.06,2.65,1.31,1.31,0,0,1-.71,1.1c-.68.4-2.1.71-3.27,1.39-2.08,1.3-2.53,2.75-2.4,5.11a3.69,3.69,0,0,1-.14,1.41h0l-.05.09-.12.12c-1.06.69-3.33.86-4.35,2.5a3.15,3.15,0,0,0-.43,2.21.77.77,0,0,0,1.37.09,1.06,1.06,0,0,0,.12-.5,4.67,4.67,0,0,1,.14-.5,1.91,1.91,0,0,1,.26-.57c.23-.27,0-.17.82-.6a24,24,0,0,0,3.13-1.4c1-.86.87-2.34.88-3.55a3.75,3.75,0,0,1,.14-1.42v0C31.49,65,32.37,64.63,34,64a4,4,0,0,0,2.38-1.57A4.68,4.68,0,0,0,36.75,60.75Z"/><path class="cls-6" d="M144.37,71c-.67-.21-1.37-.25-2-.44a1,1,0,0,1-.54-.34,2.09,2.09,0,0,1-.42-.93c-.07-.75.06-1.49,0-2.24a3.47,3.47,0,0,0-1.23-2.69,3.75,3.75,0,0,0-.84-.54c.12,0,.17.07,0,0a5,5,0,0,0-1.25-.44c-.62-.15-1.26-.21-1.89-.31h.09l-.19,0a1.65,1.65,0,0,1-.36-.11l-.21-.12a2.78,2.78,0,0,1-.68-1.64,16.44,16.44,0,0,0-.46-2.52A3.46,3.46,0,0,0,133.11,57a2.6,2.6,0,0,0-1.3-.44c-.13,0,.06,0,.12,0a.71.71,0,0,0-.41,0h0l-.16.05h-.05a.62.62,0,1,0,.11,1.23h0l.09,0h0l.16,0a2.48,2.48,0,0,1,.31.18,2.38,2.38,0,0,1,.89,1.49c.32,1.56.23,3.57,1.77,4.49a10.28,10.28,0,0,0,2.9.83,3,3,0,0,1,1.94,1.19,1.88,1.88,0,0,1,.24.93c0,.77-.11,1.53,0,2.3a3.16,3.16,0,0,0,2.15,2.84c.68.18,1.4.22,2.08.45a3.17,3.17,0,0,1,.41.21c.08,0,.15.1.23.15a1.21,1.21,0,0,1,.16.16,3.73,3.73,0,0,1,.35.9c.08.25.13.51.22.76a.58.58,0,0,0,.05.14l0,0h0a.71.71,0,0,0,1.24,0,3.65,3.65,0,0,0-.47-2.68A3.61,3.61,0,0,0,144.37,71Z"/><path class="cls-6" d="M112.74,116.27c-1.56.2-3.21,1.67-4.06,1.87a3.76,3.76,0,0,1-1.78.29c-1.58-.43-3.65-2.06-5.84-2.53a7.49,7.49,0,0,0-5.73,1.2c-1.41.83-1.92,1.34-3.33,1.57-1.11.27-3.27-1.1-5.49-1.67a7.27,7.27,0,0,0-4.21,0c-1.81.61-3,1.53-4.26,1.49A10.14,10.14,0,0,1,75,117.19,10.22,10.22,0,0,0,67.35,116c-1.55.44-3,1.24-4,1.59a3.73,3.73,0,0,1-3.32-.12c-1.55-.79-2.7-1.45-3.39-1.35-.41,0-1,0-1.2.34a.64.64,0,0,0,.6.94h.38c.15.08.33.18.26.13.32.24.19.07.72.38s1.27.73,1.94,1c4.68,2.28,6.89-2.77,12.29-1.35,1.6.37,2.55,1.14,4.32,2a4.77,4.77,0,0,0,2.93.56c1.92-.43,2.87-1.3,4.46-1.66a7.78,7.78,0,0,1,4.34.66,12.74,12.74,0,0,0,3.79,1.22,5.64,5.64,0,0,0,2.67-.6c1-.51,2.88-1.78,3.26-1.87,2.6-1,4.06-.28,6.63,1.09,1.07.51,2.15,1.24,3.37,1.14a7.84,7.84,0,0,0,3.93-1.49,4.34,4.34,0,0,1,2-.74,3.1,3.1,0,0,1,1.28.14.79.79,0,0,0,.62-.08.81.81,0,0,0,.29-1.11,1.15,1.15,0,0,0-.85-.47A5.16,5.16,0,0,0,112.74,116.27Z"/><path class="cls-6" d="M65.26,129c-2.67,5.51-7.18,10.19-11.89,13.75-.57.42-1.14.82-1.72,1.22a.8.8,0,0,0-.37.49.82.82,0,0,0,.78,1c.67-.09,1.15-.71,1.71-1,1-.75,2-1.54,3-2.37a35.92,35.92,0,0,0,7-7.69,22.63,22.63,0,0,0,2-3.94,4.43,4.43,0,0,0,.42-1.26A.52.52,0,0,0,65.26,129Z"/><path class="cls-6" d="M109,136.19a23.43,23.43,0,0,1-3.83-6.14c-.17-.33-.16-.78-.49-1a.52.52,0,0,0-.76.59c2.16,7.16,8.58,13.05,15,16.62a.76.76,0,0,0,1.11-.85c-.16-.49-.73-.62-1.1-.92A42.81,42.81,0,0,1,109,136.19Z"/><path class="cls-6" d="M109.91,178.13a1.72,1.72,0,0,0-.24-.63.7.7,0,0,0-1.22.23,5.08,5.08,0,0,0,.3,1.72c.3,1,.51,2.15.9,3.16a.59.59,0,0,0,1-.52C110.44,180.77,110.21,179.44,109.91,178.13Z"/><path class="cls-6" d="M116.79,180.38c-.25-1.12-.52-2.23-.83-3.34a2.08,2.08,0,0,0-.19-.45h0a.71.71,0,0,0-1.34.34V177a15,15,0,0,0,1.07,4A.74.74,0,0,0,116.79,180.38Z"/><path class="cls-6" d="M122.35,177.29a4.73,4.73,0,0,0,.33,1.2.69.69,0,0,0,1.23-.42,11.42,11.42,0,0,0-.63-3.27c-.3-.75-.19-.92-.65-1.29-.85-.38-1.35.42-1,1.2S122.12,176.42,122.35,177.29Z"/><path class="cls-6" d="M59.76,177a3.41,3.41,0,0,0-.43,1.1c-.28.88-.86,3-.94,3.19a.71.71,0,0,0,1.22.72,36,36,0,0,0,1.33-4.29A.72.72,0,0,0,59.76,177Z"/><path class="cls-6" d="M53.84,175.56c-.4.36-.2.2-.37.6-.32,1-.56,2-.82,3-.07.41-.34.81-.29,1.23a.82.82,0,0,0,1.59.11,18.81,18.81,0,0,0,.88-4.42A.66.66,0,0,0,53.84,175.56Z"/><path class="cls-6" d="M47,172.92a5.55,5.55,0,0,0-.48,2c-.16,1.29-.26,1.63-.34,3a.67.67,0,0,0,1.34,0,34.94,34.94,0,0,0,.66-4.43h0A.7.7,0,0,0,47,172.92Z"/><path class="cls-6" d="M80.81,20.41a6.22,6.22,0,0,0,3.62-1.33l.6.4a10.73,10.73,0,0,0,4.54,1.67,7.23,7.23,0,0,0,3.66-.65,13.26,13.26,0,0,0,2.93,1.37,12.71,12.71,0,0,0,7.74,0,.83.83,0,0,0,.29-1.52c-.55-.3-1.28.21-1.88.25a10.78,10.78,0,0,1-6.38-.56,9.58,9.58,0,0,1-1.29-.6,4.06,4.06,0,0,0,.67-.95,3.85,3.85,0,0,0-1.45-5.09c-1.32-.75-3.11-.52-3.42,1.17a5.92,5.92,0,0,0,1.4,4.71,5.43,5.43,0,0,1-1.36.23,8.29,8.29,0,0,1-5-1.67,4.75,4.75,0,0,0,.53-4,4.86,4.86,0,0,0-3.91-3.73c-1.47-.05-2.33,1.49-2.24,2.82.09,2.25,1.53,3.85,3.16,5.13a6.78,6.78,0,0,1-6.13,0,21.15,21.15,0,0,1-6.27-4.45,4.91,4.91,0,0,1-.53-.69.55.55,0,0,0-.25-.36.47.47,0,0,0-.69.53C70.84,16.7,76.32,20.75,80.81,20.41ZM92,14.78l.08-.08.06,0,.13,0h.14a1.91,1.91,0,0,1,1,.42,2.35,2.35,0,0,1-.17,3.47,2.58,2.58,0,0,1-.43-.47A3.66,3.66,0,0,1,92,14.78ZM81.54,12.53a1.31,1.31,0,0,1,.06-.27v0l0-.07a2.46,2.46,0,0,1,.17-.27l.06-.06.08-.05.12,0h.08a1.68,1.68,0,0,1,.32.09,3.87,3.87,0,0,1,2.15,3.23A3.26,3.26,0,0,1,84.19,17C82.81,15.9,81.28,14.2,81.54,12.53Z"/><path class="cls-6" d="M92,42.58c-.57.09-.5.19-.94.54-3.06,2.21-6.82,2.08-10.56.62-.44-.14-1-.47-1.85-.87l0,0c-.31-.14-.61-.36-1-.26A.74.74,0,0,0,77.57,44a14.49,14.49,0,0,0,9.36,2.39,9,9,0,0,0,5.66-2.5l0,.06a.64.64,0,0,0,.1-.13h0a.84.84,0,0,0,.06-.14h0A.79.79,0,0,0,92,42.58Z"/><path class="cls-6" d="M78.81,37.12a3,3,0,1,0-3,3A2.95,2.95,0,0,0,78.81,37.12Z"/><path class="cls-6" d="M94.86,34.17a3,3,0,1,0,3,2.95A2.95,2.95,0,0,0,94.86,34.17Z"/><path class="cls-7" d="M109.23,65.4a26.12,26.12,0,0,1-6.81,2.34,13.64,13.64,0,0,0-.78-1.79.76.76,0,0,0-1.32.77,6.59,6.59,0,0,1,.53,1.28,28.8,28.8,0,0,1-9.73-.37.73.73,0,0,0-.16-.14.57.57,0,0,0-.55,0c-.7-.16-1.35-.33-1.93-.5a57.61,57.61,0,0,0,9.27-1,31.57,31.57,0,0,0,7.43-2.62,28.64,28.64,0,0,0,3.41-1.89,11.27,11.27,0,0,1,.47,1.77A10,10,0,0,1,109.23,65.4Z"/><path class="cls-8" d="M115.24,61.19l.07.06a30.36,30.36,0,0,1-4.45,3.26,13.45,13.45,0,0,0-.58-3.21,10.25,10.25,0,0,0-.58-1.39A32.53,32.53,0,0,0,86.14,5.79c-1,0-1.93,0-2.89.06-1.56-.93-3.07-1.77-4.5-2.51a36.55,36.55,0,0,1,7.12-.6A35.8,35.8,0,0,1,115,58.67,1.93,1.93,0,0,0,115.24,61.19Z"/><path class="cls-5" d="M116.78,121l-5.07.32-.54-2.58s0,0,0-.06l.16-.1a4.19,4.19,0,0,1,2-.73,2.94,2.94,0,0,1,1.28.14.79.79,0,0,0,.62-.08.83.83,0,0,0,.29-1.12,1.14,1.14,0,0,0-.85-.46,5,5,0,0,0-1.92,0,5.37,5.37,0,0,0-1.91.71c-2.23-12.12.21-18.11,1.93-20.66a69.33,69.33,0,0,0,1.89,8.92l.06.17a.61.61,0,0,0,.15.24,14.3,14.3,0,0,0,0,5.9Z"/><path class="cls-8" d="M116.21,125.74l-3.54.2c-.22-1-.43-2-.63-3l.48,0a26.78,26.78,0,0,0,4.56-.44l.66,3.19C117.23,125.68,116.72,125.72,116.21,125.74Z"/><path class="cls-5" d="M114.73,136.12c-.6-3-1.18-5.87-1.73-8.58,1.69-.09,3.38-.18,5.07-.29l2.81,13.61A26.75,26.75,0,0,1,114.73,136.12Z"/><path class="cls-5" d="M123.05,182.06a29.6,29.6,0,0,0,4.51-2.23,12.72,12.72,0,0,1-6.22,7.93A17.84,17.84,0,0,0,123.05,182.06Z"/><path class="cls-5" d="M125.38,162.69a4.84,4.84,0,0,0-1,.33c-1.31.5-2.63,1-4,1.41-1.14-5.74-2.5-12.64-3.89-19.59.78.51,1.57,1,2.36,1.43a.76.76,0,0,0,1.11-.85c-.16-.5-.73-.63-1.1-.92-1-.68-1.95-1.3-2.82-1.92-.25-1.23-.49-2.45-.73-3.67a25.74,25.74,0,0,0,6,4Z"/><path class="cls-9" d="M125.69,164.2l1,4.88a1.55,1.55,0,0,0-.72.17c-1.43.57-2.89,1.07-4.37,1.5-.28-1.43-.59-3-.93-4.71C122.45,165.46,124.14,164.84,125.69,164.2Z"/><path class="cls-10" d="M127.93,177.73a7.07,7.07,0,0,0-1.24.73,30.41,30.41,0,0,1-3.5,1.79,13.41,13.41,0,0,0,0-1.49.69.69,0,0,0,.74-.68,11.48,11.48,0,0,0-.63-3.28c-.3-.75-.19-.92-.65-1.29a1,1,0,0,0-.5-.09c-.07-.34-.14-.7-.21-1.07a36.24,36.24,0,0,0,5.08-1.8l.72,3.5A12.4,12.4,0,0,1,127.93,177.73Z"/><path class="cls-5" d="M114.51,97c-.12-.74-.23-1.48-.35-2.22h0S124.26,87.3,134.72,79l3.19,4,0,0L119.88,97.56a14.11,14.11,0,0,0-4.29,5.76C115.36,101.56,114.85,99.1,114.51,97Z"/><path class="cls-8" d="M138.74,81.44,136,78l1.89-1.51c1.06,1.34,2.15,2.66,3.25,4l0,0-2,1.59A3.84,3.84,0,0,0,138.74,81.44Z"/><path class="cls-9" d="M142.14,79.1c-1-1.21-2-2.42-3-3.65l3.76-3.09a9.77,9.77,0,0,1,1.07.25,3.17,3.17,0,0,1,.41.21l.23.15.16.17a3.41,3.41,0,0,1,.35.89c.08.25.13.52.22.77a.69.69,0,0,0,.05.13l0,.06a.72.72,0,0,0,1.24,0,3.67,3.67,0,0,0-.47-2.69,3.58,3.58,0,0,0-1.74-1.27c1-.86,2-1.71,3-2.54,1.12,1.4,2.2,2.75,3.2,4.16a.43.43,0,0,0,.09.1l-8.31,6.68C142.34,79.34,142.23,79.24,142.14,79.1Z"/><path class="cls-5" d="M151.82,71.52c-.84-1.17-2.07-2.7-3.16-4.07,4.11-3.63,7.29-6.77,8.51-8.72,2-3.24,1.59-8.11.36-12.77a12.34,12.34,0,0,1,3,2.7,12.69,12.69,0,0,1-1.95,17.82L152,71.76A1.88,1.88,0,0,0,151.82,71.52Z"/><path class="cls-8" d="M161.58,69.33,123.47,98.82a11.33,11.33,0,0,0-4.21,11.27l12.78,64A17.74,17.74,0,0,1,118.12,195a18,18,0,0,1-4.94.29,16,16,0,0,0,6.73-5.17,14.25,14.25,0,0,0,9.34-16.34l-12.89-62.49a12.69,12.69,0,0,1,4.49-12.48l38.71-31.08a14.24,14.24,0,0,0,2.18-20,13.93,13.93,0,0,0-4.84-3.85c-.39-1.26-.83-2.49-1.28-3.63a16.33,16.33,0,0,1,8.88,5.88l0,.05A16.56,16.56,0,0,1,161.58,69.33Z"/></g></g></svg>