<svg xmlns="http://www.w3.org/2000/svg" viewBox="0 0 126.76 138.81"><defs><style>.cls-1{isolation:isolate;}.cls-2{fill:#02709b;}.cls-3{opacity:0.5;mix-blend-mode:soft-light;}.cls-4{fill:#fffefd;}.cls-5{fill:#036287;}.cls-6{fill:#0181b3;}.cls-7{fill:#fc9b23;}.cls-8{fill:#fec442;}</style></defs><g class="cls-1"><g id="Capa_2" data-name="Capa 2"><g id="OBJECTS"><polygon class="cls-2" points="30.17 133.05 19.43 119.17 15.63 114.25 11.49 108.89 7.69 103.97 3.54 98.61 0 94.03 0.08 93.44 1.41 84.04 2.64 75.39 3.97 65.98 5.2 57.33 6.53 47.92 7.76 39.27 10.69 18.48 19.73 30.39 23.49 35.34 27.59 40.73 31.35 45.69 35.44 51.07 39.2 56.02 42.49 60.36 42.18 62.23 40.68 71.08 39.05 80.72 37.54 89.57 35.91 99.22 34.41 108.06 30.17 133.05"/><g class="cls-3"><polygon class="cls-4" points="23.49 35.34 6.53 47.92 7.76 39.27 19.73 30.39 23.49 35.34"/><polygon class="cls-4" points="31.35 45.69 3.97 65.98 5.2 57.33 27.59 40.73 31.35 45.69"/><polygon class="cls-4" points="39.2 56.02 1.41 84.04 2.64 75.39 35.44 51.07 39.2 56.02"/><polygon class="cls-4" points="40.68 71.08 3.54 98.61 0 94.03 0.08 93.44 42.18 62.23 40.68 71.08"/><polygon class="cls-4" points="37.54 89.57 11.49 108.89 7.69 103.97 39.05 80.72 37.54 89.57"/><polygon class="cls-4" points="34.41 108.06 19.43 119.17 15.63 114.25 35.91 99.22 34.41 108.06"/></g><polygon class="cls-5" points="126.76 70.25 125.73 73.19 125.47 73.89 122.15 83.28 118.07 94.8 117.97 95.06 114.33 105.34 114.03 106.2 110.41 116.44 110.33 116.65 106.77 126.71 106.29 128.06 102.81 137.91 102.48 138.81 96.5 138.34 92.78 138.04 89.32 137.76 82.49 137.22 82.14 137.19 76.29 136.72 73.07 136.47 68.98 136.14 62.76 135.65 61.81 135.57 55.22 135.05 53.41 134.9 48.05 134.48 42.74 134.05 41.45 133.95 33.61 133.32 30.17 133.05 31.25 126.66 32.75 117.81 34.38 108.19 34.4 108.06 34.41 108.06 35.88 99.34 36.88 93.51 38.45 84.21 39.56 77.65 39.91 75.66 42.03 63.1 42.49 60.36 48.5 61.07 55.22 61.85 61.66 62.6 66.64 63.19 69.05 63.47 70.93 63.69 76.29 64.33 82.34 65.04 82.96 65.11 90.2 65.95 91.38 66.09 96.86 66.74 101.22 67.25 104.03 67.58 110.22 68.31 110.7 68.36 120.06 69.46 124.78 70.01 126.76 70.25"/><g class="cls-3"><polygon class="cls-4" points="91.38 66.09 34.38 108.19 34.4 108.06 34.41 108.06 35.88 99.34 82.34 65.04 82.96 65.11 90.2 65.95 91.38 66.09"/><polygon class="cls-4" points="70.93 63.69 38.45 84.21 39.56 77.65 39.91 75.66 61.66 62.6 66.64 63.19 69.05 63.47 70.93 63.69"/><polygon class="cls-4" points="110.22 68.31 31.25 126.66 32.75 117.81 101.22 67.25 104.03 67.58 110.22 68.31"/><polygon class="cls-4" points="125.85 73.61 125.47 73.89 42.74 134.05 41.45 133.95 33.61 133.32 120.06 69.46 124.78 70.01 125.73 73.19 125.85 73.61"/><polygon class="cls-4" points="122.15 83.28 118.07 94.8 62.76 135.65 61.81 135.57 55.22 135.05 53.41 134.9 122.15 83.28"/><polygon class="cls-4" points="114.03 106.2 110.41 116.44 110.33 116.65 82.49 137.22 82.14 137.19 76.29 136.72 73.07 136.47 114.03 106.2"/><polygon class="cls-4" points="106.29 128.06 102.81 137.91 102.48 138.81 96.5 138.34 92.78 138.04 106.29 128.06"/></g><polygon class="cls-6" points="126.76 70.25 100.85 67.2 91.22 66.08 81.38 64.92 72.36 63.87 62.52 62.7 53.24 61.62 43.7 60.51 42.49 60.36 35.14 50.67 31.38 45.71 27.28 40.32 23.51 35.36 17.18 27.03 13.21 21.79 10.69 18.48 17.07 19.47 26.77 20.97 40.2 23.04 48.86 24.39 58.29 25.84 66.93 27.17 76.35 28.63 83.33 29.71 84.52 30.82 88.86 34.87 93.87 39.55 98.91 44.25 104.1 49.1 108.57 53.26 113.6 57.96 126.76 70.25"/><g class="cls-3"><polygon class="cls-4" points="48.86 24.39 27.28 40.32 23.51 35.36 40.2 23.04 48.86 24.39"/><polygon class="cls-4" points="26.77 20.97 17.18 27.03 13.21 21.79 17.07 19.47 26.77 20.97"/><polygon class="cls-4" points="66.93 27.17 35.14 50.67 31.38 45.71 58.29 25.84 66.93 27.17"/><polygon class="cls-4" points="84.52 30.82 43.7 60.51 42.49 60.36 39.22 56.05 76.35 28.63 83.33 29.71 84.52 30.82"/><polygon class="cls-4" points="93.87 39.55 62.52 62.7 53.24 61.62 88.86 34.87 93.87 39.55"/><polygon class="cls-4" points="104.1 49.1 87.07 60.72 81.38 64.92 72.36 63.87 98.91 44.25 104.1 49.1"/><polygon class="cls-4" points="113.6 57.96 100.85 67.2 91.22 66.08 108.57 53.26 113.6 57.96"/></g><path class="cls-7" d="M40.73,10.78s6.16-8.37,22-10.6c2.75-.48,7.47,6.6,7.47,6.6s-22,4.11-26.73,14.92C43.48,21.7,39.85,16.06,40.73,10.78Z"/><path class="cls-8" d="M70.93,44.13c-3.38-3.05-15.54-14-22.8-20.55-8.49-7.67-7.4-12.8-7.4-12.8s-4.34,8.15-2.52,14.39c1.59,5.46,24.69,15.94,30,19.42Z"/><path class="cls-8" d="M66.67,3.58c1.78,3.11,3.5,31.5,4,40.59l2.42-.42c.35-9.06,5.84-36.84,3.66-40.5-2.61-4.36-14-3.07-14-3.07S64.54-.13,66.67,3.58Z"/><path class="cls-7" d="M112.2,22.76s-3-9.94-17.26-17.3c-2.43-1.35-9.45,4.48-9.45,4.48s18.78,6.14,22.28,21.21A15.69,15.69,0,0,0,112.2,22.76Z"/><path class="cls-8" d="M72.66,44.22c4.2-1.75,19.3-8,28.32-11.83,10.55-4.43,11.22-9.63,11.22-9.63s.63,9.87-3.15,15.15c-3.32,4.63-27.81,6.12-34,7.64Z"/><path class="cls-8" d="M90.11,7.37c-2.71,2.35-13.73,28.57-17.22,37l-2.16-1.2c2.68-8.67,7.69-36.48,11-39.2C85.6.69,94.94,5.46,94.94,5.46S93.34,4.58,90.11,7.37Z"/><polygon class="cls-2" points="36.99 63.76 40.59 71.59 124.69 79.36 126.76 70.25 42.49 60.36 36.99 63.76"/><polygon class="cls-8" points="64.7 135.8 80.98 64.88 55.49 25.37 60.51 26.18 88.85 65.8 71.14 136.31 64.7 135.8"/><polygon class="cls-2" points="7.62 30.12 10.7 18.48 42.49 60.36 40.59 71.59 7.62 30.12"/><polygon class="cls-8" points="15.67 114.29 30.41 44.45 75.57 45.86 73.26 42.12 25.22 37.61 10.31 107.36 15.67 114.29"/><polygon class="cls-8" points="75.57 45.86 102.68 47.77 96.64 42.14 73.26 42.12 75.57 45.86"/></g></g></g></svg>