<svg xmlns="http://www.w3.org/2000/svg" viewBox="0 0 104.4 177.81"><defs><style>.cls-1{isolation:isolate;}.cls-2{fill:#fec442;}.cls-3{fill:#fc9b23;}.cls-4,.cls-5{fill:#f1f1f2;}.cls-4,.cls-8{mix-blend-mode:multiply;}.cls-5{opacity:0.5;mix-blend-mode:soft-light;}.cls-6{fill:none;stroke:#fff;stroke-miterlimit:10;}.cls-7{fill:#d12a4e;}.cls-8{fill:#e5e6e7;}.cls-9{fill:#c11a46;}</style></defs><g class="cls-1"><g id="Capa_2" data-name="Capa 2"><g id="OBJECTS"><path class="cls-2" d="M103.76,117.39a51.88,51.88,0,0,0-1.39-6.09,5.16,5.16,0,0,0-.23-.92,16.08,16.08,0,0,0-.87-2.38c0-.14-.09-.28-.14-.41a35.51,35.51,0,0,0-2.06-5v-.06a53.26,53.26,0,0,0-10-13.9A52.21,52.21,0,0,0,79.16,81c-.22-.15-.45-.28-.67-.41A44.67,44.67,0,0,0,71.24,77a53.45,53.45,0,0,0-6.92-2.16v-9H57.45a8.14,8.14,0,1,0-10.51,0H40.08v9a51.08,51.08,0,0,0-8.89,3l-.26.11a49.85,49.85,0,0,0-5.05,2.57,51.78,51.78,0,0,0-11.62,9.25c-.87.93-1.74,1.92-2.49,2.9A45.77,45.77,0,0,0,7.13,99.3a47,47,0,0,0-3.07,6.15,47.59,47.59,0,0,0-1.8,4.93c-.06.29-.18.58-.24.87a50.71,50.71,0,0,0-2,14.37c0,1.31,0,2.62.15,3.93a48.47,48.47,0,0,0,1.24,8.07,49.91,49.91,0,0,0,1.79,5.91c.41,1.1.82,2.2,1.29,3.25.34.81.69,1.56,1.1,2.32,0-.06,0,0,0,0a45.78,45.78,0,0,0,5.1,8.17c.33.43.67.85,1,1.27a52.5,52.5,0,0,0,12.85,11.33,51.94,51.94,0,0,0,27.59,7.92l1.37,0a52.85,52.85,0,0,0,7.81-.77,52.36,52.36,0,0,0,23.52-10.68q1.81-1.47,3.46-3a53.54,53.54,0,0,0,3.9-4.2,49.8,49.8,0,0,0,7.3-11.48c.18-.29.29-.58.41-.81a52.4,52.4,0,0,0,4.45-20.08c0-.36,0-.72,0-1.08A54.51,54.51,0,0,0,103.76,117.39ZM50.82,56a3.9,3.9,0,1,1-2.27,5A3.89,3.89,0,0,1,50.82,56Z"/><path class="cls-3" d="M34.2,88.91c0,.73-.14,1.4-.23,2.1a33.46,33.46,0,0,1-2.22,7.65l-.37.89-.37.81c-.25.54-.48,1.09-.74,1.61-.5,1.06-1,2.1-1.54,3.12-1,2.06-2.12,4-3.19,6l-6.37,11.42c-2,3.72-4,7.41-5.56,11.06a48.24,48.24,0,0,0-3.5,10.9,23.73,23.73,0,0,0,.51,11,24.62,24.62,0,0,0,1.11,3.06c-.34-.42-.68-.84-1-1.27a45.78,45.78,0,0,1-5.1-8.17s0-.06,0,0c-.41-.76-.76-1.51-1.1-2.32-.47-1.05-.88-2.15-1.29-3.25a49.91,49.91,0,0,1-1.79-5.91,48.47,48.47,0,0,1-1.24-8.07c.07-.25.15-.5.22-.75a71.73,71.73,0,0,1,5.74-13.42,122,122,0,0,1,7.39-11.8c1.3-1.86,2.62-3.68,3.94-5.45L21.3,93c2.34-3.14,4.31-6.36,4.78-9.36a7,7,0,0,0,0-2.33,6.79,6.79,0,0,0-.17-.72A49.85,49.85,0,0,1,30.93,78l.3.34a12.92,12.92,0,0,1,2.21,4,17.34,17.34,0,0,1,.78,4.44A19.39,19.39,0,0,1,34.2,88.91Z"/><path class="cls-3" d="M104.4,125.62c0,.36,0,.72,0,1.08-.67,1.31-1.37,2.6-2,3.87-1.85,3.44-3.74,6.74-5.51,10-3.52,6.47-6.77,12.71-8,18.8a23.57,23.57,0,0,0-.47,3.92q-1.65,1.57-3.46,3a51.77,51.77,0,0,1-4.36,3.14,18.49,18.49,0,0,1-1.64-3.23,25.12,25.12,0,0,1-1.71-7.11,36.55,36.55,0,0,1,1.57-13.8,60.88,60.88,0,0,1,5-11.89,98.4,98.4,0,0,1,6.53-10.36c1.16-1.62,2.33-3.21,3.5-4.75l3.43-4.45a26.39,26.39,0,0,0,3.9-6.28c.05.13.09.27.14.41a16.08,16.08,0,0,1,.87,2.38,5.16,5.16,0,0,1,.23.92,51.88,51.88,0,0,1,1.39,6.09A54.51,54.51,0,0,1,104.4,125.62Z"/><path class="cls-3" d="M62.25,86.5a26.12,26.12,0,0,1-.41,5,34.5,34.5,0,0,1-1.16,4.66A40.88,40.88,0,0,1,59,100.47l-.47,1-.45,1c-.3.65-.59,1.3-.92,1.93q-.95,1.9-1.92,3.75c-1.3,2.47-2.64,4.87-4,7.24-2.67,4.75-5.36,9.36-7.87,14a150.65,150.65,0,0,0-6.79,13.74,56.54,56.54,0,0,0-4.1,13.76,28.75,28.75,0,0,0,1.21,13.83,31.45,31.45,0,0,0,1.92,4.42,51.29,51.29,0,0,1-11.1-5.24A27.53,27.53,0,0,1,22.87,166c-.29-.76-.52-1.52-.75-2.3s-.41-1.56-.55-2.34a32.19,32.19,0,0,1-.64-4.76,50.22,50.22,0,0,1,2.47-18.3,90.8,90.8,0,0,1,7-16.09,164.61,164.61,0,0,1,8.88-14.33q2.35-3.41,4.74-6.71l4.62-6.43c2.79-4,5.15-8.19,5.45-12.17a8.61,8.61,0,0,0-.27-3,9.5,9.5,0,0,0-1.4-3,14.82,14.82,0,0,0-2.9-3c.89,0,1.77-.07,2.67-.07,1.12,0,2.24,0,3.35.11A13.55,13.55,0,0,1,59,76.63a15,15,0,0,1,2.45,4.7A19.68,19.68,0,0,1,62.25,86.5Z"/><path class="cls-3" d="M89.25,91.23a26.3,26.3,0,0,1-.41,5,34.73,34.73,0,0,1-1.16,4.65A40.07,40.07,0,0,1,86,105.2l-.47,1-.45,1c-.31.64-.6,1.29-.92,1.93q-.95,1.89-1.92,3.75c-1.3,2.47-2.64,4.86-4,7.24-2.67,4.75-5.36,9.35-7.87,13.94a153.26,153.26,0,0,0-6.79,13.74,56.36,56.36,0,0,0-4.1,13.76,28.8,28.8,0,0,0,1.21,13.84c.18.52.37,1,.59,1.57a52.85,52.85,0,0,1-7.81.77,28.65,28.65,0,0,1-3.67-7c-.29-.75-.52-1.52-.75-2.3s-.41-1.56-.55-2.35a32,32,0,0,1-.64-4.76,49.82,49.82,0,0,1,2.48-18.3,90.36,90.36,0,0,1,7-16.09,162,162,0,0,1,8.88-14.32q2.35-3.42,4.73-6.71l4.63-6.44c2.79-4,5.15-8.18,5.45-12.17a8.54,8.54,0,0,0-.27-3,9.4,9.4,0,0,0-1.4-3,3.81,3.81,0,0,0-.24-.32A52.21,52.21,0,0,1,89,88.65,20.77,20.77,0,0,1,89.25,91.23Z"/><path class="cls-4" d="M99.56,147.57A52.2,52.2,0,1,1,14.24,89.79h0S6.15,133,41.2,152.46C64.18,165.25,86.74,155.67,99.56,147.57Z"/><path class="cls-5" d="M87,100c5.92,7.34,8.77,14.85,6.37,16.79s-9.14-2.45-15-9.79-8.77-14.86-6.38-16.79S81.06,92.7,87,100Z"/><line class="cls-6" x1="52.32" y1="55.99" x2="52.32"/><path class="cls-7" d="M51.39,41.38S40.78,24.46,28.1,25.05s-9.65,23.12-9.65,23.12h0c-.15,3.72,3.58,8.17,7.65,8.74,6.76,1,25.17-11,25.17-11l2-1.58Z"/><path class="cls-7" d="M80,25.65C67.4,24.57,54.31,41,54.31,41l-2.18,2.88L54,45.56s17.92,12.66,24.76,12c4.12-.42,8.3-4.71,8.53-8.43h0S92.6,26.73,80,25.65Z"/><path class="cls-8" d="M35.62,36.9A35.54,35.54,0,0,1,44,38.08a23,23,0,0,1,4,1.42,13.44,13.44,0,0,1,3.69,2.42l.63.61-.71.5a11.6,11.6,0,0,1-2,1.13,19.27,19.27,0,0,1-2.06.83,26.58,26.58,0,0,1-4.27,1,33.51,33.51,0,0,1-4.35.41c-.72,0-1.45,0-2.17,0s-1.44-.1-2.16-.16c.72-.1,1.43-.18,2.14-.26s1.42-.18,2.13-.3,1.41-.21,2.1-.37l1-.2,1-.25a34.11,34.11,0,0,0,4-1.22c.65-.25,1.3-.51,1.92-.82a12.85,12.85,0,0,0,1.73-1L50.63,43a12.37,12.37,0,0,0-3.24-2.21,28.4,28.4,0,0,0-3.76-1.58A81.77,81.77,0,0,0,35.62,36.9Z"/><path class="cls-8" d="M70.89,36.9a80.22,80.22,0,0,0-8,2.28,28.53,28.53,0,0,0-3.77,1.58A12.54,12.54,0,0,0,55.87,43l-.07-1.11a12.26,12.26,0,0,0,1.73,1c.62.31,1.26.57,1.91.82a34.69,34.69,0,0,0,4,1.22l1,.25,1,.2c.69.16,1.4.24,2.1.37s1.41.19,2.12.3,1.43.16,2.15.26c-.72.06-1.44.12-2.16.16s-1.45,0-2.18,0A33.52,33.52,0,0,1,63.24,46,26.58,26.58,0,0,1,59,45a20.31,20.31,0,0,1-2.07-.83,12.38,12.38,0,0,1-2-1.13l-.7-.5.63-.61A13.4,13.4,0,0,1,58.5,39.5a23.39,23.39,0,0,1,4-1.42,33.16,33.16,0,0,1,4.15-.84A32.73,32.73,0,0,1,70.89,36.9Z"/><path class="cls-9" d="M56.32,37.55a11.56,11.56,0,0,1-3.38.51,11.43,11.43,0,0,1-3.31-.67c-1.77-.65-2.61,4.16.62,9.15,0,0,.44.71,2.18.65s2.24-.54,2.24-.54C58.45,41.83,58.15,37,56.32,37.55Z"/></g></g></g></svg>