<svg xmlns="http://www.w3.org/2000/svg" viewBox="0 0 243.42 368.85"><defs><style>.cls-1{fill:#7b4526;}.cls-2{fill:#6b3c20;}.cls-3{fill:#447241;}.cls-4{fill:#4f844b;}.cls-5{fill:#3b6438;}.cls-6{fill:#599555;}.cls-7{fill:#62a45d;}.cls-8{fill:#6cb466;}.cls-9{fill:#eaa613;}.cls-10{fill:#ffc648;}.cls-11{fill:#095c52;}.cls-12{fill:#ff2464;}.cls-13{fill:#fceec8;}</style></defs><g id="Capa_2" data-name="Capa 2"><g id="OBJECTS"><path class="cls-1" d="M146,351.69c-.88-5.17-1.8-10.52-2.52-15.81-.48-3.59-.82-6.83-1.05-9.92a.77.77,0,0,0,.31-.61,37.69,37.69,0,0,0-.66-8.34v-.6a.77.77,0,0,0-.29-.59,18.28,18.28,0,0,0-1.9-4.65,14.84,14.84,0,0,0-5.15-5.18,15.06,15.06,0,0,0-3.14-1.43,15.81,15.81,0,0,0-3.31-.69,17.44,17.44,0,0,0-1.76-.09,20.13,20.13,0,0,0-5,.66,23.21,23.21,0,0,0-6.36,2.71,23.92,23.92,0,0,0-5.31,4.32,27.47,27.47,0,0,0-4.31,6.62c-.6,1.22-1.15,2.48-1.69,3.69l-.35.81c0-.77.07-1.54.09-2.31l0-1.16a.75.75,0,0,0-.76-.78.77.77,0,0,0-.76.76c-.22,10.17-1.25,20.41-2.44,30.47-.16.85-.28,1.71-.4,2.57-.33,2.08-.62,4.18-.83,6.28,0,.05,0,.09,0,.14v.09a1.1,1.1,0,0,0,0,.18,3.57,3.57,0,0,0-.13.91c0,5,10.9,9.11,24.29,9.11h.12c12.73,0,23.41-3.77,24.32-8.53l0,0c0-.09,0-.17,0-.25V360c.05-.41.09-.81.1-1.22C146.86,356.42,146.45,354.06,146,351.69Z"/><path class="cls-2" d="M121.6,304.42a23.4,23.4,0,0,0-6.37,2.71,24,24,0,0,0-5.31,4.33,27.57,27.57,0,0,0-4.32,6.62c-.55,1.13-1.07,2.29-1.57,3.42l-.12.28-.35.8c.09-.77.11-1.56.13-2.3l0-.57v-.56a.76.76,0,0,0-.22-.59.78.78,0,0,0-.56-.25.8.8,0,0,0-.78.79c-.11,5.23-.45,10.49-.88,15.57a16.89,16.89,0,0,0,1.19,1.35l0,0a19.19,19.19,0,0,0,1.85,1.64,20,20,0,0,0,2,1.38,21.38,21.38,0,0,0,2.91,1.46,28.4,28.4,0,0,0,3.14,1.09l-.07,0a32.78,32.78,0,0,0,8.53,1.15h-.07a33.5,33.5,0,0,0,4.37-.25c.68-.09,1.36-.19,2-.32s1.54-.33,2.3-.53h0a31,31,0,0,0,3.64-1.21,30.36,30.36,0,0,0,3.25-1.57,29.94,29.94,0,0,0,3.34-2.24,34.63,34.63,0,0,0,3.09-2.71l0,0c.17-.16.34-.33.5-.5-.31-2.6-.56-5.05-.73-7.43a.75.75,0,0,0,.31-.61,37.2,37.2,0,0,0-.66-8.34v-.6a.75.75,0,0,0-.3-.6,18.06,18.06,0,0,0-1.89-4.65A15,15,0,0,0,134.8,306a14,14,0,0,0-3.14-1.42,15.27,15.27,0,0,0-3.32-.7,15.88,15.88,0,0,0-1.77-.1,20.15,20.15,0,0,0-5,.67m7.83,37.16-.05,0,.05,0"/><path class="cls-3" d="M136.76,205.69c-4.23,0-8.57.2-13.26.61-2.53.22-5,.5-7.8.82s-5.26.64-7.51.94c-5.64.76-10.68,1.59-15.41,2.52a136.28,136.28,0,0,0-29.67,9,88.92,88.92,0,0,0-9.78,5.12c-1.76,1.07-3.32,2.11-4.77,3.19a55.36,55.36,0,0,0-4.31,3.56,95.67,95.67,0,0,0-7.61,8l-1.71,2c-.87,1-1.73,2-2.61,3a27.38,27.38,0,0,0,1.3-4.43.76.76,0,0,0-.53-.93.58.58,0,0,0-.19,0,.75.75,0,0,0-.74.56,31.12,31.12,0,0,1-1.77,5.67l-.05.12q-.36.87-.78,1.71c-.18.34-.36.66-.55,1a.87.87,0,0,0-.24.4c-.49.79-1.06,1.61-1.74,2.5a86.81,86.81,0,0,1-8,8.69l-2.15,2.11c-2.33,2.28-4.74,4.63-7,7.06-1.58,1.69-2.9,3.23-4,4.71a37.2,37.2,0,0,0-3.25,4.83,17.06,17.06,0,0,0-2.5,9.84,12.76,12.76,0,0,0,1.68,5.3,10,10,0,0,0,3.68,3.56,11.5,11.5,0,0,0,5.65,1.37,15.55,15.55,0,0,0,4.38-.65,16.37,16.37,0,0,0,6-3.29c-.16.4-.3.81-.43,1.22a23.41,23.41,0,0,0-1,5.08,19.8,19.8,0,0,0,.17,4.66,17.73,17.73,0,0,0,1.22,4.19,19.14,19.14,0,0,0,4.93,6.73,24.67,24.67,0,0,0,7.55,4.49,29.15,29.15,0,0,0,8.93,1.85c.53,0,1.06.05,1.59.05a29.48,29.48,0,0,0,7.75-1,27.08,27.08,0,0,0,8.68-4.1,26.5,26.5,0,0,0,5-4.67,19.33,19.33,0,0,0,1.73,4.69,20.77,20.77,0,0,0,7.08,7.69A23.9,23.9,0,0,0,84.61,329a24.91,24.91,0,0,0,3.23.21A23.64,23.64,0,0,0,95.28,328a22.49,22.49,0,0,0,5.49-2.67,20,20,0,0,0,2.43,3.05,22.18,22.18,0,0,0,8.26,5.3,27,27,0,0,0,9.52,1.64h.26a30.18,30.18,0,0,0,10-1.79A27.52,27.52,0,0,0,140,328.5a23.12,23.12,0,0,0,3.5-3.76,22.6,22.6,0,0,0,4.66,2.15,23.93,23.93,0,0,0,7.44,1.18,25,25,0,0,0,3.23-.22,24,24,0,0,0,9.93-3.62,20.87,20.87,0,0,0,7.08-7.7,19.91,19.91,0,0,0,1.74-4.69,25.85,25.85,0,0,0,5,4.67,27.31,27.31,0,0,0,8.68,4.11,29.89,29.89,0,0,0,7.75,1c.53,0,1.06,0,1.59,0a29.45,29.45,0,0,0,8.93-1.86,24.67,24.67,0,0,0,7.55-4.49,19.26,19.26,0,0,0,4.93-6.73,17.69,17.69,0,0,0,1.21-4.19,19.3,19.3,0,0,0,.18-4.66,24.06,24.06,0,0,0-1-5.07c-.13-.42-.27-.83-.42-1.24a16.15,16.15,0,0,0,6,3.3,15.62,15.62,0,0,0,4.39.65A11.49,11.49,0,0,0,238,296a9.93,9.93,0,0,0,3.69-3.56,12.76,12.76,0,0,0,1.68-5.3,17.22,17.22,0,0,0-2.5-9.84,37.34,37.34,0,0,0-3.26-4.83c-1.14-1.48-2.47-3-4-4.71-2.26-2.43-4.67-4.78-7-7.06l-2.15-2.11a88.15,88.15,0,0,1-8-8.69l-.56-.75a.7.7,0,0,0,.51-.7,14.2,14.2,0,0,0-1.07-4.74,22,22,0,0,0-2.62-4.6,45.91,45.91,0,0,0-8.4-8.5,109.36,109.36,0,0,0-9.95-7.11c-1.51-1-3-1.92-4.56-2.86l-.83-.5c-1.17-.72-2.34-1.44-3.51-2.14a83.34,83.34,0,0,0-14.58-6.84,90.92,90.92,0,0,0-15.35-3.94,113.25,113.25,0,0,0-18.68-1.48M213,244.13a32.38,32.38,0,0,1-1.31-3.79,24,24,0,0,1,2,3.59,15,15,0,0,1,1,3.46c0,.05,0,.11,0,.16l-.06-.14-.08-.12q-.41-.64-.75-1.32c-.32-.63-.61-1.29-.84-1.84Z"/><path class="cls-4" d="M238.6,274.1a11,11,0,0,1,.29,1.13,9.87,9.87,0,0,1,.16,1.2,9.22,9.22,0,0,1,0,1.39,6.51,6.51,0,0,1-.23,1.15,6.61,6.61,0,0,1-.3.85,6.35,6.35,0,0,1-.73,1.26,7.51,7.51,0,0,1-.87,1,11.11,11.11,0,0,1-1.05.88,9.71,9.71,0,0,1-1,.64,10.35,10.35,0,0,1-1.12.51,10.8,10.8,0,0,1-1.37.41,11.76,11.76,0,0,1-2.36.26,15.68,15.68,0,0,1-2.74-.24,23.49,23.49,0,0,1-2.73-.64c-1-.3-2-.65-3-1-.81-.32-1.61-.65-2.41-1-1.73-.75-3.44-1.56-5.17-2.29l.06,0-1.1-.45c.14,2.22.3,4.45.34,6.67a40.51,40.51,0,0,1-.36,6.7,21.92,21.92,0,0,1-.74,3.4,18,18,0,0,1-1.08,2.75,16.31,16.31,0,0,1-1.73,2.75,15.3,15.3,0,0,1-2.36,2.4,16,16,0,0,1-1.5,1.1,17.06,17.06,0,0,1-1.65,1c-.54.28-1.08.55-1.64.78a18,18,0,0,1-2.14.74,15.56,15.56,0,0,1-2.14.42,13.75,13.75,0,0,1-3.73,0,15.52,15.52,0,0,1-1.92-.38c-.42-.12-.84-.24-1.25-.38l-.92-.36a15.67,15.67,0,0,1-1.56-.72,26.11,26.11,0,0,1-3.44-2.16c-1-.77-2.05-1.59-3-2.46s-1.85-1.75-2.73-2.66c-.15.5-.32,1-.49,1.47s-.47,1.21-.71,1.8a30.11,30.11,0,0,1-1.52,3.13,29.32,29.32,0,0,1-1.9,3,26.11,26.11,0,0,1-2,2.47,22.61,22.61,0,0,1-2.34,2.25,21,21,0,0,1-2.35,1.74,19.4,19.4,0,0,1-2.66,1.42,18.17,18.17,0,0,1-2.37.87,19.12,19.12,0,0,1-2.69.54,16.86,16.86,0,0,1-2.93.09,17.35,17.35,0,0,1-2.78-.37,18.92,18.92,0,0,1-3-.92,20.92,20.92,0,0,1-2.77-1.36,25.21,25.21,0,0,1-2.72-1.87,29.83,29.83,0,0,1-2.83-2.57c-.47-.49-.93-1-1.37-1.52-.28-.33-.56-.67-.83-1a35.38,35.38,0,0,1-1.15,3.62,33,33,0,0,1-1.38,3.17,27.87,27.87,0,0,1-2,3.41,22.73,22.73,0,0,1-2.14,2.63,19.85,19.85,0,0,1-2.76,2.42,18,18,0,0,1-3.16,1.82,17.26,17.26,0,0,1-1.81.69,17.86,17.86,0,0,1-1.88.48c-.58.11-1.15.21-1.74.27a17.88,17.88,0,0,1-1.94.12c-.4,0-.81,0-1.21,0l-.87-.09a11.59,11.59,0,0,1-1.43-.26,13,13,0,0,1-2.78-1,13.15,13.15,0,0,1-1.55-.88c-.36-.25-.73-.51-1.08-.79a21.38,21.38,0,0,1-2.27-2.09,49.33,49.33,0,0,1-4-5.19c-1.32-1.91-2.62-3.85-4-5.69a34.91,34.91,0,0,1-2.17,3.31,26.92,26.92,0,0,1-2,2.39,17.86,17.86,0,0,1-2.26,2,12.74,12.74,0,0,1-2.22,1.32,9.8,9.8,0,0,1-2.29.77,9.58,9.58,0,0,1-2.07.22,11.69,11.69,0,0,1-2-.22c-.37-.09-.74-.17-1.1-.29s-.73-.25-1.1-.39a15.33,15.33,0,0,1-2.21-1.13,22.18,22.18,0,0,1-2-1.37,30.23,30.23,0,0,1-4.08-3.92,58.1,58.1,0,0,1-6.95-10.2,18.61,18.61,0,0,1-3.28,6.45,20.88,20.88,0,0,1-2.86,3,24.69,24.69,0,0,1-3.09,2.29,30.07,30.07,0,0,1-5,2.49,36.61,36.61,0,0,1-5.68,1.68,40.88,40.88,0,0,1-5.82.78,42.15,42.15,0,0,1-6-.06,36.43,36.43,0,0,1-10.29-2.33,25.22,25.22,0,0,0,6.58,3.67,28.7,28.7,0,0,0,8.94,1.86c.53,0,1.06.05,1.59.05a29.48,29.48,0,0,0,7.75-1,27.29,27.29,0,0,0,8.68-4.1,26.73,26.73,0,0,0,5-4.68,17.4,17.4,0,0,0,1.69,4.68,20.85,20.85,0,0,0,7.09,7.71A23.94,23.94,0,0,0,84.61,329a25,25,0,0,0,3.23.22,23.65,23.65,0,0,0,7.44-1.19,22.39,22.39,0,0,0,5.5-2.67,19.43,19.43,0,0,0,2.4,3.05,22.16,22.16,0,0,0,8.27,5.29,26.87,26.87,0,0,0,9.53,1.65h.26a30,30,0,0,0,10-1.79,27.68,27.68,0,0,0,8.78-5.07,23.61,23.61,0,0,0,3.51-3.77,20.56,20.56,0,0,0,4.63,2.15,23.71,23.71,0,0,0,7.45,1.19,23.23,23.23,0,0,0,3.22-.22,23.89,23.89,0,0,0,9.94-3.63,20.67,20.67,0,0,0,7.09-7.7,20.3,20.3,0,0,0,1.75-4.7,24.19,24.19,0,0,0,4.94,4.69,27.08,27.08,0,0,0,8.68,4.1,29.61,29.61,0,0,0,7.76,1c.53,0,1.06,0,1.59,0a29.4,29.4,0,0,0,8.94-1.86,24.87,24.87,0,0,0,7.55-4.49,19.14,19.14,0,0,0,4.93-6.74,18,18,0,0,0,1.23-4.2,19.78,19.78,0,0,0,.17-4.65,23.64,23.64,0,0,0-1-5.09c-.13-.42-.27-.83-.42-1.24a15.48,15.48,0,0,0,6,3.33,15.74,15.74,0,0,0,4.39.66A11.41,11.41,0,0,0,238,296a9.73,9.73,0,0,0,3.69-3.57,12.58,12.58,0,0,0,1.69-5.3,17.18,17.18,0,0,0-2.51-9.85,33.9,33.9,0,0,0-2.51-3.86c.09.24.18.48.25.72"/><path class="cls-5" d="M136.76,205.66c-4.19,0-8.53.19-13.26.6-2.6.23-5.23.53-7.56.8l-.24,0c-2.7.31-5.16.62-7.51.94-5.65.77-10.69,1.59-15.41,2.51a136.38,136.38,0,0,0-29.68,9.07,86.3,86.3,0,0,0-9.78,5.12c-1.77,1.07-3.33,2.11-4.78,3.18s-2.79,2.19-4.32,3.57a95.72,95.72,0,0,0-7.6,8l-1.71,2-2.61,3a23.22,23.22,0,0,0,1.36-4.4.81.81,0,0,0-.56-1l-.2,0a.78.78,0,0,0-.77.58,31.48,31.48,0,0,1-1.76,5.67l-.05.12c-.25.58-.5,1.15-.79,1.71-.17.33-.35.66-.54,1a.81.81,0,0,0-.24.4c-.54.85-1.11,1.67-1.74,2.49a83.9,83.9,0,0,1-7.51,8.17c.21.06.42.1.63.14.36.07.72.13,1.09.18a23.19,23.19,0,0,0,2.85.19h.37c.48,0,1,0,1.45-.07s1-.09,1.45-.16a24.29,24.29,0,0,0,3.51-.76q.87-.26,1.74-.57c.46-.17.92-.35,1.37-.54a27.43,27.43,0,0,0,2.6-1.28q.66-.36,1.29-.75l.94-.61a.19.19,0,0,1,.12,0,.25.25,0,0,1,.23.31,14.58,14.58,0,0,0-.37,1.43c-.08.38-.14.76-.19,1.14a13.18,13.18,0,0,0-.13,2c0,.38,0,.75,0,1.12s0,.55.09.82a11.87,11.87,0,0,0,.36,1.75l0,.11c.06.21.13.42.2.62s.16.42.25.63a7.59,7.59,0,0,0,.54,1.06c.15.24.3.48.47.71a7.75,7.75,0,0,0,.57.66l.32.29a3.11,3.11,0,0,0,.28.23c.16.11.33.24.51.34a4.34,4.34,0,0,0,.53.26c.18.07.36.14.54.19l.55.11a4.4,4.4,0,0,0,.59.05c.26,0,.46,0,.68,0h0a5.31,5.31,0,0,0,.9-.18l.71-.25a8.88,8.88,0,0,0,1.22-.63c.18-.11.36-.22.53-.34l.5-.36c.35-.27.69-.55,1-.84a49,49,0,0,0-.38,9.34,25.12,25.12,0,0,0,3.09,11.3,16.21,16.21,0,0,0,3.74,4.38A18.32,18.32,0,0,0,62,294.15a22.86,22.86,0,0,0,7.55,1.21,33.63,33.63,0,0,0,7.12-.82,43.55,43.55,0,0,0,7.45-2.44,49.8,49.8,0,0,0,6.85-3.58,45.63,45.63,0,0,0,5.86-4.35c.68-.6,1.37-1.24,2-1.89a14.63,14.63,0,0,0,1.31,2.73,14.8,14.8,0,0,0,2.91,3.42,19.13,19.13,0,0,0,8.2,4,28.36,28.36,0,0,0,6.56.73c1.09,0,2.2-.05,3.32-.16a36.18,36.18,0,0,0,10-2.42,27.36,27.36,0,0,0,10.81-7.44c.54.66,1.11,1.31,1.69,1.94s1.18,1.34,1.77,1.92c.43.42.87.85,1.34,1.24s.76.65,1.16,1,.73.56,1.12.83c.62.46,1.25.89,1.88,1.29a25.76,25.76,0,0,0,5.47,2.61,30.17,30.17,0,0,0,6.5,1.41,40.33,40.33,0,0,0,4.31.23c1,0,2,0,3.06-.11a23.84,23.84,0,0,0,12.13-3.82,18.28,18.28,0,0,0,4.42-4.48,26.09,26.09,0,0,0,3.15-6.78,38.37,38.37,0,0,0,2-11.52,3.3,3.3,0,0,0,.61.42,3.74,3.74,0,0,0,.52.28l.13.06.13.06c.23.09.47.18.71.25l.51.11.18,0c.28,0,.49,0,.7,0s.35,0,.5,0a7.12,7.12,0,0,0,.71-.13l.47-.15.09,0,.12-.05h0a6.8,6.8,0,0,0,.85-.43c.22-.13.42-.28.63-.42a9,9,0,0,0,1-.86c.13-.13.25-.27.37-.41s.23-.26.33-.39a13.5,13.5,0,0,0,1-1.44c.14-.26.29-.53.42-.8s.17-.37.25-.55a14.33,14.33,0,0,0,.69-2c.08-.3.15-.6.21-.91s.11-.62.16-.93.06-.57.08-.87,0-.62,0-.94a.24.24,0,0,1,.17-.23h.05a.27.27,0,0,1,.19.06c.31.26.62.52.94.77a24.07,24.07,0,0,0,2.82,1.87c.45.25.91.5,1.38.73s.94.44,1.42.64a25.87,25.87,0,0,0,3.5,1.19c.61.16,1.23.31,1.84.43s1.22.21,1.83.3a30.5,30.5,0,0,0,3.69.25c.71,0,1.35,0,2-.06s1.26-.11,1.89-.19a29,29,0,0,0,3.64-.72l.93-.27c-1-1-2-2-3-2.95l-.86-.84-1.29-1.26a86.53,86.53,0,0,1-8-8.69c-.2-.25-.38-.5-.57-.76a.65.65,0,0,0,.53-.67,14.45,14.45,0,0,0-1.09-4.75,21.74,21.74,0,0,0-2.62-4.61,45.91,45.91,0,0,0-8.4-8.5,108.56,108.56,0,0,0-10-7.11q-2.26-1.45-4.56-2.86l-.82-.51-.33-.2c-1.06-.65-2.12-1.3-3.19-1.94a82.67,82.67,0,0,0-14.58-6.83,89.58,89.58,0,0,0-15.36-4,112.78,112.78,0,0,0-18.68-1.48m77.91,41.71-.06-.1c-.26-.42-.52-.86-.75-1.31-.33-.66-.62-1.33-.84-1.84a38.09,38.09,0,0,1-1.31-3.79,28.91,28.91,0,0,1,2,3.61,15.1,15.1,0,0,1,1,3.43"/><path class="cls-4" d="M131.11,136a118.51,118.51,0,0,0-12.22.65,127,127,0,0,0-18.92,3.5A122.27,122.27,0,0,0,82,146.44,105.17,105.17,0,0,0,66,155.22a72.19,72.19,0,0,0-20.48,20c-.76,1-1.51,2-2.27,3l.13-.14c-6.29,8.1-13.21,15.88-19.91,23.41-1.4,1.59-2.81,3.17-4.22,4.76-2.5,2.84-4.4,5-6.15,7.07a46.91,46.91,0,0,0-4.25,5.75,34.72,34.72,0,0,0-3.13,6.44,22.41,22.41,0,0,0-1.34,6.74,16.11,16.11,0,0,0,1.16,6.63A17.13,17.13,0,0,0,9.83,245a22.05,22.05,0,0,0,10.28,5.08,29.34,29.34,0,0,0,6.38.69,32.07,32.07,0,0,0,5.92-.56,28.58,28.58,0,0,0,5.85-1.8,22.81,22.81,0,0,0,5.1-3,17.59,17.59,0,0,0,2.89-2.83,15.17,15.17,0,0,0-.44,3.58,10.55,10.55,0,0,0,1.07,4.64,8.32,8.32,0,0,0,2.75,3.11,8.67,8.67,0,0,0,3.73,1.4,10.47,10.47,0,0,0,1.44.1h.39a11.14,11.14,0,0,0,1.87-.24,12,12,0,0,0,3.68-1.48,13.8,13.8,0,0,0,3.5-3c-.16.52-.32,1-.47,1.57-.21.73-.43,1.45-.64,2.18-.46,1.52-.91,3.05-1.32,4.58a52.58,52.58,0,0,0-1.43,6.9,23.65,23.65,0,0,0,0,6.68,15.94,15.94,0,0,0,2.36,6.15,17.4,17.4,0,0,0,5.47,5.22,13.9,13.9,0,0,0,6.71,2h.45a16.5,16.5,0,0,0,6.21-1.31,25.72,25.72,0,0,0,6.22-3.67,35.39,35.39,0,0,0,5.23-5c.76-.88,1.49-1.82,2.18-2.79.79-1.12,1.48-2.28,2-3.16a45.64,45.64,0,0,0,3.77-8c.21-.62.42-1.28.61-2a19.48,19.48,0,0,0,.92,4.77,17.61,17.61,0,0,0,4.61,7.32A20.2,20.2,0,0,0,121,277.35c.53,0,1.07,0,1.6-.06A21.69,21.69,0,0,0,130.9,275a20,20,0,0,0,6.77-5.55,20.51,20.51,0,0,0,1.75-2.61,21.1,21.1,0,0,0,1.42-3.09,22.82,22.82,0,0,0,1-3.27c.09-.41.17-.83.24-1.25a26.23,26.23,0,0,0,.8,2.79,45.23,45.23,0,0,0,3.77,8c.52.89,1.22,2.05,2,3.16s1.42,1.92,2.17,2.8a36.48,36.48,0,0,0,5.24,5,25.72,25.72,0,0,0,6.22,3.67,16.62,16.62,0,0,0,6.2,1.3h.45a14,14,0,0,0,6.72-2,17.29,17.29,0,0,0,5.46-5.23,15.74,15.74,0,0,0,2.37-6.15,23.66,23.66,0,0,0,0-6.68,51.17,51.17,0,0,0-1.42-6.9c-.41-1.53-.87-3-1.32-4.57-.22-.73-.43-1.46-.64-2.19-.16-.52-.31-1-.45-1.57a13.36,13.36,0,0,0,3.47,3,11.82,11.82,0,0,0,3.69,1.47,10.15,10.15,0,0,0,1.87.25h.39a10.54,10.54,0,0,0,1.44-.11,8.44,8.44,0,0,0,6.48-4.5,10.45,10.45,0,0,0,1.06-4.65,15.23,15.23,0,0,0-.42-3.58,16.84,16.84,0,0,0,2.88,2.84,22.81,22.81,0,0,0,5.1,3,28.58,28.58,0,0,0,5.85,1.8,32,32,0,0,0,5.92.56,29.34,29.34,0,0,0,6.38-.69A22.05,22.05,0,0,0,234,245.05a17.13,17.13,0,0,0,4.3-6.07,16.11,16.11,0,0,0,1.16-6.63,22.13,22.13,0,0,0-1.35-6.74,33.81,33.81,0,0,0-3.13-6.44,46.8,46.8,0,0,0-4.24-5.75c-1.75-2-3.65-4.23-6.16-7.07-1.4-1.59-2.81-3.17-4.22-4.76-6.69-7.53-13.62-15.31-19.89-23.42l.1.17c-.43-.6-.88-1.19-1.33-1.78a.72.72,0,0,0,.09-.2.8.8,0,0,0-.07-.58L199,175c-.24-.51-.47-1-.72-1.53-.41-.82-.86-1.69-1.39-2.64-.92-1.66-2-3.36-3.19-5.22-1.13-1.69-2.33-3.37-3.58-5s-2.5-3.1-3.69-4.37a52,52,0,0,0-6.69-5.94,59.59,59.59,0,0,0-7.26-4.7,73.27,73.27,0,0,0-16.4-6.52,93.93,93.93,0,0,0-18.15-2.9c-2.19-.14-4.46-.21-6.77-.21"/><path class="cls-6" d="M218.92,200c1.19,1.79,2.36,3.6,3.44,5.47.55.95,1.08,1.92,1.58,2.91s.88,1.8,1.28,2.73.76,1.88,1.07,2.84a28.51,28.51,0,0,1,.76,2.85,23.13,23.13,0,0,1,.5,5.93,18.41,18.41,0,0,1-1.15,5.68,16.14,16.14,0,0,1-1.19,2.48,15.78,15.78,0,0,1-1.43,2,15.28,15.28,0,0,1-2,1.94,14.88,14.88,0,0,1-2,1.33,14.17,14.17,0,0,1-2.44,1,14.52,14.52,0,0,1-2.44.52,15,15,0,0,1-3,0l-.72-.08a2.52,2.52,0,0,1-.37-.05,2.75,2.75,0,0,1-.41-.11,8.58,8.58,0,0,1-1.12-.48c-.45-.22-.89-.47-1.33-.72-1.14-.67-2.26-1.4-3.36-2.15-2.48-1.67-4.91-3.44-7.35-5.18-1-.7-2-1.4-3-2.07l-1.11-.72c-.2-.12-.39-.23-.59-.33.2.81.39,1.63.55,2.45s.36,1.87.5,2.81.21,1.71.25,2.57a20.62,20.62,0,0,1-.05,2.94,13.08,13.08,0,0,1-.45,2.39,8.76,8.76,0,0,1-1,2.29,7,7,0,0,1-1.54,1.71,7.16,7.16,0,0,1-2,1.16,5.92,5.92,0,0,1-1.07.31,5.49,5.49,0,0,1-1,.13,8.17,8.17,0,0,1-2.31-.18,11,11,0,0,1-1.13-.29c-.39-.13-.77-.27-1.15-.42a18.66,18.66,0,0,1-2.32-1.17c-.76-.44-1.5-.92-2.21-1.43-1.44-1-2.8-2.14-4.13-3.29-.93-.8-1.85-1.63-2.78-2.44.35,1.17.71,2.32,1.07,3.49.49,1.6,1,3.21,1.43,4.82s.92,3.41,1.28,5.13a48.09,48.09,0,0,1,.82,5c.1,1,.18,2,.18,3a24.55,24.55,0,0,1-.1,2.71,21.54,21.54,0,0,1-.44,2.65c-.1.42-.21.83-.35,1.24s-.27.8-.44,1.2a13.24,13.24,0,0,1-2.72,4.17,13.46,13.46,0,0,1-1.5,1.33,8.67,8.67,0,0,1-1.47.93,7.75,7.75,0,0,1-1.53.61,7.56,7.56,0,0,1-1.42.26,8.44,8.44,0,0,1-3-.32,12.72,12.72,0,0,1-3-1.37,21.36,21.36,0,0,1-3-2.22,44.06,44.06,0,0,1-5.69-6.36c-1.85-2.46-3.55-5-5.16-7.65-1.48-2.38-2.88-4.81-4.29-7.23-.57-1-1.14-2-1.73-2.94-.33-.55-.67-1.1-1-1.64-.27,2.15-.46,4.3-.73,6.46-.14,1.22-.31,2.45-.52,3.66s-.44,2.38-.75,3.55a27.58,27.58,0,0,1-1.18,3.53,16.91,16.91,0,0,1-1.53,2.92,14.17,14.17,0,0,1-2.19,2.63,12.93,12.93,0,0,1-2.73,1.92,14.53,14.53,0,0,1-2.38,1c-.41.12-.82.24-1.25.33s-.79.15-1.2.21a12.24,12.24,0,0,1-4.37-.16,10,10,0,0,1-1.19-.33c-.33-.11-.65-.23-1-.36a13.45,13.45,0,0,1-1.77-.91,19.64,19.64,0,0,1-3.46-2.7,46.39,46.39,0,0,1-6-7.43c-.9-1.33-1.78-2.68-2.68-4s-1.67-2.45-2.57-3.63h0l0,0h0a0,0,0,0,0,0,0h0c-.44-.57-.89-1.12-1.36-1.65-.94,3-2,6-3.14,8.89a77.62,77.62,0,0,1-4.24,9,52,52,0,0,1-5.84,8.56,38.46,38.46,0,0,1-3.54,3.68,33.25,33.25,0,0,1-3.88,3,28.31,28.31,0,0,1-4.43,2.41A27.85,27.85,0,0,1,70,284.36l-.71.15A14,14,0,0,0,75,285.92h.45a16.63,16.63,0,0,0,6.22-1.31A25.69,25.69,0,0,0,87.86,281a37.49,37.49,0,0,0,5.23-5,34.48,34.48,0,0,0,2.17-2.81c.81-1.13,1.54-2.34,2-3.16a44.21,44.21,0,0,0,3.77-8c.23-.63.43-1.3.61-2a18,18,0,0,0,.89,4.77,17.66,17.66,0,0,0,4.62,7.33A20.22,20.22,0,0,0,121,277.37c.53,0,1.07,0,1.6-.06a21.79,21.79,0,0,0,8.29-2.29,20.13,20.13,0,0,0,6.78-5.55,21.72,21.72,0,0,0,1.75-2.62,21.18,21.18,0,0,0,1.42-3.09,23.2,23.2,0,0,0,1-3.27c.09-.41.18-.84.25-1.26a16.39,16.39,0,0,0,.76,2.8,43.85,43.85,0,0,0,3.77,8c.47.81,1.19,2,2,3.16a34.48,34.48,0,0,0,2.17,2.81,36.86,36.86,0,0,0,5.23,5,25.69,25.69,0,0,0,6.23,3.67,16.64,16.64,0,0,0,6.21,1.32h.45a13.88,13.88,0,0,0,6.72-2,17.25,17.25,0,0,0,5.48-5.23,16,16,0,0,0,2.37-6.16,23.57,23.57,0,0,0,0-6.67,50.91,50.91,0,0,0-1.44-6.91c-.38-1.44-.8-2.87-1.23-4.29l-.08-.29c-.22-.73-.44-1.46-.65-2.19-.15-.52-.31-1-.45-1.57a12.37,12.37,0,0,0,3.46,3,12,12,0,0,0,3.68,1.49,11.52,11.52,0,0,0,1.88.24h.39a11,11,0,0,0,1.43-.1,8.72,8.72,0,0,0,3.75-1.41,8.33,8.33,0,0,0,2.75-3.11,10.61,10.61,0,0,0,1.08-4.66,16,16,0,0,0-.43-3.59,15.7,15.7,0,0,0,2.84,2.87,23.13,23.13,0,0,0,5.11,3,28.51,28.51,0,0,0,5.86,1.81,32.23,32.23,0,0,0,5.92.56,30.14,30.14,0,0,0,6.39-.68,22.26,22.26,0,0,0,10.28-5.1,17.12,17.12,0,0,0,4.31-6.07,16,16,0,0,0,1.16-6.64,22.62,22.62,0,0,0-1.35-6.75,33.71,33.71,0,0,0-3.13-6.43,47.44,47.44,0,0,0-4.24-5.77c-1.76-2.05-3.66-4.23-6.16-7.07l-4.22-4.75-1.7-1.91c.07.1.14.2.2.3"/><path class="cls-3" d="M118.89,136.63A124.6,124.6,0,0,0,100,140.14,121.11,121.11,0,0,0,82,146.43a103.35,103.35,0,0,0-16,8.77A72.22,72.22,0,0,0,45.5,175.25c-.77,1-1.52,2-2.28,3l.17-.11c-2.27,2.9-4.61,5.75-7,8.57l.24,0c.21,0,.43,0,.64-.08h-.06a15.23,15.23,0,0,0,2.22-.52c.42-.13.84-.27,1.24-.43s.61-.24.91-.36l-.05,0,.59-.25a.25.25,0,0,1,.19,0,.2.2,0,0,1,.11.06.24.24,0,0,1,.07.24q-.31,1.6-.54,3.21h0a45.43,45.43,0,0,0-.39,5.47c0,.91,0,1.82.08,2.74s.14,1.64.25,2.46v0a28.55,28.55,0,0,0,.73,3.66c.17.63.35,1.26.57,1.88s.39,1.09.62,1.62l0-.06a25.18,25.18,0,0,0,1.35,2.7c.25.43.52.86.81,1.27s.47.68.72,1h0v0h0a20.64,20.64,0,0,0,1.7,1.92l1,.91c.33.29.68.57,1,.84a21.64,21.64,0,0,0,2.29,1.52c.41.24.83.48,1.27.69s.89.43,1.34.62l-.06,0A26.85,26.85,0,0,0,58.7,219c.6.16,1.2.32,1.81.44s1.19.21,1.8.29h0a22.83,22.83,0,0,0,3.2.21c.58,0,1.15,0,1.73-.06s.92-.08,1.38-.13h0a23.57,23.57,0,0,0,3.22-.66c.53-.15,1.05-.31,1.57-.5s.88-.33,1.32-.52h0a24.39,24.39,0,0,0,2.88-1.47c.46-.28.93-.57,1.37-.88s.73-.52,1.09-.8a25.6,25.6,0,0,0,2.47-2.19c.38-.4.76-.8,1.12-1.22s.59-.7.88-1.06h0l0,0h0a26.61,26.61,0,0,0,2-3c.33-.57.65-1.15.94-1.74s.49-1.05.72-1.59a.25.25,0,0,0,0,.07c.25-.63.5-1.25.72-1.89s.41-1.3.59-2a.26.26,0,0,1,.24-.19.25.25,0,0,1,.18.08.2.2,0,0,1,.06.11,1.86,1.86,0,0,1,.1.25h0a0,0,0,0,0,0,0,9.61,9.61,0,0,0,.45.91c.08.14.16.27.25.4a3.62,3.62,0,0,0,.22.32h0l0,0s0,0,0,0l0,0h0a3.89,3.89,0,0,0,.38.43l.4.37a3.74,3.74,0,0,0,.42.27l.25.14h0a2.68,2.68,0,0,0,.47.18l.48.1h-.07c.17,0,.33,0,.5,0a3.4,3.4,0,0,0,.45,0,4.67,4.67,0,0,0,.65-.13,6.61,6.61,0,0,0,.67-.24l0,0a7.91,7.91,0,0,0,1-.52c.26-.17.52-.34.77-.54a10.54,10.54,0,0,0,1.22-1.1,14,14,0,0,0,.94-1.08h0l0,0v0l0,0a0,0,0,0,1,0,0c.25-.33.49-.66.7-1s.43-.72.62-1.09a.25.25,0,0,1,.45.06,35.75,35.75,0,0,0,1.34,3.76l0-.05a35.21,35.21,0,0,0,1.89,3.79c.36.62.73,1.24,1.13,1.83s.8,1.16,1.23,1.71a25,25,0,0,0,2,2.32c.33.33.67.66,1,1s.69.59,1,.87h0l0,0s0,0,0,0l0,0h0a17.86,17.86,0,0,0,1.86,1.26c.32.19.65.38,1,.55l1,.47-.06,0a15,15,0,0,0,1.71.59c.29.08.59.15.88.21s.6.11.91.15h0a13.59,13.59,0,0,0,1.8.11l1,0,.73-.08h-.07a14.32,14.32,0,0,0,2-.39c.3-.09.61-.18.91-.29s.55-.2.82-.31h0l0,0h0a14.33,14.33,0,0,0,1.61-.82c.26-.16.52-.32.77-.49l.7-.51h0a19.84,19.84,0,0,0,1.87-1.68,23.1,23.1,0,0,0,1.52-1.76,28.74,28.74,0,0,0,2.45-3.75c.69-1.27,1.3-2.57,1.86-3.89l0,.06c.76-1.82,1.42-3.69,2-5.57a.26.26,0,0,1,.24-.18.24.24,0,0,1,.22.12c.11.21.22.42.35.62l.37.51h0a7.68,7.68,0,0,0,.61.67q.24.22.48.42h0l0,0a7.92,7.92,0,0,0,.67.46,6.85,6.85,0,0,0,.71.37,4.65,4.65,0,0,0,.79.28l.41.1a2,2,0,0,0,.34.06h.06a4.84,4.84,0,0,0,.76,0l.56,0a3.73,3.73,0,0,0,.58-.12l.59-.2,0,0c.18-.09.37-.16.55-.27l.53-.35a6,6,0,0,0,.47-.41c.16-.17.31-.34.46-.52a5.81,5.81,0,0,0,.4-.57.27.27,0,0,1,.22-.12.22.22,0,0,1,.21.12,29.18,29.18,0,0,0,1.56,2.92c.55.88,1.13,1.73,1.76,2.55a32,32,0,0,0,2.79,3.15,34.56,34.56,0,0,0,3,2.65v0h0l0,0h0a36.47,36.47,0,0,0,3.77,2.53,37.32,37.32,0,0,0,3.9,1.95l-.06,0a31.24,31.24,0,0,0,3.88,1.35,30.78,30.78,0,0,0,3.93.81h0a26.51,26.51,0,0,0,3.34.22,24.65,24.65,0,0,0,3.09-.19h0a21.9,21.9,0,0,0,2.56-.52,19.67,19.67,0,0,0,2.45-.84l-.06,0a19,19,0,0,0,2-1,20.26,20.26,0,0,0,1.9-1.27l0,0a19.89,19.89,0,0,0,1.75-1.56,19.39,19.39,0,0,0,1.46-1.67,20.25,20.25,0,0,0,1.49-2.24,26.32,26.32,0,0,0,1.18-2.38v0a25.08,25.08,0,0,0,1.09-3.16c.16-.57.31-1.14.43-1.73.08-.33.15-.67.21-1s.15-.91.22-1.36c0,0,0,0,0,.06.12-.92.21-1.83.27-2.76s.08-1.62.1-2.43c0-1.72.06-3.45.13-5.18a.22.22,0,0,1,.12-.21.25.25,0,0,1,.25,0c.35.17.69.33,1,.48l-.06,0a12.11,12.11,0,0,0,1.57.54c.26.07.52.14.78.19l.79.13h0a9.66,9.66,0,0,0,1.51.1c.26,0,.52,0,.78,0s.48,0,.72-.06a11.66,11.66,0,0,0,1.76-.35c.25-.07.5-.14.75-.23l.69-.26.26-.11c-2.49-3-5-6-7.33-9.06l.07.19c-.34-.52-.71-1-1.09-1.51l-.21-.29a.3.3,0,0,0,.09-.17.8.8,0,0,0-.08-.6L199,175l-.06-.13-.09-.2c-.18-.4-.36-.8-.56-1.2-.43-.85-.88-1.72-1.4-2.64-.94-1.69-2-3.4-3.19-5.22-1.1-1.66-2.3-3.34-3.57-5s-2.49-3.08-3.69-4.38a52.94,52.94,0,0,0-6.7-5.94,61.12,61.12,0,0,0-7.26-4.69A72.34,72.34,0,0,0,156,139.1a93.27,93.27,0,0,0-18.16-2.91c-2.29-.14-4.57-.21-6.77-.21a120.31,120.31,0,0,0-12.22.65m-77,62.55a.06.06,0,0,0,0,0,.06.06,0,0,1,0,0m101.6,1.32h0m-18,15h0"/><path class="cls-6" d="M116.26,78.14q-1.8,0-3.6.06A69.65,69.65,0,0,0,98,80.2a45.47,45.47,0,0,0-6.32,2.11A59,59,0,0,0,86,85.17a71.17,71.17,0,0,0-6.35,4,60.57,60.57,0,0,0-6.17,5,36.79,36.79,0,0,0-6.26,7.52,22.76,22.76,0,0,0-2,4.14,17,17,0,0,0-.92,4.45.7.7,0,0,0,.22.53,65,65,0,0,1-6.18,9.56l.14-.14c-5.31,6.81-11.74,12.8-18,18.58-1.39,1.3-2.79,2.6-4.17,3.91-2,1.87-3.76,3.56-5.46,5.34A32.19,32.19,0,0,0,27,153a25.84,25.84,0,0,0-2.63,5.39,17.49,17.49,0,0,0-1,5.52,13.76,13.76,0,0,0,.26,2.73,11.9,11.9,0,0,0,.84,2.61A12.89,12.89,0,0,0,28,173.79a19.64,19.64,0,0,0,6.43,3.53,19.38,19.38,0,0,0,6.32,1c.44,0,.88,0,1.32-.05a24.36,24.36,0,0,0,9.68-2.79A27.47,27.47,0,0,0,54.4,174a39.74,39.74,0,0,0-3.5,8.35c-1.13,3.93-2,9.76.31,15.26a16.3,16.3,0,0,0,3.87,5.64,16.1,16.1,0,0,0,5.43,3.28,18.65,18.65,0,0,0,6.27,1.1H67a22.07,22.07,0,0,0,12.39-3.89,25.18,25.18,0,0,0,5.15-4.9,42.44,42.44,0,0,0,6.79-12.9c.1-.3.21-.61.3-.91a7,7,0,0,0,.26,1,6.67,6.67,0,0,0,1.41,2.39,5.35,5.35,0,0,0,2.31,1.44,5.49,5.49,0,0,0,1.61.23,8,8,0,0,0,1.49-.14,7.33,7.33,0,0,0,3-1.3,11.25,11.25,0,0,0,2.33-2.45,17.06,17.06,0,0,0,1.6-2.75,59.28,59.28,0,0,0,.47,5.93,31.38,31.38,0,0,0,3.31,11.26,16,16,0,0,0,3.39,4.34,14,14,0,0,0,5,2.84,15.42,15.42,0,0,0,3.44.69c.32,0,.64,0,1,0a12.1,12.1,0,0,0,2.3-.22,11.48,11.48,0,0,0,5.32-2.65,16.8,16.8,0,0,0,3.71-4.82,27.51,27.51,0,0,0,2.32-6c.28-1,.52-2.16.76-3.51s.43-3,.56-4.59c.06-.79.1-1.59.12-2.39a10.48,10.48,0,0,0,.83,1.32,11,11,0,0,0,2.33,2.44,7.2,7.2,0,0,0,3,1.3,8,8,0,0,0,1.48.15,5.2,5.2,0,0,0,1.62-.24,5.33,5.33,0,0,0,2.3-1.43,6.82,6.82,0,0,0,1.42-2.4,8.68,8.68,0,0,0,.27-1c.08.3.18.61.29.91a42.44,42.44,0,0,0,6.79,12.9,25.12,25.12,0,0,0,5.14,4.9,21.3,21.3,0,0,0,6.15,2.95,21.76,21.76,0,0,0,6.25,1h.24a18.65,18.65,0,0,0,6.27-1.09,15.65,15.65,0,0,0,9.3-8.93c2.31-5.5,1.44-11.33.31-15.26a40.36,40.36,0,0,0-3.5-8.36,25.28,25.28,0,0,0,2.6,1.54,24.42,24.42,0,0,0,9.68,2.8c.45,0,.89,0,1.33,0a20,20,0,0,0,12.74-4.54,12.84,12.84,0,0,0,3.54-4.59,12.38,12.38,0,0,0,.84-2.6,13.86,13.86,0,0,0,.26-2.74,17.22,17.22,0,0,0-1-5.51,24.88,24.88,0,0,0-2.63-5.39,31,31,0,0,0-3.83-4.86c-1.71-1.78-3.48-3.47-5.46-5.34l-4.18-3.91c-6.21-5.79-12.64-11.77-17.93-18.6l.08.14a68.43,68.43,0,0,1-5.34-8.06h0a.38.38,0,0,0,.17-.06.79.79,0,0,0,.35-.45.83.83,0,0,0-.08-.59l-.9-2c-.89-2-1.8-4-2.81-6a35.59,35.59,0,0,0-4.67-7.11,26.77,26.77,0,0,0-3.19-3.09,32.51,32.51,0,0,0-3-2.16,54,54,0,0,0-5.85-3.27A80.57,80.57,0,0,0,144.45,82a108.37,108.37,0,0,0-15.82-3.07,102.76,102.76,0,0,0-12.37-.76m-11.44,2.27.5-.06h0l-.54.06"/><path class="cls-7" d="M202.22,140.65a41,41,0,0,1,3.49,5.7,23.29,23.29,0,0,1,2.06,5.89,17.9,17.9,0,0,1,.34,3,16.85,16.85,0,0,1-.22,3.09,11.51,11.51,0,0,1-.84,2.94,6.38,6.38,0,0,1-1.41,2,6.21,6.21,0,0,1-.95.74,6.43,6.43,0,0,1-1,.52,10.22,10.22,0,0,1-2.66.69c-.53.08-1.06.13-1.59.17s-1.33.06-2,0a26.79,26.79,0,0,1-4.54-.54c-.8-.17-1.6-.36-2.39-.57s-1.45-.39-2.17-.62a6.85,6.85,0,0,1-.85-.34l-1-.5-2.59-1.36c-.85-.44-1.69-.87-2.57-1.25l0,0a6.83,6.83,0,0,0-1.6-.53,1.31,1.31,0,0,0-.28,0h0a.54.54,0,0,1-.22,0,2.87,2.87,0,0,1-.4-.18l-.09-.05c.51,1.17,1,2.33,1.48,3.52.73,1.82,1.42,3.67,2,5.54a60.91,60.91,0,0,1,1.67,6.09,36.76,36.76,0,0,1,.86,6.09,24.36,24.36,0,0,1,0,3,18.08,18.08,0,0,1-.39,2.74,12.56,12.56,0,0,1-2.11,4.82,10.66,10.66,0,0,1-1.81,1.93,11.6,11.6,0,0,1-2.27,1.47,8.61,8.61,0,0,1-2.32.74,8.06,8.06,0,0,1-2.3.08,9.49,9.49,0,0,1-2.26-.52,13.36,13.36,0,0,1-2.21-1,23.19,23.19,0,0,1-4.26-3.25,49.06,49.06,0,0,1-4-4.3c-1.22-1.48-2.39-3-3.53-4.53-1-1.36-2-2.73-3-4.06h0c-.52-.67-1.05-1.34-1.62-2-.3-.35-.63-.67-.91-1-.49-.64-.9-1.32-1.37-2h0v0h0v0h0c-.1.85-.15,1.71-.21,2.57s-.14,1.85-.29,2.76a10,10,0,0,1-.76,2.66,5.89,5.89,0,0,1-.7,1.15,4.72,4.72,0,0,1-.87.86,5.14,5.14,0,0,1-2.57,1,6.27,6.27,0,0,1-2.81-.41,12.08,12.08,0,0,1-2.74-1.53,26.36,26.36,0,0,1-2.57-2.15c-.81-.76-1.59-1.55-2.36-2.35-.5-.51-1-1-1.52-1.53l0,.48a64.39,64.39,0,0,1-.33,12.57,31.86,31.86,0,0,1-3.18,10.54,24.16,24.16,0,0,1-3,4.4,25.68,25.68,0,0,1-4,3.8c-.38.29-.76.56-1.15.83l.89,0a13,13,0,0,0,2.3-.21,11.55,11.55,0,0,0,5.33-2.67,17.08,17.08,0,0,0,3.72-4.81,28.76,28.76,0,0,0,2.32-6c.28-1,.52-2.15.76-3.52s.44-3.05.56-4.58c.06-.8.11-1.6.12-2.4a7.07,7.07,0,0,0,.79,1.33,11.48,11.48,0,0,0,2.33,2.45,7.3,7.3,0,0,0,3,1.3,8.42,8.42,0,0,0,1.48.15,5.36,5.36,0,0,0,3.94-1.68,6.8,6.8,0,0,0,1.41-2.4c.11-.33.2-.67.28-1a5.05,5.05,0,0,0,.26.92,42.27,42.27,0,0,0,6.78,12.91,24.94,24.94,0,0,0,5.16,4.89,21.4,21.4,0,0,0,6.14,3,21.93,21.93,0,0,0,6.26.95h.24a18.25,18.25,0,0,0,6.27-1.1,15.85,15.85,0,0,0,5.44-3.29,16.09,16.09,0,0,0,3.87-5.64c2.32-5.51,1.45-11.34.31-15.27a39.54,39.54,0,0,0-3.49-8.37,18.21,18.21,0,0,0,2.58,1.57,24.37,24.37,0,0,0,9.69,2.8c.44,0,.88.05,1.32.05a19.61,19.61,0,0,0,6.32-1,19.88,19.88,0,0,0,6.44-3.53,13,13,0,0,0,3.53-4.6,11.77,11.77,0,0,0,.85-2.61,14.45,14.45,0,0,0,.27-2.74,17.34,17.34,0,0,0-1-5.52,24.86,24.86,0,0,0-2.63-5.39,31.59,31.59,0,0,0-3.83-4.87c-1.75-1.82-3.64-3.61-5.47-5.34L202.35,139l-.61-.57c-1.79-1.66-3.6-3.34-5.39-5.06,2,2.37,4.05,4.77,5.87,7.32"/><path class="cls-4" d="M112.66,78.18a69.75,69.75,0,0,0-14.63,2,43.78,43.78,0,0,0-6.32,2.11A56.79,56.79,0,0,0,86,85.15a67.7,67.7,0,0,0-6.36,4,59.53,59.53,0,0,0-6.17,5,36.25,36.25,0,0,0-6.26,7.53,22.08,22.08,0,0,0-2,4.14,16.46,16.46,0,0,0-.93,4.46.73.73,0,0,0,.22.55,66.52,66.52,0,0,1-6.17,9.52l.16-.11q-1.22,1.55-2.49,3l.57-.06h-.07a16.28,16.28,0,0,0,2.4-.52A21.57,21.57,0,0,0,61,122h0l0,0a21.56,21.56,0,0,0,2.4-1.21,23.39,23.39,0,0,0,2.13-1.44l.65-.52a.24.24,0,0,1,.3,0,.23.23,0,0,1,.13.21,55.69,55.69,0,0,0,.35,7.64h0a.09.09,0,0,1,0,0v0a26.56,26.56,0,0,0,.61,3.2,20.57,20.57,0,0,0,1,2.87v0a15.45,15.45,0,0,0,.81,1.63,15,15,0,0,0,1,1.5,13.37,13.37,0,0,0,1,1.14,12.62,12.62,0,0,0,1.16,1,11.44,11.44,0,0,0,1.31.87,12.81,12.81,0,0,0,1.53.76l-.06,0a15.41,15.41,0,0,0,2.08.7,21,21,0,0,0,2.34.45h0a23.12,23.12,0,0,0,3,.18,23.79,23.79,0,0,0,2.67-.19h0a21.43,21.43,0,0,0,3.07-.63,23.83,23.83,0,0,0,2.94-1l0,0a30.26,30.26,0,0,0,3.11-1.58,33.32,33.32,0,0,0,2.89-2h0l0,0h0l0,0h0l0,0h0a30.93,30.93,0,0,0,2.78-2.46,33.72,33.72,0,0,0,2.49-2.84l0,0a30.86,30.86,0,0,0,1.78-2.57.26.26,0,0,1,.28-.11.24.24,0,0,1,.18.18c.15.61.32,1.22.51,1.81s.4,1.12.63,1.67l0-.06a17.07,17.07,0,0,0,1,2.1,17.74,17.74,0,0,0,1.2,1.77,13.2,13.2,0,0,0,1.16,1.32,13.59,13.59,0,0,0,1.26,1.12,10.58,10.58,0,0,0,1.3.88,12.47,12.47,0,0,0,1.41.72l-.06,0a14.83,14.83,0,0,0,1.46.51c.5.13,1,.23,1.5.31l-.07,0a11,11,0,0,0,1.52.11,11.92,11.92,0,0,0,1.46-.09,11.32,11.32,0,0,0,1.62-.32,13,13,0,0,0,1.48-.52l-.06,0a13.22,13.22,0,0,0,1.55-.78,15,15,0,0,0,1.34-.91,15.39,15.39,0,0,0,1.48-1.31,15.66,15.66,0,0,0,1.25-1.45,15.85,15.85,0,0,0,1.3-2,21,21,0,0,0,1.05-2.13l0,.06c.23-.55.44-1.12.63-1.69s.32-1.08.46-1.63a.25.25,0,0,1,.46,0c.29.55.61,1.09,1,1.61s.63.92,1,1.37a0,0,0,0,0,0,0,0,0,0,0,1,0,0l0,0,0,0a24.56,24.56,0,0,0,2.2,2.47,30.05,30.05,0,0,0,2.4,2.1,29.13,29.13,0,0,0,3,2,28.67,28.67,0,0,0,3.28,1.64l-.06,0a25.65,25.65,0,0,0,3,1.07,25.33,25.33,0,0,0,3.09.65h0a19.36,19.36,0,0,0,5.26,0h-.06a16.6,16.6,0,0,0,2.1-.42,17.8,17.8,0,0,0,1.74-.59,11.12,11.12,0,0,0,1.43-.7,12.89,12.89,0,0,0,1.25-.83,10.77,10.77,0,0,0,1.19-1.05,14.88,14.88,0,0,0,1-1.19,16.44,16.44,0,0,0,1.13-1.72,21.25,21.25,0,0,0,.93-1.92v0h0a34.86,34.86,0,0,0,1.73-5.63c.44-2,.8-3.91,1.19-5.86a.25.25,0,0,1,.37-.15l.47.2h0a16.81,16.81,0,0,0,2.17.74c.32.08.64.17,1,.23s.61.11.92.15h0a15.91,15.91,0,0,0,2.39.16c.39,0,.78,0,1.18-.05s.78-.07,1.17-.12h0a20.52,20.52,0,0,0,3.2-.7c.64-.2,1.27-.42,1.89-.65-.1-.14-.21-.28-.32-.41l.05.16a75.56,75.56,0,0,1-5.3-8.07h0a.21.21,0,0,0,.12,0,.77.77,0,0,0,.28-1.06c-.3-.67-.59-1.33-.89-2l-.06-.12c-.81-1.83-1.74-3.89-2.75-5.86a36.14,36.14,0,0,0-4.68-7.12,25.16,25.16,0,0,0-3.18-3.08,31.46,31.46,0,0,0-3-2.16,52.88,52.88,0,0,0-5.85-3.28A81.79,81.79,0,0,0,144.46,82a110.4,110.4,0,0,0-15.83-3.08,105.38,105.38,0,0,0-12.37-.76c-1.2,0-2.4,0-3.6.07M179,121.51h0m-4.68,0h0M61,122s0,0,0,0,0,0,0,0m105.49,9.87v0m-16,8.34h0m-70.86.6h0"/><path class="cls-7" d="M119.56,25.6a.74.74,0,0,0-.71.49,40.7,40.7,0,0,1-2.9,6.68,60.13,60.13,0,0,1-9.28,12.46l-.1.1h0a92.1,92.1,0,0,1-7.62,7.06,76.83,76.83,0,0,1-8.85,6.29c-4,2.45-8.28,4.67-12.38,6.81a156.91,156.91,0,0,0-16.63,9.56c-1.12.77-2.26,1.61-3.36,2.48s-2,1.63-2.8,2.37A32.16,32.16,0,0,0,50.54,85a27.61,27.61,0,0,0-3.15,6,19,19,0,0,0-1.27,6.38,14.07,14.07,0,0,0,1.29,6.23,15.07,15.07,0,0,0,4.47,5.44,17.35,17.35,0,0,0,6.71,3.11,20.46,20.46,0,0,0,4.46.49,21.8,21.8,0,0,0,2.89-.19A22.58,22.58,0,0,0,71.68,111a20.19,20.19,0,0,0,2.67-1.34c.36-.21.72-.44,1.07-.68a20.8,20.8,0,0,0-.41,9.69,12.94,12.94,0,0,0,2.26,5.06,11.81,11.81,0,0,0,4.52,3.55,14.83,14.83,0,0,0,3.17,1,17.29,17.29,0,0,0,3.67.38,18.16,18.16,0,0,0,7-1.43,23,23,0,0,0,6-3.76,34.44,34.44,0,0,0,5-5.3,47.11,47.11,0,0,0,3.42-5.13c.46-.8.91-1.61,1.33-2.44l0,.12v.11a25.94,25.94,0,0,0,.38,5.52c.42,2.38,1.68,6.63,5.31,8.43a8.91,8.91,0,0,0,3.74.83,7.36,7.36,0,0,0,1.78-.21,5.76,5.76,0,0,0,1.22-.45,6.32,6.32,0,0,0,1.13-.74,7.15,7.15,0,0,0,1.62-1.94,10.87,10.87,0,0,0,1-2.48,18,18,0,0,0,.58-2.68,31.27,31.27,0,0,0,.26-5.34l0-.62c.33.68.7,1.34,1.08,2a46.29,46.29,0,0,0,3.41,5.14,34,34,0,0,0,5,5.3,23,23,0,0,0,5.95,3.76,18.12,18.12,0,0,0,7,1.43,17.36,17.36,0,0,0,3.67-.38,14.83,14.83,0,0,0,3.17-1,11.88,11.88,0,0,0,4.52-3.55,12.94,12.94,0,0,0,2.26-5.06,21.15,21.15,0,0,0-.4-9.71c.34.25.69.48,1.06.7a20.19,20.19,0,0,0,2.67,1.34,22.93,22.93,0,0,0,5.73,1.55,23.76,23.76,0,0,0,2.89.19,19.73,19.73,0,0,0,4.46-.5,17.33,17.33,0,0,0,6.71-3.1,15.16,15.16,0,0,0,4.48-5.44,14.25,14.25,0,0,0,1.29-6.24,19.35,19.35,0,0,0-1.27-6.38,27.84,27.84,0,0,0-3.15-6A32.61,32.61,0,0,0,184.36,80c-.79-.74-1.68-1.5-2.8-2.38s-2.24-1.7-3.36-2.47a156.41,156.41,0,0,0-16.6-9.55c-4.12-2.15-8.38-4.37-12.41-6.83a75.78,75.78,0,0,1-8.85-6.28,91.84,91.84,0,0,1-7.74-7.19,60.49,60.49,0,0,1-9.28-12.44,41.22,41.22,0,0,1-2.89-6.69.69.69,0,0,0-.37-.4.59.59,0,0,0-.23-.14.86.86,0,0,0-.27,0"/><path class="cls-8" d="M125.38,38.15h0a38,38,0,0,0,2.4,4.72,44.8,44.8,0,0,0,3,4.34h0l0,0h0a70.11,70.11,0,0,0,12.68,12.2h0l0,0h0c2.15,1.66,4.36,3.25,6.59,4.8,1.93,1.34,3.88,2.67,5.83,4,1.38.93,2.76,1.86,4.11,2.84s2.74,2,4.07,3.13c1.54,1.26,3,2.58,4.46,4a43.1,43.1,0,0,1,4,4.5,25,25,0,0,1,1.67,2.4,19,19,0,0,1,1.29,2.44,13.93,13.93,0,0,1,.83,2.43,10.31,10.31,0,0,1,.28,2.41,9,9,0,0,1-.33,2.37,9.27,9.27,0,0,1-1,2.29,7.56,7.56,0,0,1-4.32,3.27,13.65,13.65,0,0,1-5.76.24A34.22,34.22,0,0,1,159.06,99c-1.62-.56-3.2-1.19-4.8-1.81.18.89.41,1.77.63,2.64.3,1.14.61,2.28.89,3.43s.57,2.35.76,3.55a21.84,21.84,0,0,1,.33,3.33,12.52,12.52,0,0,1-.21,2.59,8.7,8.7,0,0,1-.8,2.35,7.65,7.65,0,0,1-1.53,2,9.22,9.22,0,0,1-2.4,1.55,11.84,11.84,0,0,1-2.9.88,11,11,0,0,1-2.74.1,12.4,12.4,0,0,1-2.62-.58,13.91,13.91,0,0,1-2.47-1.16,22.36,22.36,0,0,1-4.57-3.65,45.29,45.29,0,0,1-4-4.75c-1.19-1.63-2.31-3.33-3.39-5-.81-1.27-1.59-2.55-2.39-3.82-.17,1.35-.29,2.72-.39,4.08s-.18,2.75-.28,4.12a49.06,49.06,0,0,1-.68,5.8,18.84,18.84,0,0,1-1.69,5.18,13.62,13.62,0,0,1-1.45,2.29,15.07,15.07,0,0,1-2,2.12c-.51.42-1,.83-1.6,1.2l.81.14a10.32,10.32,0,0,0,1.1.07,7.14,7.14,0,0,0,1.79-.22,5.9,5.9,0,0,0,1.22-.46,6.25,6.25,0,0,0,1.14-.74,7,7,0,0,0,1.61-1.94,10.34,10.34,0,0,0,1-2.48,17.68,17.68,0,0,0,.59-2.69,31.32,31.32,0,0,0,.26-5.34c0-.2,0-.41,0-.62a17.16,17.16,0,0,0,1,2,47.93,47.93,0,0,0,3.42,5.15,34.33,34.33,0,0,0,4.95,5.3,22.86,22.86,0,0,0,6,3.75,18,18,0,0,0,7,1.45,16.88,16.88,0,0,0,3.68-.39,14.53,14.53,0,0,0,3.16-1,11.75,11.75,0,0,0,4.53-3.55,13,13,0,0,0,2.27-5.06,21.19,21.19,0,0,0-.4-9.72,6.9,6.9,0,0,0,1,.71,19.6,19.6,0,0,0,2.67,1.34,23,23,0,0,0,5.74,1.56,24.43,24.43,0,0,0,2.89.19,19.88,19.88,0,0,0,4.47-.5,17.31,17.31,0,0,0,6.72-3.11,15.15,15.15,0,0,0,4.47-5.44,14.05,14.05,0,0,0,1.3-6.25,18.78,18.78,0,0,0-1.28-6.38,26.74,26.74,0,0,0-3.15-6A32.18,32.18,0,0,0,184.38,80c-.78-.72-1.67-1.48-2.8-2.37s-2.29-1.73-3.38-2.48a153.52,153.52,0,0,0-16.4-9.45l-.15-.08c-4.18-2.18-8.43-4.39-12.45-6.84a73.82,73.82,0,0,1-8.84-6.29,90,90,0,0,1-7.75-7.19,61.46,61.46,0,0,1-8.75-11.5,37.34,37.34,0,0,0,1.52,4.35"/><path class="cls-8" d="M44.2,145c-.89,1-1.71,2-2.52,3q-1.5,1.94-2.84,4a37.29,37.29,0,0,0-2.5,4.45,21,21,0,0,0-1.6,4.65,9.08,9.08,0,0,0,.86,6.74,7.27,7.27,0,0,0,2.77,2.45,11,11,0,0,0,2.07.77,15.58,15.58,0,0,0,2.55.41,1.27,1.27,0,0,0,.93-.39,1.3,1.3,0,0,0,0-1.86,1.4,1.4,0,0,0-.93-.39l-.42,0a12.26,12.26,0,0,1-2.8-.72,7.32,7.32,0,0,1-1.27-.73,6.15,6.15,0,0,1-.77-.76,5.52,5.52,0,0,1-.61-1.05,6.18,6.18,0,0,1-.37-1.42,10.72,10.72,0,0,1,0-2.53,24.81,24.81,0,0,1,1.79-5.94l-.08.2a38.79,38.79,0,0,1,5-8.55l0,0q.69-.88,1.44-1.71a.46.46,0,0,0,0-.66.46.46,0,0,0-.66,0m-.82,2.42,0,0,0,0m0,0h0"/><path class="cls-8" d="M59.53,183a14.82,14.82,0,0,0-1.34,5.5A14.23,14.23,0,0,0,59,194a11,11,0,0,0,3.07,4.61,10.49,10.49,0,0,0,1.27,1,9.58,9.58,0,0,0,1.47.73A10.8,10.8,0,0,0,68,201a1.3,1.3,0,0,0,1-.39,1.33,1.33,0,0,0,0-1.9,1.46,1.46,0,0,0-1-.4l-.24,0a12,12,0,0,1-2.62-.71,11,11,0,0,1-2-1.19,9.25,9.25,0,0,1-2.85-3.75,11.87,11.87,0,0,1-.74-2.73,13.19,13.19,0,0,1,0-3.14v0a.43.43,0,0,1,0-.05v-.11a.22.22,0,0,1,0,.08,11.87,11.87,0,0,1,.81-2.94l-.06.12.15-.33a.54.54,0,0,0-.19-.71.51.51,0,0,0-.7.18m0,3.71h0v0"/><path class="cls-8" d="M112.06,186.78a21.68,21.68,0,0,0,.31,8.3,13.52,13.52,0,0,0,1.62,3.86,12.38,12.38,0,0,0,1.31,1.74,10.6,10.6,0,0,0,1.68,1.53.94.94,0,0,0,.75.1,1,1,0,0,0,.57-.45,1,1,0,0,0-.34-1.32c-.32-.21-.64-.42-.95-.65a10.77,10.77,0,0,1-1.78-1.79,12.62,12.62,0,0,1-1.53-2.64,15.47,15.47,0,0,1-1-3.62,18.8,18.8,0,0,1,.05-4.74v0s0,0,0-.06,0,0,0,0h0a.09.09,0,0,0,0,0,.41.41,0,0,0-.27-.48h-.09a.37.37,0,0,0-.38.28m.68,5.07v0a0,0,0,0,1,0,0m4.14,7.94.09.07-.09-.07m-4.09-12.72v0"/><path class="cls-8" d="M62.56,79.5a19.71,19.71,0,0,0-4,4,27.77,27.77,0,0,0-1.66,2.5,24.28,24.28,0,0,0-1.41,2.67,21.57,21.57,0,0,0-1,2.92,18.65,18.65,0,0,0-.55,3,15.08,15.08,0,0,0,0,2.85,13.92,13.92,0,0,0,.56,2.93,11.74,11.74,0,0,0,5,6.3,1.41,1.41,0,0,0,1.43-2.44c-.31-.2-.61-.41-.9-.62A11.88,11.88,0,0,1,58,101.84a12.33,12.33,0,0,1-1.29-2.26A12.49,12.49,0,0,1,56,96.9a15.88,15.88,0,0,1,0-3.71,22.17,22.17,0,0,1,1.49-5.41A20.06,20.06,0,0,1,60,83.59l0,0,.08-.1,0,0h0a17.86,17.86,0,0,1,3-3l.06,0a.57.57,0,0,0,.19-.76.59.59,0,0,0-.49-.27.42.42,0,0,0-.26.08m.58.93,0,0Zm-5.53,7.24,0,0,0,0m2.07,15.84.2.16-.2-.16m.39-20,0,0,0-.06h0"/><path class="cls-8" d="M82.07,107.36a14,14,0,0,0,0,8.93,12.76,12.76,0,0,0,2.19,4,11,11,0,0,0,3.6,3,1.37,1.37,0,0,0,1,.13,1.3,1.3,0,0,0,.91-1.6,1.22,1.22,0,0,0-.6-.78,13.65,13.65,0,0,1-2.63-1.5,10.92,10.92,0,0,1-1.62-1.64,10.15,10.15,0,0,1-2-4.88,13.93,13.93,0,0,1,0-3.29,11.34,11.34,0,0,1,.45-2,.66.66,0,0,0-.47-.82l-.17,0a.68.68,0,0,0-.65.5m1.49,8.15,0,.07,0-.07"/><path class="cls-8" d="M20.35,214.58a28.17,28.17,0,0,0-5.26,8.3,25.56,25.56,0,0,0-1.59,5,21.83,21.83,0,0,0-.48,5,14.14,14.14,0,0,0,.24,2.16,11.4,11.4,0,0,0,.46,1.83,10.94,10.94,0,0,0,2.09,3.64,10.51,10.51,0,0,0,3.34,2.54,13.06,13.06,0,0,0,2.35.89,16.88,16.88,0,0,0,2.74.47,1.49,1.49,0,0,0,.69-.19,1.36,1.36,0,0,0,.63-.82,1.42,1.42,0,0,0-.13-1.07,1.38,1.38,0,0,0-.83-.63,17.53,17.53,0,0,1-3.84-1,11.56,11.56,0,0,1-2.1-1.21,10.1,10.1,0,0,1-1.42-1.43A10.52,10.52,0,0,1,16,235.9a13.37,13.37,0,0,1-.78-3l0,.12,0-.13,0-.16a.78.78,0,0,1,0,.14,18.24,18.24,0,0,1,.06-4.43s0,.07,0,.1a27.27,27.27,0,0,1,1.88-6.76,24.57,24.57,0,0,1,3-5.15l-.09.12c.35-.45.72-.9,1.12-1.32a.58.58,0,0,0,0-.82.61.61,0,0,0-.42-.17.54.54,0,0,0-.4.17m-5.13,18.28h0v0"/><path class="cls-8" d="M67.41,260.37A25.54,25.54,0,0,0,66.32,265a18.51,18.51,0,0,0,0,5.15,10.72,10.72,0,0,0,.62,2.35,10.13,10.13,0,0,0,1.12,2.2A8.24,8.24,0,0,0,72.27,278a1.18,1.18,0,0,0,1.33-1.73l-.19-.24a1.15,1.15,0,0,0-.52-.31l-.34-.14a10.45,10.45,0,0,1-1.88-1,8.79,8.79,0,0,1-1.22-1.22,9,9,0,0,1-1-1.75,14.63,14.63,0,0,1-.87-3.32,1.11,1.11,0,0,0,0,.19,17.92,17.92,0,0,1,0-4.57c0,.05,0,.1,0,.15a17.87,17.87,0,0,1,.8-3.38A.5.5,0,0,0,68,260a.3.3,0,0,0-.13,0,.5.5,0,0,0-.47.36m1,11,.06.14-.06-.14m4.06,4.11.1,0Zm.13.06.15.06-.15-.06"/><path class="cls-8" d="M53.32,239.21a10,10,0,0,0-.6,2.28,8.74,8.74,0,0,0-.08,1.14,8.47,8.47,0,0,0,.09,1.13,7.06,7.06,0,0,0,2.12,4,.59.59,0,1,0,.83-.83,8.84,8.84,0,0,1-1-1.07,6,6,0,0,1-1.2-2.91v.1a7.87,7.87,0,0,1,0-1.75,9.24,9.24,0,0,1,.51-1.94.31.31,0,0,0-.22-.39l-.09,0a.35.35,0,0,0-.31.24"/><path class="cls-8" d="M16.8,270.1a27.61,27.61,0,0,0-3.37,4.25,25.29,25.29,0,0,0-2.55,5,18.19,18.19,0,0,0-1.06,5.52,15.22,15.22,0,0,0,.18,2.86,10.66,10.66,0,0,0,.85,2.87,1.18,1.18,0,0,0,.43.43,1.2,1.2,0,0,0,.92.13,1.22,1.22,0,0,0,.84-1.48,23.67,23.67,0,0,1-.68-3,17.92,17.92,0,0,1,0-4.33,24.11,24.11,0,0,1,1.53-5.48,19.65,19.65,0,0,1,2.6-4.38,19,19,0,0,1,1.25-1.44.69.69,0,0,0-.49-1.18.67.67,0,0,0-.48.2m-.33,2.48,0,.05,0-.05M13.88,277a.36.36,0,0,1,0,.09.36.36,0,0,0,0-.09m-1.5,5.46c0,.07,0,.13,0,.19a1.23,1.23,0,0,1,0-.19m0,4.3,0,.24,0-.24"/><path class="cls-8" d="M32.17,295.85a13.75,13.75,0,0,0-.52,5.06,13.23,13.23,0,0,0,1.37,4.8,12.93,12.93,0,0,0,3,4,13.72,13.72,0,0,0,2.06,1.5,11.39,11.39,0,0,0,2.52,1.12,1,1,0,1,0,.53-1.92c-.46-.14-.91-.31-1.36-.49a11.19,11.19,0,0,1-4.68-3.62v0a13.17,13.17,0,0,1-1.57-2.72,12.23,12.23,0,0,1-.78-2.92,11.25,11.25,0,0,1,0-2.84,11.82,11.82,0,0,1,.36-1.67.51.51,0,0,0-.35-.63l-.14,0a.51.51,0,0,0-.5.38m1.41,7.7,0,.07,0-.07m1.61,2.77.07.09-.07-.09m1.94,2,.07,0-.07,0m2.6,1.54.07,0-.07,0m.11.05.12.05-.12-.05"/><path class="cls-8" d="M111.59,310.89a.47.47,0,0,0-.17.64,19.79,19.79,0,0,0,2,3.43,14.68,14.68,0,0,0,2.72,2.9,12,12,0,0,0,1.61,1.13,12.8,12.8,0,0,0,2,.91,10.92,10.92,0,0,0,4.2.71,1.17,1.17,0,0,0,0-2.34,17,17,0,0,1-2.47-.09,12.45,12.45,0,0,1-2.81-.77,13.24,13.24,0,0,1-2.43-1.38,14.64,14.64,0,0,1-2.43-2.42,13.64,13.64,0,0,1-1.5-2.55.44.44,0,0,0-.4-.23.48.48,0,0,0-.24.06m4.46,5.06.09.06-.09-.06m2.62,1.5.09,0-.09,0m2.77.73.14,0-.14,0"/><path class="cls-9" d="M119.07,24.46a1.17,1.17,0,0,0-.45.09,1.65,1.65,0,0,0-.75.48,3.22,3.22,0,0,0-.51.93,5.63,5.63,0,0,0-.24,1.42.82.82,0,0,0,.3.65c-.37,1-.76,1.9-1.14,2.74a37.06,37.06,0,0,1-5.12,7.83,1,1,0,0,0-.28.55.81.81,0,0,0-.12.71.63.63,0,0,0,.34.43A16.41,16.41,0,0,0,115,41.74a17.41,17.41,0,0,0,4.16.49h.16a18.71,18.71,0,0,0,8.23-2,.76.76,0,0,0,.42-.74.54.54,0,0,0,.07-.27.86.86,0,0,0-.21-.57l-.16-.22-.17-.24-.59-.81,0,.2a44.62,44.62,0,0,1-4.83-8.87c-.12-.31-.23-.63-.33-.95a.58.58,0,0,0,0-.32,4.84,4.84,0,0,0-.37-1.09,4.69,4.69,0,0,0-.54-.88,2.47,2.47,0,0,0-1.38-.95,2.18,2.18,0,0,0-.42-.05"/><path class="cls-9" d="M119.4,0l-.33,0a4.21,4.21,0,0,0-1.28.36,4.59,4.59,0,0,0-1,.66,5.62,5.62,0,0,0-.88.92,18.38,18.38,0,0,0-2.63,5.08c-.22.57-.42,1.15-.61,1.73-.63,0-1.27,0-1.9.07a20.31,20.31,0,0,0-2.84.33,7.61,7.61,0,0,0-2.58.93,4.15,4.15,0,0,0-.93.8,3.41,3.41,0,0,0-.64,1.26,3.34,3.34,0,0,0-.07,1.24,4.41,4.41,0,0,0,.44,1.4,8.51,8.51,0,0,0,1.75,2.35,19.3,19.3,0,0,0,2.43,2c.34.24.67.47,1,.7a28.54,28.54,0,0,0-.86,3,14.84,14.84,0,0,0-.34,2.72,6.15,6.15,0,0,0,.41,2.41,5.85,5.85,0,0,0,.28.56,2.86,2.86,0,0,0,.29.42l.07.09a3.7,3.7,0,0,0,1,.81,4.69,4.69,0,0,0,2.31.63l.46,0a7.48,7.48,0,0,0,3.12-1.18,15.51,15.51,0,0,0,2.78-2.23l.19-.19a25.11,25.11,0,0,0,2.64,1.81,13.81,13.81,0,0,0,3,1.35,6.48,6.48,0,0,0,1.81.28,4.92,4.92,0,0,0,1.09-.12,3.64,3.64,0,0,0,1.21-.52,3.94,3.94,0,0,0,1-1,4.49,4.49,0,0,0,.58-1.13,6.61,6.61,0,0,0,.31-1.43,11.21,11.21,0,0,0-.11-3,20,20,0,0,0-.62-2.87c-.09-.34-.19-.68-.3-1a19.11,19.11,0,0,0,2.87-2.14,9.6,9.6,0,0,0,1.9-2.32,4.14,4.14,0,0,0,.57-2.57,3.11,3.11,0,0,0-1.14-2,6.32,6.32,0,0,0-2.25-1.05,20.82,20.82,0,0,0-4.15-.56l-.73-.05-.81-.07a26.1,26.1,0,0,0-1.78-4.52,12.29,12.29,0,0,0-1.7-2.5A4.81,4.81,0,0,0,120.25.13,3.35,3.35,0,0,0,119.4,0m4.9,8.45h0c-.06-.25-.12-.5-.21-.77.09.26.18.52.26.78"/><path class="cls-10" d="M119.31,0l.36.27a6.7,6.7,0,0,1,1.12,1.2,11.32,11.32,0,0,1,1.5,3.16,29.79,29.79,0,0,1,.82,3.63c.17,1,.32,2,.52,3a11.64,11.64,0,0,1,1.91-.57,8.08,8.08,0,0,1,1.1-.15,6.18,6.18,0,0,1,1.14,0,3.34,3.34,0,0,1,1.82.74,4.47,4.47,0,0,1,.43.44c.08.12.17.24.24.36a2.42,2.42,0,0,1,.32.86,3.42,3.42,0,0,1,0,.45,3.47,3.47,0,0,1-.06.45,2.85,2.85,0,0,1-.32.79A5.54,5.54,0,0,1,129,16.14a15.1,15.1,0,0,1-3,1.88,15.13,15.13,0,0,1,.72,1.66,16.27,16.27,0,0,1,.77,2.55,11.35,11.35,0,0,1,.21,1.32,6,6,0,0,1,0,1.27,3.09,3.09,0,0,1-.09.53,3.13,3.13,0,0,1-.16.52,2.55,2.55,0,0,1-.23.43,3.61,3.61,0,0,1-.25.3,2.18,2.18,0,0,1-.38.3,2.81,2.81,0,0,1-.5.22,2.56,2.56,0,0,1-.54.1,2.92,2.92,0,0,1-.59,0,3.51,3.51,0,0,1-1.13-.34,7.73,7.73,0,0,1-1.11-.66,18.7,18.7,0,0,1-3.43-3.34,7.24,7.24,0,0,1-.46,1.23,9.05,9.05,0,0,1-.45.8c-.14.22-.29.44-.45.65a8.58,8.58,0,0,1-1.13,1.2,9.25,9.25,0,0,1-1.33,1,10.42,10.42,0,0,1-5,1.58c-.36,0-.72,0-1.08,0a4.57,4.57,0,0,0,.8.64,4.69,4.69,0,0,0,1.21.49,4.82,4.82,0,0,0,1.11.14,3.46,3.46,0,0,0,.46,0,7.45,7.45,0,0,0,3.13-1.19,15.62,15.62,0,0,0,2.79-2.23l.18-.19a22.07,22.07,0,0,0,2.62,1.81,13.29,13.29,0,0,0,3,1.35,6.33,6.33,0,0,0,1.82.29,4.92,4.92,0,0,0,1.09-.12,3.57,3.57,0,0,0,1.22-.52,4.19,4.19,0,0,0,1-1,4.38,4.38,0,0,0,.58-1.14,6.48,6.48,0,0,0,.31-1.43,11.15,11.15,0,0,0-.11-3,21,21,0,0,0-.62-2.87l-.3-1a16.9,16.9,0,0,0,2.86-2.12,9.15,9.15,0,0,0,1.9-2.32,4.17,4.17,0,0,0,.58-2.58,3.12,3.12,0,0,0-1.15-2,6.35,6.35,0,0,0-2.25-1.06,21.8,21.8,0,0,0-4.16-.57l-.73,0-.81-.07a23.55,23.55,0,0,0-1.77-4.5,12.42,12.42,0,0,0-1.69-2.5,4.86,4.86,0,0,0-2.2-1.45A3.56,3.56,0,0,0,119.4,0h-.09"/><path class="cls-11" d="M72.58,66.38a1,1,0,0,0-.6.46,1.09,1.09,0,0,0-.1.77,27.88,27.88,0,0,0,2.66,7.78,21.11,21.11,0,0,0,4.92,6.33,15.9,15.9,0,0,0,7.15,3.56,16.85,16.85,0,0,0,7-.14A27,27,0,0,0,97.3,88.7a35,35,0,0,0,11.13,6.11,18.81,18.81,0,0,0,5.29,1,14.33,14.33,0,0,0,2.77-.24,27.46,27.46,0,0,0,3.48-.81,29,29,0,0,0,5.08-2c.4.51.82,1,1.25,1.47a24.76,24.76,0,0,0,2.92,2.69A22.44,22.44,0,0,0,132.35,99a19.61,19.61,0,0,0,1.79.86c.84.36,1.69.69,2.56,1a27.47,27.47,0,0,0,5,1.11,27.05,27.05,0,0,0,9.9-.61,28.07,28.07,0,0,0,4.81-1.71c.28-.12.56-.25.83-.39a12.63,12.63,0,0,0,2.75,2.46,14.3,14.3,0,0,0,5,2,24.88,24.88,0,0,0,11.84-.72,31.24,31.24,0,0,0,10.91-5.59,20.84,20.84,0,0,0,3-2.93A15.5,15.5,0,0,0,193,91a1.08,1.08,0,0,0,.1-.77,1.06,1.06,0,0,0-.46-.6,1,1,0,0,0-1.37.36,14.52,14.52,0,0,1-1.67,2.75,21.22,21.22,0,0,1-3.44,3.39,29.81,29.81,0,0,1-6.3,3.67l0,0-.07,0-.17.07.11,0a30.67,30.67,0,0,1-7.51,2.07,22.33,22.33,0,0,1-5.6,0,16.57,16.57,0,0,1-3.66-1,12.65,12.65,0,0,1-2.55-1.46A11.13,11.13,0,0,1,159,98.24c.44-.26.87-.53,1.29-.82a22.8,22.8,0,0,0,4.55-4.28,18.38,18.38,0,0,0,2-2.88,9.81,9.81,0,0,0,1.1-3,5.46,5.46,0,0,0-.22-3,4.79,4.79,0,0,0-.35-.72,6.2,6.2,0,0,0-.47-.67,6.08,6.08,0,0,0-1.32-1.16,7,7,0,0,0-3.33-1.18,5.34,5.34,0,0,0-2.9.65,7.19,7.19,0,0,0-2.21,1.93,12.76,12.76,0,0,0-1.66,2.89,15.7,15.7,0,0,0-.9,3,13.18,13.18,0,0,0-.26,3,10.61,10.61,0,0,0,.57,2.85,13.86,13.86,0,0,0,1.17,2.64c-.42.2-.84.4-1.26.58l.06,0-.11,0-.13,0,.11,0a27.78,27.78,0,0,1-6.51,1.77,26.18,26.18,0,0,1-6.44,0,26.9,26.9,0,0,1-6.65-1.83,19.9,19.9,0,0,1-2.4-1.2,21.85,21.85,0,0,1-2.06-1.39,24.47,24.47,0,0,1-3.89-3.79l.3-.18a16.77,16.77,0,0,0,5.4-5.3,10.21,10.21,0,0,0,1.27-7.68,5.76,5.76,0,0,0-1.8-3,4.4,4.4,0,0,0-3.15-1A5.4,5.4,0,0,0,127,75a7.94,7.94,0,0,0-1.84,1.19,10.37,10.37,0,0,0-1.59,1.72,10,10,0,0,0-1.12,1.82,9.55,9.55,0,0,0-.93,3.83,10.7,10.7,0,0,0,.56,3.76,15.4,15.4,0,0,0,1.78,3.73c-.54.27-1.09.53-1.65.76l.24-.09a28.69,28.69,0,0,1-7.11,2,11.64,11.64,0,0,1-1.45.09,14.93,14.93,0,0,1-1.49-.11,23.65,23.65,0,0,1-5.8-1.69l.24.1a35.58,35.58,0,0,1-7.71-4.48,27.65,27.65,0,0,1-3.4-3.09,18.68,18.68,0,0,0,2.76-1.19A14.8,14.8,0,0,0,101.79,81,9.87,9.87,0,0,0,104,77.91a9.47,9.47,0,0,0,.85-4.09,6.39,6.39,0,0,0-1-3.43,4.73,4.73,0,0,0-1.06-1.17,5.1,5.1,0,0,0-3.26-1.12,6.87,6.87,0,0,0-2,.32,12.89,12.89,0,0,0-5.64,3.92,8.32,8.32,0,0,0-1.36,2.41,8.12,8.12,0,0,0-.08,4.88,12.79,12.79,0,0,0,1.8,3.74c-.19,0-.38.07-.57.09a15.83,15.83,0,0,1-3.83,0,14.72,14.72,0,0,1-3.38-.92,16,16,0,0,1-3.09-1.82,18.36,18.36,0,0,1-3.1-3.13,23.4,23.4,0,0,1-2.82-4.87,27.78,27.78,0,0,1-1.67-5.65,1,1,0,0,0-1-.73,1,1,0,0,0-.25,0m27.48,3.75a3.91,3.91,0,0,1,.83.22,6.27,6.27,0,0,1,.62.36,4.46,4.46,0,0,1,.57.58,5,5,0,0,1,.45.78,5.87,5.87,0,0,1,.32,1.18,7.86,7.86,0,0,1,0,1.68,8.86,8.86,0,0,1-.52,2,9.53,9.53,0,0,1-1,1.66,11.2,11.2,0,0,1-1.76,1.75,16.32,16.32,0,0,1-3.29,1.91,19.15,19.15,0,0,1-1.93.67,14.82,14.82,0,0,1-1.6-2.72,9.54,9.54,0,0,1-.58-2.09,6.87,6.87,0,0,1,0-1.57,6.74,6.74,0,0,1,.38-1.4,7.09,7.09,0,0,1,.86-1.46A10.47,10.47,0,0,1,95.06,72a13.38,13.38,0,0,1,2.4-1.46A7.52,7.52,0,0,1,99,70.13a5.36,5.36,0,0,1,1.06,0M75.43,72.61l0,.07ZM129,76.51l-.12,0,.12,0m.49,0a3.22,3.22,0,0,1,.61.16,3.4,3.4,0,0,1,.52.31,4.23,4.23,0,0,1,.56.56,6.18,6.18,0,0,1,.48.83,7.19,7.19,0,0,1,.38,1.43,9.36,9.36,0,0,1,0,2,10.11,10.11,0,0,1-.61,2.25A11.45,11.45,0,0,1,130,86.32a16.1,16.1,0,0,1-2.64,2.58,20.61,20.61,0,0,1-1.75,1.18,17.11,17.11,0,0,1-1.23-2.27,12.85,12.85,0,0,1-.79-2.72,9.87,9.87,0,0,1,0-2.24A9.42,9.42,0,0,1,124.1,81,10.3,10.3,0,0,1,125.25,79a10.74,10.74,0,0,1,1.54-1.55,6,6,0,0,1,1.12-.67,5.27,5.27,0,0,1,.86-.25,3.86,3.86,0,0,1,.68,0m1.73,1.08a.18.18,0,0,1,0,.07.18.18,0,0,0,0-.07m-6,1.46,0,0,0,0M92.77,80.17s0,.08,0,.13Zm-11.49.47.07.06-.07-.06m15.15,1.51-.09,0,.09,0m66,.44a5.9,5.9,0,0,1,1.16.33,7.6,7.6,0,0,1,1.27.73,5.14,5.14,0,0,1,.66.66,4.45,4.45,0,0,1,.37.64,4.64,4.64,0,0,1,.2.73,4.87,4.87,0,0,1,0,1,7.83,7.83,0,0,1-.48,1.7,15.21,15.21,0,0,1-1.81,3,23.24,23.24,0,0,1-3.95,4A17.89,17.89,0,0,1,158,96.53l-.12.07a13.57,13.57,0,0,1-.7-1.37,12,12,0,0,1-.76-2.61,10.79,10.79,0,0,1,0-2.41,15,15,0,0,1,1-3.47,11,11,0,0,1,1.31-2.29,7,7,0,0,1,1.08-1.09,5.11,5.11,0,0,1,.9-.54,5.24,5.24,0,0,1,.86-.24,5.06,5.06,0,0,1,.87,0m-67.87.51.07.09,0,0,0,0m71,1.27,0,.06,0-.06m-41.94.54a.59.59,0,0,0,0,.13l0-.13m42,3.31a.61.61,0,0,0,0,.12.61.61,0,0,1,0-.12M126.5,91.34a.16.16,0,0,1,.06.08l0,0,0,0m-10.93,2.35h0m41.59,1.55a.58.58,0,0,1,.05.14.78.78,0,0,0-.05-.14m2.73,0a.18.18,0,0,0-.07,0,.18.18,0,0,1,.07,0m26.23.83-.17.14.17-.14m-50.87,2,.09,0-.09,0m25.2,1.42.07,0-.07,0m2.31,1.35a.47.47,0,0,1,.15.06l-.15-.06m17-1.09.06,0h0l-.09,0m-25-1.67h0l0,0-.07,0"/><path class="cls-12" d="M68,79.52a3.25,3.25,0,1,0,3.25-3.25A3.28,3.28,0,0,0,68,79.52"/><path class="cls-12" d="M105.82,77.76a3.25,3.25,0,1,0,3.25-3.25,3.28,3.28,0,0,0-3.25,3.25"/><path class="cls-12" d="M122.07,71.36a3.25,3.25,0,1,0,3.25-3.25,3.28,3.28,0,0,0-3.25,3.25"/><path class="cls-12" d="M146.16,95.8a3.25,3.25,0,1,0,3.25-3.25,3.28,3.28,0,0,0-3.25,3.25"/><path class="cls-12" d="M168,89.85a3.25,3.25,0,1,0,3.25-3.25A3.27,3.27,0,0,0,168,89.85"/><path class="cls-12" d="M164.07,108.9a3.25,3.25,0,1,0,3.25-3.25,3.28,3.28,0,0,0-3.25,3.25"/><path class="cls-13" d="M88,66a3.27,3.27,0,1,0,3.27,3.27A3.32,3.32,0,0,0,88,66"/><path class="cls-13" d="M97,90.65a3.27,3.27,0,1,0,3.27,3.27A3.32,3.32,0,0,0,97,90.65"/><path class="cls-13" d="M116.24,86.44a3.27,3.27,0,1,0,3.27,3.27,3.32,3.32,0,0,0-3.27-3.27"/><path class="cls-13" d="M135.94,85.3a3.28,3.28,0,1,0,3.27,3.28,3.32,3.32,0,0,0-3.27-3.28"/><path class="cls-13" d="M160,72.9a3.27,3.27,0,1,0,3.27,3.27A3.32,3.32,0,0,0,160,72.9"/><path class="cls-13" d="M183,89.82a3.28,3.28,0,1,0,3.27,3.27A3.32,3.32,0,0,0,183,89.82"/><path class="cls-11" d="M168.77,129.65a5.43,5.43,0,0,0-3.45,1.84,5.79,5.79,0,0,0-.91,1.63,6.57,6.57,0,0,0-.39,2,8.89,8.89,0,0,0,0,1.86,14.64,14.64,0,0,0,.44,2.19,15.13,15.13,0,0,0,1.65,3.75,11.69,11.69,0,0,0,1.09,1.45,9.46,9.46,0,0,0,1.73,1.49,13,13,0,0,0,2.56,1.4,26.39,26.39,0,0,1-2.18,3.39,29.06,29.06,0,0,1-4.79,4.81,27.32,27.32,0,0,1-5.68,3.36,19.66,19.66,0,0,1-4.62,1.32,27.88,27.88,0,0,1-6.77-.06c-.77-.11-1.55-.25-2.31-.43a21.48,21.48,0,0,0,1.24-6.2,12.52,12.52,0,0,0-.57-4.75,9.36,9.36,0,0,0-2.23-3.63,6,6,0,0,0-1.46-1.05,4.62,4.62,0,0,0-1.85-.52,3.82,3.82,0,0,0-.89.07,3.06,3.06,0,0,0-.73.21A5.15,5.15,0,0,0,137,145a7.77,7.77,0,0,0-1.3,2,12.62,12.62,0,0,0-1,2.66,9.29,9.29,0,0,0-.12,4,7.49,7.49,0,0,0,1.46,3.14,10.81,10.81,0,0,0,2.75,2.47,16.41,16.41,0,0,0,3.52,1.66l.15,0a23,23,0,0,1-2.17,3.48,25.92,25.92,0,0,1-4.42,4.4l.13-.09-.16.12-.05,0,0,0a30.53,30.53,0,0,1-6.28,3.65,31.33,31.33,0,0,1-7.61,2.08,28.11,28.11,0,0,1-7,0,23.71,23.71,0,0,1-5.8-1.57h0a10,10,0,0,1-.93-.46,10.22,10.22,0,0,1-.87-.59l-.12-.1c.15-.35.3-.7.44-1.06a17.91,17.91,0,0,0,.93-3.37,21.45,21.45,0,0,0,.16-7.62,6.94,6.94,0,0,0-1.37-3.17,4.09,4.09,0,0,0-1.15-1,4.16,4.16,0,0,0-1.75-.51,5.61,5.61,0,0,0-1.87.21,7.52,7.52,0,0,0-2,.82,4.87,4.87,0,0,0-1.3,1.09,5.13,5.13,0,0,0-.89,1.6,5.35,5.35,0,0,0-.26,1.59,7.81,7.81,0,0,0,.21,1.86A13.91,13.91,0,0,0,99.73,166a24.69,24.69,0,0,0,2.39,3.54,25.63,25.63,0,0,0,2.59,2.83,23.54,23.54,0,0,1-2,3.07,24.73,24.73,0,0,1-4.2,4.17,26.24,26.24,0,0,1-5.45,3.16,25.66,25.66,0,0,1-6.21,1.71,28.93,28.93,0,0,1-7.32-.08l.19,0a27.14,27.14,0,0,1-4.89-1.14A19.86,19.86,0,0,0,77.13,179a11.58,11.58,0,0,0,.58-2.39,10.38,10.38,0,0,0,.11-1.24,11,11,0,0,0-.12-1.41,7.23,7.23,0,0,0-2.59-4.38A6.48,6.48,0,0,0,73,168.39a5.11,5.11,0,0,0-2.36-.15A5.88,5.88,0,0,0,67,170.55a7.53,7.53,0,0,0-1.48,4.63,9.71,9.71,0,0,0,.32,2.27,9.45,9.45,0,0,0,.83,2.06,10.26,10.26,0,0,0,2.68,3.11,15.23,15.23,0,0,0,2.38,1.52,17.1,17.1,0,0,1-2.3,2.2A22.19,22.19,0,0,1,64.82,189a21.14,21.14,0,0,1-11,1.49A22.68,22.68,0,0,1,48.35,189a21.5,21.5,0,0,1-4.4-2.56,21.8,21.8,0,0,1-3.57-3.55l-.4-.54a1.12,1.12,0,0,0-.6-.47,1,1,0,0,0-.77.11,1,1,0,0,0-.46.59,1,1,0,0,0,.1.77,21.7,21.7,0,0,0,8.11,6.93,23.11,23.11,0,0,0,20.51,0,22.07,22.07,0,0,0,4.46-2.94A18,18,0,0,0,73.6,185a25.14,25.14,0,0,0,3.9,1.11,30.54,30.54,0,0,0,8.64.5,26.75,26.75,0,0,0,14.93-6.46,25.28,25.28,0,0,0,3.83-4.24,21.51,21.51,0,0,0,1.37-2.18,10.55,10.55,0,0,0,1,.69,15.16,15.16,0,0,0,1.75.76,22.33,22.33,0,0,0,2.27.75,27,27,0,0,0,9.31.79,31.25,31.25,0,0,0,17.43-7.14,24.77,24.77,0,0,0,5.84-7.12c.17-.32.33-.64.49-1,.6.15,1.2.26,1.8.37a28.33,28.33,0,0,0,7.8.27,18.73,18.73,0,0,0,3.63-.75,25.62,25.62,0,0,0,5.4-2.48,28.94,28.94,0,0,0,8.81-8.33,23.15,23.15,0,0,0,1.6-2.66l.39.11a24,24,0,0,0,11,.33,21.28,21.28,0,0,0,10.43-6,24,24,0,0,0,4.61-6.38,1,1,0,0,0-1.73-1,22.69,22.69,0,0,1-2.29,3.69l.06-.07-.07.09-.08.11.06-.08a25.76,25.76,0,0,1-4.17,4.18,21.57,21.57,0,0,1-4.43,2.65,18.58,18.58,0,0,1-4.27,1.14,24.18,24.18,0,0,1-5.89,0,20.18,20.18,0,0,1-2.78-.58q.18-.41.33-.81a17.94,17.94,0,0,0,1.06-4.15,19.26,19.26,0,0,0,.13-3.87,12.4,12.4,0,0,0-.81-3.91,7.18,7.18,0,0,0-.86-1.59,5.86,5.86,0,0,0-1.43-1.38,4.81,4.81,0,0,0-1.64-.67,6,6,0,0,0-1.19-.12,7.08,7.08,0,0,0-1.13.09m1.63,1.93a4.74,4.74,0,0,1,.84.23,3.76,3.76,0,0,1,.61.36,4.69,4.69,0,0,1,.63.63,7.08,7.08,0,0,1,.64,1.14,10.39,10.39,0,0,1,.63,2.45,18.64,18.64,0,0,1,0,4.54,18.43,18.43,0,0,1-1.18,4.24l-.11.26a13.81,13.81,0,0,1-2.7-1.53,8.88,8.88,0,0,1-1.32-1.28A13.4,13.4,0,0,1,167,140.1a14.67,14.67,0,0,1-.89-3.19,9.93,9.93,0,0,1,0-2.11,5.92,5.92,0,0,1,.34-1.25,5.2,5.2,0,0,1,.42-.72,3.94,3.94,0,0,1,.5-.5,4.5,4.5,0,0,1,.73-.43,5.91,5.91,0,0,1,1.15-.3,7.1,7.1,0,0,1,1.22,0m-4,1.81a.49.49,0,0,0,0,.11.49.49,0,0,1,0-.11m25.23,9.48-.15.11.15-.11m-19.15,2.35-.07.16a1.11,1.11,0,0,1,.07-.16m-32.1.25a3.78,3.78,0,0,1,.6.17,4.85,4.85,0,0,1,.83.48,7,7,0,0,1,1,1,9,9,0,0,1,1,1.64,11.32,11.32,0,0,1,.62,2.28,17.14,17.14,0,0,1-.09,3.92,20.91,20.91,0,0,1-1,4.12c-.49-.16-1-.34-1.45-.54a13.55,13.55,0,0,1-2.72-1.55,9.2,9.2,0,0,1-1.41-1.38,8.19,8.19,0,0,1-.82-1.36,7.44,7.44,0,0,1-.4-1.49,7.83,7.83,0,0,1,0-1.81,11.51,11.51,0,0,1,.74-2.64,8.2,8.2,0,0,1,.93-1.66,5.29,5.29,0,0,1,.7-.72,3.5,3.5,0,0,1,.53-.31,4.28,4.28,0,0,1,.51-.15h.54m-2.33,1.23-.05.06.05-.06m-.79,1.38-.05.12.05-.12m27.26,7.35-.14.1.14-.1M139,156.91l.11.08-.11-.08m.13.1.08.06-.08-.06m-34.64.2a3.53,3.53,0,0,1,.56.14,3.07,3.07,0,0,1,.43.26,4.16,4.16,0,0,1,.42.42,5.86,5.86,0,0,1,.48.84,9.07,9.07,0,0,1,.5,2,21.06,21.06,0,0,1-.08,5.08c-.11.73-.23,1.46-.4,2.18a16.39,16.39,0,0,1-.77,2.37,26.05,26.05,0,0,1-2.2-2.5,21.5,21.5,0,0,1-2.65-4.42,2.6,2.6,0,0,1,.1.25,11,11,0,0,1-.73-2.45,5.81,5.81,0,0,1,0-1.25,4,4,0,0,1,.21-.82,4.88,4.88,0,0,1,.34-.58,4.42,4.42,0,0,1,.53-.53,5.62,5.62,0,0,1,.92-.53,7.34,7.34,0,0,1,1.52-.44,4.71,4.71,0,0,1,.84,0m1.92,1.74a.36.36,0,0,1,0,.09.36.36,0,0,0,0-.09M71.93,170.19a4.52,4.52,0,0,1,.89.25,6.75,6.75,0,0,1,.93.56,9.44,9.44,0,0,1,1,1,7.15,7.15,0,0,1,.67,1.13,6.48,6.48,0,0,1,.35,1.29,8.15,8.15,0,0,1,0,1.78,12.81,12.81,0,0,1-.83,2.9,19.79,19.79,0,0,1-2,3.43,14.12,14.12,0,0,1-2.29-1.39A10.79,10.79,0,0,1,69,179.5a8.57,8.57,0,0,1-1-1.63,9.33,9.33,0,0,1-.51-1.88,8.15,8.15,0,0,1,0-1.71,7.31,7.31,0,0,1,.39-1.44,6.15,6.15,0,0,1,.66-1.14,6,6,0,0,1,.8-.79,5.57,5.57,0,0,1,.85-.5,6,6,0,0,1,.83-.22,4.12,4.12,0,0,1,.86,0m.95.28.1,0-.1,0m.94.58.07.06-.07-.06m-5.12.5-.06.09.06-.09m60.72,1-.1.05.1-.05M75,179l0,.06,0-.06m-6.08.39.08.11a1,1,0,0,1-.08-.11m29.71.21-.07.06.07-.06m-.1.08h0m37.3-10.82h0l0,0-.05,0m60-30.16s0,0,0,0v0l0,.05"/><path class="cls-12" d="M176.47,135a3.25,3.25,0,1,0,3.25-3.25,3.28,3.28,0,0,0-3.25,3.25"/><path class="cls-12" d="M160.41,163.46a3.25,3.25,0,1,0,3.25-3.25,3.28,3.28,0,0,0-3.25,3.25"/><path class="cls-12" d="M132.86,140.72a3.25,3.25,0,1,0,3.25-3.25,3.28,3.28,0,0,0-3.25,3.25"/><path class="cls-12" d="M134.81,176.4a3.25,3.25,0,1,0,3.25-3.25,3.28,3.28,0,0,0-3.25,3.25"/><path class="cls-12" d="M111.22,163a3.25,3.25,0,1,0,3.25-3.25,3.28,3.28,0,0,0-3.25,3.25"/><path class="cls-12" d="M93.81,174.31a3.25,3.25,0,1,0,3.25-3.25,3.28,3.28,0,0,0-3.25,3.25"/><path class="cls-12" d="M83.35,190.94a3.25,3.25,0,1,0,3.25-3.25,3.28,3.28,0,0,0-3.25,3.25"/><path class="cls-12" d="M60.19,167.44a3.25,3.25,0,1,0,3.25-3.25,3.28,3.28,0,0,0-3.25,3.25"/><path class="cls-12" d="M37.22,191a3.25,3.25,0,1,0,3.25-3.25A3.28,3.28,0,0,0,37.22,191"/><path class="cls-13" d="M196.9,142.89a3.28,3.28,0,1,0,3.27,3.28,3.32,3.32,0,0,0-3.27-3.28"/><path class="cls-13" d="M159.85,132.35a3.27,3.27,0,1,0,3.27,3.27,3.32,3.32,0,0,0-3.27-3.27"/><path class="cls-13" d="M150.69,147.87a3.27,3.27,0,1,0,3.27,3.27,3.31,3.31,0,0,0-3.27-3.27"/><path class="cls-13" d="M131.56,157.79a3.28,3.28,0,1,0,3.27,3.27,3.32,3.32,0,0,0-3.27-3.27"/><path class="cls-13" d="M115.7,178.8a3.27,3.27,0,1,0,3.27,3.27,3.32,3.32,0,0,0-3.27-3.27"/><path class="cls-13" d="M81.83,169.43a3.28,3.28,0,1,0,3.27,3.27,3.32,3.32,0,0,0-3.27-3.27"/><path class="cls-13" d="M57.24,182.27a3.27,3.27,0,1,0,3.27,3.27,3.31,3.31,0,0,0-3.27-3.27"/><path class="cls-11" d="M29.26,209.12a6.7,6.7,0,0,0-1.24.34A12,12,0,0,0,25.3,211a18.93,18.93,0,0,0-4.18,4.2,9.54,9.54,0,0,0-.58.92,11.26,11.26,0,0,0-.55,1.23c-.1.24-.19.48-.27.73a20.74,20.74,0,0,1-4.45-1.19,13.11,13.11,0,0,1-2.55-1.45,8.06,8.06,0,0,1-1.32-1.29c-.14-.18-.26-.37-.39-.57a1,1,0,0,0-1.72,1c1.7,2.81,4.89,4.27,8,5a19.09,19.09,0,0,0,2,.4c-.07.4-.13.8-.18,1.21a15.88,15.88,0,0,0,.94,7.35,18,18,0,0,0,4,6.22A17.64,17.64,0,0,0,26.69,237a17.24,17.24,0,0,0,3.42,1.75A20.84,20.84,0,0,0,36.65,240a20.37,20.37,0,0,0,2.21,0,25.57,25.57,0,0,0,1,3.18A28,28,0,0,0,46.37,253a17.94,17.94,0,0,0,4.23,3.12,18.9,18.9,0,0,0,5.81,1.71,27.51,27.51,0,0,0,7.25.21c.64-.07,1.28-.16,1.91-.27A20.92,20.92,0,0,0,68.34,262a21.5,21.5,0,0,0,5.77,4.71,22.74,22.74,0,0,0,7,2.57,23.1,23.1,0,0,0,3.53.38,21.19,21.19,0,0,0,3.81-.29,19.43,19.43,0,0,0,3.17-.82,25.53,25.53,0,0,0,1.88,2.38,19.91,19.91,0,0,0,2,1.91,16.84,16.84,0,0,0,2.58,1.77,25.64,25.64,0,0,0,3.62,1.65,26.64,26.64,0,0,0,4.36,1.22,27.65,27.65,0,0,0,8.61.38,23.37,23.37,0,0,0,3.88-.77,18.83,18.83,0,0,0,2.06-.76c.3.32.62.63,1,.92a19.42,19.42,0,0,0,4,2.71,31.2,31.2,0,0,0,20.59,2.24,19,19,0,0,0,5.06-2.05,20.91,20.91,0,0,0,9.64,3.26,27,27,0,0,0,5.82,0,28.79,28.79,0,0,0,5.67-1.14,22.54,22.54,0,0,0,4.93-2.17,17.29,17.29,0,0,0,2.55,2,19.33,19.33,0,0,0,4.94,2.24,25,25,0,0,0,5.56,1,28.08,28.08,0,0,0,5.72-.24,24.37,24.37,0,0,0,5.38-1.41,19.26,19.26,0,0,0,4.66-2.57,15.35,15.35,0,0,0,1.87-1.64l.09-.11.13.05a14.49,14.49,0,0,0,2.82.68,21.06,21.06,0,0,0,5.88,0,24.93,24.93,0,0,0,5.76-1.44,25.49,25.49,0,0,0,2.5-1.13,18.94,18.94,0,0,0,2.7-1.76,21.34,21.34,0,0,0,3-2.81,24.27,24.27,0,0,0,2.58-3.62c.25-.42.48-.84.71-1.27a1,1,0,1,0-1.73-1,29.16,29.16,0,0,1-2.36,3.75,22.11,22.11,0,0,1-3.3,3.33,22.74,22.74,0,0,1-2,1.35,19,19,0,0,1-2.12,1.05,24.76,24.76,0,0,1-5.84,1.58,21.45,21.45,0,0,1-5.25,0l.27,0a17.06,17.06,0,0,1-2.36-.5l.49-.71a22.19,22.19,0,0,0,3-6.38,13.1,13.1,0,0,0,.5-3.23,7.75,7.75,0,0,0-.55-3.2,6.85,6.85,0,0,0-.72-1.3,7.94,7.94,0,0,0-1.15-1.24,6.12,6.12,0,0,0-3.12-1.55,4.64,4.64,0,0,0-1.44,0,5.48,5.48,0,0,0-1.3.42,4.7,4.7,0,0,0-1.17.76,7.76,7.76,0,0,0-1.19,1.24,11.09,11.09,0,0,0-2.19,6.09,10.69,10.69,0,0,0,.35,3,11.66,11.66,0,0,0,1.12,2.85,10.59,10.59,0,0,0,3.77,3.81,2.48,2.48,0,0,0,.31.18,12.65,12.65,0,0,1-1,.9,18.85,18.85,0,0,1-3.87,2.24l.1,0-.11,0-.13.06.12-.05a24.58,24.58,0,0,1-5.77,1.53,26.58,26.58,0,0,1-6.55,0,22.75,22.75,0,0,1-5.44-1.44,17.87,17.87,0,0,1-3.55-2c-.31-.25-.62-.51-.91-.78a15.94,15.94,0,0,0,2.3-2.2,22.75,22.75,0,0,0,3.74-6.07,9.84,9.84,0,0,0,.71-6.7,7,7,0,0,0-1.82-2.8,4.75,4.75,0,0,0-2.68-1.37,6.06,6.06,0,0,0-5.08,2.25,11.77,11.77,0,0,0-1.8,2.57,12.18,12.18,0,0,0-1.15,3.19,10.89,10.89,0,0,0-.15,3,16.27,16.27,0,0,0,.5,3,13.69,13.69,0,0,0,2.39,4.78,21.57,21.57,0,0,1-2.26,1.12l.24-.1a27.08,27.08,0,0,1-6.49,1.74,28.59,28.59,0,0,1-7.1,0A22.61,22.61,0,0,1,155,279.9a17.46,17.46,0,0,1-2-1,11.93,11.93,0,0,0,1.22-1.14,17.93,17.93,0,0,0,1.73-2.25,23.27,23.27,0,0,0,1.86-3.3,14.47,14.47,0,0,0,1.6-6.94,6.57,6.57,0,0,0-.87-2.9,7.3,7.3,0,0,0-1-1.31,6.77,6.77,0,0,0-1.42-1.14,5.18,5.18,0,0,0-1.26-.53,4.66,4.66,0,0,0-1.29-.16,5.41,5.41,0,0,0-2.68.8,7.44,7.44,0,0,0-1.13.8,9.82,9.82,0,0,0-1,1,12.89,12.89,0,0,0-1.84,2.74,11.35,11.35,0,0,0-1.38,5.89,12.59,12.59,0,0,0,.53,2.72,12.91,12.91,0,0,0,1.12,2.59,12.48,12.48,0,0,0,2.4,3c-.39.21-.8.4-1.21.58l.24-.1a23,23,0,0,1-5.65,1.52,31.25,31.25,0,0,1-7.85,0,29.14,29.14,0,0,1-7.17-1.93,21,21,0,0,1-4.34-2.5,13.29,13.29,0,0,1-1-.92,32.49,32.49,0,0,0,4.12-2.6,23.31,23.31,0,0,0,4.89-4.62,13.21,13.21,0,0,0,1.54-2.55,8.94,8.94,0,0,0,.49-1.34,8,8,0,0,0,.26-1.61,6.78,6.78,0,0,0-.39-2.75,7.75,7.75,0,0,0-1.89-2.93,5.44,5.44,0,0,0-2.51-1.37,6.42,6.42,0,0,0-3,.08,8.68,8.68,0,0,0-1.4.51,13.65,13.65,0,0,0-1.36.73,13.71,13.71,0,0,0-4.45,4.66,12.82,12.82,0,0,0-1.09,2.79,13,13,0,0,0-.43,5,11.77,11.77,0,0,0,1.41,4.35,10.76,10.76,0,0,0,.61,1,20.33,20.33,0,0,1-4.42,1.12,28.13,28.13,0,0,1-6.8,0h.06a29.1,29.1,0,0,1-6.8-1.83,20.37,20.37,0,0,1-4.12-2.32l0,0,0,0-.15-.11.13.09a20.43,20.43,0,0,1-3.2-3.24l-.45-.62c.75-.35,1.48-.74,2.19-1.15a16.65,16.65,0,0,0,5.65-5.39,12.2,12.2,0,0,0,1.4-3.33,9.35,9.35,0,0,0,.28-3.37,5.92,5.92,0,0,0-.84-2.55,4.56,4.56,0,0,0-2-1.77,6,6,0,0,0-2.84-.45,11.25,11.25,0,0,0-3.75,1.06,8.7,8.7,0,0,0-5.3,9.33A16.62,16.62,0,0,0,90,265.84c.16.31.32.62.49.92a19,19,0,0,1-3.07.72,20.57,20.57,0,0,1-5,0,22.69,22.69,0,0,1-5.3-1.48,23.08,23.08,0,0,1-4.48-2.61,21,21,0,0,1-3.48-3.45l.11.15-.12-.15,0-.06,0,.05a19.46,19.46,0,0,1-1.63-2.56,22.67,22.67,0,0,0,3-1.1,15.45,15.45,0,0,0,5.57-4.19A13.43,13.43,0,0,0,79,246.31a7.67,7.67,0,0,0-.72-5.54A5.24,5.24,0,0,0,76.32,239a8.08,8.08,0,0,0-6.07-.44,7.46,7.46,0,0,0-2.43,1.39,8.52,8.52,0,0,0-1.67,2,12,12,0,0,0-1.26,2.66,18.12,18.12,0,0,0-1,5.8A19.69,19.69,0,0,0,64.1,253a16,16,0,0,0,.55,2.56l.13.36-.67.1a27.23,27.23,0,0,1-6.75,0,21.9,21.9,0,0,1-5-1.21,14.88,14.88,0,0,1-3.09-1.85A23.28,23.28,0,0,1,45.42,249,28.76,28.76,0,0,1,42,243.1a24.94,24.94,0,0,1-1.09-3.26,21.92,21.92,0,0,0,2.79-.58,17.65,17.65,0,0,0,3.07-1.21,13.68,13.68,0,0,0,2.86-2,11.36,11.36,0,0,0,2-2.44A10.76,10.76,0,0,0,53,230.31a9.37,9.37,0,0,0,.19-1.48,7,7,0,0,0-.11-1.38,4.38,4.38,0,0,0-1.21-2.34,3.93,3.93,0,0,0-1-.69,4,4,0,0,0-1.27-.36,7.65,7.65,0,0,0-3.63.51,12.32,12.32,0,0,0-4.85,3.15,10.7,10.7,0,0,0-2.42,4.54,14.34,14.34,0,0,0-.29,5.34c0,.15,0,.3,0,.44a22.71,22.71,0,0,1-3.68-.15,19.89,19.89,0,0,1-4.56-1.19A17.18,17.18,0,0,1,27,234.79a17.62,17.62,0,0,1-2.89-2.9,18.27,18.27,0,0,1-2-3.51,17,17,0,0,1-1-3.71,15.74,15.74,0,0,1,0-3.63c0-.28.09-.55.15-.83.48,0,1,.07,1.43.08a24.18,24.18,0,0,0,5.24-.41,13.65,13.65,0,0,0,4.21-1.49,7.52,7.52,0,0,0,1.47-1.1,5,5,0,0,0,1.06-1.59,4.57,4.57,0,0,0-.2-3.62,6.07,6.07,0,0,0-1.42-2A4.22,4.22,0,0,0,32,209.4a4.31,4.31,0,0,0-.6-.22,5.89,5.89,0,0,0-.84-.14h-.33a5.62,5.62,0,0,0-.92.09m1.31,1.93a4.44,4.44,0,0,1,.52.15,3.59,3.59,0,0,1,.47.27,3.94,3.94,0,0,1,.54.54,7.3,7.3,0,0,1,.56,1,4.33,4.33,0,0,1,.25.87,3,3,0,0,1,0,.6,3,3,0,0,1-.16.57,3.65,3.65,0,0,1-.32.54,6.62,6.62,0,0,1-.71.69,8.39,8.39,0,0,1-1.52.86,16.65,16.65,0,0,1-3.88,1,25.61,25.61,0,0,1-4.55.13c.07-.2.14-.39.22-.59a9.55,9.55,0,0,1,1.12-1.83,18.08,18.08,0,0,1,3-3,12.62,12.62,0,0,1,2.36-1.44,7.06,7.06,0,0,1,1.29-.37,4.7,4.7,0,0,1,.84,0m-15.52,5.71.07,0-.07,0M49.29,226a3.76,3.76,0,0,1,.68.17c.15.08.29.17.43.26a2.57,2.57,0,0,1,.28.29,3.6,3.6,0,0,1,.31.54,5.46,5.46,0,0,1,.2.77,6.47,6.47,0,0,1,0,1.32,10.93,10.93,0,0,1-.51,1.84,11.72,11.72,0,0,1-1.31,2.24,11.6,11.6,0,0,1-1.69,1.67,14.51,14.51,0,0,1-2.86,1.64,19.58,19.58,0,0,1-4.33,1.13l0-.22a15.74,15.74,0,0,1,0-3.63,12,12,0,0,1,.7-2.63,10.84,10.84,0,0,1,1.1-1.86A9.93,9.93,0,0,1,43.73,228a12.59,12.59,0,0,1,2.39-1.38,10.44,10.44,0,0,1,2.13-.63,6,6,0,0,1,1,0M43.82,228l-.07.06.07-.06m-.12.1-.08.06.08-.06m-1.39,1.34-.06.09.06-.09m-1.14,1.86,0,.07,0-.07M24,231.75a.64.64,0,0,1,.1.13.64.64,0,0,0-.1-.13m49.71,8.44a7.55,7.55,0,0,1,1.32.35,5.78,5.78,0,0,1,.8.47,4.3,4.3,0,0,1,.57.56,4.79,4.79,0,0,1,.46.79,7,7,0,0,1,.29,1.09,9.38,9.38,0,0,1,0,1.91,12.55,12.55,0,0,1-.75,2.63,13.94,13.94,0,0,1-1.48,2.5,14.37,14.37,0,0,1-2.2,2.21,17.45,17.45,0,0,1-3.4,2,20.78,20.78,0,0,1-2.53.83c-.14-.38-.27-.78-.38-1.18a14.34,14.34,0,0,1-.29-1.48,19.52,19.52,0,0,1,0-4.83,16.83,16.83,0,0,1,.94-3.56,11.14,11.14,0,0,1,1.24-2.14,7.59,7.59,0,0,1,1.06-1.06,6.46,6.46,0,0,1,1.16-.69,6.91,6.91,0,0,1,1.4-.38,8.83,8.83,0,0,1,1.78,0m2.59,1.25,0,.06,0-.06m-34.39,1.45,0,.09,0-.09m25.26,1.33,0,.08,0-.08m-1,3.78a1.1,1.1,0,0,0,0,.18,1.1,1.1,0,0,1,0-.18m32.37,3.76a4.63,4.63,0,0,1,.81.22,3.85,3.85,0,0,1,.62.36,4.36,4.36,0,0,1,.43.43,4.57,4.57,0,0,1,.42.71,5.56,5.56,0,0,1,.3,1.15,7.62,7.62,0,0,1,0,1.72,11.59,11.59,0,0,1-.73,2.57A13.16,13.16,0,0,1,99,261.15a16.31,16.31,0,0,1-2.57,2.55,21.09,21.09,0,0,1-4,2.35,20.48,20.48,0,0,1-1.12-2.19,15.93,15.93,0,0,1-1-3.52,10.62,10.62,0,0,1,0-2.52,9.25,9.25,0,0,1,.44-1.62,8.74,8.74,0,0,1,.81-1.38,8.85,8.85,0,0,1,1.19-1.18,11,11,0,0,1,2.1-1.21,11.44,11.44,0,0,1,2.35-.67,6.37,6.37,0,0,1,1.31,0m-3.8.73-.06,0,.06,0m6,.79a.36.36,0,0,1,0,.09l0-.09m-31.5,1.42-.1.05.1-.05m21.5,1.61,0,.07,0-.07m37.55,1.19a4.71,4.71,0,0,1,.84.22,6.3,6.3,0,0,1,.8.45,7,7,0,0,1,.77.77,8,8,0,0,1,.81,1.37,6.33,6.33,0,0,1,.36,1.34,6.87,6.87,0,0,1,0,1.36,8.37,8.37,0,0,1-.49,1.69,13.09,13.09,0,0,1-1.4,2.33,23.57,23.57,0,0,1-3.79,3.68,31.39,31.39,0,0,1-5,3.14,11.35,11.35,0,0,1-1.22-2.11,9.64,9.64,0,0,1-.65-5.12,14.51,14.51,0,0,1,.89-3.3,10.78,10.78,0,0,1,1.25-2.06,13.64,13.64,0,0,1,2.09-2.07,11.63,11.63,0,0,1,2-1.22,8.12,8.12,0,0,1,1.6-.46,5.78,5.78,0,0,1,1.1,0m-37.95.36a.59.59,0,0,0,0,.13.51.51,0,0,1,0-.13m40.25.93.05.07-.05-.07m-40.25,1.38s0,.09,0,.13,0-.08,0-.13m8.81.86,0,.06,0-.06m54.92.2a4.12,4.12,0,0,1,.76.22,6.19,6.19,0,0,1,.82.5,10.22,10.22,0,0,1,1,1.06,5.51,5.51,0,0,1,.49.85,7.08,7.08,0,0,1,.31,1.18,10,10,0,0,1,0,2,17.18,17.18,0,0,1-1.09,3.73,24.21,24.21,0,0,1-2.79,4.77,12.18,12.18,0,0,1-2,2l-.16.12a12.33,12.33,0,0,1-1.59-1.64,11.73,11.73,0,0,1-1.42-2.42,13.56,13.56,0,0,1-.78-2.89,7.92,7.92,0,0,1,0-1.82,12.42,12.42,0,0,1,.78-2.72,14.52,14.52,0,0,1,1.45-2.5,10.78,10.78,0,0,1,1.49-1.53,7.79,7.79,0,0,1,1.11-.67,5.73,5.73,0,0,1,.9-.25,4.45,4.45,0,0,1,.73,0m26.91.49a3.69,3.69,0,0,1,.65.18,5,5,0,0,1,.63.38,5.52,5.52,0,0,1,1.57,2.06,5.89,5.89,0,0,1,.26,1,8.66,8.66,0,0,1,0,1.61,13.55,13.55,0,0,1-.84,2.94,23.09,23.09,0,0,1-2.76,4.7,17,17,0,0,1-2.71,2.79l-.1.07-.12-.15a14.05,14.05,0,0,1-1.52-2.63,14.39,14.39,0,0,1-.84-3.17,13.29,13.29,0,0,1-.07-2.82,10.87,10.87,0,0,1,.65-2.31,12.62,12.62,0,0,1,1.4-2.41,9.76,9.76,0,0,1,1.39-1.41,7.46,7.46,0,0,1,1-.6,4.42,4.42,0,0,1,.79-.22,4.12,4.12,0,0,1,.61,0m.76.22.06,0-.06,0m25.85.09a4.31,4.31,0,0,1,.85.24,7.05,7.05,0,0,1,1,.61,8.25,8.25,0,0,1,1.07,1.06,5.7,5.7,0,0,1,.52.9,6.65,6.65,0,0,1,.38,1.39,9.92,9.92,0,0,1,0,2.11,16.73,16.73,0,0,1-1.09,3.85,24.1,24.1,0,0,1-2.75,4.74,11.06,11.06,0,0,1-1.57-1,9.74,9.74,0,0,1-1.5-1.51,9.3,9.3,0,0,1-1.09-1.88,12.63,12.63,0,0,1-.71-2.63,10,10,0,0,1,0-2.05,11.37,11.37,0,0,1,.64-2.3,10.64,10.64,0,0,1,1.12-1.94,7.82,7.82,0,0,1,.91-.91,5.78,5.78,0,0,1,.86-.52,4.12,4.12,0,0,1,.69-.18,4.85,4.85,0,0,1,.66,0m-75.7.83s0,.05,0,.08,0-.06,0-.08m-59.23.43.07,0-.07,0m24,.29-.14.11.14-.11m80.64.23-.06.07.06-.07M148.39,266a.61.61,0,0,0,0,.12.61.61,0,0,1,0-.12m27.32.34-.07.18.07-.18m-81.87,1.81c0,.05.09.11.14.17s-.09-.12-.14-.17m53.7.75v0Zm8.81,1.69a.36.36,0,0,0,0,.09.36.36,0,0,1,0-.09m-.06.13,0,.1,0-.1m-8.06,2.66a1.42,1.42,0,0,1,.08.18l-.08-.18m-46.85.55.13.06-.13-.06m52.28,1.36-.08.1.08-.1m24.18,1.95-.07.06Zm27.25,2.1-.1.08.1-.08m-50.22.47.09,0-.09,0m.16.07.07,0-.07,0m28.24,1.73.16.06-.16-.06m17.94,0h0m-104-10h0l0,0,0,0m-28-11.71h0"/><path class="cls-12" d="M10.56,222.35a3.25,3.25,0,1,0,3.25-3.25,3.28,3.28,0,0,0-3.25,3.25"/><path class="cls-12" d="M28.08,232.23A3.25,3.25,0,1,0,31.33,229a3.28,3.28,0,0,0-3.25,3.25"/><path class="cls-12" d="M43.45,220.49a3.25,3.25,0,1,0,3.25-3.25,3.27,3.27,0,0,0-3.25,3.25"/><path class="cls-12" d="M41.3,257.92a3.25,3.25,0,1,0,3.25-3.25,3.28,3.28,0,0,0-3.25,3.25"/><path class="cls-12" d="M70.34,234.27A3.25,3.25,0,1,0,73.59,231a3.28,3.28,0,0,0-3.25,3.25"/><path class="cls-12" d="M80.39,262.56a3.25,3.25,0,1,0,3.25-3.25,3.28,3.28,0,0,0-3.25,3.25"/><path class="cls-12" d="M99.62,248a3.25,3.25,0,1,0,3.25-3.25A3.28,3.28,0,0,0,99.62,248"/><path class="cls-12" d="M108.93,282.27a3.25,3.25,0,1,0,3.25-3.25,3.28,3.28,0,0,0-3.25,3.25"/><path class="cls-12" d="M113.42,257.05a3.25,3.25,0,1,0,3.25-3.25,3.27,3.27,0,0,0-3.25,3.25"/><path class="cls-12" d="M132.3,271.5a3.25,3.25,0,1,0,3.25-3.25,3.28,3.28,0,0,0-3.25,3.25"/><path class="cls-12" d="M143.51,258.13a3.25,3.25,0,1,0,3.25-3.25,3.28,3.28,0,0,0-3.25,3.25"/><path class="cls-12" d="M167.5,287.08a3.25,3.25,0,1,0,3.25-3.25,3.28,3.28,0,0,0-3.25,3.25"/><path class="cls-12" d="M170.62,258.21a3.25,3.25,0,1,0,3.25-3.25,3.28,3.28,0,0,0-3.25,3.25"/><path class="cls-12" d="M194.61,258.77a3.25,3.25,0,1,0,3.25-3.25,3.28,3.28,0,0,0-3.25,3.25"/><path class="cls-12" d="M214.77,266.4a3.25,3.25,0,1,0,3.25-3.25,3.28,3.28,0,0,0-3.25,3.25"/><path class="cls-13" d="M37.7,205.83A3.27,3.27,0,1,0,41,209.1a3.32,3.32,0,0,0-3.27-3.27"/><path class="cls-13" d="M53.76,234.82A3.28,3.28,0,1,0,57,238.09a3.32,3.32,0,0,0-3.27-3.27"/><path class="cls-13" d="M70.87,266.08a3.27,3.27,0,1,0,3.27,3.27,3.32,3.32,0,0,0-3.27-3.27"/><path class="cls-13" d="M80.45,249a3.27,3.27,0,1,0,3.27,3.27A3.32,3.32,0,0,0,80.45,249"/><path class="cls-13" d="M103.61,261.81a3.28,3.28,0,1,0,3.27,3.27,3.32,3.32,0,0,0-3.27-3.27"/><path class="cls-13" d="M134,249.66a3.27,3.27,0,1,0,3.27,3.27,3.3,3.3,0,0,0-3.27-3.27"/><path class="cls-13" d="M146.94,282.94a3.28,3.28,0,1,0,3.27,3.28,3.32,3.32,0,0,0-3.27-3.28"/><path class="cls-13" d="M162.71,267.55a3.27,3.27,0,1,0,3.27,3.27,3.32,3.32,0,0,0-3.27-3.27"/><path class="cls-13" d="M188.74,269.71A3.28,3.28,0,1,0,192,273a3.32,3.32,0,0,0-3.27-3.28"/><path class="cls-13" d="M204.8,282.71a3.28,3.28,0,1,0,3.27,3.28,3.32,3.32,0,0,0-3.27-3.28"/><path class="cls-13" d="M232,275.41a3.27,3.27,0,1,0,3.27,3.27,3.32,3.32,0,0,0-3.27-3.27"/></g></g></svg>