<svg xmlns="http://www.w3.org/2000/svg" viewBox="0 0 243.99 366.86"><defs><style>.cls-1{fill:#7b4526;}.cls-2{fill:#6b3c20;}.cls-3{fill:#11a190;}.cls-4{fill:#0e8a7a;}.cls-5{fill:#0b7467;}.cls-6{fill:#13b4a0;}.cls-7{fill:#eaa613;}.cls-8{fill:#fff1cb;}.cls-9{fill:#f3e5c2;}.cls-10{fill:#fefefe;}.cls-11{fill:#ff0042;}.cls-12{fill:#ff2464;}.cls-13{fill:#dc003a;}</style></defs><g id="Capa_2" data-name="Capa 2"><g id="OBJECTS"><path class="cls-1" d="M140.77,355.81c-.27-1.81-.65-3.59-1.09-5.37-.12-.8-.23-1.59-.35-2.39-.4-2.62-.79-5.23-1.15-7.85v-.11l0-.14c-.05-.34-.09-.68-.13-1a.8.8,0,0,0,.2-.51c.18-5.11.32-10.55,0-15.95a67.36,67.36,0,0,0-1-8.15,34.61,34.61,0,0,0-2.11-7.31,23.07,23.07,0,0,0-9-10.24,23.39,23.39,0,0,0-6.35-2.79,20.4,20.4,0,0,0-5.28-.71q-.77,0-1.53.06a16.46,16.46,0,0,0-6.48,1.84,15.9,15.9,0,0,0-4.74,4,22.61,22.61,0,0,0-3.25,5.63,28.1,28.1,0,0,0-1.74,6.28,28.82,28.82,0,0,0-.28,7.44.83.83,0,0,0,.22.54.79.79,0,0,0,.54.22.66.66,0,0,0,.23,0c-.44,8.69-1.14,16.6-2.15,24.17-.43,3.18-.93,6.33-1.48,9.39a29.23,29.23,0,0,0-.65,2.95,1.1,1.1,0,0,0,0,.25A4.12,4.12,0,0,0,93,357.1c0,5.39,10.76,9.76,24,9.76s24-4.37,24-9.76A4.16,4.16,0,0,0,140.77,355.81Z"/><path class="cls-2" d="M113,293.3a16.64,16.64,0,0,0-6.49,1.85,15.8,15.8,0,0,0-4.74,4,22.37,22.37,0,0,0-3.26,5.63,28.21,28.21,0,0,0-1.75,6.3,29.2,29.2,0,0,0-.27,7.43.86.86,0,0,0,.22.55.8.8,0,0,0,.56.23.79.79,0,0,0,.24-.05c-.34,6.22-.79,12-1.38,17.52a25.18,25.18,0,0,0,1.54,5.44l0-.07a17.62,17.62,0,0,0,1,2,16.43,16.43,0,0,0,1.08,1.63,12.67,12.67,0,0,0,1.08,1.23,14.53,14.53,0,0,0,1.1,1h0l0,0,0,0,0,0h0a11.86,11.86,0,0,0,1.25.84c.43.24.87.46,1.33.66l-.06,0a14.53,14.53,0,0,0,1.61.55,16.54,16.54,0,0,0,1.86.37h0a13,13,0,0,0,1.75.13,11,11,0,0,0,1.52-.1,9.37,9.37,0,0,0,1.28-.26,8.36,8.36,0,0,0,1.22-.42l0,0a9.5,9.5,0,0,0,1.23-.63,11,11,0,0,0,1-.68h0a10.24,10.24,0,0,0,1.1-1,13.48,13.48,0,0,0,1-1.14,18,18,0,0,0,2.27-4s0,0,0,.07c.31-.74.58-1.5.83-2.26a.23.23,0,0,1,.23-.18.25.25,0,0,1,.25.18c.08.22.17.44.26.66l0-.05a19.47,19.47,0,0,0,2.47,4.2,18.31,18.31,0,0,0,3.3,3.34,14.35,14.35,0,0,0,3,1.76l-.06,0a10.32,10.32,0,0,0,2.54.71,9.1,9.1,0,0,0,2,0h0a9,9,0,0,0,1-.22,7.32,7.32,0,0,0,.93-.33l0,0a7.82,7.82,0,0,0,1-.53c.31-.19.61-.4.9-.62l.55-.46-.08-.51-.09-.59c-.37-2.42-.73-4.83-1-7.25l0-.11,0-.14,0-.34,0-.23c0-.15,0-.3-.05-.45a.8.8,0,0,0,.2-.51c.18-5.11.32-10.56,0-15.95a67.42,67.42,0,0,0-1-8.14,34.67,34.67,0,0,0-2.11-7.32,23.76,23.76,0,0,0-15.33-13,20.08,20.08,0,0,0-5.29-.73q-.77,0-1.53.06m24,56.83h0m-2,.56h0"/><path class="cls-3" d="M122.05,32.26a1.86,1.86,0,0,0-.42.05,2.72,2.72,0,0,0-.89.34,2.22,2.22,0,0,0-.35.25.42.42,0,0,0-.32.3l-.15.15a.44.44,0,0,0,0,.62,25.41,25.41,0,0,1-.89,3.27,26.55,26.55,0,0,1-3.13,6A28.68,28.68,0,0,1,111,48.6a30.76,30.76,0,0,1-6.4,4.08h0a18.91,18.91,0,0,1-2.07.88,5.61,5.61,0,0,1-1,.24c-1.44.26-2.92.41-4.35.55l-.39,0-.46,0c-1.67.17-3.4.34-5.09.58-.67.1-1.55.24-2.44.44a8,8,0,0,0-1.76.62,3.13,3.13,0,0,0-1.26,1.45,3.44,3.44,0,0,0-.4,2.13,3.7,3.7,0,0,0,.62,1.55,5.32,5.32,0,0,0,1.12,1.17,12.41,12.41,0,0,0,3.26,1.76c.55.22,1.1.42,1.66.61a51.24,51.24,0,0,0-5.4.24c-.84.08-1.71.21-2.65.39a10.94,10.94,0,0,0-2,.57,7.81,7.81,0,0,0-1,.46,5.54,5.54,0,0,0-.84.62,3.61,3.61,0,0,0-1,1.67,4.61,4.61,0,0,0-.15.95,4.16,4.16,0,0,0,.09.94,3.49,3.49,0,0,0,.86,1.54,4.72,4.72,0,0,0,1.39,1,10.36,10.36,0,0,0,1.89.72,21.29,21.29,0,0,0,4.55.67c.36,0,.73,0,1.1.06A43.33,43.33,0,0,0,82.84,77a11.71,11.71,0,0,0-3.36,2.24,4,4,0,0,0-.92,1.34,3.06,3.06,0,0,0-.22.8,3.2,3.2,0,0,0,0,.53,2.32,2.32,0,0,0,.06.46l0,.12a3.22,3.22,0,0,0,.3.78l.06.14a4,4,0,0,0,.51.78A5.56,5.56,0,0,0,80,85a6.1,6.1,0,0,0,1,.68,8.49,8.49,0,0,0,2.12.79,13.86,13.86,0,0,0,2.51.35c.43,0,.86,0,1.29,0a26.83,26.83,0,0,0,3.76-.3,45.64,45.64,0,0,0,5.45-1.15,34.24,34.24,0,0,0,4.33-1.48c-.09.22-.17.45-.25.68l0,.15h0a41.94,41.94,0,0,1-4.85,9.61,29.77,29.77,0,0,1-4.94,5.44,28.18,28.18,0,0,1-5.92,3.78l.09,0a30.83,30.83,0,0,1-6.87,2.16,19.13,19.13,0,0,1-3.38.21c-.48,0-1,0-1.46,0a18,18,0,0,0-2.8.31,4.92,4.92,0,0,0-2.18.91,3.39,3.39,0,0,0-.87,1,3.22,3.22,0,0,0-.34,1.41,4,4,0,0,0,.15,1.14,4.18,4.18,0,0,0,.48,1.08A5.68,5.68,0,0,0,69,113.42a9.14,9.14,0,0,0,2.24,1,17.65,17.65,0,0,0,3.42.77l.8.11c-1.69.43-3.22.84-4.74,1.31a36.27,36.27,0,0,0-6.58,2.72,15.81,15.81,0,0,0-5,4.25,14.39,14.39,0,0,0-1.46,2.29,5.93,5.93,0,0,0-.62,1.87,3.24,3.24,0,0,0,.18,1.74,2.24,2.24,0,0,0,.39.68,4.16,4.16,0,0,0,.36.41,3.54,3.54,0,0,0,.44.32,4.47,4.47,0,0,0,1.5.63,9.54,9.54,0,0,0,1.86.23h.59a22,22,0,0,0,3.51-.34,48.27,48.27,0,0,0,6.45-1.53c-.68.64-1.27,1.26-1.83,1.87a21.85,21.85,0,0,0-3,4,8.58,8.58,0,0,0-.82,2,4.39,4.39,0,0,0,0,2,3.26,3.26,0,0,0,1,1.67,5.61,5.61,0,0,0,2.18,1.12,8,8,0,0,0,2.36.36h.45a9.37,9.37,0,0,0,2.91-.72,24.23,24.23,0,0,0,5.84-3.61,39.87,39.87,0,0,0,3.29-2.95c-.37,1-.77,1.94-1.2,2.89a31.54,31.54,0,0,1-4.27,6.82l.08-.07a30.67,30.67,0,0,1-5.57,5.17l.13-.07a34.07,34.07,0,0,1-7.21,3.81l.23-.07a44.28,44.28,0,0,1-4.25,1.32c-.72.18-1.48.35-2.27.5s-1.24.24-1.82.3c-.76.07-1.53.11-2.3.15s-1.54.08-2.3.15a23.81,23.81,0,0,0-2.9.42,8.39,8.39,0,0,0-2.43.9,4.49,4.49,0,0,0-1,.74,6.19,6.19,0,0,0-.47.55,4,4,0,0,0-.3.58l-.06.13a3.28,3.28,0,0,0-.24,1.21,4.25,4.25,0,0,0,.15,1.22,4.55,4.55,0,0,0,1.25,2,8.39,8.39,0,0,0,2.26,1.43,15.3,15.3,0,0,0,3.42,1c-1.62.44-2.94.81-4.17,1.2A26.08,26.08,0,0,0,44.6,170a9.56,9.56,0,0,0-1.75,1.22,4.32,4.32,0,0,0-1.13,1.64,3.17,3.17,0,0,0-.17.95,3.33,3.33,0,0,0,.13,1.13,3.5,3.5,0,0,0,1.39,1.83,5.5,5.5,0,0,0,2,.77,13.35,13.35,0,0,0,2.56.26h.23a28.68,28.68,0,0,0,4.09-.32A70.79,70.79,0,0,0,44.6,183a21.12,21.12,0,0,0-2,2,13.49,13.49,0,0,0-1.56,2.14,8.88,8.88,0,0,0-.53,1.18,5.81,5.81,0,0,0-.28,1.25,4.42,4.42,0,0,0,.27,2.12,4.44,4.44,0,0,0,3,3,5.92,5.92,0,0,0,1.75.24h.28a11.93,11.93,0,0,0,2.32-.34,19.44,19.44,0,0,0,2.5-.81c.74-.29,1.52-.63,2.38-1s1.75-.89,2.71-1.45l-.5.56-.08.1a40.69,40.69,0,0,0-3.56,4.78,19,19,0,0,0-1.32,2.55,9.82,9.82,0,0,0-.66,2.14,9.37,9.37,0,0,0-.17,1.34,8.25,8.25,0,0,0,.11,1.39,6.28,6.28,0,0,0,.38,1.23,4.49,4.49,0,0,0,.48.92,6.84,6.84,0,0,0,2.16,2.1,6.53,6.53,0,0,0,2.88.86h.3a9.63,9.63,0,0,0,1.06-.08h.11a6.81,6.81,0,0,0,1.23-.26,13,13,0,0,0,2.77-1.18,22.9,22.9,0,0,0,2.7-1.82,29.93,29.93,0,0,0,2.28-2c.48-.46.93-.94,1.38-1.43-.25.55-.49,1.12-.74,1.68a44.56,44.56,0,0,1-6,9.72,37.93,37.93,0,0,1-6.9,6.47,32.08,32.08,0,0,1-6.7,3.62l-.1,0a33.91,33.91,0,0,1-3.29,1,21,21,0,0,1-2.65.49l-1.35.12a34.88,34.88,0,0,0-4,.49,8.45,8.45,0,0,0-2.55.9,5,5,0,0,0-1,.76,3.8,3.8,0,0,0-.8,1.3,3.29,3.29,0,0,0-.19,1.28,4.9,4.9,0,0,0,.32,1.61,5,5,0,0,0,1.71,2.34,7.35,7.35,0,0,0,2.38,1.21,14.68,14.68,0,0,0,3,.58,25.16,25.16,0,0,0,2.53.13c1.67,0,3.33-.15,4.73-.29l-1.08.52-3,1.51c-1.57.8-3.62,1.88-5.61,3.15-.91.59-1.79,1.21-2.61,1.84a14.47,14.47,0,0,0-1.87,1.71,11.13,11.13,0,0,0-.88,1.1,7.62,7.62,0,0,0-.67,1.25,4.57,4.57,0,0,0-.4,2.15,4.91,4.91,0,0,0,.75,2.48,4.8,4.8,0,0,0,1.83,1.67,6.7,6.7,0,0,0,1.21.48,8.71,8.71,0,0,0,1.43.24,7.32,7.32,0,0,0,.81,0,15.18,15.18,0,0,0,1.9-.14,25,25,0,0,0,5.52-1.41A45,45,0,0,0,50.26,249c.33-.19.67-.4,1-.61-.38,1-.78,1.9-1.2,2.83l.06-.08a48.38,48.38,0,0,1-6.49,10.33,49.26,49.26,0,0,1-9.34,8.59,63.83,63.83,0,0,1-13.81,7.24c-.48.18-.92.36-1.37.5s-.79.21-1.18.29c-1,.22-2,.38-3,.54l-1.74.28c-1.71.27-3.48.55-5.2.9a30.66,30.66,0,0,0-3.09.74,10.86,10.86,0,0,0-2.41,1,4.24,4.24,0,0,0-.89.7,7.2,7.2,0,0,0-1,1.35,4.39,4.39,0,0,0-.51,1.26,4.21,4.21,0,0,0,0,1.55,4.15,4.15,0,0,0,.89,1.92,7.05,7.05,0,0,0,1.64,1.54A11.05,11.05,0,0,0,4.52,291a24.5,24.5,0,0,0,2.56,1.06,33.5,33.5,0,0,0,4.5,1.23c.82.17,1.64.29,2.41.4l.42.06-.24.17c-2.17,1.41-4.05,2.73-5.74,4.05a33.27,33.27,0,0,0-5.06,4.68,13.76,13.76,0,0,0-1.76,2.49,7.76,7.76,0,0,0-.87,2.63A4.94,4.94,0,0,0,1,310.08a4.36,4.36,0,0,0,1.15,1.78,5.88,5.88,0,0,0,4,1.29h.1a19.25,19.25,0,0,0,5.27-1,51.05,51.05,0,0,0,5.89-2.31c2.14-1,4.39-2.12,6.89-3.53l.35-.2.36-.2-.12.15-.18.27a59.27,59.27,0,0,0-3.43,5.84,17.59,17.59,0,0,0-2,6.11,5.94,5.94,0,0,0,.3,2.56,5.42,5.42,0,0,0,.3.7,4.81,4.81,0,0,0,.37.55,4.54,4.54,0,0,0,1.11,1.06,5.93,5.93,0,0,0,1.17.63,5.2,5.2,0,0,0,1.11.33,8.1,8.1,0,0,0,1.4.12,10,10,0,0,0,1.41-.11,12.88,12.88,0,0,0,2.77-.8A18.93,18.93,0,0,0,32,322a42.59,42.59,0,0,0,5.71-4c1.78-1.46,3.53-3,5.19-4.62.91-.89,1.8-1.78,2.69-2.68-.29.82-.57,1.64-.84,2.47a72.94,72.94,0,0,0-2.9,10.91,23.49,23.49,0,0,0-.34,5.14,9.54,9.54,0,0,0,1.13,4.21A5.85,5.85,0,0,0,43.88,335a6.58,6.58,0,0,0,1.95,1.12,5.57,5.57,0,0,0,1.9.32,7.21,7.21,0,0,0,1.57-.18,11.16,11.16,0,0,0,3.56-1.59,24.2,24.2,0,0,0,3.68-3,48.07,48.07,0,0,0,3.65-3.95c1.21-1.46,2.4-3,3.64-4.73,2.09-2.92,4.16-6.11,6.5-10.06.43-.72.85-1.45,1.27-2.18a8.35,8.35,0,0,0-.13,1.12,11,11,0,0,0,.07,1.53,5.14,5.14,0,0,0,1,2.49,4.67,4.67,0,0,0,2.25,1.52,4.53,4.53,0,0,0,1.44.23,5.37,5.37,0,0,0,1.19-.14,7.76,7.76,0,0,0,3.6-2.25c.29-.3.58-.62.85-.94-.32,1.19-.57,2.28-.78,3.32a46.49,46.49,0,0,0-.86,6,19.26,19.26,0,0,0,.28,5.24,7.33,7.33,0,0,0,2,3.82A5.24,5.24,0,0,0,86,334.14h.23a7.11,7.11,0,0,0,3.88-1.62,18.16,18.16,0,0,0,3.46-3.7,43.58,43.58,0,0,0,3.14-5,85.93,85.93,0,0,0,3.87-8.16l0,.11a65.19,65.19,0,0,0-.37,12,32.34,32.34,0,0,0,.91,5.77,15.79,15.79,0,0,0,2,4.74,9.33,9.33,0,0,0,3.62,3.29,8.45,8.45,0,0,0,2.33.79,9.15,9.15,0,0,0,1.21.13h0a7.43,7.43,0,0,0,1.23-.11,6.58,6.58,0,0,0,2-.65,8.66,8.66,0,0,0,1.78-1.23,11.81,11.81,0,0,0,1.55-1.73,13.14,13.14,0,0,0,1.21-1.89,28.87,28.87,0,0,0,2.1-4.94,50.59,50.59,0,0,0,1.43-5.41c.17-.8.33-1.61.47-2.42.11.71.25,1.41.4,2.12a47.56,47.56,0,0,0,1.43,5.4,29.84,29.84,0,0,0,2.09,4.95,14.73,14.73,0,0,0,1.22,1.89,11.75,11.75,0,0,0,1.55,1.73,8.4,8.4,0,0,0,1.78,1.23,6.58,6.58,0,0,0,2,.65,7.36,7.36,0,0,0,1.15.11,9.19,9.19,0,0,0,1.3-.13,8.45,8.45,0,0,0,2.33-.79,9.33,9.33,0,0,0,3.62-3.29,15.9,15.9,0,0,0,2-4.74,32.31,32.31,0,0,0,.91-5.78,65.19,65.19,0,0,0-.38-12v-.12a80.45,80.45,0,0,0,3.85,8.17,43.64,43.64,0,0,0,3.13,5,19.07,19.07,0,0,0,3.47,3.7,7.11,7.11,0,0,0,3.88,1.62H158a5.24,5.24,0,0,0,3.56-1.47,7.4,7.4,0,0,0,2-3.82,19.28,19.28,0,0,0,.28-5.24,46.49,46.49,0,0,0-.86-6c-.21-1-.46-2.13-.77-3.33a12.67,12.67,0,0,0,.84.95,7.78,7.78,0,0,0,3.59,2.25,5.46,5.46,0,0,0,1.2.14,4.53,4.53,0,0,0,1.44-.23,4.67,4.67,0,0,0,2.25-1.52,5.14,5.14,0,0,0,1-2.49,11,11,0,0,0,.07-1.53c0-.38-.06-.75-.11-1.12.4.73.82,1.45,1.25,2.18,2.34,3.95,4.41,7.14,6.5,10.05,1.24,1.74,2.43,3.28,3.64,4.74a51.78,51.78,0,0,0,3.64,3.95,25.39,25.39,0,0,0,3.69,3,11.16,11.16,0,0,0,3.56,1.59,7.14,7.14,0,0,0,1.57.18,5.57,5.57,0,0,0,1.9-.32,6.58,6.58,0,0,0,2-1.12,6,6,0,0,0,1.28-1.54,9.32,9.32,0,0,0,1.13-4.21,22.28,22.28,0,0,0-.34-5.14,71.78,71.78,0,0,0-2.89-10.91c-.27-.83-.55-1.66-.83-2.48.87.91,1.77,1.8,2.68,2.69,1.66,1.61,3.4,3.16,5.19,4.61a42.13,42.13,0,0,0,5.71,4,18.93,18.93,0,0,0,2.72,1.32,13,13,0,0,0,2.76.8,10.24,10.24,0,0,0,1.41.11,8.13,8.13,0,0,0,1.41-.12,5.2,5.2,0,0,0,1.11-.33,5.93,5.93,0,0,0,1.17-.63,4.61,4.61,0,0,0,1-1,7.22,7.22,0,0,0,.43-.63c.1-.2.18-.41.27-.62a6,6,0,0,0,.33-2.64,17.8,17.8,0,0,0-2-6.11,61.32,61.32,0,0,0-3.43-5.84l-.18-.27-.11-.17.34.22.36.2c2.49,1.41,4.75,2.56,6.88,3.53a49.82,49.82,0,0,0,5.9,2.3,18.39,18.39,0,0,0,5.26,1h.11a5.83,5.83,0,0,0,4-1.29,4.28,4.28,0,0,0,1.16-1.78,4.94,4.94,0,0,0,.27-2.29,7.57,7.57,0,0,0-.88-2.63,13.66,13.66,0,0,0-1.75-2.49,32.77,32.77,0,0,0-5.06-4.68c-1.69-1.32-3.57-2.64-5.74-4.05l-.29-.18.47,0c.77-.11,1.59-.23,2.41-.4a33.91,33.91,0,0,0,4.5-1.23,24.5,24.5,0,0,0,2.56-1.06,12.14,12.14,0,0,0,1.94-1.13,7.05,7.05,0,0,0,1.64-1.54,4.15,4.15,0,0,0,.89-1.92,4.2,4.2,0,0,0-.05-1.55,4.66,4.66,0,0,0-.5-1.26,7.2,7.2,0,0,0-1-1.35,4.52,4.52,0,0,0-.89-.7,10.74,10.74,0,0,0-2.42-1,29.79,29.79,0,0,0-3.08-.74c-1.72-.35-3.49-.63-5.2-.9l-1.74-.28c-1-.16-2-.32-3-.54-.39-.08-.79-.18-1.18-.3s-.89-.31-1.33-.48a63.56,63.56,0,0,1-13.88-7.27,49.61,49.61,0,0,1-9.32-8.57,47.94,47.94,0,0,1-6.51-10.46l0,.11c-.38-.9-.77-1.82-1.12-2.74.31.22.65.43,1,.62a45,45,0,0,0,7.45,3.49,24.88,24.88,0,0,0,5.52,1.41,15.18,15.18,0,0,0,1.9.14,7.32,7.32,0,0,0,.81,0,8.89,8.89,0,0,0,1.43-.24,6.7,6.7,0,0,0,1.21-.48,4.71,4.71,0,0,0,1.82-1.67,5,5,0,0,0,.76-2.48,4.7,4.7,0,0,0-.4-2.15,7.23,7.23,0,0,0-.67-1.25,12.82,12.82,0,0,0-.88-1.1,15.16,15.16,0,0,0-1.87-1.71c-.82-.63-1.7-1.25-2.61-1.84-2-1.27-4-2.35-5.61-3.15-.9-.47-1.81-.92-2.72-1.37l-1.37-.68a42,42,0,0,0,4.73.31,25.16,25.16,0,0,0,2.53-.13,14.8,14.8,0,0,0,3-.58,7.35,7.35,0,0,0,2.38-1.21,5.14,5.14,0,0,0,1-1,5,5,0,0,0,.71-1.35,5.25,5.25,0,0,0,.33-1.61,3.58,3.58,0,0,0-.19-1.29,3.91,3.91,0,0,0-.8-1.29,4.62,4.62,0,0,0-1-.76,8.42,8.42,0,0,0-2.56-.9,34.45,34.45,0,0,0-4-.49l-1.35-.12a19.53,19.53,0,0,1-2.65-.5,31.36,31.36,0,0,1-3.21-1l-.11,0h0l-.08,0h0l-.06,0h0a32.86,32.86,0,0,1-6.64-3.61,37.83,37.83,0,0,1-6.85-6.42,44.36,44.36,0,0,1-6-9.77c-.25-.56-.5-1.13-.73-1.7.43.5.89,1,1.37,1.44a26.31,26.31,0,0,0,2.28,2,21.92,21.92,0,0,0,2.7,1.83,13.54,13.54,0,0,0,2.77,1.18,6.79,6.79,0,0,0,1.22.25l.12,0a9.45,9.45,0,0,0,1.06.08h.3a6.57,6.57,0,0,0,2.88-.86,7,7,0,0,0,2.16-2.1,5.07,5.07,0,0,0,.48-.92,5.57,5.57,0,0,0,.37-1.24,7.21,7.21,0,0,0,.11-1.38,8.07,8.07,0,0,0-.16-1.34,9.89,9.89,0,0,0-.66-2.15,21.44,21.44,0,0,0-1.32-2.54,42.9,42.9,0,0,0-3.56-4.79l-.29-.33-.28-.33c1,.57,1.84,1,2.7,1.46s1.64.76,2.38,1a21.3,21.3,0,0,0,2.5.82,11.07,11.07,0,0,0,2.32.33h.28a6,6,0,0,0,1.75-.24,4.63,4.63,0,0,0,1.86-1.08,5.18,5.18,0,0,0,1.44-4,6,6,0,0,0-.28-1.26,10.23,10.23,0,0,0-.53-1.17,12.63,12.63,0,0,0-1.56-2.14,22.44,22.44,0,0,0-2-2,74.29,74.29,0,0,0-7.34-5.57,26.78,26.78,0,0,0,4,.34h.28a13.35,13.35,0,0,0,2.56-.26,5.37,5.37,0,0,0,2-.78,3.4,3.4,0,0,0,1.39-1.83,3.25,3.25,0,0,0,.14-1.12,3.66,3.66,0,0,0-.17-1,4.39,4.39,0,0,0-1.13-1.64,9.56,9.56,0,0,0-1.75-1.22,26,26,0,0,0-4.84-1.94c-1.28-.41-2.68-.8-4.27-1.2a15.34,15.34,0,0,0,3.52-1,8.15,8.15,0,0,0,2.26-1.43,4.36,4.36,0,0,0,1.24-2,4,4,0,0,0,.16-1.23,3.22,3.22,0,0,0-.24-1.2l-.06-.13a2.93,2.93,0,0,0-.31-.58,4.15,4.15,0,0,0-.46-.56,4.73,4.73,0,0,0-1-.73,8.22,8.22,0,0,0-2.43-.9,21.82,21.82,0,0,0-2.9-.43c-.76-.07-1.53-.11-2.3-.14s-1.54-.08-2.3-.15-1.26-.19-1.82-.3c-.79-.15-1.55-.32-2.27-.51a39.4,39.4,0,0,1-4.25-1.34l.14.08a34.58,34.58,0,0,1-7.17-3.85l.17.14a31.26,31.26,0,0,1-5.61-5.26l0,.09a32.92,32.92,0,0,1-4.2-6.77c-.43-.95-.83-1.92-1.17-2.89a36.17,36.17,0,0,0,3.27,3,24,24,0,0,0,5.84,3.61,9.65,9.65,0,0,0,2.91.72h.45a8.4,8.4,0,0,0,2.36-.36,5.75,5.75,0,0,0,2.18-1.12,3.26,3.26,0,0,0,1-1.67,4.52,4.52,0,0,0,0-2,8.58,8.58,0,0,0-.82-2,21.85,21.85,0,0,0-3.05-4.05c-.56-.61-1.16-1.23-1.83-1.88a48.07,48.07,0,0,0,6.45,1.54,22,22,0,0,0,3.51.34l.59,0a8.8,8.8,0,0,0,1.86-.22,4.56,4.56,0,0,0,1.46-.6,4.3,4.3,0,0,0,.48-.35c.11-.11.21-.23.31-.35a2.84,2.84,0,0,0,.44-.74,3.34,3.34,0,0,0,.18-1.74,5.93,5.93,0,0,0-.62-1.87,15.14,15.14,0,0,0-1.46-2.29,16,16,0,0,0-5-4.25,36.27,36.27,0,0,0-6.58-2.72c-1.59-.49-3.22-.93-4.74-1.33.27,0,.53,0,.79-.09a17.48,17.48,0,0,0,3.42-.77,9,9,0,0,0,2.25-1,5.72,5.72,0,0,0,1.72-1.66,3.76,3.76,0,0,0,.47-1.07,4,4,0,0,0,.16-1.14,3.36,3.36,0,0,0-.34-1.41,3.54,3.54,0,0,0-.87-1,4.86,4.86,0,0,0-2.18-.91,18,18,0,0,0-2.81-.31c-.48,0-1,0-1.46,0a19.08,19.08,0,0,1-3.37-.21,30.42,30.42,0,0,1-7-2.23l.1.07a28.54,28.54,0,0,1-5.81-3.75A29.14,29.14,0,0,1,148.65,94a41.21,41.21,0,0,1-4.84-9.62l-.06-.13h0c-.06-.23-.14-.46-.22-.69a30.31,30.31,0,0,0,4.32,1.48,43.88,43.88,0,0,0,5.45,1.16,26.61,26.61,0,0,0,3.76.3c.43,0,.86,0,1.28,0a13.74,13.74,0,0,0,2.51-.35,8.42,8.42,0,0,0,2.13-.79,6.1,6.1,0,0,0,1-.68,5.56,5.56,0,0,0,.76-.78,4,4,0,0,0,.51-.78l.06-.14a3.7,3.7,0,0,0,.3-.78l0-.13a3.25,3.25,0,0,0,.07-.45,4.71,4.71,0,0,0,0-.53,3.06,3.06,0,0,0-.22-.8,4.18,4.18,0,0,0-.92-1.34,11.71,11.71,0,0,0-3.36-2.24,45.68,45.68,0,0,0-6.2-2.43h.17c.31,0,.62,0,.93,0a21.39,21.39,0,0,0,4.55-.67,10.36,10.36,0,0,0,1.89-.72,4.72,4.72,0,0,0,1.39-1,3.43,3.43,0,0,0,.85-1.54,3.3,3.3,0,0,0,.09-.94,4,4,0,0,0-.14-1,3.61,3.61,0,0,0-1-1.67,5.64,5.64,0,0,0-.85-.62,7.09,7.09,0,0,0-1-.46,10.94,10.94,0,0,0-2-.57c-.94-.18-1.81-.31-2.65-.4-1.58-.15-3.29-.23-5.41-.25.57-.17,1.12-.37,1.67-.59a12.58,12.58,0,0,0,3.26-1.76,5.56,5.56,0,0,0,1.12-1.17,3.7,3.7,0,0,0,.62-1.55,3.44,3.44,0,0,0-.4-2.13,3.13,3.13,0,0,0-1.26-1.45,7.54,7.54,0,0,0-1.76-.62c-.69-.16-1.45-.29-2.44-.44-1.69-.24-3.42-.41-5.09-.58l-.46,0-.58,0c-1.37-.14-2.78-.28-4.16-.53a7.45,7.45,0,0,1-1-.24,20,20,0,0,1-2.13-.91,30.82,30.82,0,0,1-6.26-4A29,29,0,0,1,128.08,43,26.74,26.74,0,0,1,125,36.94a24.57,24.57,0,0,1-1-4,.43.43,0,0,0-.43-.35l-.18.05h0a2.7,2.7,0,0,0-1.28-.36M51.93,180.65h0l0,0h0l-.57.38.57-.38h0Z"/><path class="cls-4" d="M136.76,245.64a.93.93,0,0,0-.46-.12.77.77,0,0,0-.61.26l-.12.14-.14.18h-.05a.53.53,0,0,0-.42.13c-.11.12-.24.24-.36.35a4.75,4.75,0,0,1-.63.37,5.18,5.18,0,0,1-.9.23,6.23,6.23,0,0,1-.74,0,6.79,6.79,0,0,1-.78,0,7.94,7.94,0,0,1-1.19-.31,7.39,7.39,0,0,1-1.23-.7,1.37,1.37,0,0,0-1-.44,1.29,1.29,0,0,0-1.23,1,4.66,4.66,0,0,0-.15.83l0,.22c0,.3-.07.6-.11.91-.06.61-.11,1.22-.15,1.84s0,1.22,0,1.83c0,.3,0,.6.07.9a6.17,6.17,0,0,0,.19,1.06,9,9,0,0,1-.88,1.44,8.57,8.57,0,0,1-1.4,1.42,9.1,9.1,0,0,1-1.62.94,7.68,7.68,0,0,1-1.68.43,6.79,6.79,0,0,1-.78,0,7,7,0,0,1-.79,0,7.15,7.15,0,0,1-1.28-.34,7.43,7.43,0,0,1-1.22-.73,9.12,9.12,0,0,1-1.44-1.47,15.67,15.67,0,0,1-1.43-2.32c-.24-.45-.46-.91-.67-1.37l-.36-.83-.22-.52a.76.76,0,0,0-.32-.32.93.93,0,0,0-.44-.13.74.74,0,0,0-.23,0,.88.88,0,0,0-.52.4,1,1,0,0,0-.09.21.8.8,0,0,0,0,.24,7.66,7.66,0,0,1-.71,1.12,8,8,0,0,1-.91.93,5.92,5.92,0,0,1-1.12.67,5.24,5.24,0,0,1-1.06.28l-.62,0-.63,0a6.51,6.51,0,0,1-1.47-.4,9.77,9.77,0,0,1-1.71-1,9.88,9.88,0,0,1-1.73-1.75c-.33-.44-.64-.9-.94-1.37a.91.91,0,0,0-.67-.42,4.09,4.09,0,0,0,.11-1,1.24,1.24,0,0,0-.91-1.2,1.14,1.14,0,0,0-.33-.05,1.18,1.18,0,0,0-.63.18,1.14,1.14,0,0,0-.57.75A23.33,23.33,0,0,1,96,253.28l-.13.3s-.09-.06-.19-.06a1,1,0,0,0-.77.33,10.87,10.87,0,0,1-1.69,1.7,11.62,11.62,0,0,1-2.14,1.31,9.07,9.07,0,0,1-1.74.48,7.56,7.56,0,0,1-.83,0,7.09,7.09,0,0,1-.79,0,7.19,7.19,0,0,1-1.52-.41,7.78,7.78,0,0,1-1.43-.85,8.87,8.87,0,0,1-1.33-1.34,10.47,10.47,0,0,1-1.12-1.91l0-.09a18.39,18.39,0,0,1-1-4.12c-.12-1-.21-2-.27-3.34,0-.26,0-.51,0-.77l0-.4,0-.57v-.26c0-.47,0-.94-.09-1.4a.87.87,0,0,0-.41-.7.78.78,0,0,0-.41-.12.83.83,0,0,0-.58.24c-.18.18-.35.37-.52.56l-.12.13-.28.3c-.42.46-.85.9-1.28,1.35a33,33,0,0,1-3.14,2.87,12.57,12.57,0,0,1-2.62,1.65l-.09,0a5.89,5.89,0,0,1-1.17.32,3.53,3.53,0,0,1-.54,0l-.38,0a2.62,2.62,0,0,1-.72-.18,3,3,0,0,1-.64-.38,5.24,5.24,0,0,1-.54-.51,6.27,6.27,0,0,1,0-1.72,25.94,25.94,0,0,1,1.37-4.91c.19-.53.35-1,.51-1.46a.31.31,0,0,0,0-.23.36.36,0,0,0-.2-.17L69,239a.34.34,0,0,0-.31.24c-.19.58-.41,1.15-.62,1.72l-.08.21-.29.79a23.67,23.67,0,0,0-1,3.24,8.78,8.78,0,0,0-.2,3.07,4.67,4.67,0,0,0,1.31,2.66,3.86,3.86,0,0,0,2.52,1h.15a6.16,6.16,0,0,0,1.27-.16,7.49,7.49,0,0,0,1.54-.55,12,12,0,0,0,2.63-1.69l.29-.25a1.5,1.5,0,0,0,0,.61,17.63,17.63,0,0,0,.55,3.26,14.09,14.09,0,0,0,3,5.62,11.69,11.69,0,0,0,2.37,2,10.58,10.58,0,0,0,2.9,1.3,11.57,11.57,0,0,0,1.71.31,10.19,10.19,0,0,0,1.24.08h.47a16.22,16.22,0,0,0,1.91-.21,7.86,7.86,0,0,0,1.64-.45,8.81,8.81,0,0,0,1.86-.95,11,11,0,0,0,1.63-1.34,14,14,0,0,0,1.36-1.65,13.6,13.6,0,0,0,1-1.67,18.16,18.16,0,0,0,1-2.24,9.73,9.73,0,0,0,1.71,2.71,10.9,10.9,0,0,0,3.86,2.94,6.59,6.59,0,0,0,2.63.6,4.7,4.7,0,0,0,1.67-.3,5,5,0,0,0,2-1.3,6.55,6.55,0,0,0,.78-1,9.51,9.51,0,0,0,1.1,1.56,18.17,18.17,0,0,0,2.48,2.56,13.26,13.26,0,0,0,1.48,1.08,9.67,9.67,0,0,0,1.75.86,6.91,6.91,0,0,0,1.57.42,8.24,8.24,0,0,0,1.39.12,5.62,5.62,0,0,0,.58,0,9.6,9.6,0,0,0,3.83-1.23,8.85,8.85,0,0,0,2.52-2.35,13.07,13.07,0,0,0,1.63-3,18,18,0,0,0,1-3.17c.19-.85.31-1.71.42-2.51,0-.15,0-.3,0-.44a1.06,1.06,0,0,0,.45.07h.18a5,5,0,0,0,2.47-.82,6.82,6.82,0,0,0,1.89-1.87,6,6,0,0,0,.6-1,5.13,5.13,0,0,0,.45-1.17A.88.88,0,0,0,136.76,245.64Z"/><path class="cls-4" d="M181.54,239.61a9,9,0,0,0,2.65-6.23,10.88,10.88,0,0,0-.22-2.59,1,1,0,0,0-1-.74,1,1,0,0,0-.71.29,1,1,0,0,0-.3.72,12.86,12.86,0,0,1,.07,1.6,6.74,6.74,0,0,1-.3.86,7.11,7.11,0,0,1-.82,1.47,7,7,0,0,1-1,1.06,7.41,7.41,0,0,1-1.39.79,8.39,8.39,0,0,1-1.77.47,11.8,11.8,0,0,1-1.35.08,11.31,11.31,0,0,1-1.62-.11,18.16,18.16,0,0,1-4.38-1.22,18.79,18.79,0,0,1-4.06-2.34,12.61,12.61,0,0,1-1.4-1.24.44.44,0,0,0-.33-.15.51.51,0,0,0-.49.36c-.13.46-.26.92-.38,1.38a28.84,28.84,0,0,1-1,3.12l0,.11h0a10.69,10.69,0,0,1-.94,1.63,5.53,5.53,0,0,1-.86.88,4.18,4.18,0,0,1-.84.49,5.1,5.1,0,0,1-1.15.3c-.19,0-.38,0-.57,0a.56.56,0,0,0-.5.31h-.31a.61.61,0,0,0-.6.54,8.91,8.91,0,0,1-1.59-.95,9.28,9.28,0,0,1-1.67-1.7,7.34,7.34,0,0,1-.51-.73A.25.25,0,0,0,152,238a.26.26,0,0,0-.24.14.21.21,0,0,0,0,.24,9.12,9.12,0,0,0,7.2,4.63h.13a5.52,5.52,0,0,0,1.75-.28,5.21,5.21,0,0,0,1.8-1,6.38,6.38,0,0,0,1.35-1.73,6.06,6.06,0,0,0,.5-1.13,7.66,7.66,0,0,0,.72.79,10.59,10.59,0,0,0,2.12,1.56,11.74,11.74,0,0,0,2.39,1,13.05,13.05,0,0,0,2.57.49c.35,0,.71.05,1.06.05a12.52,12.52,0,0,0,1.35-.08,13.28,13.28,0,0,0,2.54-.51A10.73,10.73,0,0,0,181.54,239.61Z"/><path class="cls-4" d="M211.23,284.26a.89.89,0,0,0-.12-.45,1.3,1.3,0,0,0-.15-.18l-.05-.05-.09-.06-.08,0a.79.79,0,0,0-.16-.08l-.24,0a.93.93,0,0,0-.46.12.94.94,0,0,0-.37.43.62.62,0,0,0-.23.07,4.33,4.33,0,0,1-.7.39,7.21,7.21,0,0,1-1.57.41c-.41,0-.85.07-1.28.07a13,13,0,0,1-1.51-.09,10.46,10.46,0,0,1-2.19-.54.47.47,0,0,0-.17,0,.71.71,0,0,0-.49.23.52.52,0,0,0-.15.42q0,.5.12,1a15.17,15.17,0,0,1,.14,3.75l0-.11a6.4,6.4,0,0,1-.27.92,2.78,2.78,0,0,1-.3.53,3.59,3.59,0,0,1-.39.39,4,4,0,0,1-.64.36,6.28,6.28,0,0,1-1.26.31,11.31,11.31,0,0,1-1.32.07,16.64,16.64,0,0,1-1.93-.12,22.22,22.22,0,0,1-5.2-1.44,18.79,18.79,0,0,1-3.69-2.08c-.25-.21-.49-.44-.73-.66a1.08,1.08,0,0,0-.77-.35,1,1,0,0,0-.69.28,1,1,0,0,0-.3.7,1.05,1.05,0,0,0,.3.71c.07.08.14.17.22.25a9.4,9.4,0,0,1-.07,1.14,12,12,0,0,1-.77,2.8,11.76,11.76,0,0,1-1.31,2.32,7.19,7.19,0,0,1-1.17,1.22,7,7,0,0,1-.73.43,3.44,3.44,0,0,1-.55.15l-.32,0-.26,0a2.87,2.87,0,0,1-.62-.17,4.26,4.26,0,0,1-.84-.52,10.42,10.42,0,0,1-1.06-1,.59.59,0,0,0-.41-.17.54.54,0,0,0-.25.06,11.8,11.8,0,0,1-.67-2.63,10.25,10.25,0,0,1,0-2.07.23.23,0,0,0-.07-.17.26.26,0,0,0-.19-.09.26.26,0,0,0-.26.26,11.59,11.59,0,0,0,.13,2.85,11.11,11.11,0,0,0,.89,2.94,6.84,6.84,0,0,0,1.76,2.37,5.32,5.32,0,0,0,2.67,1.2l.52,0a4,4,0,0,0,.77-.07,3.57,3.57,0,0,0,1.11-.42,5.39,5.39,0,0,0,1.76-1.75,12.2,12.2,0,0,0,1.22-2.42c.1-.26.19-.53.28-.79a5.58,5.58,0,0,0,.49.6,13.49,13.49,0,0,0,2.11,1.85,15.39,15.39,0,0,0,2.39,1.42,16.38,16.38,0,0,0,2.76,1,12.64,12.64,0,0,0,3.42.47,11.68,11.68,0,0,0,2.22-.21,8.45,8.45,0,0,0,2.52-1,9.08,9.08,0,0,0,1.13-.81,7.43,7.43,0,0,0,1-1,9,9,0,0,0,.84-1.23,5.26,5.26,0,0,0,.64-1.62,9.56,9.56,0,0,0,.1-2v-.15c0-.15,0-.3,0-.46a9.76,9.76,0,0,0,3.67-2.89,8.38,8.38,0,0,0,1.59-3.22,5,5,0,0,0,.32-1.18Z"/><path class="cls-4" d="M124.75,292.79a1,1,0,0,0-1,.95,29.27,29.27,0,0,1-.19,3,18.49,18.49,0,0,1-1.15,4.37l-.21.47h0l-.09,0a26.55,26.55,0,0,1-2.47,1.27,12.62,12.62,0,0,1-2.89.8,11.58,11.58,0,0,1-1.49.09,16.47,16.47,0,0,1-2.16-.15,9.49,9.49,0,0,1-2.07-.53,6.73,6.73,0,0,1-1.3-.77,8.59,8.59,0,0,1-1.35-1.4l.07.16c-.56-.8-1.11-1.64-1.59-2.39l-.55-.85a1.22,1.22,0,0,0-.6-1,1.11,1.11,0,0,0-.59-.16,1.23,1.23,0,0,0-1,.59,9.25,9.25,0,0,1-.71,1,16.26,16.26,0,0,1-2.43,2.58,8.11,8.11,0,0,1-1.36.81,5.58,5.58,0,0,1-1.14.32,3,3,0,0,1-.43,0,4.35,4.35,0,0,1-.51,0,5.52,5.52,0,0,1-1-.28,5.33,5.33,0,0,1-.89-.51,6.85,6.85,0,0,1-1-1.05A10.71,10.71,0,0,1,93.39,298a34.14,34.14,0,0,1-1.21-3.71l0-.12-.2-.74a4.55,4.55,0,0,0,.34-.66,1.23,1.23,0,0,0,.17-.62,1.24,1.24,0,0,0-.36-.87,1.19,1.19,0,0,0-.85-.35,1.26,1.26,0,0,0-.88.35c-.71.68-1.27,1.17-1.81,1.61a8.08,8.08,0,0,1-1.28.76,3.94,3.94,0,0,1-1.64.33c-.21,0-.41,0-.62,0a10.21,10.21,0,0,1-2-.56,9.83,9.83,0,0,1-1.63-.95,12.46,12.46,0,0,1-2.09-2.08,15.31,15.31,0,0,1-1.81-3.07,12,12,0,0,1-.39-1.15,1,1,0,0,0,0-.57,1.18,1.18,0,0,0-.31-.5.75.75,0,0,0-.59-.3.52.52,0,0,0-.17,0l-.22,0a1,1,0,0,0-.62.48c-.06.13-.13.25-.19.37l-.08.14-.17.33c-.18.34-.34.68-.5,1l-.4.85-.5,1c-.32.65-.6,1.23-.91,1.79-.22.41-.45.81-.69,1.22a47.55,47.55,0,0,1-3.39,5.13,25.07,25.07,0,0,1-1.77,2.07,19,19,0,0,1-2,1.88,11.84,11.84,0,0,1-2.43,1.44q-.27.11-.54.18a.87.87,0,0,0-.25-.58.85.85,0,0,0-.64-.27,8.33,8.33,0,0,1-1.73,0,7.49,7.49,0,0,1-1.74-.48,11,11,0,0,1-2.16-1.29l-.14-.11-.14-.09c-.08-.17-.17-.34-.25-.53a14.37,14.37,0,0,1-.92-3.49,26.24,26.24,0,0,1,0-6.74l0-.11c.06-.46.14-.92.23-1.37a6.23,6.23,0,0,0,.42-.86.9.9,0,0,0,0-.46.87.87,0,0,0-.39-.51.81.81,0,0,0-.44-.12.85.85,0,0,0-.6.25l-.07.08-.07.08h0a.32.32,0,0,0-.27.12,12.57,12.57,0,0,1-2.32,2.28,16.67,16.67,0,0,1-3.39,2,33.1,33.1,0,0,1-5.72,1.7l-1,0a.62.62,0,0,1-.27-.13,3.83,3.83,0,0,1-.49-.5,4.4,4.4,0,0,1-.41-.72,6.16,6.16,0,0,1-.37-1.42,10.7,10.7,0,0,1-.06-1.41.31.31,0,0,0-.06-.19,14,14,0,0,1,.54-1.54,24.64,24.64,0,0,1,3.17-5.24c1-1.28,2.09-2.55,3.07-3.68l1.45-1.7a.37.37,0,0,0,0-.52.35.35,0,0,0-.27-.11.32.32,0,0,0-.24.11l-1.84,2.12c-1.19,1.34-2.25,2.56-3.24,3.84a31.09,31.09,0,0,0-2.19,3.2,18.07,18.07,0,0,0-1.58,3.52,10.9,10.9,0,0,0-.6,3.41,6.94,6.94,0,0,0,.11,1.31,5.49,5.49,0,0,0,.39,1.22,4.76,4.76,0,0,0,3.41,2.58,7.61,7.61,0,0,0,1.65.17h.56a11.24,11.24,0,0,0,2.45-.44,14.12,14.12,0,0,0,2.32-.94l.23-.13a7.32,7.32,0,0,0-.11,1.06,19.74,19.74,0,0,0,.07,3.09,11.09,11.09,0,0,0,2,5.67,9.77,9.77,0,0,0,1,1.16,8.44,8.44,0,0,0,1.34,1.05,7.93,7.93,0,0,0,1.32.71,11.5,11.5,0,0,0,1.86.66,13.75,13.75,0,0,0,1.93.35,14.55,14.55,0,0,0,1.71.11,12.91,12.91,0,0,0,3.49-.51,14.24,14.24,0,0,0,4.42-2.22,23,23,0,0,0,3.74-3.46,49.65,49.65,0,0,0,4.13-5.61,7.89,7.89,0,0,0,.42,1.47,8.57,8.57,0,0,0,.56,1.17,6.55,6.55,0,0,0,.81,1,6.42,6.42,0,0,0,2.57,1.58,7.18,7.18,0,0,0,1.62.35,6.78,6.78,0,0,0,.77.05q.3,0,.6,0a7.88,7.88,0,0,0,1.52-.29,8.43,8.43,0,0,0,1.58-.64,11.9,11.9,0,0,0,2.53-1.8,12.3,12.3,0,0,0,1-1c0,.37.1.76.18,1.15a34.73,34.73,0,0,0,.75,3.53,11.52,11.52,0,0,0,1.25,2.9,8.26,8.26,0,0,0,2.48,2.48,10.61,10.61,0,0,0,1.65.83,7.53,7.53,0,0,0,2,.5,6.12,6.12,0,0,0,.74,0,8,8,0,0,0,3.23-.74,10.61,10.61,0,0,0,4.39-3.74,7.59,7.59,0,0,0,.93,1.13,9.8,9.8,0,0,0,2.85,2,11.48,11.48,0,0,0,1.66.62,10.81,10.81,0,0,0,1.89.34,9.07,9.07,0,0,0,1,.06,12.2,12.2,0,0,0,2.48-.27,11.45,11.45,0,0,0,3.35-1.32,11.28,11.28,0,0,0,2.89-2.41,12.46,12.46,0,0,0,2.22-4,18.48,18.48,0,0,0,.91-4.36,24.63,24.63,0,0,0,.09-4.07A1,1,0,0,0,124.75,292.79ZM38,290.27h0v0Z"/><path class="cls-4" d="M154.53,198.58a23.33,23.33,0,0,0,3.37,1.32,19.79,19.79,0,0,0,3.47.7,13.27,13.27,0,0,0,1.77.12c.41,0,.82,0,1.24-.06a12.71,12.71,0,0,0,1.78-.29,10.91,10.91,0,0,0,1.91-.68,9,9,0,0,0,2.73-1.94,10.15,10.15,0,0,0,2.51-4.79,15.42,15.42,0,0,0,.37-2.87,13.48,13.48,0,0,0,0-1.78h.44a4.74,4.74,0,0,0,2.12-.78,6.93,6.93,0,0,0,1.7-1.69,6.09,6.09,0,0,0,1-2.05.89.89,0,0,0-.62-1.08.75.75,0,0,0-.23,0,.92.92,0,0,0-.39.09.48.48,0,0,0-.19.09.64.64,0,0,1-.15.13,4.54,4.54,0,0,1-.75.46l-.14.06h0a1.2,1.2,0,0,0-.43-.09.75.75,0,0,0-.26.05l-.72.31h-.26a8.74,8.74,0,0,1-1-.07,13.27,13.27,0,0,1-1.42-.31,13.74,13.74,0,0,1-1.57-.56h0l-.31-.14a1,1,0,0,0-.4-.11.64.64,0,0,0-.2,0,.79.79,0,0,0-.54.54c0,.23-.06.44-.07.67s0,.43,0,.64a10,10,0,0,0,.25,1.56,12.22,12.22,0,0,0,.7,2.18,6.75,6.75,0,0,1-.26.84,4.8,4.8,0,0,1-.62,1.07,4.32,4.32,0,0,1-.77.77,5.56,5.56,0,0,1-1,.59,6.46,6.46,0,0,1-1.47.41A9,9,0,0,1,165,192a14.22,14.22,0,0,1-1.63-.11l.11,0a16.4,16.4,0,0,1-2-.48l-1.15-.41-.58-.21c-1.41-.49-2.75-1-4-1.52a22.51,22.51,0,0,1-4.49-2.45,8.7,8.7,0,0,1-1.47-1.42,6.93,6.93,0,0,1-.73-1.24L149,184a.81.81,0,0,0-.3-.31.93.93,0,0,0-.44-.11.78.78,0,0,0-.22,0,.82.82,0,0,0-.51.39l-.08.2a.86.86,0,0,0,0,.45,4.91,4.91,0,0,0,.4,1.26l.12.24a9,9,0,0,1-.53,1.67,13.52,13.52,0,0,1-1.68,2.86,11,11,0,0,1-1.79,1.82l0,0,0,0a11.71,11.71,0,0,1-1.83,1.07l-.09,0h0a7.55,7.55,0,0,1-1.64.45c-.24,0-.48,0-.72,0l-.6,0a6.3,6.3,0,0,1-1.27-.35,7,7,0,0,1-1.39-.84,8.89,8.89,0,0,1-1.48-1.46,11.05,11.05,0,0,1-.72-1.11l-.48-.76a.72.72,0,0,0-.59-.34.59.59,0,0,0-.34.1.63.63,0,0,0-.31.4.69.69,0,0,0,.07.52l.18.4a.58.58,0,0,0-.56.58,9.46,9.46,0,0,1-.08,1.09,13.36,13.36,0,0,1-.89,3.13,8.23,8.23,0,0,1-1.07,1.84,6.22,6.22,0,0,1-.92.93,4.14,4.14,0,0,1-.75.45,3.86,3.86,0,0,1-.87.23h-.33l-.41,0a4.86,4.86,0,0,1-1-.28h0l-.15-.07a.41.41,0,0,0-.18,0,.33.33,0,0,0-.3.17.37.37,0,0,0,0,.31,9,9,0,0,1-.69-.76,7.17,7.17,0,0,1-.86-1.47,8.49,8.49,0,0,1-.54-2.05,11.06,11.06,0,0,1-.08-1.4.35.35,0,0,0-.08-.22.36.36,0,0,0-.25-.1.31.31,0,0,0-.33.32,9.32,9.32,0,0,0,1.31,5.13A5.92,5.92,0,0,0,127,201a4.74,4.74,0,0,0,1.3.17,5.6,5.6,0,0,0,2.85-.79,8.14,8.14,0,0,0,2.81-3,6.35,6.35,0,0,0,1.11,1.33,9.34,9.34,0,0,0,2.37,1.66,8.5,8.5,0,0,0,3.75.92,7,7,0,0,0,2-.29,7.18,7.18,0,0,0,2.65-1.52,9.9,9.9,0,0,0,1.9-2.34,16.91,16.91,0,0,0,1.36-2.66l.11.16a13.91,13.91,0,0,0,2.47,2.25A17.94,17.94,0,0,0,154.53,198.58Z"/><path class="cls-4" d="M71.71,179.9a2.58,2.58,0,0,0,1.38.38,5.36,5.36,0,0,0,2.3-.64,13,13,0,0,0,.2,2.38,7.35,7.35,0,0,0,1.21,3,6.6,6.6,0,0,0,2.76,2.19,9.12,9.12,0,0,0,1.63.54,10.28,10.28,0,0,0,1.88.23h.24a13.5,13.5,0,0,0,1.44-.09,12.82,12.82,0,0,0,1.94-.37,14,14,0,0,0,3.38-1.47,12.64,12.64,0,0,0,2.78-2.24A8.78,8.78,0,0,0,94,182.31a12,12,0,0,0,.59-1.12c.1-.21.2-.42.31-.63a8.3,8.3,0,0,1,.49-.81,2.47,2.47,0,0,1,.28-.28,4,4,0,0,1,.58-.31c.46-.18,1-.32,1.42-.46s.93-.27,1.38-.44a6.86,6.86,0,0,0,.83-.38,4.86,4.86,0,0,0,.9-.6,5.77,5.77,0,0,0,.63-.58,7.49,7.49,0,0,0,.71-.89,1,1,0,0,0-.15-1.24,1,1,0,0,0-.71-.29,1.07,1.07,0,0,0-.52.14h0a.41.41,0,0,0-.14,0,14.43,14.43,0,0,1-1.64.34c-.44.06-.92.1-1.4.14s-1,.08-1.54.16a7.21,7.21,0,0,0-1.33.31l-.17.05c-.17.06-.34.11-.5.18a4.3,4.3,0,0,0-.7.42A8,8,0,0,0,92,177.28c-.32.37-.67.73-1,1.08a26.13,26.13,0,0,1-2.31,2.09A13.64,13.64,0,0,1,86.16,182a7.52,7.52,0,0,1-1.71.5,5.65,5.65,0,0,1-.59,0l-.48,0a4.34,4.34,0,0,1-.84-.22,5.19,5.19,0,0,1-.79-.48,6.56,6.56,0,0,1-.86-.88,8.65,8.65,0,0,1-1-1.65,18.23,18.23,0,0,1-.9-3.62.9.9,0,0,0-.86-.66.94.94,0,0,0-.83.55h-.07a.51.51,0,0,0-.27.07c-.43.24-.9.48-1.45.72a7.7,7.7,0,0,1-1.88.53,4.53,4.53,0,0,1-.52,0,4,4,0,0,1-.49,0,3.18,3.18,0,0,1-.66-.17,1.8,1.8,0,0,1-.4-.23,1.31,1.31,0,0,1-.24-.23,2.23,2.23,0,0,1-.2-.33,2.75,2.75,0,0,1-.13-.47.24.24,0,0,0-.18-.18c0-.47,0-1,.1-1.48,0,0,0-.06,0-.06v0a13.18,13.18,0,0,1,.79-2.91,8.35,8.35,0,0,1,.86-1.5l.22-.27a.42.42,0,0,0,0-.59.43.43,0,0,0-.3-.12.41.41,0,0,0-.29.12,9.3,9.3,0,0,0-1.89,3.86,11.71,11.71,0,0,0-.3,4.53A4.11,4.11,0,0,0,71.71,179.9ZM97.13,176h0l.6-.07,1-.13c-.6.19-1.24.35-1.85.5l-.24.05a.19.19,0,0,0,0-.13.61.61,0,0,0-.07-.14Z"/><path class="cls-4" d="M88.8,148.87a4.08,4.08,0,0,0,2,1.23,4.3,4.3,0,0,0,1.1.14,6.77,6.77,0,0,0,1.29-.14,7.2,7.2,0,0,0,2.33-1l.49-.36c0,.33-.06.67-.07,1a27.6,27.6,0,0,0,.06,3.14,15.12,15.12,0,0,0,1.62,6,10.24,10.24,0,0,0,1.83,2.45,11.07,11.07,0,0,0,2.64,1.89,12.26,12.26,0,0,0,3.47,1.21,11.88,11.88,0,0,0,3.52.09,10.39,10.39,0,0,0,2.07-.46,11.45,11.45,0,0,0,1.94-.87,12.41,12.41,0,0,0,1.75-1.2,12.56,12.56,0,0,0,1.5-1.44,13.42,13.42,0,0,0,2.23-3.52,15.9,15.9,0,0,0,.7-1.9,6.53,6.53,0,0,0,1.2.48,6.45,6.45,0,0,0,1.35.19H122a6.38,6.38,0,0,0,1-.1,4.85,4.85,0,0,0,1-.25,8.56,8.56,0,0,0,1.1-.51,7.75,7.75,0,0,0,1.1-.78,8.83,8.83,0,0,0,1.44-1.43,15.43,15.43,0,0,0,1.44-2.08,13.49,13.49,0,0,0,1.2-2.65,6,6,0,0,0,.87.7,6.34,6.34,0,0,0,1.76.81,6.89,6.89,0,0,0,1.91.25,9.4,9.4,0,0,0,2-.22,9.89,9.89,0,0,0,3.68-1.65,9.15,9.15,0,0,0,1.6-1.47,9.64,9.64,0,0,0,1.31-1.92,1.16,1.16,0,0,0,.11-.82,1.11,1.11,0,0,0-.49-.62,1.08,1.08,0,0,0-.53-.14,1,1,0,0,0-.91.51l-.06.13h0a5.84,5.84,0,0,1-1.18.73,7.65,7.65,0,0,1-1.84.51,8.46,8.46,0,0,1-.87.05,9,9,0,0,1-1-.06,8.17,8.17,0,0,1-1.66-.45c-.37-.15-.72-.35-1.08-.54a10.91,10.91,0,0,1-1.21-.77,9.2,9.2,0,0,1-1.39-1.4c-.17-.23-.34-.47-.5-.71a1.09,1.09,0,0,0-.65-.5,1.26,1.26,0,0,0-.28,0,1.19,1.19,0,0,0-.55.15,1.16,1.16,0,0,0-.5.65,1.14,1.14,0,0,0,.1.81c-.26.42-.58.86-.95,1.35h0a15.27,15.27,0,0,1-1.34,1.47,15.91,15.91,0,0,1-1.44,1.32,11.87,11.87,0,0,1-1,.68,10.3,10.3,0,0,1-1.16.56,8.91,8.91,0,0,1-1.54.44l-.57,0a5.15,5.15,0,0,1-.55,0,5.87,5.87,0,0,1-1-.28,6.72,6.72,0,0,1-1.07-.64l-.52-.44-.12-.1a1,1,0,0,0-1.46,0,1,1,0,0,0-.3.73l0,.14,0,.14a.94.94,0,0,0,.26.45l.14.17c-.31.77-.57,1.58-.8,2.32l-.11.33c-.36,1.16-.74,2.35-1.21,3.49a10.87,10.87,0,0,1-1.3,2.25,7.36,7.36,0,0,1-1.15,1.15,5.25,5.25,0,0,1-3.29,1.09,6.62,6.62,0,0,1-.77,0,9,9,0,0,1-1.83-.5,9.48,9.48,0,0,1-1.75-1,8.28,8.28,0,0,1-1.29-1.29,8.53,8.53,0,0,1-1-1.68,13,13,0,0,1-.73-3c-.14-1.13-.19-2.29-.23-3.41l0-.78c0-.87-.09-1.6-.16-2.28-.1-.87-.23-1.8-.43-2.94a.77.77,0,0,0-1.31-.31.68.68,0,0,0-.2.52,23.45,23.45,0,0,1-2.17,1.92l.1-.06a16.45,16.45,0,0,1-3.28,2,6.21,6.21,0,0,1-1.5.44,3.7,3.7,0,0,1-.47,0H91a2.85,2.85,0,0,1-.5-.14,2.2,2.2,0,0,1-.49-.28,5,5,0,0,1-.45-.47,5.45,5.45,0,0,1-.59-1.05,9.77,9.77,0,0,1-.35-1,.48.48,0,0,0-.28-.31.59.59,0,0,0,0-.13,16.85,16.85,0,0,1,1.15-3.93,28.64,28.64,0,0,1,1.44-2.88.34.34,0,0,0,0-.31.36.36,0,0,0-.3-.17.28.28,0,0,0-.25.15,22.68,22.68,0,0,0-2.78,7,9.9,9.9,0,0,0,0,3.64A5.89,5.89,0,0,0,88.8,148.87Z"/><path class="cls-4" d="M105.51,70.71a3.4,3.4,0,0,0,.25.72A3,3,0,0,0,107.32,73a4.57,4.57,0,0,0,1.94.39l.45,0a9.17,9.17,0,0,0,2.44-.53,9.75,9.75,0,0,0,1-.45,5.66,5.66,0,0,0,.92,3,6.19,6.19,0,0,0,3.3,2.41,6.6,6.6,0,0,0,2,.3,7.6,7.6,0,0,0,1.07-.1,5.32,5.32,0,0,0,1-.25,5.82,5.82,0,0,0,2-1.16,4.66,4.66,0,0,0,.81-1,5.41,5.41,0,0,0,.59-1.14.85.85,0,0,0-.38-1,.88.88,0,0,0-.42-.11.78.78,0,0,0-.22,0,.92.92,0,0,0-.5.38c-.1.16-.21.32-.32.47l-.25.29a6.27,6.27,0,0,1-.58.29,4.85,4.85,0,0,1-1.16.33,3,3,0,0,1-.42,0,2.75,2.75,0,0,1-.41,0,4.12,4.12,0,0,1-.79-.21,4.17,4.17,0,0,1-1.59-1.25,7.31,7.31,0,0,1-.87-1.47,9,9,0,0,1-.53-2,9.34,9.34,0,0,1,0-2.24.62.62,0,0,0-.08-.33.73.73,0,0,0-.39-.3l-.16,0a.63.63,0,0,0-.63.48,1.24,1.24,0,0,1-.3.33,8.86,8.86,0,0,1-1.72,1,11.22,11.22,0,0,1-2.53.72,8.29,8.29,0,0,1-.88.06,4,4,0,0,1-.6,0,2.91,2.91,0,0,1-.66-.17,3.18,3.18,0,0,1-.4-.23,1.88,1.88,0,0,1-.24-.25,1.65,1.65,0,0,1-.18-.32,2.52,2.52,0,0,1-.13-.47,4.69,4.69,0,0,1,0-.75.53.53,0,0,0-.42-.51,9.51,9.51,0,0,1,.68-1,12.62,12.62,0,0,1,2.06-2,21.39,21.39,0,0,1,2.61-1.69.52.52,0,0,0,.24-.32.53.53,0,0,0,0-.41.52.52,0,0,0-.46-.26.6.6,0,0,0-.27.07,16.43,16.43,0,0,0-5,4,6.75,6.75,0,0,0-1.4,2.84A5.21,5.21,0,0,0,105.4,70,4.48,4.48,0,0,0,105.51,70.71Z"/><path class="cls-4" d="M123.87,105a3.24,3.24,0,0,1-.44,0,3.72,3.72,0,0,1-.78-.22,4.76,4.76,0,0,1-.62-.34l0,.06a.24.24,0,0,1-.3,0,9.54,9.54,0,0,1-1.58-1.32,11.17,11.17,0,0,1-1.26-1.56,8.31,8.31,0,0,1-.87-1.77,5.21,5.21,0,0,1-.27-1c0-.11,0-.22,0-.32-.17-.32-.33-.64-.48-1a9.66,9.66,0,0,1-.66-2.5.56.56,0,0,0-.14-.25.6.6,0,0,0-.41-.16.56.56,0,0,0-.56.57,5.72,5.72,0,0,0,0,.59,6,6,0,0,1-2.51,1.94,6.25,6.25,0,0,1-1.4.39l-.47,0-.42,0a2.63,2.63,0,0,1-1.16-.48,2.56,2.56,0,0,1-.43-.44,5,5,0,0,1-.49-.84c-.07-.19-.14-.37-.2-.56a.58.58,0,0,0-.54-.41,11.52,11.52,0,0,1,.83-2.73,18.89,18.89,0,0,1,.92-1.87.32.32,0,0,0-.11-.43.37.37,0,0,0-.15,0,.3.3,0,0,0-.27.15,15.87,15.87,0,0,0-2.1,5.38,6.52,6.52,0,0,0,.14,2.69,5.07,5.07,0,0,0,.55,1.25,4.06,4.06,0,0,0,.74.91,4.49,4.49,0,0,0,1.8,1,5.21,5.21,0,0,0,1,.16h.27a5.35,5.35,0,0,0,.9-.09,4.14,4.14,0,0,0,1-.27,5.08,5.08,0,0,0,1-.57c.17-.13.33-.26.48-.4a9.14,9.14,0,0,0,.47,1.6,11.49,11.49,0,0,0,1.71,3,10,10,0,0,0,5.66,3.57,8.07,8.07,0,0,0,1.85.2,9.6,9.6,0,0,0,1.76-.16,6.56,6.56,0,0,0,1.51-.52,6.9,6.9,0,0,0,1.42-.91,8,8,0,0,0,2-2.43,11.28,11.28,0,0,0,1.15-3.06,13.83,13.83,0,0,0,.33-3.3h.09a5.18,5.18,0,0,0,1.15-.16,6.53,6.53,0,0,0,2.4-1.25,10.28,10.28,0,0,0,1.07-1A9.07,9.07,0,0,0,138.3,95a6.48,6.48,0,0,0,1.1-2.61.7.7,0,0,0-.06-.5.67.67,0,0,0-.39-.29.47.47,0,0,0-.17,0,.67.67,0,0,0-.63.48q-.1.36-.24.72a10.45,10.45,0,0,1-1.09,1,7.1,7.1,0,0,1-1.36.8,4.71,4.71,0,0,1-1.15.33,4,4,0,0,1-.6,0l-.5,0a4.46,4.46,0,0,1-1-.27,5.3,5.3,0,0,1-.78-.42c-.26-.15-.51-.34-.76-.52l-.11-.08a.57.57,0,0,0-.34-.1.71.71,0,0,0-.47.2.68.68,0,0,0-.19.47.7.7,0,0,0,.19.48c-.08.78-.17,1.54-.26,2.31l-.12,1,0-.11a17.2,17.2,0,0,1-.87,3.59,7.74,7.74,0,0,1-.86,1.5,5.3,5.3,0,0,1-2.15,1.68,5.48,5.48,0,0,1-1.16.34A3.54,3.54,0,0,1,123.87,105Z"/><path class="cls-5" d="M112.19,61.94A.35.35,0,0,0,112,62a21.08,21.08,0,0,0-3,2.39,8,8,0,0,0-1.65,2.18,3.22,3.22,0,0,0-.4,1.75,2,2,0,0,0,.68,1.36,3,3,0,0,0,1.52.64,5.34,5.34,0,0,0,.69.05,7.34,7.34,0,0,0,1.58-.2,10.94,10.94,0,0,0,2.64-1,13.58,13.58,0,0,0,1.81-1.09,1,1,0,0,0-.15.42c0,.34-.1.68-.12,1a6,6,0,0,0,.06,1,6.89,6.89,0,0,0,.46,1.76,6,6,0,0,0,.43.88,6.77,6.77,0,0,0,.56.78,5.19,5.19,0,0,0,1.3,1.12,5.06,5.06,0,0,0,1.74.65,5.15,5.15,0,0,0,.86.07,7.2,7.2,0,0,0,3.37-1,.92.92,0,0,0,.44-.57.93.93,0,0,0-.1-.75,1,1,0,0,0-.84-.49.86.86,0,0,0-.47.14,7.55,7.55,0,0,1-1,.52,5.85,5.85,0,0,1-1.15.32,4.71,4.71,0,0,1-.53,0,3.71,3.71,0,0,1-.47,0,4.63,4.63,0,0,1-.85-.22,4.44,4.44,0,0,1-.75-.46,5.09,5.09,0,0,1-.74-.73,6.09,6.09,0,0,1-.65-1.12A6.89,6.89,0,0,1,117,70a6.63,6.63,0,0,1,0-1.65,7.5,7.5,0,0,1,.38-1.46.51.51,0,0,0-.24-.6.5.5,0,0,0-.26-.08.63.63,0,0,0-.39.16c-.25.21-.5.42-.76.61a15.61,15.61,0,0,1-3.08,1.85,9.31,9.31,0,0,1-2.09.6,4.93,4.93,0,0,1-.72,0l-.48,0a3.65,3.65,0,0,1-.67-.17,2.18,2.18,0,0,1-.37-.2,1.75,1.75,0,0,1-.23-.24,1.53,1.53,0,0,1-.15-.23,2.21,2.21,0,0,1-.08-.35,2,2,0,0,1,0-.42,3.17,3.17,0,0,1,.22-.79,6.24,6.24,0,0,1,.76-1.21,14.56,14.56,0,0,1,2.41-2.3c.4-.3.8-.59,1.21-.87a.38.38,0,0,0,.13-.53.41.41,0,0,0-.34-.2"/><path class="cls-5" d="M109.36,90.36a.42.42,0,0,0-.39.23A8.35,8.35,0,0,0,107.85,96a4.07,4.07,0,0,0,.86,1.74,3.24,3.24,0,0,0,1.47,1,3.35,3.35,0,0,0,1.08.18,4.57,4.57,0,0,0,2.58-.87,6.87,6.87,0,0,0,2.27-2.83,13.94,13.94,0,0,0,3.19,8.07,7.89,7.89,0,0,0,3.12,2.18,5.14,5.14,0,0,0,1.82.33,5.22,5.22,0,0,0,1.46-.22,6.32,6.32,0,0,0,3.68-3.67,15.35,15.35,0,0,0,.93-7.21,6.29,6.29,0,0,0,1.56.76,8,8,0,0,0,1.4.37,7,7,0,0,0,1,.09h.4a5.42,5.42,0,0,0,2.77-1,6.29,6.29,0,0,0,2.05-2.56,1,1,0,0,0-.36-1.36,1,1,0,0,0-1.2.16.91.91,0,0,0-.25.44l-.06.13a6.53,6.53,0,0,1-.59,1,5.28,5.28,0,0,1-.67.67,5.64,5.64,0,0,1-.81.47,4.77,4.77,0,0,1-1.05.27,6.49,6.49,0,0,1-.77,0,6.59,6.59,0,0,1-1-.07,6.72,6.72,0,0,1-1.42-.43,9.42,9.42,0,0,1-1.5-.84.58.58,0,0,0-.33-.09.7.7,0,0,0-.35.09.58.58,0,0,0-.24.25.67.67,0,0,0-.07.5l0,.15,0,.15.06-.17a24.46,24.46,0,0,1,0,5.08,10.56,10.56,0,0,1-.71,2.79,7.35,7.35,0,0,1-.8,1.39,5.3,5.3,0,0,1-.88.89,4,4,0,0,1-.85.51,4.32,4.32,0,0,1-1,.27,3.52,3.52,0,0,1-.56,0,4.08,4.08,0,0,1-.61,0,6.1,6.1,0,0,1-1.16-.33,6.7,6.7,0,0,1-1.31-.76,9.59,9.59,0,0,1-1.58-1.6,13.18,13.18,0,0,1-1.42-2.49A17.2,17.2,0,0,1,117,95.3c-.09-.74-.15-1.43-.18-2.11a.46.46,0,0,0-.34-.43.22.22,0,0,0-.12,0,.46.46,0,0,0-.44.33,11.88,11.88,0,0,1-.48,1.46,7.77,7.77,0,0,1-1,1.73,4.84,4.84,0,0,1-1.8,1.46,3.84,3.84,0,0,1-.92.26,2.88,2.88,0,0,1-.41,0,3,3,0,0,1-.42,0,3.46,3.46,0,0,1-.61-.16,3,3,0,0,1-.53-.32,3.16,3.16,0,0,1-.42-.4,3.5,3.5,0,0,1-.42-.71,5.15,5.15,0,0,1-.22-.84,5.78,5.78,0,0,1,0-1.44,9.28,9.28,0,0,1,.65-2.24c.12-.29.26-.56.4-.84a.44.44,0,0,0-.16-.6.41.41,0,0,0-.22-.07"/><path class="cls-5" d="M90.71,135.35a.3.3,0,0,0-.28.22c-.18.53-.38,1.06-.57,1.59a28.33,28.33,0,0,0-1.25,4c-.5,2.3-.17,4,1,5a3.5,3.5,0,0,0,2.33.85,5.15,5.15,0,0,0,2.54-.81,10.76,10.76,0,0,0,2.39-1.88,24,24,0,0,0,2-2.33c.2-.27.41-.54.6-.81,0,.85,0,1.6.07,2.36.14,2.14.3,3.76.53,5.26a22.05,22.05,0,0,0,1.3,5.08,9.7,9.7,0,0,0,2.69,4,6.68,6.68,0,0,0,2.14,1.23,6.94,6.94,0,0,0,1.09.27,8.28,8.28,0,0,0,1.27.11h.17a8.05,8.05,0,0,0,1.28-.16,6.7,6.7,0,0,0,1.24-.44,6.29,6.29,0,0,0,1.88-1.35,11.16,11.16,0,0,0,2.48-4.41,27.49,27.49,0,0,0,1.09-5.35c0-.33.08-.65.11-1l.16.34a5.39,5.39,0,0,0,3.88,2h.28a5.74,5.74,0,0,0,.6,0,7.4,7.4,0,0,0,1.21-.24,8.17,8.17,0,0,0,2.05-.94,11.29,11.29,0,0,0,3.48-3.62,12.78,12.78,0,0,0,1.3-2.89l0-.1a7.12,7.12,0,0,0,.72,1,13.06,13.06,0,0,0,3.37,2.87,7.94,7.94,0,0,0,4,1.14h.16a7.75,7.75,0,0,0,4.43-1.66l.12-.09.12-.09a1.21,1.21,0,0,0,.31-.55,1.18,1.18,0,0,0-.12-1,1.21,1.21,0,0,0-.73-.56,1.41,1.41,0,0,0-.35-.05,1,1,0,0,0-.61.17,8.58,8.58,0,0,1-1.53.93,5.73,5.73,0,0,1-1.24.34q-.3,0-.6,0c-.21,0-.41,0-.62,0a8.08,8.08,0,0,1-1.41-.39,9.87,9.87,0,0,1-1.77-1.06,13.83,13.83,0,0,1-2.23-2.28,18,18,0,0,1-1.69-2.72,1.11,1.11,0,0,0-1-.59,1.06,1.06,0,0,0-.31,0,1.21,1.21,0,0,0-.88,1.15c0,.41,0,.82-.08,1.24a12.58,12.58,0,0,1-.76,2.7,11.94,11.94,0,0,1-1.3,2.19,9.17,9.17,0,0,1-1.52,1.53,8.62,8.62,0,0,1-1.46.89,5.93,5.93,0,0,1-1.23.33,3.59,3.59,0,0,1-.47,0l-.44,0a5.17,5.17,0,0,1-.76-.2,5,5,0,0,1-.7-.42,4.68,4.68,0,0,1-.69-.71,6.3,6.3,0,0,1-.76-1.35,12.38,12.38,0,0,1-.73-3,1.37,1.37,0,0,0-.29-.5,1.14,1.14,0,0,0-.77-.32,1.11,1.11,0,0,0-1.1,1.1,57.86,57.86,0,0,1-.42,6.94l.1-.15a25.89,25.89,0,0,1-1.44,5.47,10,10,0,0,1-1.14,2,6.56,6.56,0,0,1-1,1,5,5,0,0,1-.92.54,5.89,5.89,0,0,1-1.08.29,5.79,5.79,0,0,1-.72,0,7,7,0,0,1-.79,0,6.1,6.1,0,0,1-1.24-.33,5.7,5.7,0,0,1-1.08-.64,7.3,7.3,0,0,1-1.1-1.12,11.23,11.23,0,0,1-1.27-2.23,27.41,27.41,0,0,1-1.64-6.71c-.19-1.4-.29-2.72-.38-3.86l0-.79,0-.27c-.06-.83-.11-1.54-.22-2.25a.59.59,0,0,0-.42-.43.41.41,0,0,0-.16,0,.58.58,0,0,0-.53.3,13.92,13.92,0,0,1-.75,1.31c-.37.58-.73,1.09-1.11,1.59a15.59,15.59,0,0,1-2.81,2.9,7.86,7.86,0,0,1-1.58,1,4.56,4.56,0,0,1-1,.27l-.46,0a2.17,2.17,0,0,1-.36,0,3.36,3.36,0,0,1-.69-.18,3.05,3.05,0,0,1-.62-.38,2.74,2.74,0,0,1-.45-.45,3.57,3.57,0,0,1-.31-.52,4.89,4.89,0,0,1-.23-.88,7.4,7.4,0,0,1,0-1.87,23.81,23.81,0,0,1,1.32-4.59l.07-.2c.16-.43.32-.86.46-1.29a.23.23,0,0,0,0-.21.26.26,0,0,0-.18-.15l-.08,0"/><path class="cls-5" d="M72.94,168a.51.51,0,0,0-.39.17,9.62,9.62,0,0,0-2.32,5.22,4.22,4.22,0,0,0,1.36,3.52,3.55,3.55,0,0,0,2.27.78,4.61,4.61,0,0,0,1.38-.22,7.05,7.05,0,0,0,3-2,11,11,0,0,0,.57,4.13,6.61,6.61,0,0,0,2.57,3.49,5.23,5.23,0,0,0,2.88.8,8,8,0,0,0,1-.06A8.77,8.77,0,0,0,89.09,182a15.38,15.38,0,0,0,4.71-6.18,6.29,6.29,0,0,0,3.19,1h.2a7.69,7.69,0,0,0,2-.32,13.68,13.68,0,0,0,2.27-1A1,1,0,0,0,102,175a1.16,1.16,0,0,0-.1-.95,1.11,1.11,0,0,0-1-.57,1.2,1.2,0,0,0-.59.15c-.39.21-.78.4-1.18.58a7.82,7.82,0,0,1-1.66.48l-.61,0c-.2,0-.41,0-.61,0a5.49,5.49,0,0,1-1-.27,8.52,8.52,0,0,1-1.41-.85.79.79,0,0,0-.49-.14,1,1,0,0,0-.95.71c-.13.36-.26.72-.4,1.07a16.35,16.35,0,0,1-2,3.36,12.19,12.19,0,0,1-2,2.07,9.93,9.93,0,0,1-1.77,1.07,8,8,0,0,1-1.57.44,6.08,6.08,0,0,1-.61,0l-.51,0a5,5,0,0,1-1-.25,4.16,4.16,0,0,1-.76-.46,4.67,4.67,0,0,1-.77-.77,6.88,6.88,0,0,1-.74-1.25,10.71,10.71,0,0,1-.66-2.61,18.09,18.09,0,0,1-.1-3.38.66.66,0,0,0-.49-.64l-.19,0a.69.69,0,0,0-.58.34,10.46,10.46,0,0,1-.7,1,8.61,8.61,0,0,1-1.37,1.39,6.28,6.28,0,0,1-1.13.68,4.31,4.31,0,0,1-.85.24,3.39,3.39,0,0,1-.45,0h-.34a2.82,2.82,0,0,1-.58-.16,2.14,2.14,0,0,1-.45-.27,3.58,3.58,0,0,1-.44-.43,3.3,3.3,0,0,1-.33-.57,4.66,4.66,0,0,1-.2-.8,5,5,0,0,1,0-1.16,7.07,7.07,0,0,1,.47-1.67,10.93,10.93,0,0,1,1.35-2.24l.1-.15a.57.57,0,0,0,0-.82.62.62,0,0,0-.44-.17"/><path class="cls-5" d="M168.06,179.72a1.21,1.21,0,0,0-1.13.87l0,.16,0,.15a1.12,1.12,0,0,0,.16.6l.07.16.07.16a18.5,18.5,0,0,1,1.32,4.39,8.52,8.52,0,0,1,0,1.88,5.64,5.64,0,0,1-.25.94,4.07,4.07,0,0,1-.35.6,4.29,4.29,0,0,1-.48.47,4,4,0,0,1-.69.39,5.39,5.39,0,0,1-1.23.32,8.89,8.89,0,0,1-1,.06,11.87,11.87,0,0,1-1.33-.08,19.58,19.58,0,0,1-4.85-1.39l.07.11a30.22,30.22,0,0,1-5.22-3.14,23.34,23.34,0,0,1-4.06-4.07v.12c-.42-.7-.77-1.32-1.06-1.91a.75.75,0,0,0-.68-.39.69.69,0,0,0-.2,0,.77.77,0,0,0-.53,1c.09.45.17.92.24,1.39l.06-.19a20.64,20.64,0,0,1-.05,3.89v.14a13.7,13.7,0,0,1-.75,2.8,10.94,10.94,0,0,1-1.15,2,8.07,8.07,0,0,1-1.39,1.41,6.64,6.64,0,0,1-1.28.76,5.7,5.7,0,0,1-1.4.38,5.14,5.14,0,0,1-1.43,0,6.6,6.6,0,0,1-1.43-.38,8.22,8.22,0,0,1-1.78-1,11.76,11.76,0,0,1-2-2,19.23,19.23,0,0,1-1.59-2.45.48.48,0,0,0-.42-.24.34.34,0,0,0-.14,0,.44.44,0,0,0-.28.22.5.5,0,0,0-.05.38,12.2,12.2,0,0,1,.25,1.29,10.9,10.9,0,0,1,0,2.91,12.15,12.15,0,0,1-.67,2.48,9.83,9.83,0,0,1-1.15,2,6.77,6.77,0,0,1-1.16,1.17,5.28,5.28,0,0,1-.94.56,5.4,5.4,0,0,1-.73.21l-.38,0-.37,0a3.21,3.21,0,0,1-.58-.16,4.3,4.3,0,0,1-.61-.35,5.32,5.32,0,0,1-.74-.77,7.8,7.8,0,0,1-.83-1.48,14.42,14.42,0,0,1-.8-2.93.43.43,0,0,0-.42-.32.46.46,0,0,0-.41.53,14.77,14.77,0,0,0,.92,3.2,6.84,6.84,0,0,0,1.29,2,3.91,3.91,0,0,0,1.59,1,2.75,2.75,0,0,0,.93.14,4.1,4.1,0,0,0,.81-.08,5.72,5.72,0,0,0,3.13-2.21,10.57,10.57,0,0,0,2-4.44,12.24,12.24,0,0,0,.18-2.71,5.11,5.11,0,0,0,.8,1.19,11.83,11.83,0,0,0,2.25,2.1,7.34,7.34,0,0,0,4.23,1.42h.42a7.14,7.14,0,0,0,4.24-1.88,10.34,10.34,0,0,0,2.79-4.45,13.43,13.43,0,0,0,.69-4.45,3.09,3.09,0,0,0,.5.77,20.76,20.76,0,0,0,3.22,3.07,25.9,25.9,0,0,0,8,4.35,16.58,16.58,0,0,0,3.94.79l.63,0a8.72,8.72,0,0,0,1-.06,6.73,6.73,0,0,0,1.69-.38,6.17,6.17,0,0,0,.83-.37,4.82,4.82,0,0,0,.79-.54,4.76,4.76,0,0,0,1-1.19,5.46,5.46,0,0,0,.65-1.59,7.73,7.73,0,0,0,.19-2,13,13,0,0,0-.51-3l-.07-.22a7.78,7.78,0,0,0,2.17.77,8.87,8.87,0,0,0,1.79.19,9.93,9.93,0,0,0,1.26-.09,7.24,7.24,0,0,0,2.84-1.09,1.14,1.14,0,0,0,.51-.67,1.12,1.12,0,0,0-.11-.86,1.16,1.16,0,0,0-1-.57.94.94,0,0,0-.54.17,8.45,8.45,0,0,1-.89.49,6,6,0,0,1-1.25.33,6.56,6.56,0,0,1-.76,0,5.92,5.92,0,0,1-.84,0,8.71,8.71,0,0,1-1.83-.49c-.37-.17-.73-.34-1.08-.54a9.6,9.6,0,0,1-1.06-.7c-.26-.2-.5-.41-.74-.63a1.26,1.26,0,0,0-.84-.35"/><path class="cls-5" d="M69.27,238.18a.6.6,0,0,0-.56.43A24.93,24.93,0,0,0,67.12,245a7.73,7.73,0,0,0,.12,2.07,3.36,3.36,0,0,0,.67,1.43,2.4,2.4,0,0,0,1.13.75,2.64,2.64,0,0,0,.81.12,4.91,4.91,0,0,0,.67,0,6.49,6.49,0,0,0,1.61-.51,11.11,11.11,0,0,0,1.71-1,20.83,20.83,0,0,0,3.74-3.33,26.28,26.28,0,0,0,2.52-3.24,12,12,0,0,0,0,1.47v.5l0,.33,0,.66a44.78,44.78,0,0,0,.49,5.47,15.28,15.28,0,0,0,1.58,5A7.54,7.54,0,0,0,85.68,258a7.71,7.71,0,0,0,3.16.68,6.89,6.89,0,0,0,2-.29,8.18,8.18,0,0,0,4-3,24.13,24.13,0,0,0,2.62-4.62c.22-.48.44-1,.65-1.45l.11-.24.18-.41.42-.93a12.74,12.74,0,0,0,1.68,3.78,9.74,9.74,0,0,0,3.57,3.43,5.53,5.53,0,0,0,2.54.66,4.42,4.42,0,0,0,1.66-.32,7.1,7.1,0,0,0,3.58-3.82,13.55,13.55,0,0,0,1.36,3,14.87,14.87,0,0,0,2,2.63,9.56,9.56,0,0,0,2.5,1.85,6.71,6.71,0,0,0,3,.72,6.84,6.84,0,0,0,3.21-.88,6.71,6.71,0,0,0,2.21-2.07,9.78,9.78,0,0,0,1.25-2.69,14.91,14.91,0,0,0,.51-2.36c.12-.84.21-1.73.26-2.71,0-.64,0-1.28,0-1.91l0,.11.13.08a6,6,0,0,0,1.36.63,6.48,6.48,0,0,0,1.47.31,5.48,5.48,0,0,0,.7,0,8,8,0,0,0,3.64-.95,8,8,0,0,0,1.44-1,1,1,0,0,0,.31-.75,1.08,1.08,0,0,0-.31-.75,1.06,1.06,0,0,0-.75-.31,1.2,1.2,0,0,0-.75.31,7.91,7.91,0,0,1-1.45.86,6.89,6.89,0,0,1-1.42.39,6.45,6.45,0,0,1-.76,0l-.62,0a6,6,0,0,1-1.18-.32,6.71,6.71,0,0,1-.93-.54,6.08,6.08,0,0,1-.79-.81A4.87,4.87,0,0,1,128,244a1.08,1.08,0,0,0-.92-.53,1,1,0,0,0-.29.05,1,1,0,0,0-.77,1V245a41.91,41.91,0,0,1-.22,6.24,13.87,13.87,0,0,1-.8,3.12,7.93,7.93,0,0,1-.83,1.43,4.7,4.7,0,0,1-.83.84,6.76,6.76,0,0,1-1,.57,6.5,6.5,0,0,1-1.21.33,5,5,0,0,1-.55,0,3.76,3.76,0,0,1-.57,0,6.9,6.9,0,0,1-1.12-.3,8.06,8.06,0,0,1-1.36-.82,11.21,11.21,0,0,1-1.81-1.83,17.3,17.3,0,0,1-2-3.52,14.63,14.63,0,0,1-.89-3,1,1,0,0,0-.94-.72,1,1,0,0,0-.93.71,18.91,18.91,0,0,1-.79,2.48,9.08,9.08,0,0,1-1.06,1.86,4.9,4.9,0,0,1-.81.83,5.49,5.49,0,0,1-.76.46,5,5,0,0,1-.69.18l-.42,0-.41,0a4.88,4.88,0,0,1-1.08-.31,6.84,6.84,0,0,1-1.18-.71,10,10,0,0,1-1.64-1.67,15,15,0,0,1-1.78-3.17,15.71,15.71,0,0,1-.72-2.36.68.68,0,0,0-.69-.5.61.61,0,0,0-.58.34c-.5,1-.94,2-1.32,2.9l0,.1-.19.44c-.17.39-.33.78-.51,1.16a23.11,23.11,0,0,1-2.57,4.61,9.45,9.45,0,0,1-1.49,1.53,6.23,6.23,0,0,1-1.39.83,6,6,0,0,1-1.33.36c-.25,0-.49,0-.74,0a6.51,6.51,0,0,1-.88-.06,7,7,0,0,1-1.63-.43,6.61,6.61,0,0,1-1.34-.78,6.88,6.88,0,0,1-1.1-1.12,10,10,0,0,1-1.11-1.93,18.34,18.34,0,0,1-1.12-4.5c-.22-1.72-.3-3.33-.36-4.83l0-1.15c0-1.17-.07-2.14-.15-3.1a.59.59,0,0,0-.42-.55.41.41,0,0,0-.16,0,.58.58,0,0,0-.5.28A29.87,29.87,0,0,1,78.16,242l-.08.11A24,24,0,0,1,74,246.36a12,12,0,0,1-2.42,1.48l-.11.08a7.6,7.6,0,0,1-1.15.3l-.38,0h-.21a2.13,2.13,0,0,1-.42-.1A1.64,1.64,0,0,1,69,248a1.41,1.41,0,0,1-.25-.24,2.36,2.36,0,0,1-.22-.38,3.88,3.88,0,0,1-.2-.78,8.48,8.48,0,0,1,0-2.18,27.4,27.4,0,0,1,1.47-5.46.46.46,0,0,0,0-.41.55.55,0,0,0-.37-.31.41.41,0,0,0-.16,0"/><path class="cls-5" d="M182.41,229.42a1.33,1.33,0,0,0-1,.4,1.46,1.46,0,0,0-.41,1c0,.31,0,.62-.07.93a9.1,9.1,0,0,1-.48,1.87,5.41,5.41,0,0,1-.57,1,4.25,4.25,0,0,1-.6.6,5.26,5.26,0,0,1-.76.45,6,6,0,0,1-1.37.35,6.79,6.79,0,0,1-.9.05,10,10,0,0,1-1.32-.09,20.94,20.94,0,0,1-5.1-1.51,38.28,38.28,0,0,1-3.85-2c-.56-.34-1.12-.69-1.66-1.06l-.41-.28-.35-.24-.31-.19-.37-.25a.63.63,0,0,0-.36-.1.75.75,0,0,0-.75.95l0,.14,0,.14a9.59,9.59,0,0,1,0,2.27,11.63,11.63,0,0,1-.73,2.6,10.49,10.49,0,0,1-1.17,2.05,8.6,8.6,0,0,1-1.26,1.29,6,6,0,0,1-1,.6,4.37,4.37,0,0,1-.93.26,3,3,0,0,1-.42,0,3.1,3.1,0,0,1-.43,0,4.51,4.51,0,0,1-.79-.22,5.19,5.19,0,0,1-1-.62,7.2,7.2,0,0,1-1-1.08,10.9,10.9,0,0,1-.83-1.26.44.44,0,0,0-.37-.21.3.3,0,0,0-.2.06.42.42,0,0,0-.16.57c1.17,2,2.46,3.2,4,3.6a3.81,3.81,0,0,0,.95.12,5,5,0,0,0,3.07-1.17,10,10,0,0,0,2.91-4.05,11.93,11.93,0,0,0,.9-3.7l.18.21c.55.42,1.13.82,1.79,1.24a35.69,35.69,0,0,0,4.25,2.34,20.33,20.33,0,0,0,4.72,1.64,12.18,12.18,0,0,0,2.5.28,7.92,7.92,0,0,0,2.11-.27,6.1,6.1,0,0,0,1.8-.81,7.11,7.11,0,0,0,.85-.67,6.11,6.11,0,0,0,.7-.84,7,7,0,0,0,1.08-2.17,12.21,12.21,0,0,0,.52-2.81,1.39,1.39,0,0,0-.41-1,1.41,1.41,0,0,0-1-.4"/><path class="cls-5" d="M46.43,275a.59.59,0,0,0-.43.21c-.47.6-.89,1.1-1.32,1.6l-.09.1-.09.1-1.62,1.93a35.54,35.54,0,0,0-3.55,5,11.91,11.91,0,0,0-1.12,2.53,5.74,5.74,0,0,0-.29,2.37,4.33,4.33,0,0,0,.9,2.19,4.45,4.45,0,0,0,1.83,1.46,4.6,4.6,0,0,0,1.83.36,7,7,0,0,0,2-.33,14.86,14.86,0,0,0,4.08-2.08,32.24,32.24,0,0,0,3.73-3c.52-.48,1-1,1.53-1.47l-.17.62a34.91,34.91,0,0,0-.52,8.85,9.62,9.62,0,0,0,1.78,4.93,7,7,0,0,0,4.41,2.53,6.63,6.63,0,0,0,1.06.08,8.06,8.06,0,0,0,1.34-.11,8.24,8.24,0,0,0,2.22-.78A13.93,13.93,0,0,0,68,298.87a32.12,32.12,0,0,0,3.57-4.67A54.36,54.36,0,0,0,74.55,289c.67-1.31,1.31-2.65,1.89-4a13.59,13.59,0,0,0,.63,3.2,13.22,13.22,0,0,0,3,5.31,6.8,6.8,0,0,0,4.81,2.15c1.89,0,3.84-.94,5.8-2.77l.65-.65a21.62,21.62,0,0,0,.73,4.58,17.15,17.15,0,0,0,1,2.84,10.54,10.54,0,0,0,1.33,2.18A5.88,5.88,0,0,0,96,303.31a4.46,4.46,0,0,0,2,.64h.26a4.9,4.9,0,0,0,1.89-.44,7.47,7.47,0,0,0,2-1.37,14.86,14.86,0,0,0,2.45-3c.43-.65.83-1.33,1.2-2a.4.4,0,0,0,0,.3,14.52,14.52,0,0,0,1.11,2.75,12.32,12.32,0,0,0,1.49,2.19,10.26,10.26,0,0,0,1.81,1.61,8.23,8.23,0,0,0,2,1,8.69,8.69,0,0,0,2.17.48c.22,0,.45,0,.68,0a10.16,10.16,0,0,0,1.53-.13,9.66,9.66,0,0,0,2.16-.67,11.22,11.22,0,0,0,4.65-4,14.73,14.73,0,0,0,1.66-3.28,17.85,17.85,0,0,0,1-3.91l0-.15,0-.16a1.09,1.09,0,0,0-.18-.61,1.16,1.16,0,0,0-.71-.55.88.88,0,0,0-.33-.05,1.15,1.15,0,0,0-.6.16,1.24,1.24,0,0,0-.61,1.05l0,.38a17,17,0,0,1-1,3.87,13.32,13.32,0,0,1-1.53,2.64,11.15,11.15,0,0,1-1.74,1.76,10.52,10.52,0,0,1-1.71,1,8.65,8.65,0,0,1-1.74.47l-.12,0h-.16l-.65,0a6.11,6.11,0,0,1-2.46-.5,8.19,8.19,0,0,1-1.49-.88,8.86,8.86,0,0,1-1.43-1.44,11.72,11.72,0,0,1-1.39-2.39,16.44,16.44,0,0,1-1-3.93l0-.18a1,1,0,0,0-.15-.5.94.94,0,0,0-.59-.46.81.81,0,0,0-.27,0,1,1,0,0,0-.27,0,1,1,0,0,0-.6.46,28.62,28.62,0,0,1-3.1,5.5,11.89,11.89,0,0,1-1.78,1.86,5.74,5.74,0,0,1-1.12.69,3.62,3.62,0,0,1-.77.22l-.31,0-.31,0a2.17,2.17,0,0,1-.55-.15,4.28,4.28,0,0,1-.67-.39,6.45,6.45,0,0,1-.84-.88,9.84,9.84,0,0,1-1.11-1.95,20.17,20.17,0,0,1-1.32-5.18,34.61,34.61,0,0,1-.28-3.66,1,1,0,0,0-.75-1,.92.92,0,0,0-.28-.05,1,1,0,0,0-.28.05,1.06,1.06,0,0,0-.61.47l-.09.12-.12.16-.21.27a15.41,15.41,0,0,1-2.53,2.61,9,9,0,0,1-1.7,1,6.8,6.8,0,0,1-1.25.34,4,4,0,0,1-.6,0l-.56,0a5.68,5.68,0,0,1-1-.28,6.26,6.26,0,0,1-1.2-.72,8.27,8.27,0,0,1-1.31-1.33,13.26,13.26,0,0,1-1.53-2.67A17.76,17.76,0,0,1,78,284.56a18.47,18.47,0,0,1-.13-3.07.83.83,0,0,0-.62-.8.78.78,0,0,0-.22,0,.91.91,0,0,0-.42.11.87.87,0,0,0-.38.49c-.35.91-.7,1.81-1.08,2.71l.08-.05c-1,2.31-2,4.32-2.9,6a44.26,44.26,0,0,1-4,6.3A20.1,20.1,0,0,1,65,299.73a10.75,10.75,0,0,1-2.1,1.28,7.68,7.68,0,0,1-1.76.5,6.47,6.47,0,0,1-.76.05,6.78,6.78,0,0,1-.77-.05,7.17,7.17,0,0,1-1.56-.44,5.3,5.3,0,0,1-2.15-1.66,6.82,6.82,0,0,1-.78-1.36,11,11,0,0,1-.67-2.55,29.67,29.67,0,0,1,.29-7.85l.13-.87c.11-.83.23-1.66.32-2.49a.49.49,0,0,0-.14-.38.67.67,0,0,0-.48-.21.52.52,0,0,0-.39.17,34.52,34.52,0,0,1-4.95,4.7,20,20,0,0,1-4.14,2.54,8.37,8.37,0,0,1-2,.55,5,5,0,0,1-.67,0,3.9,3.9,0,0,1-.59,0,4,4,0,0,1-.79-.21,3.55,3.55,0,0,1-1.38-1.11,4.93,4.93,0,0,1-.52-.84,3.44,3.44,0,0,1-.18-.7,3.83,3.83,0,0,1,0-1.07,8.25,8.25,0,0,1,.57-2,23.16,23.16,0,0,1,3-4.78c.89-1.16,1.81-2.24,2.43-3l.34-.4c.52-.6,1-1.21,1.52-1.84a.41.41,0,0,0,.08-.34.63.63,0,0,0-.26-.38.47.47,0,0,0-.25-.07"/><path class="cls-5" d="M200.06,282.41a.83.83,0,0,0-.54.22.79.79,0,0,0-.11.92,20.15,20.15,0,0,1,1.13,2.21.32.32,0,0,0,0,.1,9.66,9.66,0,0,1,.65,2.24,4.87,4.87,0,0,1,0,1.14,3.52,3.52,0,0,1-.18.71,2,2,0,0,1-.28.47,2.65,2.65,0,0,1-.41.41,3.6,3.6,0,0,1-.71.42,5.84,5.84,0,0,1-1.23.31,8.72,8.72,0,0,1-1.11.06,11.77,11.77,0,0,1-1.76-.13,22.11,22.11,0,0,1-5.41-1.54,21.71,21.71,0,0,1-4.79-2.72,11,11,0,0,1-.92-.79.48.48,0,0,0-.33-.13.5.5,0,0,0-.37.17.54.54,0,0,0-.1.43c.07.36.14.73.19,1.1l0,.11a14,14,0,0,1,0,3.17l0,.11a10.28,10.28,0,0,1-.64,2.41,7,7,0,0,1-.88,1.5,4.69,4.69,0,0,1-.88.9,4.61,4.61,0,0,1-.78.47,3.62,3.62,0,0,1-.71.19l-.36,0h-.3a3.15,3.15,0,0,1-.63-.17,4,4,0,0,1-.69-.4,5.05,5.05,0,0,1-.72-.74,8.13,8.13,0,0,1-.85-1.48,13.64,13.64,0,0,1-.83-3.32l0-.19a.48.48,0,0,0-.46-.47.6.6,0,0,0-.37.17.4.4,0,0,0-.1.3,11.56,11.56,0,0,0,1.87,5.49,4.49,4.49,0,0,0,1.48,1.32,3.46,3.46,0,0,0,1.67.43,4.44,4.44,0,0,0,3.14-1.59,8.57,8.57,0,0,0,1.93-4.26,13.65,13.65,0,0,0,.06-4.05,12.2,12.2,0,0,0,2.2,1.58,25.18,25.18,0,0,0,4.08,1.91,22.3,22.3,0,0,0,4.21,1.16,13.54,13.54,0,0,0,2.2.19,10.81,10.81,0,0,0,1.61-.13,4.87,4.87,0,0,0,2.16-.93,3.53,3.53,0,0,0,1.21-1.93,6.1,6.1,0,0,0-.09-2.92,12,12,0,0,0-.67-2l.1.13a4.39,4.39,0,0,0,.44.21,10.3,10.3,0,0,0,2.72.68,8.12,8.12,0,0,0,.86,0,8.3,8.3,0,0,0,4.45-1.33,1.14,1.14,0,0,0,.4-1.53,1.16,1.16,0,0,0-.67-.52,1.08,1.08,0,0,0-.3,0,1.24,1.24,0,0,0-.3,0,1.22,1.22,0,0,0-.47.26,6.77,6.77,0,0,1-1.2.71,7.27,7.27,0,0,1-1.51.39,7,7,0,0,1-.79,0,8.18,8.18,0,0,1-1-.06c-.43-.06-.84-.15-1.27-.25l-.18,0-.11,0a3.22,3.22,0,0,0-.5-.12,2.17,2.17,0,0,1-.59-.2c-.39-.17-.82-.38-1.35-.67a.73.73,0,0,0-.38-.11"/><path class="cls-6" d="M154.77,105.12a.34.34,0,0,0,.12.46l2.21,1.49c1,.67,2,1.37,3,2.11l-.08-.06a18.11,18.11,0,0,1,3.14,2.92,4.91,4.91,0,0,1,.58.92c0,.12.07.23.1.35v.2l0,.11-.06.11-.12.12-.29.16a4.58,4.58,0,0,1-1.09.27,16.67,16.67,0,0,1-3.46,0,.76.76,0,0,0-.38,1.41l.41.27-.16-.13c.34.27.71.51,1.07.75s.58.41.86.63a16,16,0,0,1,2.63,2.57,10.46,10.46,0,0,1,1.18,2,7.14,7.14,0,0,1,.38,1.35,4.22,4.22,0,0,1,0,.94,3.35,3.35,0,0,1-.17.62,2.43,2.43,0,0,1-.2.35,2.13,2.13,0,0,1-.3.3,2.43,2.43,0,0,1-.35.2,3.25,3.25,0,0,1-.61.17,5.57,5.57,0,0,1-1,0,8.9,8.9,0,0,1-1.78-.52,16.4,16.4,0,0,1-3.11-1.88c-.75-.59-1.47-1.23-2.17-1.89a1.2,1.2,0,0,0-1.11-.3,1.15,1.15,0,0,0-.83,1.1c.08,1,.13,2,.15,3,0,.44,0,.89,0,1.33a10.92,10.92,0,0,1-.09,1.15,10,10,0,0,1-.56,2.21,4.37,4.37,0,0,1-.43.76,3.5,3.5,0,0,1-.38.39,1.77,1.77,0,0,1-.33.19,2.26,2.26,0,0,1-.37.11,2.48,2.48,0,0,1-.47,0,4.22,4.22,0,0,1-.79-.23,7.08,7.08,0,0,1-1.49-.91l.13.11a19.9,19.9,0,0,1-3.39-3.59c-.21-.26-.41-.53-.6-.8a.65.65,0,0,0-1.21.32c0,.22,0,.43-.05.64a6.28,6.28,0,0,1-.38,1.43,5.28,5.28,0,0,1-.56,1,4,4,0,0,1-.61.62,3.25,3.25,0,0,1-.65.38,3.73,3.73,0,0,1-.81.22,3.84,3.84,0,0,1-.83,0,5.14,5.14,0,0,1-1-.28,7.23,7.23,0,0,1-1.26-.75.75.75,0,0,0-1,.26.77.77,0,0,0,.27,1,7.76,7.76,0,0,0,1.48.78,5.57,5.57,0,0,0,1.45.34,4.38,4.38,0,0,0,2.64-.58,5.14,5.14,0,0,0,1.88-2,6.14,6.14,0,0,0,.55-1.42,20,20,0,0,0,3.34,3.53,5.18,5.18,0,0,0,3.59,1.44,3,3,0,0,0,1.51-.58,4.47,4.47,0,0,0,1.21-1.45,12.71,12.71,0,0,0,1.18-4.49c.05-.34.11-.67.14-1,0-.19,0-.38,0-.57.42.34.86.67,1.3,1a15.21,15.21,0,0,0,2.94,1.66,9.14,9.14,0,0,0,2.57.64,5,5,0,0,0,.95,0,4.93,4.93,0,0,0,1.13-.23,4,4,0,0,0,1.69-1.11,4.16,4.16,0,0,0,.93-1.79,6.62,6.62,0,0,0-.78-4.46,10.32,10.32,0,0,0-1-1.58,12.25,12.25,0,0,0-1.43-1.54,17.76,17.76,0,0,0-1.86-1.48l-.27-.18.55-.07A5.11,5.11,0,0,0,164,115a1.83,1.83,0,0,0,.86-1.14,2.18,2.18,0,0,0-.27-1.39,6,6,0,0,0-1-1.33,16.49,16.49,0,0,0-1.52-1.37c-1.2-1-2.46-1.85-3.73-2.71-1-.7-2.07-1.35-3.09-2.06a.29.29,0,0,0-.16,0,.32.32,0,0,0-.29.16m8.34,6.92,0,0,0,0m.54,1.75,0,0,0,0M157,123.13l.12.08-.12-.08m6.28,2.54h0M143,128.22l0,0Zm9.77,1.56-.05.11a1.17,1.17,0,0,1,.05-.11m-14.45.4.08,0-.08,0m2.9.09,0,0,0,0"/><path class="cls-6" d="M64.69,188.3a20.29,20.29,0,0,0-2.12,2.59,6.73,6.73,0,0,0-.93,2,2.21,2.21,0,0,0,.09,1.48,1.81,1.81,0,0,0,.92.87,4,4,0,0,0,1.57.32,8.67,8.67,0,0,0,2-.2,17.68,17.68,0,0,0,4.53-1.59,18.08,18.08,0,0,0,2-1.16c-.06.2-.11.4-.16.61a8.43,8.43,0,0,0-.15,1.23,6.13,6.13,0,0,0,.07,1.13,4.09,4.09,0,0,0,2,3,4.8,4.8,0,0,0,3.84.2A7.16,7.16,0,0,0,80,198c-.07.2-.14.41-.2.61-.19.58-.37,1.17-.53,1.76a21.88,21.88,0,0,0-.69,3.59,10.29,10.29,0,0,0,.19,3.41,7.73,7.73,0,0,0,.58,1.54,6.79,6.79,0,0,0,1,1.49,9.88,9.88,0,0,0,1.37,1.22,6.91,6.91,0,0,0,1.51.82,5.81,5.81,0,0,0,1.43.32,5.12,5.12,0,0,0,1.51-.09,5.37,5.37,0,0,0,1.34-.43,8.18,8.18,0,0,0,1.23-.68,12.81,12.81,0,0,0,2.34-2.07,24.3,24.3,0,0,0,2.64-3.58c.19-.3.38-.61.56-.92q.28.66.63,1.29a10.84,10.84,0,0,0,2.94,3.48,5.44,5.44,0,0,0,3.81,1.2,4.77,4.77,0,0,0,1-.21,5.29,5.29,0,0,0,1.13-.53,7.27,7.27,0,0,0,2-1.76l.18-.23a1.11,1.11,0,0,0-.18-1.35,1.11,1.11,0,0,0-.79-.33,1.07,1.07,0,0,0-.79.33,7.29,7.29,0,0,1-1.19,1.23,5.14,5.14,0,0,1-.78.46,3.46,3.46,0,0,1-.68.19,3.75,3.75,0,0,1-.67,0,4.42,4.42,0,0,1-.81-.23,6.4,6.4,0,0,1-1-.6,9.61,9.61,0,0,1-1.3-1.33,12.31,12.31,0,0,1-1.37-2.36,11.7,11.7,0,0,1-.71-2.59,1.08,1.08,0,0,0-.29-.51,1.1,1.1,0,0,0-.5-.29,1.16,1.16,0,0,0-1.3.52,33.48,33.48,0,0,1-3.28,5.49,14.92,14.92,0,0,1-2.43,2.53,8.24,8.24,0,0,1-1.36.83,4.84,4.84,0,0,1-1.05.3,3.93,3.93,0,0,1-.84,0,4.22,4.22,0,0,1-.86-.24,5.59,5.59,0,0,1-1-.61,8.44,8.44,0,0,1-1.21-1.18,6.61,6.61,0,0,1-.57-1,7.4,7.4,0,0,1-.37-1.4,11.65,11.65,0,0,1,0-2.89,31.26,31.26,0,0,1,1-4.07c.1-.35.2-.7.31-1.05s.17-.68.26-1c.18-.6.36-1.2.52-1.81a.87.87,0,0,0-.39-1,.89.89,0,0,0-.66-.08.85.85,0,0,0-.5.39l-.07.09a10.61,10.61,0,0,1-1.66,1.69,7.8,7.8,0,0,1-1.39.82,6,6,0,0,1-1.17.33,4.41,4.41,0,0,1-.89,0,2.59,2.59,0,0,1-.66-.18,2.43,2.43,0,0,1-.52-.3,2.68,2.68,0,0,1-.44-.45A3.16,3.16,0,0,1,74,196a5.35,5.35,0,0,1-.24-.87,6.35,6.35,0,0,1,0-1.57,9.93,9.93,0,0,1,.21-1.06,7.66,7.66,0,0,1,.39-1.14h0v0l0-.08s0,0,0,0a.57.57,0,0,0-.09-.67.55.55,0,0,0-.78,0c-.33.31-.67.6-1,.88l.11-.09a17.4,17.4,0,0,1-3.78,2.19l.08,0a15.5,15.5,0,0,1-3.8,1.1,6.18,6.18,0,0,1-1.49,0,2.86,2.86,0,0,1-.64-.16,3.07,3.07,0,0,1-.31-.17,1.21,1.21,0,0,1-.16-.16,1.18,1.18,0,0,1-.11-.19,1.05,1.05,0,0,1-.06-.24,2.8,2.8,0,0,1,0-.41,5.07,5.07,0,0,1,.22-.76s0,0,0,0l0-.06v0a9.62,9.62,0,0,1,1.26-2s0,.06-.07.08c.45-.57.93-1.12,1.43-1.65a.41.41,0,0,0,0-.57.4.4,0,0,0-.29-.12.38.38,0,0,0-.28.12m-2.28,4.9v0Zm0,.06a.09.09,0,0,1,0,.05Zm.13.78,0,0,0,0m2.73.51h0m15.77.16-.06.08.06-.08M74.85,197a.1.1,0,0,0,.05,0,.1.1,0,0,1-.05,0m1.16.45h0m14.31,9.32a1.33,1.33,0,0,1-.14.19l.14-.19M68.86,193.5h0m-6.23-1h0l0,0v0"/><path class="cls-6" d="M189.93,236a.33.33,0,0,0,.11.44,11.81,11.81,0,0,1,2.44,1.34l0,0,0,0,0,0,0,0a5.16,5.16,0,0,1,.78.77,2.55,2.55,0,0,1,.3.5,1.89,1.89,0,0,1,.1.36,1.86,1.86,0,0,1,0,.41,1.58,1.58,0,0,1-.09.31,1.88,1.88,0,0,1-.24.44,4.25,4.25,0,0,1-.6.6s0,0,0,0l0,0,0,0,0,0a7,7,0,0,1-1.43.82h0l-.08,0,.06,0a12.58,12.58,0,0,1-3,.8h.1a12.77,12.77,0,0,1-3.15,0q-.41-.06-.81-.15a.45.45,0,0,0-.44.11.47.47,0,0,0-.07.55c.09.21.19.41.28.62.42,1,.82,2.07,1.14,3.15a24.2,24.2,0,0,1,.66,3.13s0-.07,0-.11a16.63,16.63,0,0,1,.07,4.17,9.15,9.15,0,0,1-.53,2,6,6,0,0,1-.6,1,4.23,4.23,0,0,1-.56.56,3.39,3.39,0,0,1-.56.32,3.28,3.28,0,0,1-.68.19,4.91,4.91,0,0,1-.94,0,7.7,7.7,0,0,1-1.49-.43,14.76,14.76,0,0,1-2.8-1.75h0a30.51,30.51,0,0,1-3-2.79.85.85,0,0,0-.84-.23.9.9,0,0,0-.64.84c0,.33-.06.66-.1,1a27.54,27.54,0,0,1-.6,2.95,22.14,22.14,0,0,1-1,3.08.36.36,0,0,1,0-.09,11.88,11.88,0,0,1-1.42,2.53,6.17,6.17,0,0,1-.87.9,5.26,5.26,0,0,1-.65.38,3.07,3.07,0,0,1-.52.14,3.49,3.49,0,0,1-.56,0,4.41,4.41,0,0,1-.71-.2,6.31,6.31,0,0,1-1-.6,12.6,12.6,0,0,1-2.14-2.24,1,1,0,0,0-.72-.3,1,1,0,0,0-1,1,1,1,0,0,0,.3.71c.37.46.75.9,1.16,1.32a12.39,12.39,0,0,0,1.3,1.1,5.56,5.56,0,0,0,2.22,1,4,4,0,0,0,2.17-.13,5.08,5.08,0,0,0,1.84-1.19,7.94,7.94,0,0,0,1.38-1.82,14.9,14.9,0,0,0,1.09-2.28,22.69,22.69,0,0,0,1.26-4.72c0-.24.07-.47.1-.71.63.58,1.29,1.14,2,1.66a13.71,13.71,0,0,0,2.76,1.69,5.67,5.67,0,0,0,4.5.4,4.21,4.21,0,0,0,1.6-1.16,6,6,0,0,0,1.06-1.86,9.55,9.55,0,0,0,.5-2.3,13.7,13.7,0,0,0,0-2.64,20.27,20.27,0,0,0-.81-4.3c-.22-.76-.49-1.5-.78-2.23-.21-.51-.44-1-.68-1.51a13.72,13.72,0,0,0,4-.21,9.71,9.71,0,0,0,4.06-1.72,3.36,3.36,0,0,0,1-1.25,2.07,2.07,0,0,0,.1-1.51,3.53,3.53,0,0,0-1.17-1.56,10.65,10.65,0,0,0-2.74-1.57.33.33,0,0,0-.17,0,.3.3,0,0,0-.26.15m3.76,3.42a.13.13,0,0,0,0,.06.13.13,0,0,1,0-.06m-.36,1.19v0m-9.19,3.26a.36.36,0,0,0,0,.09.36.36,0,0,1,0-.09m-.23,14.36-.08,0Zm-1.88.2h0m4-8.13v0m5.3-8.28h0m1.45-.83h0m-.24-3.4h0"/><path class="cls-6" d="M123.46,275a10.36,10.36,0,0,0,.13,5.71,4.44,4.44,0,0,0,1.09,1.67,3.8,3.8,0,0,0,1.6.9,5.86,5.86,0,0,0,4-.43,11.18,11.18,0,0,0,4-3c.24-.28.48-.57.7-.88a21,21,0,0,0,3.87,8.21,14.13,14.13,0,0,0,3.18,3.09,6.2,6.2,0,0,0,3.42,1.21,4,4,0,0,0,2.07-.55,5.23,5.23,0,0,0,1.77-1.79,10.44,10.44,0,0,0,1.23-3,20,20,0,0,0,.45-2.31l.28.27c.16.13.3.28.45.41s.41.33.62.48a9.6,9.6,0,0,0,1.14.73,14.22,14.22,0,0,0,2.58,1.08,13.69,13.69,0,0,0,2.77.53,12.14,12.14,0,0,0,2.76-.07,10.63,10.63,0,0,0,2.59-.73,8.61,8.61,0,0,0,4-3.53,9.82,9.82,0,0,0,1-2.49,1.33,1.33,0,0,0-2.57-.71,9,9,0,0,1-.4,1.31,7.42,7.42,0,0,1-.81,1.39,7.16,7.16,0,0,1-1,1,8.57,8.57,0,0,1-1.5.86,9.33,9.33,0,0,1-2,.54,11.83,11.83,0,0,1-2.66,0,13.2,13.2,0,0,1-3.16-.86c-.42-.18-.82-.39-1.22-.61a12.85,12.85,0,0,1-1.36-.85,9.2,9.2,0,0,1-1.38-1.41h0a.87.87,0,0,0-.33-.33.9.9,0,0,0-.7-.09.91.91,0,0,0-.66.88c0,.82-.1,1.64-.2,2.45a14.7,14.7,0,0,1-.88,3.45,8,8,0,0,1-.72,1.27,5.11,5.11,0,0,1-.61.62,3.27,3.27,0,0,1-.59.35,3.68,3.68,0,0,1-.63.17,3.22,3.22,0,0,1-.76,0,5.07,5.07,0,0,1-1.08-.29,9,9,0,0,1-1.79-1.07,14.77,14.77,0,0,1-2.49-2.57l.1.13a21.59,21.59,0,0,1-2.66-4.61,20,20,0,0,1-1.25-4.14.56.56,0,0,0-1-.13,11.79,11.79,0,0,1-1,1.5,12.05,12.05,0,0,1-2,2.06,9.64,9.64,0,0,1-2,1.19l.12,0a7.4,7.4,0,0,1-1.67.47,5.66,5.66,0,0,1-1.09,0h0a3.21,3.21,0,0,1-1.51-.6,3.35,3.35,0,0,1-.56-.57,4.46,4.46,0,0,1-.47-.82,6.63,6.63,0,0,1-.37-1.44,11.61,11.61,0,0,1,0-2.7c0-.37.12-.73.19-1.1a.47.47,0,0,0-.32-.56h-.12a.44.44,0,0,0-.44.33m1.49,6.31.06.08-.06-.08m3.29,1.13h0m24.25.24.06.06-.06-.06M127,282.45h0"/><path class="cls-6" d="M96.55,101.84a10,10,0,0,0-4.23,4.5,3.64,3.64,0,0,0-.2,2,2.74,2.74,0,0,0,.83,1.48,4,4,0,0,0,3.75.73,7.46,7.46,0,0,0,2.39-1.11,10.12,10.12,0,0,0,1.73-1.47,14.3,14.3,0,0,0,3.7,8.07,7.61,7.61,0,0,0,3.34,2.21,3.83,3.83,0,0,0,1.75.07,3.2,3.2,0,0,0,1.54-.81,5.41,5.41,0,0,0,1.39-2.35,10.3,10.3,0,0,0,.39-1.71c0-.13,0-.26,0-.38.24.25.49.49.75.73a8.29,8.29,0,0,0,2.59,1.59,7.23,7.23,0,0,0,2.87.52,7.68,7.68,0,0,0,1.58-.2,9.06,9.06,0,0,0,1.59-.55,1,1,0,0,0,.49-.63,1.1,1.1,0,0,0-.11-.81,1,1,0,0,0-.63-.48,1.14,1.14,0,0,0-.81.1l-.2.1a7.64,7.64,0,0,1-1.62.45,7.32,7.32,0,0,1-1.48,0,6.71,6.71,0,0,1-1.5-.42,10,10,0,0,1-1.81-1.06,10.16,10.16,0,0,1-1.58-1.63l-.09-.12a.71.71,0,0,0-.29-.28.78.78,0,0,0-.6-.08.79.79,0,0,0-.57.76,18.57,18.57,0,0,1-.13,2.36,9.11,9.11,0,0,1-.49,1.93,4.93,4.93,0,0,1-.5.9,3.49,3.49,0,0,1-.43.43,2.5,2.5,0,0,1-.39.23,2.85,2.85,0,0,1-.5.14,3,3,0,0,1-.6,0,4.24,4.24,0,0,1-.91-.25,6.94,6.94,0,0,1-1.3-.79,10.59,10.59,0,0,1-1.75-1.79,13.52,13.52,0,0,1-1.72-3,14.4,14.4,0,0,1-1-3.47c0-.38-.07-.76-.08-1.14a.56.56,0,0,0-.26-.46.56.56,0,0,0-.66.08,11.87,11.87,0,0,1-2,2.09,8.66,8.66,0,0,1-1.63,1,6.11,6.11,0,0,1-1.33.37,4.82,4.82,0,0,1-.93,0,3.22,3.22,0,0,1-.68-.17,3.29,3.29,0,0,1-.52-.29,3.06,3.06,0,0,1-.36-.36c-.07-.12-.14-.23-.2-.36a1.91,1.91,0,0,1-.14-.52,2.91,2.91,0,0,1,0-.59,3.41,3.41,0,0,1,.23-.83,6.18,6.18,0,0,1,.8-1.33.86.86,0,0,0-.07.1,11,11,0,0,1,1.82-1.78l0,0,.09-.07h0c.37-.29.76-.55,1.15-.8a.49.49,0,0,0,.18-.67.51.51,0,0,0-.43-.24.44.44,0,0,0-.24.07m5.33,5.8v0m-8.44,1.22s0,0,0,0,0,0,0,0m2.58.76h0m-1.18,0h0m12.81,7.13.06,0-.06,0M95.88,103.48l0,0,0,0h0"/><path class="cls-6" d="M134.89,56.3a.5.5,0,0,0,.17.68,11.87,11.87,0,0,1,2.54,1.52,16.13,16.13,0,0,1,2.86,2.86.76.76,0,0,0-.08-.11,11.2,11.2,0,0,1,1.43,2.34,6.36,6.36,0,0,1,.33,1.13,3.53,3.53,0,0,1,0,.65c0,.12-.06.24-.1.36a2.26,2.26,0,0,1-.16.26,1,1,0,0,1-.21.21,2.3,2.3,0,0,1-.4.23,4.16,4.16,0,0,1-.84.22,9.65,9.65,0,0,1-2.4-.06c-.31,0-.62-.1-.93-.17a.84.84,0,0,0-.81.22.85.85,0,0,0-.13,1c.09.17.18.34.26.52a12.32,12.32,0,0,1,.73,2.59,7.22,7.22,0,0,1,0,1.47,4.82,4.82,0,0,1-.22.85,3.44,3.44,0,0,1-.33.56,2.59,2.59,0,0,1-.37.37,3.5,3.5,0,0,1-.53.31,5.41,5.41,0,0,1-.79.21,7.78,7.78,0,0,1-1.6,0l-.21,0a1.39,1.39,0,0,0-1,.13,1.27,1.27,0,0,0-.46,1.75,1.26,1.26,0,0,0,1.1.63,8,8,0,0,0,2,0,6.74,6.74,0,0,0,1.09-.2,4.87,4.87,0,0,0,1-.39,4.25,4.25,0,0,0,1.26-1,4.82,4.82,0,0,0,.92-1.58,5.73,5.73,0,0,0,.3-1.59,7.12,7.12,0,0,0-.15-1.84,9,9,0,0,0-.6-1.88,3.54,3.54,0,0,0-.16-.34,13,13,0,0,0,1.53,0,5.21,5.21,0,0,0,2.12-.59,2.58,2.58,0,0,0,1.12-1.19,3.17,3.17,0,0,0,.2-1.72,5.71,5.71,0,0,0-.57-1.72,10.61,10.61,0,0,0-1.1-1.76,18.16,18.16,0,0,0-3.32-3.35,13.44,13.44,0,0,0-2.82-1.73.66.66,0,0,0-.27-.06.48.48,0,0,0-.41.24m6.75,9.93a.1.1,0,0,1,0,0,.1.1,0,0,0,0,0m-3.5.38h0m-2.22,7.62-.07,0,.07,0m-1.13.31-.09,0,.09,0"/><path class="cls-6" d="M54.75,256.23a17,17,0,0,0-2.59,3.15,7.3,7.3,0,0,0-1,2.7,5,5,0,0,0,0,1.16,4.64,4.64,0,0,0,.34,1.21A3.4,3.4,0,0,0,52.83,266a4.94,4.94,0,0,0,2.25.63,7.52,7.52,0,0,0,2.66-.37A12.57,12.57,0,0,0,62.81,263a17.46,17.46,0,0,0,.78,4.8,10.15,10.15,0,0,0,2.8,4.56,5.67,5.67,0,0,0,4.19,1.48,7.18,7.18,0,0,0,4.48-2.42,15.23,15.23,0,0,0,2.71-4.25,8.77,8.77,0,0,0,3,2.73,7.47,7.47,0,0,0,3.11.84,8.14,8.14,0,0,0,1.63-.12,7.26,7.26,0,0,0,1.65-.48,1.41,1.41,0,0,0,.78-.6,1.29,1.29,0,0,0,.13-1,1.37,1.37,0,0,0-.6-.78,1.48,1.48,0,0,0-.66-.18,1.31,1.31,0,0,0-.64.18,8.17,8.17,0,0,1-1.59.44,7.17,7.17,0,0,1-1.31,0,6.28,6.28,0,0,1-1.2-.33,8.33,8.33,0,0,1-1.46-.88,7.55,7.55,0,0,1-1.11-1.15,11.06,11.06,0,0,1-1-1.64,1.07,1.07,0,0,0-.93-.53,1.09,1.09,0,0,0-1,.78c-.2.61-.42,1.2-.66,1.79a16.47,16.47,0,0,1-1.85,3.27A9.16,9.16,0,0,1,72.6,271a6.12,6.12,0,0,1-1.13.67,4.37,4.37,0,0,1-.94.26,5.29,5.29,0,0,1-.89,0,4.48,4.48,0,0,1-1-.27,4.67,4.67,0,0,1-.94-.56A6.9,6.9,0,0,1,66.68,270a10.13,10.13,0,0,1-1.14-2,15.28,15.28,0,0,1-.89-3.44,21.52,21.52,0,0,1-.16-3.76.82.82,0,0,0-.6-.79.85.85,0,0,0-.92.38l0,0a15.93,15.93,0,0,1-2.58,2.61,11.45,11.45,0,0,1-2.3,1.39,9.07,9.07,0,0,1-2,.57,5.83,5.83,0,0,1-1.32,0,4.71,4.71,0,0,1-.84-.22,4.4,4.4,0,0,1-.56-.31,4.31,4.31,0,0,1-.37-.37,2.86,2.86,0,0,1-.24-.42,2.64,2.64,0,0,1-.15-.55,4.16,4.16,0,0,1,0-.79,5.77,5.77,0,0,1,.35-1.23,10.73,10.73,0,0,1,1.25-2.08,20.6,20.6,0,0,1,1.61-1.76.76.76,0,0,0,0-1.06.76.76,0,0,0-1.07,0m-1,8.52.07,0-.07,0m2.28.26L56,265l.11,0m23.34.71.09.11-.09-.11m-7.78,5.9-.07,0,.07,0m-3.05,0,.08,0-.08,0m.14.06.09,0-.09,0"/><path class="cls-7" d="M191.89,220.63a.82.82,0,0,0-.39.41c-.61,1.19-1.25,2.35-1.9,3.51l.06-.12a121.55,121.55,0,0,1-7.6,11.93A100,100,0,0,1,173.15,247l0,0-.13.13h0a96,96,0,0,1-9,8.14,100.3,100.3,0,0,1-10.52,7.32l.16-.1a139.27,139.27,0,0,1-33.26,14.58h0l-.12,0-.07,0h0a115.14,115.14,0,0,1-29.89,4.53h.2a88.93,88.93,0,0,1-23.2-2.72l.19.05a75.72,75.72,0,0,1-18-7.25l.16.1a75.64,75.64,0,0,1-9.7-6.55.75.75,0,1,0-.9,1.2,75.17,75.17,0,0,0,20,11.37A82.67,82.67,0,0,0,81,282.77a101.46,101.46,0,0,0,22.64-.61A124.45,124.45,0,0,0,126,276.93,140.3,140.3,0,0,0,147.05,268c3.4-1.79,6.75-3.71,10-5.8a95.84,95.84,0,0,0,24.29-22.33c2.19-2.82,4.22-5.76,6.13-8.78,1-1.55,1.91-3.11,2.82-4.69s1.8-3.16,2.62-4.78a.75.75,0,0,0-.42-1,.67.67,0,0,0-.28-.06.77.77,0,0,0-.3.06m-71.55,56.48h0l.09,0-.14,0m52.73-30h0l.08-.08-.08.09"/><path class="cls-7" d="M49.24,178.85a.73.73,0,0,0-.36.43.72.72,0,0,0,0,.59,103,103,0,0,0,12.36,14.42,111.56,111.56,0,0,0,15.08,12.24A109.37,109.37,0,0,0,93.48,216a100.25,100.25,0,0,0,18.46,6.15,88.78,88.78,0,0,0,19.14,2.22,77.42,77.42,0,0,0,19.24-2.33,73.51,73.51,0,0,0,15.45-5.9,84.2,84.2,0,0,0,13.88-9,.75.75,0,0,0,0-1.06.77.77,0,0,0-.52-.24.78.78,0,0,0-.54.21c-1.06.84-2.14,1.66-3.24,2.45h0a80.17,80.17,0,0,1-17.92,9.73l.18-.07a70.54,70.54,0,0,1-9.68,2.92,76.18,76.18,0,0,1-8.89,1.43,83.64,83.64,0,0,1-22-.84l.1,0a99.54,99.54,0,0,1-24.91-7.83l.18.08a110.51,110.51,0,0,1-23.91-15.1l.14.12a104.24,104.24,0,0,1-18.05-19.19l0,0-.45-.64a.84.84,0,0,0-.43-.36l-.22,0a.71.71,0,0,0-.36.09m89.82,43.65h0m-21.73-.8-.1,0,.1,0M50.8,179.92a.64.64,0,0,0-.1-.13l.1.13"/><path class="cls-7" d="M175.77,117.5c-1,1.62-2,3.23-3.05,4.83s-2,3-3.07,4.54q-2.91,4.08-6.1,8l0,0a100.51,100.51,0,0,1-18.3,17.45l.16-.11a83.53,83.53,0,0,1-18.88,10.12l.18-.07a70.75,70.75,0,0,1-17.9,4.35H109A59.86,59.86,0,0,1,93.2,166l.2,0a60,60,0,0,1-15-4.65A70.17,70.17,0,0,1,66.11,154a.75.75,0,0,0-1,.24.72.72,0,0,0-.09.57.75.75,0,0,0,.32.46,68,68,0,0,0,16.74,9.31,59,59,0,0,0,17.41,3.69,63.25,63.25,0,0,0,17.72-1.56,79.64,79.64,0,0,0,17.68-6.43,79.79,79.79,0,0,0,15.7-10.18,103.45,103.45,0,0,0,13.1-13c2.36-2.78,4.59-5.65,6.72-8.61,1.12-1.55,2.22-3.14,3.27-4.75s2.27-3.56,3.39-5.35a.77.77,0,0,0-.24-1,.7.7,0,0,0-.39-.11.76.76,0,0,0-.64.34m-12.3,17.43.08-.1-.08.1"/><path class="cls-7" d="M92,97.87a.76.76,0,0,0,0,1.06c1,1.07,2,2.19,3,3.26.5.52,1,1,1.55,1.48s1.06.88,1.62,1.3a41.26,41.26,0,0,0,6.12,3.83,43.28,43.28,0,0,0,6.66,2.72,45.09,45.09,0,0,0,7,1.6,48.23,48.23,0,0,0,27.9-4.28,45.1,45.1,0,0,0,10.83-7.3.75.75,0,0,0-1-1.1A43.66,43.66,0,0,1,141.72,109l0,0a47.78,47.78,0,0,1-12.18,2.91h-.13a47.09,47.09,0,0,1-12.32-.43l.2,0a43.88,43.88,0,0,1-10.86-3.32,40.87,40.87,0,0,1-8.58-5.33L98,103a63,63,0,0,1-5-5.08.75.75,0,0,0-1.06,0M141.7,109l-.12,0,.12,0m-12.25,2.9h.13l-.13,0"/><path class="cls-7" d="M139.37,52.21a.7.7,0,0,0-.4.41,30.25,30.25,0,0,1-1.59,3.87c-.58,1.23-1.22,2.42-1.9,3.59l.07-.11a59,59,0,0,1-9.1,11.76l.13-.14a58.26,58.26,0,0,1-12,9.3,45,45,0,0,1-10.82,4.5,35.65,35.65,0,0,1-4.45.86.75.75,0,0,0,.17,1.49A42.15,42.15,0,0,0,114,82.94a57.23,57.23,0,0,0,12.86-9.48,60.32,60.32,0,0,0,8-9.49,52.9,52.9,0,0,0,3.09-5.16c.44-.83.86-1.69,1.25-2.55a27.79,27.79,0,0,0,1.21-3.06.83.83,0,0,0,0-.58.75.75,0,0,0-.4-.4.8.8,0,0,0-.3-.06.92.92,0,0,0-.28.05"/><path class="cls-8" d="M122.13,242.71a8.19,8.19,0,1,0-9.93,5.94,8.19,8.19,0,0,0,9.93-5.94"/><path class="cls-9" d="M106.24,238.7a8.19,8.19,0,0,0,6,10,7.65,7.65,0,0,0,2,.26,8.17,8.17,0,0,0,8-6.21,4.88,4.88,0,0,0,.12-.55l-.18.43a7.1,7.1,0,0,1-1.14,1.73,7.23,7.23,0,0,1-1.4,1.19,7,7,0,0,1-1.88.86,7.2,7.2,0,0,1-2.06.27,7,7,0,0,1-2.08-.36,6.73,6.73,0,0,1-1.7-.84A6.6,6.6,0,0,1,110.3,244a8.19,8.19,0,0,1-.54-.77,7.68,7.68,0,0,1-.48-.95,6.38,6.38,0,0,1-.35-1.1,8,8,0,0,1-.16-1V240a7,7,0,0,1,.07-1.37c0-.12,0-.24.07-.36a7.86,7.86,0,0,1,.31-1.08l.05-.12.06-.14h0c.06-.14.12-.27.19-.4s.12-.25.19-.37a7.38,7.38,0,0,1,.46-.68,6.24,6.24,0,0,1,.92-1l.09-.08a6.8,6.8,0,0,1,.6-.46l0,0h0a4.25,4.25,0,0,1,.54-.32,6.22,6.22,0,0,1,1.3-.56,4.07,4.07,0,0,1,.5-.13l.2-.05a5.94,5.94,0,0,1,1.19-.13h.19a8.2,8.2,0,0,0-9.51,6"/><path class="cls-10" d="M114.8,236.34a1.5,1.5,0,1,0,1.5-1.5,1.51,1.51,0,0,0-1.5,1.5"/><path class="cls-10" d="M118,239.43a.8.8,0,1,0,.8-.8.81.81,0,0,0-.8.8"/><path class="cls-8" d="M164.44,205.8a8.19,8.19,0,1,0-9.93,5.94,8.18,8.18,0,0,0,9.93-5.94"/><path class="cls-9" d="M148.55,201.79a8.24,8.24,0,0,0,8,10.22,8.18,8.18,0,0,0,7.82-5.76,6.15,6.15,0,0,1-1.14,1.3,8.28,8.28,0,0,1-.89.67,8.6,8.6,0,0,1-1,.5,7.45,7.45,0,0,1-1.86.52,6.85,6.85,0,0,1-2.12,0,7.48,7.48,0,0,1-1.89-.62,6.46,6.46,0,0,1-.95-.57,7.23,7.23,0,0,1-.69-.55l-.33-.33,0,0-.12-.14h0l0,0s0,0,0,0,0,0,0,0l0,0h0l-.1-.12c-.19-.24-.37-.49-.53-.74a7,7,0,0,1-.53-1.06c-.07-.17-.13-.34-.19-.52a3.57,3.57,0,0,1-.1-.35c-.06-.24-.1-.48-.14-.72a6.21,6.21,0,0,1-.07-1.36h0c0-.05,0-.1,0-.15v0a7,7,0,0,1,.22-1.29,5.88,5.88,0,0,1,.23-.71,3.65,3.65,0,0,1,.18-.41,5.28,5.28,0,0,1,.27-.53l.09-.16a6.46,6.46,0,0,1,1.11-1.39l.16-.15,0,0,.5-.41a6.36,6.36,0,0,1,.93-.59l0,0a5.87,5.87,0,0,1,1-.42h0l.27-.08h-.12a8.18,8.18,0,0,0-7.95,6.2"/><path class="cls-10" d="M155.88,199.62a1.5,1.5,0,1,0,1.5-1.5,1.51,1.51,0,0,0-1.5,1.5"/><path class="cls-10" d="M159.94,201.44a.89.89,0,1,0,.89-.89.91.91,0,0,0-.89.89"/><path class="cls-8" d="M117.76,187a8.19,8.19,0,1,0-9.94,5.94,8.19,8.19,0,0,0,9.94-5.94"/><path class="cls-9" d="M108.25,176.91a7.19,7.19,0,0,1,1.46.17,7,7,0,0,1,1.42.49,6.78,6.78,0,0,1,1.34.82,6.93,6.93,0,0,1,.64.56,6.75,6.75,0,0,1,.56.64,6.56,6.56,0,0,1,.84,1.36,7.59,7.59,0,0,1,.53,1.61,6.94,6.94,0,0,1-.32,3.8,8.53,8.53,0,0,1-.39.87,7.91,7.91,0,0,1-.56.86,6.32,6.32,0,0,1-1.39,1.39,7,7,0,0,1-1.75,1,6.78,6.78,0,0,1-1.17.33,7.94,7.94,0,0,1-1,.11,6.91,6.91,0,0,1-2-.21,6.8,6.8,0,0,1-1.89-.78,7.25,7.25,0,0,1-1.47-1.18,8.23,8.23,0,0,1-.69-.87h0v0a5.37,5.37,0,0,1-.43-.73l-.14-.28a8.24,8.24,0,0,0,6,6.13,8,8,0,0,0,2,.25,8.2,8.2,0,0,0,2-16.16,8,8,0,0,0-3.57-.11"/><path class="cls-10" d="M106.56,180.13a1.5,1.5,0,1,0,1.5-1.5,1.51,1.51,0,0,0-1.5,1.5"/><path class="cls-10" d="M105.14,182.82A.86.86,0,1,0,106,182a.87.87,0,0,0-.86.86"/><path class="cls-8" d="M109,143.2a8.19,8.19,0,1,0-9.94,5.94A8.18,8.18,0,0,0,109,143.2"/><path class="cls-9" d="M104.76,134.21a7.3,7.3,0,0,1,1.13,1.23,7,7,0,0,1,.76,1.36,7.53,7.53,0,0,1,.47,1.62,7.71,7.71,0,0,1,.06,1.66,7.46,7.46,0,0,1-.19,1.15,6.24,6.24,0,0,1-.32,1,6.56,6.56,0,0,1-1,1.64,6.64,6.64,0,0,1-1.43,1.37,5.56,5.56,0,0,1-.9.55,6.15,6.15,0,0,1-.88.38,6.8,6.8,0,0,1-1.18.3,5.62,5.62,0,0,1-.92.09,7.14,7.14,0,0,1-4-1.11A7.21,7.21,0,0,1,95,144.18a6.81,6.81,0,0,1-1.15-1.77,5.64,5.64,0,0,1-.38-1,6.35,6.35,0,0,1-.24-1.5,4.3,4.3,0,0,1,0-.62,1.09,1.09,0,0,0,0-.18c0-.15,0-.31,0-.46-.07.19-.12.39-.18.59a8.21,8.21,0,0,0,6,10,8,8,0,0,0,2,.25,8.2,8.2,0,0,0,2.52-16,6.77,6.77,0,0,1,1.17.81"/><path class="cls-10" d="M99.21,136.28a1.5,1.5,0,1,0,1.5-1.5,1.51,1.51,0,0,0-1.5,1.5"/><path class="cls-10" d="M96.35,138.26a.88.88,0,1,0,.88-.88.89.89,0,0,0-.88.88"/><path class="cls-8" d="M140.66,91.7a8.19,8.19,0,1,0-9.94,5.94,8.19,8.19,0,0,0,9.94-5.94"/><path class="cls-9" d="M134,81.6a7,7,0,0,1,2.33,1.56,7.53,7.53,0,0,1,.94,1.17,7.7,7.7,0,0,1,.63,1.25,6.27,6.27,0,0,1,.26.84c.06.24.1.48.14.73a6.35,6.35,0,0,1,0,1.51,7.54,7.54,0,0,1-.25,1.34,6.78,6.78,0,0,1-.94,2,7,7,0,0,1-1.35,1.47,7.74,7.74,0,0,1-.88.62,7.4,7.4,0,0,1-.8.39,6.87,6.87,0,0,1-1.95.53,6.88,6.88,0,0,1-3.19-.38,5.86,5.86,0,0,1-.89-.39,7,7,0,0,1-2.89-2.89,6.55,6.55,0,0,1-.7-2l0-.07a8.21,8.21,0,1,0,10.21-7.53c-.23-.06-.47-.11-.7-.15h0"/><path class="cls-10" d="M131.65,84.74a1.5,1.5,0,1,0,1.5-1.5,1.52,1.52,0,0,0-1.5,1.5"/><path class="cls-10" d="M128.7,86.08A1.12,1.12,0,1,0,129.82,85a1.13,1.13,0,0,0-1.12,1.12"/><path class="cls-8" d="M36.64,279.47a8.19,8.19,0,1,0-9.94,5.95,8.18,8.18,0,0,0,9.94-5.95"/><path class="cls-9" d="M20.74,275.47a8.22,8.22,0,0,0,6,10,8.45,8.45,0,0,0,2,.25A8.21,8.21,0,0,0,36.12,274v0a6.58,6.58,0,0,1,0,1.6,6.3,6.3,0,0,1-.21,1.12,7.56,7.56,0,0,1-.32.91,6.16,6.16,0,0,1-.92,1.54,6.61,6.61,0,0,1-1.51,1.43,7.13,7.13,0,0,1-1.74.88c-.22.07-.45.15-.68.2l-.53.1a5.5,5.5,0,0,1-1,.07,7,7,0,0,1-2.08-.3,6.75,6.75,0,0,1-1.93-.93,7.07,7.07,0,0,1-1.43-1.3,7.66,7.66,0,0,1-.61-.88,6.74,6.74,0,0,1-.45-.89s0,0,0-.05l0,0,0-.07a6.52,6.52,0,0,1-.43-1.74h0a6,6,0,0,1,0-1.12c0-.07,0-.15,0-.22a8.13,8.13,0,0,1,.15-1v0a6.61,6.61,0,0,1,.22-.76,6.07,6.07,0,0,1,.41-.94,1.09,1.09,0,0,1,.08-.15,8.25,8.25,0,0,0-2.35,4"/><path class="cls-10" d="M30.64,274.21a1.5,1.5,0,1,0,1.5-1.5,1.52,1.52,0,0,0-1.5,1.5"/><path class="cls-10" d="M27.21,272.78a1,1,0,0,0,1.95,0,1,1,0,1,0-1.95,0"/><path class="cls-8" d="M129.72,299.75a8.19,8.19,0,1,0-9.94,5.95,8.19,8.19,0,0,0,9.94-5.95"/><path class="cls-9" d="M113.82,295.75a8.21,8.21,0,1,0,15.92,4,8.46,8.46,0,0,0,.25-2.17,7.12,7.12,0,0,1-1.12,3,7.33,7.33,0,0,1-1.23,1.38,7,7,0,0,1-1.73,1.1,7.54,7.54,0,0,1-.9.34,5.11,5.11,0,0,1-.53.13l-.52.09a6.92,6.92,0,0,1-2.08,0A7.12,7.12,0,0,1,120,303a6.46,6.46,0,0,1-1-.61,5.7,5.7,0,0,1-.71-.59,3.19,3.19,0,0,1-.26-.26l0,0a1.27,1.27,0,0,1-.11-.13,6.41,6.41,0,0,1-.65-.83,5.13,5.13,0,0,1-.41-.72l-.11-.22a7.65,7.65,0,0,1-.4-1.1c0-.15-.07-.3-.1-.45l0-.17a6.66,6.66,0,0,1-.09-1.48,2.28,2.28,0,0,1,0-.26.34.34,0,0,1,0-.1,7,7,0,0,1,.17-1v-.1l0-.1h0l0-.13a.56.56,0,0,0,0-.12h0l0-.09c0-.1.07-.2.11-.29s0,0,0-.06a0,0,0,0,0,0,0,7,7,0,0,1,.34-.74c.11-.19.22-.39.35-.57l0-.07.14-.2a6.83,6.83,0,0,1,1.45-1.44L119,291a6.28,6.28,0,0,1,.78-.48l.1-.05a6.26,6.26,0,0,1,.75-.32h0a6.21,6.21,0,0,1,.61-.2,5.17,5.17,0,0,1,.54-.11l.11,0a6.06,6.06,0,0,1,1.12-.1h.35a7.92,7.92,0,0,0-1.61-.16,8.2,8.2,0,0,0-8,6.2"/><path class="cls-10" d="M121.18,292.84a1.5,1.5,0,1,0,1.5-1.5,1.52,1.52,0,0,0-1.5,1.5"/><path class="cls-10" d="M125.06,296a1.08,1.08,0,1,0,1.07-1.07,1.09,1.09,0,0,0-1.07,1.07"/><path class="cls-8" d="M88.14,271.16a8.19,8.19,0,1,0-9.94,5.94,8.2,8.2,0,0,0,9.94-5.94"/><path class="cls-9" d="M83.94,262.19a6.63,6.63,0,0,1,.84,1.13,6.92,6.92,0,0,1,1,3,6.57,6.57,0,0,1,0,1.33,7.16,7.16,0,0,1-.18,1,6.84,6.84,0,0,1-.71,1.75A6.63,6.63,0,0,1,83.58,272,7,7,0,0,1,82,273.16a6.53,6.53,0,0,1-1.06.43,4.61,4.61,0,0,1-.53.15l-.54.1a7,7,0,0,1-2,0,7.11,7.11,0,0,1-2-.57,7.41,7.41,0,0,1-1.68-1.08,7.22,7.22,0,0,1-1.32-1.54l-.1-.17,0,0-.13-.23a7.69,7.69,0,0,1-.4-.88c0-.14-.1-.28-.14-.42l0-.1L72,268.6a8.23,8.23,0,0,0,6.18,8.52,8,8,0,0,0,2,.25,8.2,8.2,0,0,0,7-12.42,8.09,8.09,0,0,0-4-3.41,5.31,5.31,0,0,1,.69.65"/><path class="cls-10" d="M78.2,263.92a1.5,1.5,0,1,0,1.5-1.5,1.52,1.52,0,0,0-1.5,1.5"/><path class="cls-10" d="M75.88,265.86a.67.67,0,0,0,.66.66.66.66,0,0,0,.65-.66.65.65,0,0,0-.65-.65.66.66,0,0,0-.66.65"/><path class="cls-8" d="M218.72,279.77a8.19,8.19,0,1,0-9.94,5.94,8.19,8.19,0,0,0,9.94-5.94"/><path class="cls-9" d="M202.82,275.76a8.19,8.19,0,0,0,6,10,8,8,0,0,0,2,.26,8.17,8.17,0,0,0,7.95-6.21,7.86,7.86,0,0,0,.26-1.92c0,.07,0,.14,0,.21a6.15,6.15,0,0,1-.18.71c-.07.22-.14.43-.23.64a6.58,6.58,0,0,1-1,1.68,7,7,0,0,1-1.46,1.36,7.2,7.2,0,0,1-1.86.93,7.09,7.09,0,0,1-5.73-.65,7.12,7.12,0,0,1-1.59-1.31,7,7,0,0,1-1.1-1.63,6.5,6.5,0,0,1-.42-1.06c0-.17-.1-.35-.14-.53l-.09-.54a6.71,6.71,0,0,1,0-2,6.18,6.18,0,0,1,.12-.62.43.43,0,0,0,0,0,8,8,0,0,1,.29-.91c0-.13.11-.26.17-.39l.08-.16a6.92,6.92,0,0,1,.54-.9,5.29,5.29,0,0,1,.47-.59l0,0a5.19,5.19,0,0,1,.53-.52.1.1,0,0,1,.05,0,5.52,5.52,0,0,1,.53-.43l.43-.29.37-.21a6.86,6.86,0,0,1,1.44-.57l.18-.05.49-.1a6.4,6.4,0,0,1,1.15-.11h.39a8.63,8.63,0,0,0-1.68-.17,8.19,8.19,0,0,0-8,6.2"/><path class="cls-10" d="M209.73,273.31a1.5,1.5,0,1,0,1.5-1.5,1.51,1.51,0,0,0-1.5,1.5"/><path class="cls-10" d="M214.05,275.89a1.23,1.23,0,1,0,1.23-1.22,1.24,1.24,0,0,0-1.23,1.22"/><polyline class="cls-11" points="138.81 21.63 138.81 21.63 138.81 21.63 138.81 21.63"/><path class="cls-12" d="M121.94,0a4.1,4.1,0,0,0-.49,0,5.61,5.61,0,0,0-2.22.82,9.38,9.38,0,0,0-1.94,1.68,17.27,17.27,0,0,0-1.72,2.32,27,27,0,0,0-2.22,4.47,27.37,27.37,0,0,0-1,2.92h-.55a25.86,25.86,0,0,0-2.66.15,21.3,21.3,0,0,0-3.91.72,10,10,0,0,0-2.58,1.15A6,6,0,0,0,101,15.89a4.45,4.45,0,0,0-.72,1.83,6.06,6.06,0,0,0,.08,2.15,8.9,8.9,0,0,0,.76,2.1,12.9,12.9,0,0,0,1.25,2,21.06,21.06,0,0,0,3.32,3.53A24.81,24.81,0,0,0,108,29.28c-.48,1.19-.84,2.18-1.12,3.11a20.83,20.83,0,0,0-.72,3.21,11.24,11.24,0,0,0,0,3.21,6,6,0,0,0,1,2.62,5,5,0,0,0,1,1.06,4.39,4.39,0,0,0,1.33.68,5.35,5.35,0,0,0,1.41.21h.21a8.59,8.59,0,0,0,1.41-.15,13.53,13.53,0,0,0,3.13-1.06,22.42,22.42,0,0,0,3.51-2,17.58,17.58,0,0,0,2.68-2.23,47.65,47.65,0,0,0,5.94,3.84A17.77,17.77,0,0,0,132,43.44a8.18,8.18,0,0,0,1.83.23h.11a5.7,5.7,0,0,0,.91-.1,4.31,4.31,0,0,0,.9-.29,3.75,3.75,0,0,0,1.81-1.78,8.22,8.22,0,0,0,.77-3.42,17.74,17.74,0,0,0-.09-2.33,33.27,33.27,0,0,0-.48-3.3,35.72,35.72,0,0,0-1.27-4.77c.46-.37.92-.77,1.37-1.17.75-.68,1.48-1.37,2.15-2.06A27.92,27.92,0,0,0,142,22.07a12.45,12.45,0,0,0,1.61-2.65,6.32,6.32,0,0,0,.63-2.85,4.3,4.3,0,0,0-.26-1.33,4.83,4.83,0,0,0-.83-1.38,5.76,5.76,0,0,0-1.1-1,6.87,6.87,0,0,0-1.31-.72,12.19,12.19,0,0,0-3.11-.84,20,20,0,0,0-3-.22c-.62,0-1.24,0-1.86.07s-1.27.11-1.89.2a36.75,36.75,0,0,0-2.6-6A17.14,17.14,0,0,0,126,2.1,6.76,6.76,0,0,0,123.77.42,4.6,4.6,0,0,0,121.94,0"/><path class="cls-11" d="M121.45,0l-.13,0a9.11,9.11,0,0,1,1.6,1.07,14.18,14.18,0,0,1,3,3.63,40.37,40.37,0,0,1,3.58,8.64.16.16,0,0,1,.09,0h0l.59,0c.95,0,1.89,0,2.84,0q.79,0,1.59.12c.46.06.92.12,1.38.22a9.27,9.27,0,0,1,1.45.43,5.9,5.9,0,0,1,1.14.6,4.94,4.94,0,0,1,.56.44,4,4,0,0,1,.44.48,4.37,4.37,0,0,1,.65,1.1,4.76,4.76,0,0,1,.26.89,4,4,0,0,1,.07.69,4.61,4.61,0,0,1-.2,1.38,5.81,5.81,0,0,1-.65,1.41,9.63,9.63,0,0,1-.9,1.2,16.86,16.86,0,0,1-2.45,2.25c-.83.64-1.67,1.25-2.53,1.84h0c.44,1.32.86,2.64,1.19,4a29,29,0,0,1,.6,3.06,13.68,13.68,0,0,1,.1,3,7.41,7.41,0,0,1-.24,1.33,4.41,4.41,0,0,1-.44,1,3.32,3.32,0,0,1-.76.91,4.4,4.4,0,0,1-.52.36,3.93,3.93,0,0,1-.56.24,5.07,5.07,0,0,1-2.76,0,13.9,13.9,0,0,1-3-1.2c-.89-.47-1.75-1-2.6-1.54-.52-.33-1-.64-1.56-1s-1.19-.77-1.78-1.17a15.07,15.07,0,0,1-3,2.83,18.62,18.62,0,0,1-3.84,2.11,17.19,17.19,0,0,1-4.28,1.17,14.57,14.57,0,0,1-2.08.16c-.32,0-.63,0-1,0a5,5,0,0,0,.78.74,4.55,4.55,0,0,0,1.34.67,5,5,0,0,0,1.42.22h.21a8.59,8.59,0,0,0,1.41-.15,13.47,13.47,0,0,0,3.14-1.06,22.54,22.54,0,0,0,3.51-2,18.84,18.84,0,0,0,2.69-2.23,45.49,45.49,0,0,0,5.91,3.84,17.43,17.43,0,0,0,4.17,1.68,8,8,0,0,0,1.84.25h.11a5,5,0,0,0,.91-.1,4,4,0,0,0,.9-.29,3.88,3.88,0,0,0,1.83-1.78,8.26,8.26,0,0,0,.77-3.43,17.82,17.82,0,0,0-.09-2.34c-.1-1.06-.26-2.14-.48-3.3a35.88,35.88,0,0,0-1.27-4.77c.45-.35.91-.75,1.36-1.15.8-.72,1.52-1.42,2.15-2.07A25.14,25.14,0,0,0,142,22.08a12.68,12.68,0,0,0,1.62-2.65,6.41,6.41,0,0,0,.63-2.86,4.14,4.14,0,0,0-.26-1.34,5.06,5.06,0,0,0-.84-1.39,5.69,5.69,0,0,0-1.1-1,6,6,0,0,0-1.31-.73,12.45,12.45,0,0,0-3.12-.85,21.76,21.76,0,0,0-3-.21c-.62,0-1.24,0-1.86.07s-1.27.11-1.9.19a35.47,35.47,0,0,0-2.57-6A17.58,17.58,0,0,0,126,2.08,6.59,6.59,0,0,0,123.78.41,4.54,4.54,0,0,0,121.94,0a4,4,0,0,0-.49,0"/><path class="cls-8" d="M122.14,8.89l-.3,0a3.41,3.41,0,0,0-1.39.51,5.82,5.82,0,0,0-1.2,1,10.71,10.71,0,0,0-1.07,1.45,15.86,15.86,0,0,0-1.38,2.77,15.52,15.52,0,0,0-.62,1.81,1.83,1.83,0,0,0-.33,0,14.68,14.68,0,0,0-1.66.1,12.19,12.19,0,0,0-2.42.45,5.9,5.9,0,0,0-1.6.71,3.74,3.74,0,0,0-1,1,2.67,2.67,0,0,0-.44,1.14,3.78,3.78,0,0,0,0,1.33,5.53,5.53,0,0,0,.47,1.31,9.05,9.05,0,0,0,.77,1.25,14.31,14.31,0,0,0,3.52,3.28c-.29.7-.51,1.31-.7,1.92a12.83,12.83,0,0,0-.45,2,7.44,7.44,0,0,0,0,2,3.76,3.76,0,0,0,.63,1.63,3.18,3.18,0,0,0,.65.67,2.68,2.68,0,0,0,.83.41,3,3,0,0,0,.87.14h.13a4.63,4.63,0,0,0,.88-.1,8,8,0,0,0,2-.66,13.85,13.85,0,0,0,2.17-1.26,11.25,11.25,0,0,0,1.67-1.38,29.39,29.39,0,0,0,3.66,2.38,10.81,10.81,0,0,0,2.59,1,4.9,4.9,0,0,0,1.14.15h.07a2.73,2.73,0,0,0,1.12-.24,2.39,2.39,0,0,0,1.14-1.11,5.15,5.15,0,0,0,.47-2.13,10.49,10.49,0,0,0-.05-1.44,20.3,20.3,0,0,0-.3-2,23.92,23.92,0,0,0-.79-3c.29-.22.57-.46.85-.71.49-.45.94-.88,1.33-1.28a15.28,15.28,0,0,0,1.28-1.48,8.11,8.11,0,0,0,1-1.64,3.89,3.89,0,0,0,.39-1.78,2.71,2.71,0,0,0-.16-.83,3.18,3.18,0,0,0-.52-.86,3.75,3.75,0,0,0-.68-.6,3.5,3.5,0,0,0-.82-.44,7.55,7.55,0,0,0-1.93-.53,13,13,0,0,0-1.88-.13c-.39,0-.77,0-1.16,0s-.78.07-1.17.12a21.66,21.66,0,0,0-1.6-3.71,10.31,10.31,0,0,0-1.4-2,4.25,4.25,0,0,0-1.39-1,2.93,2.93,0,0,0-1.14-.25"/><path class="cls-12" d="M66.82,187.35a7.12,7.12,0,0,0-1.44.15,7.25,7.25,0,0,0-2.37,1,10.51,10.51,0,0,0-2.13,1.71,13.3,13.3,0,0,0-1.79,2.29A15.15,15.15,0,0,0,56.8,201a12.43,12.43,0,0,0,.55,3.12,16.88,16.88,0,0,0,1.43,3.25,20.74,20.74,0,0,0,2.15,3.1,22.21,22.21,0,0,0,5.72,4.87A23.07,23.07,0,0,0,72,217.68c-.48.36-.93.76-1.43,1.21-1.17,1.05-2.37,2.23-3.56,3.51a49.75,49.75,0,0,0-3.64,4.36,27.44,27.44,0,0,0-2.75,4.48,9.16,9.16,0,0,0-1,4.32,5.27,5.27,0,0,0,.5,2,3.49,3.49,0,0,0,.45.74,2.36,2.36,0,0,0,.61.61,1.59,1.59,0,0,0,.85.23,1.89,1.89,0,0,0,.53-.08,3.15,3.15,0,0,0,1.23-.73,7.47,7.47,0,0,0,1-1.07c.4-.5.79-1,1.2-1.66.73-1.12,1.47-2.39,2.33-4,.72-1.34,1.45-2.8,2.31-4.57.47-1,.94-2,1.4-2.94l.21-.45.44-.92.15-.33c.32-.67.63-1.33,1-2-.07,1.21-.07,2.59,0,4.59a82.12,82.12,0,0,0,.83,9.9,44.86,44.86,0,0,0,1,4.92,22.79,22.79,0,0,0,1.58,4.26,10.45,10.45,0,0,0,2.24,3.13,6,6,0,0,0,3.07,1.58,6.7,6.7,0,0,0,1.09.1,4.65,4.65,0,0,0,2.21-.52,3.45,3.45,0,0,0,1.61-2.2,8.79,8.79,0,0,0,0-3.35,22.69,22.69,0,0,0-1-3.93c-.57-1.66-1.28-3.28-1.83-4.51-.64-1.4-1.36-2.87-2.2-4.5-1.23-2.37-2.56-4.75-3.85-7l-.4-.72-.17-.3c-.29-.51-.57-1-.85-1.54a22.07,22.07,0,0,0,3.59.86,23.34,23.34,0,0,0,3.41.26h.65a20.23,20.23,0,0,0,4-.53,18.23,18.23,0,0,0,3.73-1.33,12.42,12.42,0,0,0,2.22-1.35,20.86,20.86,0,0,0,4-4.17,23.25,23.25,0,0,0,3-5.4,15.12,15.12,0,0,0,1.15-5.72,9.69,9.69,0,0,0-.42-2.73,8,8,0,0,0-1.34-2.47,9.39,9.39,0,0,0-4.71-3.05,8.69,8.69,0,0,0-2.48-.34,9.32,9.32,0,0,0-2.48.32A14.09,14.09,0,0,0,86.79,197,32.23,32.23,0,0,0,79,205.74a43.37,43.37,0,0,0-2.58,4.6,35.21,35.21,0,0,0,.29-6.52,34.76,34.76,0,0,0-.94-7,21.19,21.19,0,0,0-1-3A13.35,13.35,0,0,0,73,191a12.52,12.52,0,0,0-1.13-1.33,10.49,10.49,0,0,0-1.32-1.08,6.59,6.59,0,0,0-2.5-1.06,5.82,5.82,0,0,0-1.27-.13m2,21.17A24.88,24.88,0,0,1,67,202.46a12.14,12.14,0,0,1,0-2.75,8.86,8.86,0,0,1,.56-2,4.09,4.09,0,0,1,.44-.81l.17-.17.09,0,.06.07.18.21a8.42,8.42,0,0,1,.75,1.4,19.77,19.77,0,0,1,.84,2.57,25.8,25.8,0,0,1,.54,2.86l0,.1c.18,1.52.29,3.05.41,4.53,0,.64.1,1.28.15,1.92.09,1.12.21,2.23.37,3.27,0,.17,0,.34.08.52a3.64,3.64,0,0,0-.37-.77l-.08-.14a42.9,42.9,0,0,1-2.41-4.79Zm7.88,6.77.09-.07c.89-1.1,1.8-2.19,2.72-3.26,1.13-1.31,2.24-2.51,3.39-3.68A37.15,37.15,0,0,1,86.52,205l.08-.07a15.37,15.37,0,0,1,3.12-2,6,6,0,0,1,1.31-.38l.48,0a2.17,2.17,0,0,1,.36,0,2.33,2.33,0,0,1,.58.16,2.59,2.59,0,0,1,.43.26,3.7,3.7,0,0,1,.47.49,4.38,4.38,0,0,1,.48.86,4.15,4.15,0,0,1,.25.87,4.69,4.69,0,0,1,0,.75,4.4,4.4,0,0,1-.24.86,5.1,5.1,0,0,1-.61,1,10.39,10.39,0,0,1-1.53,1.49l-.08.06a25.48,25.48,0,0,1-5.09,2.81,54.32,54.32,0,0,1-6.47,2.22c-.92.26-1.84.51-2.77.74Z"/><path class="cls-11" d="M63.77,200.31a25.44,25.44,0,0,0,.56,4.43,22.38,22.38,0,0,0,1.55,4.57,16.4,16.4,0,0,0,2.53,3.93,11.89,11.89,0,0,0,1.71,1.62q.43.34.9.66a9.53,9.53,0,0,0,1.08.6.66.66,0,0,0,.46.06.62.62,0,0,0,.35-.27.61.61,0,0,0-.21-.81A14.46,14.46,0,0,1,71,214a16.26,16.26,0,0,1-2.73-2.77,20.26,20.26,0,0,1-1.38-2,19.64,19.64,0,0,1-1.21-2.43l0,.1A20.66,20.66,0,0,1,64.41,202a.11.11,0,0,0,0,.05,16.88,16.88,0,0,1-.15-1.72.25.25,0,0,0-.25-.25.25.25,0,0,0-.25.25M71,214l0,0,0,0m.07,0,.06.05-.06-.05"/><path class="cls-11" d="M64.71,210.86a.26.26,0,0,0-.09.34A12.14,12.14,0,0,0,66,213.09a12.59,12.59,0,0,0,1.82,1.68A15.21,15.21,0,0,0,70,216.15a8.23,8.23,0,0,0,2.25.83.61.61,0,0,0,.42,0,.52.52,0,0,0,.25-.33.55.55,0,0,0-.38-.67,14.15,14.15,0,0,1-2.4-.73,13.55,13.55,0,0,1-2.55-1.5,12.11,12.11,0,0,1-2-1.95l0,.06a10.06,10.06,0,0,1-.59-.86.24.24,0,0,0-.21-.13.22.22,0,0,0-.13,0"/><path class="cls-11" d="M94,211.3A30.28,30.28,0,0,1,90.52,213l0,0a32.86,32.86,0,0,1-3.92,1.33,28.45,28.45,0,0,1-4.11.81h0c-.56.07-1.12.12-1.67.16s-1.2.05-1.79.06a26.14,26.14,0,0,1-3.31-.2h-.14l-.2,0a.72.72,0,0,0-.38.1.79.79,0,0,0-.35.45.78.78,0,0,0,.08.58.72.72,0,0,0,.45.35,17.22,17.22,0,0,0,4.81.22c.82-.08,1.65-.2,2.47-.36a26.57,26.57,0,0,0,2.59-.66,41,41,0,0,0,9.15-4.09.26.26,0,0,0,.09-.35.25.25,0,0,0-.22-.12.19.19,0,0,0-.12,0M75.7,215.17h0m14.79-2.12h0"/><path class="cls-11" d="M75.48,216.92a.63.63,0,0,0-.39.3.65.65,0,0,0-.07.49.62.62,0,0,0,.3.39,15,15,0,0,0,2.75.9c.52.11,1,.18,1.56.25a14.53,14.53,0,0,0,1.62.11,18.74,18.74,0,0,0,3-.16c.51-.06,1-.15,1.53-.25s1-.24,1.45-.38a.25.25,0,0,0,.18-.31.25.25,0,0,0-.31-.18,10.59,10.59,0,0,1-1.76.37h.07a17.46,17.46,0,0,1-2,.13,19.1,19.1,0,0,1-2.27-.17h.13a20,20,0,0,1-4.87-1.25l.09,0L76,217a.75.75,0,0,0-.34-.09l-.15,0"/><path class="cls-13" d="M77.62,216c.74-2.94-.08-5.69-1.83-6.13s-3.76,1.59-4.51,4.54.08,5.69,1.83,6.13,3.77-1.6,4.51-4.54"/><path class="cls-12" d="M161.67,114.5a7.12,7.12,0,0,1,1.44.15,7.25,7.25,0,0,1,2.37,1,10.51,10.51,0,0,1,2.13,1.71,12.83,12.83,0,0,1,1.79,2.29,14.67,14.67,0,0,1,1.33,2.72,14.48,14.48,0,0,1,.77,2.86,14.9,14.9,0,0,1,.19,2.93,12.43,12.43,0,0,1-.55,3.12,17.46,17.46,0,0,1-1.42,3.25,21.08,21.08,0,0,1-2.16,3.1,22.21,22.21,0,0,1-5.72,4.87,22.65,22.65,0,0,1-5.34,2.36c.48.36.93.76,1.43,1.21,1.17,1.05,2.37,2.24,3.56,3.52a49.64,49.64,0,0,1,3.64,4.35,26.5,26.5,0,0,1,2.75,4.48,9.18,9.18,0,0,1,1,4.32,5.36,5.36,0,0,1-.5,2,3.76,3.76,0,0,1-.45.74,2.48,2.48,0,0,1-.61.6,1.59,1.59,0,0,1-.85.23,1.89,1.89,0,0,1-.53-.08,3.25,3.25,0,0,1-1.23-.72,7,7,0,0,1-1-1.08,19.88,19.88,0,0,1-1.19-1.66c-.74-1.12-1.48-2.39-2.34-4-.72-1.35-1.45-2.81-2.31-4.58-.47-1-.94-1.95-1.4-2.94l-.21-.45-.44-.92-.15-.33c-.32-.67-.63-1.33-1-2,.07,1.21.07,2.59,0,4.59a82.46,82.46,0,0,1-.83,9.91,44.66,44.66,0,0,1-1,4.91,22.79,22.79,0,0,1-1.58,4.26,10.64,10.64,0,0,1-2.24,3.14,6,6,0,0,1-3.07,1.57,6.7,6.7,0,0,1-1.09.1,4.65,4.65,0,0,1-2.21-.52,3.45,3.45,0,0,1-1.61-2.2,8.79,8.79,0,0,1,0-3.35,22.93,22.93,0,0,1,1-3.93c.57-1.66,1.28-3.28,1.83-4.51.64-1.39,1.36-2.87,2.2-4.5,1.23-2.37,2.56-4.75,3.85-7l.4-.72.17-.3c.29-.51.57-1,.85-1.53a23,23,0,0,1-3.59.85,23.24,23.24,0,0,1-3.41.26h-.65a20,20,0,0,1-4-.53,18.1,18.1,0,0,1-3.74-1.33,11.36,11.36,0,0,1-2.22-1.35,20.86,20.86,0,0,1-4-4.17,23.25,23.25,0,0,1-3-5.4,15.12,15.12,0,0,1-1.15-5.72,9.74,9.74,0,0,1,.42-2.73,8,8,0,0,1,1.34-2.47,9.39,9.39,0,0,1,4.71-3,8.74,8.74,0,0,1,2.48-.34,9.75,9.75,0,0,1,2.48.32,13.94,13.94,0,0,1,4.65,2.37,32,32,0,0,1,7.82,8.75,44.54,44.54,0,0,1,2.58,4.61,35.3,35.3,0,0,1-.29-6.52,34.56,34.56,0,0,1,.94-7,19.83,19.83,0,0,1,1-3,13.12,13.12,0,0,1,1.67-2.83,11.51,11.51,0,0,1,1.14-1.33,10.48,10.48,0,0,1,1.31-1.08,6.59,6.59,0,0,1,2.5-1.06,5.82,5.82,0,0,1,1.27-.13m-2,21.17a24.75,24.75,0,0,0,1.77-6.06,12.14,12.14,0,0,0,0-2.75,8.86,8.86,0,0,0-.56-2,4.09,4.09,0,0,0-.44-.81l-.17-.17-.09,0-.06.07-.17.21a7.57,7.57,0,0,0-.76,1.41,19.64,19.64,0,0,0-.84,2.56,26,26,0,0,0-.54,2.87l0,.1c-.18,1.51-.29,3-.41,4.52q-.06,1-.15,1.92c-.09,1.13-.21,2.23-.37,3.27,0,.17-.05.35-.08.52a3.89,3.89,0,0,1,.37-.77l.08-.14a42.9,42.9,0,0,0,2.41-4.79Zm-7.88,6.78-.09-.08c-.89-1.1-1.8-2.18-2.72-3.25-1.13-1.31-2.24-2.52-3.39-3.68a36.11,36.11,0,0,0-3.63-3.32l-.08-.07a14.93,14.93,0,0,0-3.12-1.94,5.59,5.59,0,0,0-1.31-.39l-.48,0a2.17,2.17,0,0,0-.36,0,2.33,2.33,0,0,0-.58.16,2.59,2.59,0,0,0-.43.26,3.7,3.7,0,0,0-.47.49,5,5,0,0,0-.48.86,5.11,5.11,0,0,0-.25.87,4.69,4.69,0,0,0,0,.75,4.4,4.4,0,0,0,.24.86,5.1,5.1,0,0,0,.61,1,9.91,9.91,0,0,0,1.53,1.49l.08.06a25.48,25.48,0,0,0,5.09,2.81,55,55,0,0,0,6.47,2.22c.92.26,1.85.51,2.77.74Z"/><path class="cls-11" d="M164.72,127.46a25.44,25.44,0,0,1-.56,4.43,22.68,22.68,0,0,1-1.55,4.58,16.53,16.53,0,0,1-2.53,3.92,11.89,11.89,0,0,1-1.71,1.62c-.29.24-.59.45-.9.66a9.53,9.53,0,0,1-1.08.6.59.59,0,0,1-.45.06.61.61,0,0,1-.36-.27.6.6,0,0,1,.22-.81,14.91,14.91,0,0,0,1.66-1.1,16.91,16.91,0,0,0,2.72-2.76,21.61,21.61,0,0,0,1.38-2,21.21,21.21,0,0,0,1.22-2.43.69.69,0,0,0,0,.1,20.07,20.07,0,0,0,1.34-4.88v.05c.07-.57.12-1.14.14-1.72a.25.25,0,0,1,.25-.25.26.26,0,0,1,.25.25m-7.21,13.65,0,0,0,0m-.07,0-.06.05.06-.05"/><path class="cls-11" d="M163.78,138a.26.26,0,0,1,.09.34,12,12,0,0,1-1.37,1.9,13.11,13.11,0,0,1-1.82,1.67,14.38,14.38,0,0,1-2.16,1.38,8.23,8.23,0,0,1-2.25.83.53.53,0,0,1-.67-.38.53.53,0,0,1,.38-.66,15.6,15.6,0,0,0,2.41-.74,13,13,0,0,0,2.54-1.5,12.47,12.47,0,0,0,2-1.94s0,0-.05.05a8.19,8.19,0,0,0,.59-.86.24.24,0,0,1,.21-.13.28.28,0,0,1,.13,0"/><path class="cls-11" d="M134.45,138.45a30.28,30.28,0,0,0,3.52,1.74l-.05,0a33.52,33.52,0,0,0,3.92,1.34,29.87,29.87,0,0,0,4.11.81h0c.56.07,1.12.13,1.67.16s1.2.06,1.8.06a26.1,26.1,0,0,0,3.3-.2h.14l.2,0a.7.7,0,0,1,.38.1.78.78,0,0,1,.35.45.81.81,0,0,1-.08.59.74.74,0,0,1-.45.34,16.85,16.85,0,0,1-4.81.22c-.82-.08-1.65-.2-2.47-.36s-1.73-.4-2.59-.65a41.51,41.51,0,0,1-9.15-4.1.26.26,0,0,1-.09-.35.27.27,0,0,1,.22-.12.19.19,0,0,1,.12,0m18.34,3.87h-.12l.12,0h0M138,140.2h0"/><path class="cls-11" d="M153,144.07a.63.63,0,0,1,.39.3.65.65,0,0,1,.07.49.62.62,0,0,1-.3.39,15,15,0,0,1-2.75.9c-.52.11-1,.19-1.56.25s-1.07.1-1.62.12a21.4,21.4,0,0,1-3-.16c-.51-.07-1-.16-1.53-.26s-1-.24-1.45-.38a.25.25,0,0,1-.18-.31.26.26,0,0,1,.31-.18,11.74,11.74,0,0,0,1.76.38l-.07,0a15.52,15.52,0,0,0,2,.13,17.21,17.21,0,0,0,2.27-.17l-.13,0a20.54,20.54,0,0,0,4.87-1.26l-.09,0,.47-.2a.75.75,0,0,1,.34-.09l.15,0"/><path class="cls-13" d="M150.87,143.15c-.74-2.94.08-5.69,1.83-6.13s3.77,1.59,4.51,4.54-.08,5.69-1.83,6.13-3.76-1.59-4.51-4.54"/><path class="cls-12" d="M163.71,243.32a7.13,7.13,0,0,1,1.45.14,7.57,7.57,0,0,1,2.37,1,10.87,10.87,0,0,1,2.13,1.71,13.8,13.8,0,0,1,1.79,2.3,15.21,15.21,0,0,1,1.33,2.71,15.5,15.5,0,0,1,1,5.79,12.43,12.43,0,0,1-.55,3.12,16.62,16.62,0,0,1-1.43,3.25,20.24,20.24,0,0,1-2.15,3.1,22.09,22.09,0,0,1-5.73,4.87,22.84,22.84,0,0,1-5.33,2.37,18.22,18.22,0,0,1,1.43,1.2c1.17,1.06,2.37,2.24,3.56,3.52a49.64,49.64,0,0,1,3.64,4.35,27.92,27.92,0,0,1,2.75,4.49,9.16,9.16,0,0,1,1,4.32,5.36,5.36,0,0,1-.5,2,4.31,4.31,0,0,1-.45.74,2.2,2.2,0,0,1-.62.6,1.53,1.53,0,0,1-.84.23A1.88,1.88,0,0,1,168,295a3.41,3.41,0,0,1-1.23-.73,7.67,7.67,0,0,1-1-1.08c-.39-.49-.78-1-1.19-1.66-.73-1.12-1.47-2.39-2.33-4-.72-1.35-1.46-2.8-2.31-4.57-.47-1-.94-2-1.4-2.94l-.21-.45-.44-.92-.16-.34c-.31-.66-.62-1.33-.95-2,.07,1.22.07,2.59,0,4.59a82.11,82.11,0,0,1-.83,9.91,42.36,42.36,0,0,1-1,4.91,22.21,22.21,0,0,1-1.57,4.27,10.76,10.76,0,0,1-2.24,3.13,5.93,5.93,0,0,1-3.07,1.57,5.74,5.74,0,0,1-1.09.1,4.54,4.54,0,0,1-2.21-.52,3.4,3.4,0,0,1-1.61-2.2,8.79,8.79,0,0,1,0-3.35,22.93,22.93,0,0,1,1-3.93c.57-1.66,1.28-3.28,1.83-4.5.64-1.4,1.35-2.87,2.2-4.5,1.23-2.38,2.56-4.75,3.85-7.05l.4-.71.17-.31c.28-.5.57-1,.84-1.53a20.77,20.77,0,0,1-3.58.85,22.06,22.06,0,0,1-3.41.27h-.65a21.71,21.71,0,0,1-4-.53,18.28,18.28,0,0,1-3.73-1.34,11.81,11.81,0,0,1-2.22-1.34,21.13,21.13,0,0,1-4-4.17,23.46,23.46,0,0,1-3-5.4,15,15,0,0,1-1.15-5.72,9.34,9.34,0,0,1,.42-2.73,7.69,7.69,0,0,1,1.34-2.48,9.41,9.41,0,0,1,4.7-3.05,9.19,9.19,0,0,1,2.49-.34,9.75,9.75,0,0,1,2.48.32,14,14,0,0,1,4.64,2.37,32,32,0,0,1,7.83,8.75,44.54,44.54,0,0,1,2.58,4.61,38.6,38.6,0,0,1,.64-13.53,21,21,0,0,1,1-3,13.86,13.86,0,0,1,1.68-2.83,12.35,12.35,0,0,1,1.13-1.33,10.34,10.34,0,0,1,1.31-1.07,6.52,6.52,0,0,1,3.77-1.19m-2,21.16a24.26,24.26,0,0,0,1.76-6.06,11.58,11.58,0,0,0,0-2.75,8.32,8.32,0,0,0-.55-2,4.56,4.56,0,0,0-.44-.8l-.17-.17h-.09l-.06.08-.18.2a8.49,8.49,0,0,0-.75,1.41,20.9,20.9,0,0,0-.85,2.57,28,28,0,0,0-.53,2.86l0,.1c-.18,1.51-.3,3-.41,4.52-.05.64-.1,1.29-.15,1.92-.09,1.13-.22,2.23-.37,3.28,0,.17,0,.34-.08.51a3.89,3.89,0,0,1,.37-.77l.08-.13a43,43,0,0,0,2.41-4.8Zm-7.88,6.78-.09-.08c-.9-1.1-1.8-2.18-2.72-3.25-1.13-1.31-2.24-2.51-3.39-3.68a37.35,37.35,0,0,0-3.63-3.32l-.08-.07a15.64,15.64,0,0,0-3.12-1.94,6.11,6.11,0,0,0-1.31-.39l-.48,0-.36,0a3.44,3.44,0,0,0-.58.16,2.76,2.76,0,0,0-.44.27,3.14,3.14,0,0,0-.46.49,4.62,4.62,0,0,0-.49.85,4.23,4.23,0,0,0-.24.88,4.57,4.57,0,0,0,0,.74,4.22,4.22,0,0,0,.24.86,4.83,4.83,0,0,0,.61,1,9.94,9.94,0,0,0,1.53,1.5l.08.06a25.71,25.71,0,0,0,5.09,2.81,56.17,56.17,0,0,0,6.47,2.22c.92.26,1.84.5,2.77.74Z"/><path class="cls-11" d="M166.77,256.28a25.33,25.33,0,0,1-.56,4.42,22.26,22.26,0,0,1-1.55,4.58,16.59,16.59,0,0,1-2.53,3.93,13.11,13.11,0,0,1-1.71,1.62c-.29.23-.59.45-.9.65a8.2,8.2,0,0,1-1.08.6.62.62,0,0,1-.46.07.64.64,0,0,1-.35-.28.6.6,0,0,1,.21-.8,14.46,14.46,0,0,0,1.66-1.1,16.64,16.64,0,0,0,2.73-2.77,20.26,20.26,0,0,0,1.38-2,19.64,19.64,0,0,0,1.21-2.43l0,.1a20.73,20.73,0,0,0,1.34-4.89.07.07,0,0,1,0,.05,16.44,16.44,0,0,0,.15-1.71.25.25,0,0,1,.25-.25.25.25,0,0,1,.25.25m-7.21,13.65-.05,0,.05,0m-.07.05-.06,0,.06,0"/><path class="cls-11" d="M165.83,266.82a.27.27,0,0,1,.09.35,12.63,12.63,0,0,1-1.37,1.89,13.18,13.18,0,0,1-1.82,1.68,15.15,15.15,0,0,1-2.16,1.37,8.26,8.26,0,0,1-2.25.84.56.56,0,0,1-.42-.06.5.5,0,0,1-.25-.32.55.55,0,0,1,.38-.67,14.18,14.18,0,0,0,2.4-.74,12.55,12.55,0,0,0,2.55-1.5,12.05,12.05,0,0,0,2-1.94l0,0a8.7,8.7,0,0,0,.59-.86.24.24,0,0,1,.21-.12.31.31,0,0,1,.13,0"/><path class="cls-11" d="M136.5,267.26A28.76,28.76,0,0,0,140,269H140a34.74,34.74,0,0,0,3.92,1.33,28.45,28.45,0,0,0,4.11.81h0c.56.06,1.11.12,1.67.16s1.2,0,1.79,0a26.13,26.13,0,0,0,3.31-.19l.11,0h0l.2,0a.83.83,0,0,1,.38.1.84.84,0,0,1,.35.46.79.79,0,0,1-.08.58.68.68,0,0,1-.45.34,16.86,16.86,0,0,1-4.81.23c-.82-.08-1.65-.2-2.47-.36s-1.73-.41-2.59-.66a40.6,40.6,0,0,1-9.15-4.1.25.25,0,0,1-.09-.34.24.24,0,0,1,.21-.12.28.28,0,0,1,.13,0m18.34,3.87-.11,0h0l.12,0h0M140.05,269l0,0,0,0"/><path class="cls-11" d="M155.06,272.88a.64.64,0,0,1,.39.31.58.58,0,0,1,.06.48.55.55,0,0,1-.29.39,15,15,0,0,1-2.75.9c-.52.12-1,.19-1.56.26s-1.08.09-1.62.11a20,20,0,0,1-3-.16c-.52-.07-1-.15-1.54-.26a14.54,14.54,0,0,1-1.44-.38.25.25,0,1,1,.12-.48,12.11,12.11,0,0,0,1.77.37h-.07a16.19,16.19,0,0,0,4.31-.05l-.13,0a20.54,20.54,0,0,0,4.87-1.26l-.09,0,.47-.21a.91.91,0,0,1,.34-.09l.15,0"/><path class="cls-13" d="M152.92,272c-.74-3,.08-5.7,1.83-6.14s3.76,1.6,4.51,4.54-.08,5.69-1.83,6.13-3.77-1.59-4.51-4.53"/></g></g></svg>